<svg width="125" height="53" viewBox="0 0 125 53" fill="none" xmlns="http://www.w3.org/2000/svg">
<path d="M44.4498 31.2617C45.4035 31.2617 46.2706 31.0276 47.0537 30.5594C47.8355 30.0923 48.4606 29.4662 48.9288 28.6843C49.397 27.9001 49.6311 27.0341 49.6311 26.0804C49.6311 25.1267 49.397 24.2584 48.9288 23.4765C48.4606 22.6923 47.8355 22.0673 47.0537 21.5991C46.2695 21.132 45.4035 20.8979 44.4498 20.8979H35.7432V39.1899H38.7957V31.2628H40.6708L46.4413 39.1899H50.218L44.4486 31.2628L44.4498 31.2617ZM38.7957 30.4579V21.7017H42.2172C43.4257 21.7017 44.4567 22.1296 45.3123 22.9841C46.168 23.8397 46.5958 24.873 46.5958 26.0804C46.5958 27.2878 46.168 28.3107 45.3123 29.1698C44.4567 30.0289 43.4257 30.4591 42.2172 30.4591H38.7957V30.4579Z" fill="white"/>
<path d="M67.3361 21.7005V20.8967H55.1318V39.1887H67.3361V38.3722H58.1832V29.6287H64.2709V28.8122H58.1832V21.7028H67.3361V21.7005Z" fill="white"/>
<path d="M79.7515 20.895H78.8589L70.3311 39.1869H71.2259L74.162 32.8813H81.9748L84.9109 39.1869H88.2805L79.7526 20.895H79.7515ZM74.5448 32.0775L78.0678 24.508L81.5908 32.0775H74.546H74.5448Z" fill="white"/>
<path d="M107.737 20.8952L101.175 32.2564L94.6262 20.8952H91.9853L91.9727 39.1871H92.7891V23.8312L99.8859 36.1231L107.737 22.5154V39.186H110.8V20.894H107.737V20.8952Z" fill="white"/>
<path d="M0.0654297 44.6974H3.18251C3.96437 44.6974 4.65859 44.852 5.26402 45.1622C5.86944 45.4724 6.33995 45.9071 6.67437 46.4676C7.0088 47.028 7.17601 47.6704 7.17601 48.3957C7.17601 49.1211 7.0088 49.7646 6.67437 50.3239C6.33995 50.8843 5.86944 51.3191 5.26402 51.6293C4.65859 51.9395 3.96437 52.094 3.18251 52.094H0.0654297V44.6963V44.6974ZM3.11908 51.1749C3.71759 51.1749 4.2446 51.0584 4.69895 50.8267C5.15331 50.5937 5.50388 50.2685 5.75067 49.8487C5.99745 49.4301 6.12084 48.9458 6.12084 48.3957C6.12084 47.8457 5.99745 47.3625 5.75067 46.9427C5.50388 46.5241 5.15331 46.1977 4.69895 45.9648C4.2446 45.7319 3.71759 45.6165 3.11908 45.6165H1.12291V51.1749H3.12023H3.11908Z" fill="white"/>
<path d="M16.2763 51.1749V52.094H10.9082V44.6963H16.1287V45.6154H11.9657V47.8872H15.6743V48.7855H11.9657V51.1738H16.2775L16.2763 51.1749Z" fill="white"/>
<path d="M20.6449 51.9202C20.1271 51.7472 19.72 51.5235 19.4248 51.2491L19.8157 50.4245C20.0971 50.6782 20.4581 50.8847 20.8986 51.0426C21.3391 51.2006 21.7912 51.2802 22.2559 51.2802C22.8682 51.2802 23.3272 51.1764 23.6293 50.9688C23.9326 50.7613 24.0837 50.4845 24.0837 50.1397C24.0837 49.886 24.0007 49.6796 23.8358 49.5216C23.6697 49.3624 23.4656 49.2414 23.2234 49.1572C22.9801 49.073 22.6364 48.9773 22.1936 48.8723C21.6366 48.7386 21.188 48.6048 20.8467 48.471C20.5053 48.3373 20.2124 48.1308 19.9691 47.8529C19.7258 47.575 19.6047 47.1991 19.6047 46.7274C19.6047 46.333 19.7085 45.9767 19.9161 45.6607C20.1236 45.3436 20.4396 45.0899 20.8617 44.8996C21.2838 44.7093 21.8096 44.6147 22.4358 44.6147C22.8728 44.6147 23.3018 44.6713 23.7251 44.7843C24.1483 44.8973 24.5104 45.0587 24.8137 45.2709L24.4654 46.1162C24.1552 45.919 23.8242 45.7691 23.4725 45.6676C23.1196 45.5661 22.7748 45.5142 22.4369 45.5142C21.8384 45.5142 21.3887 45.6238 21.09 45.8417C20.7902 46.0597 20.6414 46.3422 20.6414 46.687C20.6414 46.9407 20.7256 47.1472 20.8951 47.3051C21.0646 47.4631 21.2734 47.5865 21.5236 47.6753C21.7739 47.763 22.114 47.8564 22.543 47.9555C23.1 48.0893 23.5475 48.2231 23.8854 48.3569C24.2232 48.4906 24.5138 48.6947 24.7572 48.9692C25.0005 49.2437 25.1216 49.6138 25.1216 50.0786C25.1216 50.466 25.0155 50.8201 24.8044 51.1407C24.5934 51.4612 24.2728 51.7149 23.8427 51.9018C23.4125 52.0886 22.8844 52.182 22.257 52.182C21.7001 52.182 21.1638 52.0955 20.646 51.9237L20.6449 51.9202Z" fill="white"/>
<path d="M28.7764 44.6973H29.8327V52.095H28.7764V44.6973Z" fill="white"/>
<path d="M39.2912 48.354H40.306V51.2393C39.9393 51.5426 39.5138 51.7744 39.0271 51.937C38.5405 52.0984 38.0342 52.1803 37.5049 52.1803C36.7576 52.1803 36.0853 52.0165 35.4868 51.689C34.8883 51.3615 34.4178 50.9106 34.0765 50.3363C33.7351 49.762 33.5645 49.1163 33.5645 48.3967C33.5645 47.6771 33.7351 47.0301 34.0765 46.4524C34.4178 45.8746 34.8906 45.4237 35.4926 45.0997C36.0946 44.7756 36.7726 44.613 37.5268 44.613C38.1184 44.613 38.6558 44.7099 39.1378 44.9036C39.6199 45.0974 40.0304 45.3811 40.3694 45.7547L39.7144 46.4097C39.1228 45.8389 38.4079 45.554 37.5695 45.554C37.0056 45.554 36.5005 45.6751 36.053 45.9184C35.6056 46.1618 35.255 46.4997 35.0013 46.9333C34.7476 47.3669 34.6208 47.8547 34.6208 48.3967C34.6208 48.9387 34.7476 49.4161 35.0013 49.8497C35.255 50.2833 35.6056 50.6235 36.053 50.8691C36.5005 51.1159 37.0021 51.2393 37.5591 51.2393C38.221 51.2393 38.7988 51.0801 39.2924 50.7642V48.3551L39.2912 48.354Z" fill="white"/>
<path d="M50.7985 44.6973V52.095H49.9325L45.4938 46.5793V52.095H44.4375V44.6973H45.3035L49.7422 50.213V44.6973H50.7985Z" fill="white"/>
<path d="M60.6322 51.9202C60.1144 51.7472 59.7073 51.5235 59.4121 51.2491L59.803 50.4245C60.0844 50.6782 60.4454 50.8847 60.8859 51.0426C61.3264 51.2006 61.7785 51.2802 62.2432 51.2802C62.8555 51.2802 63.3145 51.1764 63.6166 50.9688C63.9199 50.7613 64.071 50.4845 64.071 50.1397C64.071 49.886 63.988 49.6796 63.8231 49.5216C63.657 49.3624 63.4529 49.2414 63.2107 49.1572C62.9674 49.073 62.6237 48.9773 62.1809 48.8723C61.6239 48.7386 61.1753 48.6048 60.834 48.471C60.4927 48.3373 60.1997 48.1308 59.9564 47.8529C59.7131 47.575 59.592 47.1991 59.592 46.7274C59.592 46.333 59.6958 45.9767 59.9034 45.6607C60.1109 45.3436 60.4269 45.0899 60.849 44.8996C61.2722 44.7093 61.7969 44.6147 62.4231 44.6147C62.8602 44.6147 63.2891 44.6713 63.7124 44.7843C64.1356 44.8973 64.4977 45.0587 64.801 45.2709L64.4527 46.1162C64.1425 45.919 63.8115 45.7691 63.4598 45.6676C63.1069 45.5661 62.7621 45.5142 62.4242 45.5142C61.8257 45.5142 61.376 45.6238 61.0773 45.8417C60.7775 46.0597 60.6287 46.3422 60.6287 46.687C60.6287 46.9407 60.7129 47.1472 60.8824 47.3051C61.0519 47.4631 61.2607 47.5865 61.5109 47.6753C61.7612 47.763 62.1014 47.8564 62.5303 47.9555C63.0873 48.0893 63.5348 48.2231 63.8727 48.3569C64.2105 48.4906 64.5011 48.6947 64.7445 48.9692C64.9878 49.2437 65.1089 49.6138 65.1089 50.0786C65.1089 50.466 65.0028 50.8201 64.7917 51.1407C64.5807 51.4612 64.2601 51.7149 63.83 51.9018C63.3998 52.0886 62.8717 52.182 62.2443 52.182C61.6874 52.182 61.1511 52.0955 60.6333 51.9237L60.6322 51.9202Z" fill="white"/>
<path d="M70.1267 45.6164H67.5908V44.6973H73.7097V45.6164H71.1738V52.0938H70.1278V45.6164H70.1267Z" fill="white"/>
<path d="M77.598 51.3339C77.0479 50.77 76.7734 49.9604 76.7734 48.903V44.6973H77.8298V48.8614C77.8298 50.4459 78.524 51.2393 79.9113 51.2393C80.587 51.2393 81.1048 51.0433 81.4646 50.6524C81.8244 50.2614 82.0032 49.6641 82.0032 48.8614V44.6973H83.0283V48.903C83.0283 49.9662 82.7539 50.778 82.2038 51.3385C81.6537 51.8989 80.8869 52.1792 79.8997 52.1792C78.9126 52.1792 78.1457 51.8978 77.5957 51.3339H77.598Z" fill="white"/>
<path d="M87.3086 44.6974H90.4257C91.2075 44.6974 91.9018 44.852 92.5072 45.1622C93.1126 45.4724 93.5831 45.9071 93.9175 46.4676C94.252 47.028 94.4192 47.6704 94.4192 48.3957C94.4192 49.1211 94.252 49.7646 93.9175 50.3239C93.5831 50.8843 93.1126 51.3191 92.5072 51.6293C91.9018 51.9395 91.2075 52.094 90.4257 52.094H87.3086V44.6963V44.6974ZM90.3623 51.1749C90.9608 51.1749 91.4878 51.0584 91.9421 50.8267C92.3965 50.5937 92.747 50.2685 92.9938 49.8487C93.2406 49.4301 93.364 48.9458 93.364 48.3957C93.364 47.8457 93.2406 47.3625 92.9938 46.9427C92.747 46.5241 92.3965 46.1977 91.9421 45.9648C91.4878 45.7319 90.9608 45.6165 90.3623 45.6165H88.3649V51.1749H90.3623Z" fill="white"/>
<path d="M98.1514 44.6973H99.2077V52.095H98.1514V44.6973Z" fill="white"/>
<path d="M104.862 51.688C104.263 51.3605 103.793 50.9073 103.451 50.3296C103.11 49.7518 102.939 49.1072 102.939 48.3957C102.939 47.6842 103.11 47.0395 103.451 46.4618C103.793 45.884 104.263 45.432 104.862 45.1033C105.46 44.7758 106.134 44.6121 106.88 44.6121C107.626 44.6121 108.289 44.7758 108.888 45.1033C109.486 45.4308 109.955 45.8817 110.293 46.456C110.631 47.0303 110.801 47.6761 110.801 48.3945C110.801 49.113 110.631 49.7599 110.293 50.3342C109.955 50.9085 109.486 51.3594 108.888 51.6869C108.289 52.0144 107.619 52.1782 106.88 52.1782C106.141 52.1782 105.46 52.0144 104.862 51.6869V51.688ZM108.343 50.8693C108.777 50.6225 109.118 50.2823 109.368 49.8499C109.619 49.4163 109.743 48.9319 109.743 48.3968C109.743 47.8618 109.618 47.3774 109.368 46.9438C109.118 46.5102 108.777 46.1712 108.343 45.9244C107.91 45.6776 107.422 45.5542 106.88 45.5542C106.338 45.5542 105.845 45.6776 105.406 45.9244C104.966 46.1712 104.621 46.5114 104.371 46.9438C104.12 47.3774 103.996 47.8618 103.996 48.3968C103.996 48.9319 104.12 49.4163 104.371 49.8499C104.621 50.2835 104.966 50.6237 105.406 50.8693C105.847 51.1161 106.338 51.2395 106.88 51.2395C107.422 51.2395 107.91 51.1161 108.343 50.8693Z" fill="white"/>
<path d="M124.147 8.00073H35.6719V11.24H124.147V8.00073Z" fill="url(#paint0_linear_190_160)"/>
<path d="M124.147 8.00073H120.906V52.1795H124.147V8.00073Z" fill="url(#paint1_linear_190_160)"/>
<path d="M33.9126 5.57066C31.1011 5.57066 28.8224 7.84936 28.8224 10.6597C28.8224 7.84936 26.5437 5.57066 23.7334 5.57066C26.5449 5.57066 28.8224 3.29195 28.8224 0.480469C28.8224 3.29195 31.1011 5.57066 33.9126 5.57066Z" fill="url(#paint2_linear_190_160)"/>
<path d="M13.6333 23.6148C11.4688 23.6148 9.71364 25.3699 9.71364 27.5345C9.71364 25.3699 7.95849 23.6148 5.79395 23.6148C7.95849 23.6148 9.71364 21.8596 9.71364 19.6951C9.71364 21.8596 11.4688 23.6148 13.6333 23.6148Z" fill="url(#paint3_linear_190_160)"/>
<path d="M9.71342 5.06936C7.54888 5.06936 5.79372 6.82451 5.79372 8.98906C5.79372 6.82451 4.03856 5.06936 1.87402 5.06936C4.03856 5.06936 5.79372 3.3142 5.79372 1.14966C5.79372 3.3142 7.54888 5.06936 9.71342 5.06936Z" fill="url(#paint4_linear_190_160)"/>
<path d="M3.01906 8.04102H0V39.1887H3.01906V8.04102Z" fill="white"/>
<path d="M31.03 23.615C31.03 24.7728 30.9043 25.8995 30.6655 26.9846C30.6413 27.0953 30.6148 27.2037 30.5883 27.3121C30.556 27.4505 30.5202 27.5866 30.4833 27.7238C30.4464 27.8553 30.4084 27.9879 30.3703 28.117C30.2262 28.5956 30.059 29.0638 29.871 29.5228C29.7165 29.9022 29.5446 30.2747 29.3613 30.6402C28.072 33.1853 26.1035 35.3303 23.6933 36.834C23.6184 36.8813 23.5446 36.9263 23.4708 36.9712C21.1298 38.3781 18.3887 39.1877 15.4572 39.1877C12.2756 39.1877 9.3142 38.234 6.85098 36.5942C6.84406 36.5895 6.8406 36.5872 6.83483 36.5838C6.63072 36.4489 6.43237 36.3093 6.23633 36.1652C8.3582 36.0579 10.3417 35.4248 12.0588 34.3927C12.1199 34.3558 12.1787 34.3201 12.2387 34.282C13.5164 33.4828 14.6408 32.4634 15.5564 31.2745C15.6245 31.1857 15.6902 31.098 15.7559 31.0069C15.7951 30.9527 15.8332 30.8985 15.8724 30.842C15.877 30.8374 15.8793 30.834 15.8816 30.8293C15.9946 30.6691 16.103 30.5053 16.208 30.3381C16.2783 30.2308 16.3452 30.1201 16.4109 30.0106C16.4132 30.0048 16.4179 30.0002 16.4202 29.9933C16.4824 29.8883 16.5424 29.7834 16.6012 29.6762C16.6324 29.6208 16.6635 29.5631 16.6935 29.5066C16.7546 29.3925 16.8134 29.2783 16.8688 29.163C16.8999 29.103 16.9287 29.0431 16.9576 28.9819C16.9829 28.9277 17.0083 28.8747 17.0325 28.8205C17.0429 28.7986 17.0533 28.7767 17.0636 28.7524C17.1086 28.6544 17.1513 28.5553 17.1917 28.4561C17.2424 28.3361 17.2897 28.2162 17.3358 28.094C17.3831 27.9729 17.4281 27.8507 17.4707 27.7261C17.4915 27.6638 17.5134 27.6027 17.533 27.5393C17.5538 27.4782 17.5722 27.4159 17.5918 27.3525C17.6126 27.2902 17.631 27.2268 17.6495 27.1634C17.6691 27.1034 17.6864 27.0411 17.7025 26.98C17.7048 26.9742 17.7048 26.9708 17.7083 26.965C17.7244 26.9039 17.7406 26.8439 17.7556 26.784C17.7729 26.7205 17.7879 26.6559 17.8028 26.5902C17.819 26.5268 17.834 26.4622 17.849 26.3988C17.8593 26.3504 17.8709 26.2996 17.8801 26.2489C17.8951 26.182 17.9089 26.1151 17.9228 26.0471C17.9539 25.8902 17.9816 25.7345 18.0058 25.5766C18.0139 25.5235 18.0219 25.4705 18.03 25.4163C18.0381 25.3621 18.045 25.3079 18.0519 25.2514C18.0531 25.241 18.0565 25.2283 18.0577 25.2156C18.0646 25.1556 18.0727 25.0934 18.0796 25.0323C18.0796 25.0299 18.0808 25.0253 18.0808 25.023C18.0888 24.9538 18.0958 24.8846 18.1015 24.8143C18.1084 24.7405 18.1154 24.6655 18.1211 24.5894C18.128 24.5295 18.1303 24.4706 18.1338 24.4095C18.1384 24.3726 18.1407 24.3369 18.1407 24.3011C18.1453 24.2342 18.1476 24.1697 18.15 24.1039C18.1523 24.044 18.1546 23.9875 18.1557 23.9286C18.1569 23.8929 18.158 23.8595 18.158 23.8237C18.1592 23.7545 18.1592 23.6853 18.1592 23.6138C18.1592 23.5423 18.1592 23.4731 18.158 23.4039C18.158 23.3659 18.1569 23.3267 18.1557 23.2886C18.1546 23.2333 18.1534 23.1768 18.15 23.1214C18.1453 23.0303 18.1419 22.9392 18.1361 22.8493C18.1315 22.7801 18.128 22.7109 18.1211 22.6428C18.1223 22.6382 18.1211 22.6348 18.1211 22.6302C18.1154 22.5564 18.1084 22.4837 18.1015 22.4099C18.0946 22.3257 18.0854 22.2427 18.0761 22.1597C18.0738 22.1447 18.0715 22.1285 18.0704 22.1147C18.0646 22.0766 18.0612 22.0397 18.0565 22.0017C18.0485 21.9336 18.0392 21.8667 18.0277 21.7999C18.0185 21.7272 18.007 21.6557 17.9954 21.5831C17.7002 19.7564 17.0094 18.0612 16.0119 16.5874C15.975 16.5321 15.937 16.4767 15.8989 16.4225C15.8597 16.3637 15.817 16.3061 15.7767 16.2472C15.7156 16.1642 15.6544 16.0812 15.5922 15.9993C14.6892 14.8138 13.5787 13.7944 12.316 12.9929C12.2479 12.9491 12.1787 12.9053 12.1095 12.8638C10.3809 11.8132 8.37896 11.1697 6.23633 11.0613C6.43237 10.9172 6.63072 10.7765 6.83483 10.6427C6.8406 10.6381 6.84406 10.6358 6.85098 10.6323C9.3142 8.99251 12.2756 8.03882 15.4572 8.03882C18.4152 8.03882 21.1782 8.8622 23.5331 10.2922C23.6184 10.3452 23.706 10.3982 23.7902 10.4536C26.1185 11.9297 28.0236 14.0066 29.2979 16.464C29.3382 16.5425 29.3797 16.6232 29.4189 16.7039C29.4628 16.7938 29.5066 16.8826 29.5481 16.9703C29.6323 17.1502 29.713 17.3289 29.7914 17.5123C29.9194 17.8144 30.0394 18.12 30.1489 18.4325C30.2573 18.7416 30.3565 19.0553 30.4464 19.3712C30.4903 19.5281 30.5318 19.6872 30.5721 19.8463C30.5721 19.8487 30.5733 19.8533 30.5744 19.8556C30.6137 20.0147 30.6506 20.1739 30.6851 20.3353C30.7543 20.6605 30.8143 20.9892 30.8639 21.3213C30.8858 21.4654 30.9043 21.6084 30.9216 21.7537C30.9954 22.3638 31.0323 22.983 31.0323 23.6138L31.03 23.615Z" fill="url(#paint5_linear_190_160)"/>
<path d="M10.953 8.04102C9.38352 8.49191 7.88783 9.18268 6.51092 10.0983C6.49708 10.1064 6.4844 10.1145 6.47287 10.1237C6.27682 10.2528 6.07617 10.3935 5.86052 10.5527L5.149 11.0762H0V8.04102H10.953Z" fill="white"/>
<path d="M6.51092 37.1317C7.88783 38.0461 9.38468 38.7357 10.953 39.1878H0V36.1526H5.149L5.86052 36.6761C6.07847 36.8364 6.27798 36.9771 6.47287 37.1051C6.4844 37.1144 6.49708 37.1224 6.51092 37.1317Z" fill="white"/>
<defs>
<linearGradient id="paint0_linear_190_160" x1="80.6521" y1="-4.817" x2="78.069" y2="45.3964" gradientUnits="userSpaceOnUse">
<stop stop-color="#5B1D14"/>
<stop offset="0.08" stop-color="#934E1F"/>
<stop offset="0.38" stop-color="#D09D51"/>
<stop offset="0.56" stop-color="#FFF6E3"/>
<stop offset="0.8" stop-color="#DCBA93"/>
<stop offset="0.9" stop-color="#B47A37"/>
<stop offset="0.96" stop-color="#9F5805"/>
</linearGradient>
<linearGradient id="paint1_linear_190_160" x1="124.207" y1="-2.57634" x2="121.624" y2="47.6382" gradientUnits="userSpaceOnUse">
<stop stop-color="#5B1D14"/>
<stop offset="0.08" stop-color="#934E1F"/>
<stop offset="0.38" stop-color="#D09D51"/>
<stop offset="0.56" stop-color="#FFF6E3"/>
<stop offset="0.8" stop-color="#DCBA93"/>
<stop offset="0.9" stop-color="#B47A37"/>
<stop offset="0.96" stop-color="#9F5805"/>
</linearGradient>
<linearGradient id="paint2_linear_190_160" x1="29.4924" y1="-7.45003" x2="26.9093" y2="42.7646" gradientUnits="userSpaceOnUse">
<stop stop-color="#5B1D14"/>
<stop offset="0.08" stop-color="#934E1F"/>
<stop offset="0.38" stop-color="#D09D51"/>
<stop offset="0.56" stop-color="#FFF6E3"/>
<stop offset="0.8" stop-color="#DCBA93"/>
<stop offset="0.9" stop-color="#B47A37"/>
<stop offset="0.96" stop-color="#9F5805"/>
</linearGradient>
<linearGradient id="paint3_linear_190_160" x1="11.3592" y1="-8.38285" x2="8.7761" y2="41.8317" gradientUnits="userSpaceOnUse">
<stop stop-color="#5B1D14"/>
<stop offset="0.08" stop-color="#934E1F"/>
<stop offset="0.38" stop-color="#D09D51"/>
<stop offset="0.56" stop-color="#FFF6E3"/>
<stop offset="0.8" stop-color="#DCBA93"/>
<stop offset="0.9" stop-color="#B47A37"/>
<stop offset="0.96" stop-color="#9F5805"/>
</linearGradient>
<linearGradient id="paint4_linear_190_160" x1="6.49832" y1="-8.63287" x2="3.91517" y2="41.5817" gradientUnits="userSpaceOnUse">
<stop stop-color="#5B1D14"/>
<stop offset="0.08" stop-color="#934E1F"/>
<stop offset="0.38" stop-color="#D09D51"/>
<stop offset="0.56" stop-color="#FFF6E3"/>
<stop offset="0.8" stop-color="#DCBA93"/>
<stop offset="0.9" stop-color="#B47A37"/>
<stop offset="0.96" stop-color="#9F5805"/>
</linearGradient>
<linearGradient id="paint5_linear_190_160" x1="19.9443" y1="-7.94096" x2="17.3612" y2="42.2736" gradientUnits="userSpaceOnUse">
<stop stop-color="#5B1D14"/>
<stop offset="0.08" stop-color="#934E1F"/>
<stop offset="0.38" stop-color="#D09D51"/>
<stop offset="0.56" stop-color="#FFF6E3"/>
<stop offset="0.8" stop-color="#DCBA93"/>
<stop offset="0.9" stop-color="#B47A37"/>
<stop offset="0.96" stop-color="#9F5805"/>
</linearGradient>
</defs>
</svg>
