<svg width="203" height="40" viewBox="0 0 203 40" fill="none" xmlns="http://www.w3.org/2000/svg">
<path d="M11.8116 6.22892C6.68174 9.61331 1.3107 11.9022 0.311907 12.3167L25.641 30.0567C25.6538 30.0656 25.6643 30.0776 25.6714 30.0916C25.6786 30.1055 25.6821 30.121 25.6819 30.1367V30.1378C25.6818 30.1537 25.6777 30.1694 25.6701 30.1834C25.6624 30.1973 25.6515 30.2092 25.6381 30.2178L24.5075 30.9622C24.4913 30.9727 24.4725 30.9781 24.4532 30.9779C24.434 30.9777 24.4152 30.9719 24.3993 30.961L15.1493 24.5941C11.6199 22.2096 7.72659 22.7157 5.08309 23.5607C2.54552 24.3707 0.675733 25.6113 0.212891 25.9348C0.434525 26.0903 19.3466 39.3072 19.4738 39.397C19.882 39.0136 22.6527 36.4835 28.4762 32.8907C34.6169 29.1079 38.2373 27.7856 39.0749 27.5058L13.6992 9.73593C13.6864 9.72702 13.6759 9.71513 13.6687 9.7013C13.6615 9.68747 13.6577 9.67209 13.6578 9.65649V9.65534C13.6579 9.6395 13.662 9.62395 13.6695 9.61001C13.677 9.59607 13.6878 9.58417 13.7009 9.57532L14.7809 8.85918C14.7967 8.84876 14.8152 8.8432 14.8342 8.8432C14.8531 8.8432 14.8716 8.84876 14.8874 8.85918C14.9214 8.88105 18.3236 11.1147 24.4396 15.4207C30.1739 19.455 38.1717 14.6171 39.2712 13.9148C39.0387 13.7541 19.8267 0.369135 19.7052 0.283936C19.2245 0.693816 15.6807 3.68387 11.8116 6.22892Z" fill="#D52B1E"/>
<path d="M106.729 9.19653V14.8491H119.341C119.366 14.8494 119.391 14.8597 119.409 14.8777C119.427 14.8958 119.437 14.9202 119.437 14.9458C119.437 14.9723 119.427 14.9976 119.406 15.0166L106.285 27.2681V32.0318H132.794V26.3551H119.596C119.577 26.355 119.558 26.3491 119.542 26.3381C119.526 26.3271 119.513 26.3116 119.506 26.2935C119.499 26.2753 119.498 26.2554 119.502 26.2365C119.506 26.2175 119.516 26.2003 119.531 26.187C119.531 26.187 132.778 14.0259 132.84 13.9677V9.19538C132.65 9.19653 106.92 9.19653 106.729 9.19653ZM96.1071 9.19653V23.7029C96.1071 25.8226 94.2465 27.0879 91.1298 27.0879C87.9682 27.0879 86.1543 25.8335 86.1543 23.646V9.19711H78.0148V24.11C78.0148 27.2813 78.8231 29.2697 80.6359 30.5552C82.6196 31.9639 85.9539 32.6196 91.1293 32.6196C96.3051 32.6196 99.64 31.9639 101.624 30.5552C103.437 29.2697 104.245 27.2808 104.245 24.11V9.19711L96.1071 9.19653ZM153.305 9.19653V23.6442C153.305 25.8007 151.446 27.0873 148.331 27.0873C145.165 27.0873 143.351 25.8329 143.351 23.6454V9.19653H135.214V24.1094C135.214 27.2808 136.023 29.2691 137.836 30.5546C139.82 31.9633 143.155 32.619 148.331 32.619C153.504 32.619 156.838 31.9633 158.825 30.5546C160.637 29.2686 161.447 27.2802 161.447 24.1094V9.19653H153.305ZM194.357 9.19653V32.033H202.859V9.19653H194.357ZM181.705 9.19653C181.65 9.24259 172.488 17.1224 172.488 17.1224C172.474 17.1346 172.457 17.1424 172.438 17.1449C172.42 17.1475 172.401 17.1447 172.385 17.1368C172.367 17.1293 172.353 17.117 172.343 17.1013C172.333 17.0857 172.327 17.0674 172.328 17.0487V9.19653H163.827V32.033H172.328V23.9632C172.328 23.9252 172.35 23.8889 172.387 23.8745C172.404 23.8672 172.423 23.8651 172.442 23.8683C172.46 23.8716 172.478 23.8801 172.492 23.8929C172.492 23.8929 180.995 31.9794 181.05 32.033H192.441L179.917 20.3871C179.907 20.3781 179.899 20.3672 179.894 20.355C179.888 20.3428 179.885 20.3296 179.886 20.3163V20.314C179.886 20.2869 179.898 20.2604 179.92 20.242L192.845 9.19596L181.705 9.19653ZM48.6664 16.0753C48.6664 18.5581 49.6266 20.2426 51.6881 21.3743C53.5844 22.4157 56.4339 23.0645 61.2166 23.5446L62.1205 23.6224C64.1935 23.7876 66.5428 23.9741 66.5428 25.6729C66.5428 26.8363 65.2803 27.4788 62.988 27.4788C61.8683 27.4788 60.2248 27.1956 58.8477 24.7835H48.1799C48.2041 27.4281 49.1839 29.2432 51.2661 30.4827C53.6154 31.8821 57.4437 32.5614 62.9707 32.5614C75.2971 32.5614 76.255 26.8202 76.255 25.061C76.255 20.9806 72.619 18.5305 65.1381 17.5726L63.9632 17.4241C60.5494 16.9998 57.853 16.6648 57.853 15.4668C57.853 15.0034 58.0061 14.6154 58.3078 14.3143C59.0964 13.5262 60.7227 13.5285 61.417 13.5291H61.482C62.121 13.5291 64.3092 13.7202 65.8042 16.13H75.4721C75.4036 11.3075 70.3284 8.54199 61.5143 8.54199C49.9185 8.54142 48.6664 13.8094 48.6664 16.0753Z" fill="#003478"/>
</svg>
