<svg width="121" height="65" viewBox="0 0 121 65" fill="none" xmlns="http://www.w3.org/2000/svg">
<path fill-rule="evenodd" clip-rule="evenodd" d="M24.0486 48.8791C20.2469 48.8021 14.1235 45.1765 11.8953 42.233C10.2283 40.1149 9.48553 39.2841 8.27515 36.4892C5.21619 29.3865 6.69615 20.9249 11.3341 15.4121C12.6325 13.8276 15.6034 11.0328 17.2705 10.5761C16.9899 9.44276 16.2526 8.68902 15.6915 7.62719C15.1358 6.57086 14.6737 5.66308 14.1125 4.60674C11.4221 5.21193 6.41556 10.2735 4.64951 13.0684C-0.527615 21.0734 -1.55094 31.2736 2.43781 40.0379C2.89996 41.2482 3.82975 42.9868 4.66601 43.9661C8.19262 48.3455 10.2338 50.7662 15.4274 53.2585C15.8895 53.4841 16.1701 53.5611 16.5387 53.7096C18.5799 54.6174 21.7324 55.6738 24.0541 55.6738V61.115H30.8267V55.6738C33.7977 55.6738 37.7809 54.0893 40.3832 52.7248C41.7752 51.8941 42.98 51.2119 44.1849 50.2326C54.3796 41.7764 57.9062 28.0276 52.1569 16.5455C51.6948 15.5607 50.0222 12.9199 49.373 12.0121L47.6125 9.8939C46.0335 8.00681 42.6939 5.58605 40.3777 4.30415C35.0906 1.43225 30.4526 0.904083 24.0486 0.904083V48.8791ZM30.8212 48.8791V8.00681C33.0494 9.06314 39.4479 9.36574 44.4545 16.694C49.186 23.6427 49.2795 32.8636 44.548 39.9663L41.5771 43.5149C38.8923 46.0072 34.2543 48.8021 30.8212 48.8791Z" fill="#BE7B3C"/>
<path d="M93.9315 56.7191C93.9315 56.532 93.9755 56.3284 94.0251 56.1579C94.2891 55.1346 95.1584 54.4634 96.0882 54.4634C97.5352 54.4634 98.3219 55.7508 98.3219 57.2582C98.3219 58.9803 97.4856 60.1631 96.0387 60.1631C95.0594 60.1631 94.2396 59.5084 93.9866 58.5621C93.9535 58.3916 93.926 58.2045 93.926 58.001V56.7191H93.9315ZM92.5781 64.1409H93.9315V60.0586H93.9645C94.4157 60.8013 95.285 61.2415 96.2808 61.2415C98.0523 61.2415 99.6973 59.9046 99.6973 57.2032C99.6973 54.92 98.3329 53.385 96.5118 53.385C95.285 53.385 94.3992 53.9297 93.8435 54.843H93.8105L93.75 53.5556H92.5231C92.5561 54.2708 92.5836 55.0465 92.5836 56.0093V64.1409H92.5781ZM90.3114 53.5501H88.947V58.1605C88.947 58.4081 88.903 58.6557 88.8204 58.8592C88.5729 59.4644 87.9347 60.1026 87.0214 60.1026C85.778 60.1026 85.3433 59.1398 85.3433 57.7094V53.5501H83.9789V57.946C83.9789 60.5868 85.3929 61.236 86.5702 61.236C87.9071 61.236 88.6994 60.4437 89.057 59.8385H89.09L89.167 61.0654H90.3774C90.3334 60.4767 90.3169 59.7945 90.3169 59.0133V53.5501H90.3114ZM78.6477 54.4028C80.2652 54.4028 80.8979 56.0203 80.8979 57.2912C80.8979 58.9858 79.9186 60.2127 78.6147 60.2127C77.2778 60.2127 76.3315 58.9693 76.3315 57.3243C76.337 55.8938 77.0357 54.4028 78.6477 54.4028ZM78.6807 53.3795C76.6011 53.3795 74.9561 54.854 74.9561 57.3683C74.9561 59.745 76.5241 61.236 78.5597 61.236C80.3753 61.236 82.3009 60.0256 82.3009 57.2472C82.3009 54.9475 80.8374 53.3795 78.6807 53.3795ZM70.5712 61.0654H71.9246V57.0602C71.9246 56.8291 71.9576 56.609 71.9852 56.422C72.1722 55.3986 72.8544 54.6669 73.8172 54.6669C74.0043 54.6669 74.1418 54.6834 74.2849 54.7109V53.4235C74.1583 53.3905 74.0538 53.3795 73.8942 53.3795C72.9755 53.3795 72.1557 54.0177 71.8146 55.0245H71.7541L71.7101 53.5501H70.5162C70.5602 54.2488 70.5767 55.008 70.5767 55.8938V61.0654H70.5712ZM67.0501 57.8689C67.0501 58.1 67.0171 58.3641 66.9401 58.6007C66.643 59.4699 65.8837 59.9981 65.0475 59.9981C63.573 59.9981 62.8248 58.7712 62.8248 57.2967C62.8248 55.5582 63.7546 54.4524 65.0585 54.4524C66.0543 54.4524 66.72 55.1071 66.9676 55.8993C67.0281 56.0864 67.0446 56.2899 67.0446 56.521V57.8689H67.0501ZM67.2647 53.5501L67.2042 54.6834H67.1711C66.8465 54.0617 66.1313 53.3795 64.8274 53.3795C63.1054 53.3795 61.4438 54.8265 61.4438 57.3683C61.4438 59.4479 62.7808 61.0324 64.6403 61.0324C65.8067 61.0324 66.61 60.4712 67.0336 59.7725H67.0666V60.6088C67.0666 62.5014 66.0433 63.2331 64.6458 63.2331C63.7161 63.2331 62.9348 62.9525 62.4397 62.6444L62.0985 63.6842C62.7037 64.0859 63.6996 64.3059 64.5963 64.3059C65.5426 64.3059 66.599 64.0859 67.3307 63.4037C68.0624 62.749 68.4035 61.6981 68.4035 59.9706V55.6077C68.4035 54.6889 68.4365 54.0837 68.464 53.5446H67.2647V53.5501Z" fill="white"/>
<path d="M89.9648 10.7246V13.6295H88.1162V16.0558H89.9648V22.0967C89.9648 23.7857 90.2839 24.9466 90.9661 25.6838C91.5713 26.344 92.5781 26.7401 93.761 26.7401C94.7898 26.7401 95.6371 26.6081 96.1102 26.421L96.0552 23.9398C95.7636 24.0168 95.3455 24.0993 94.7898 24.0993C93.5519 24.0993 93.1283 23.2795 93.1283 21.7226V16.0558H96.2148V13.6295H93.1283V9.95987L89.9648 10.7246Z" fill="white"/>
<path d="M84.2923 8.27081C83.2084 8.27081 82.4712 9.03555 82.4712 10.0369C82.4712 11.0107 83.1809 11.7809 84.2648 11.7809C85.3981 11.7809 86.1133 11.0162 86.1133 10.0369C86.0858 9.03555 85.4036 8.27081 84.2923 8.27081Z" fill="white"/>
<path d="M85.9317 13.6295H82.6582V26.476H85.9317V13.6295Z" fill="white"/>
<path d="M79.148 7.74268H75.8745V26.4761H79.148V7.74268Z" fill="white"/>
<path d="M72.3645 15.9512H65.6634V11.3573H72.7606V8.69446H62.4229V26.476H73.1567V23.8132H65.6634V18.5866H72.3645V15.9512Z" fill="white"/>
<path d="M108.005 36.1041L112.753 48.0318C112.912 48.3509 112.94 48.538 112.94 48.67C112.94 48.8295 112.857 49.0166 112.725 49.2587C112.274 50.139 111.554 50.9147 110.937 51.3108C110.272 51.7895 109.578 52.0866 109.017 52.2186L109.765 54.9915C110.591 54.8869 111.928 54.4578 113.21 53.3079C114.756 51.9765 115.955 49.8144 117.743 44.9563L121 36.0986H117.479L115.449 43.0362C115.207 43.889 114.97 44.8518 114.756 45.6H114.673C114.486 44.8518 114.222 43.867 113.952 43.0637L111.603 36.0986H108.005V36.1041ZM100.539 38.2112C102.778 38.2112 103.686 40.5329 103.686 42.5576C103.686 45.1709 102.377 47.014 100.512 47.014C98.509 47.014 97.2821 45.1214 97.2821 42.6126C97.2821 40.4504 98.2174 38.2112 100.539 38.2112ZM100.616 35.807C96.6934 35.807 93.893 38.4203 93.893 42.6896C93.893 46.8489 96.7209 49.3852 100.402 49.3852C103.708 49.3852 107.07 47.2505 107.07 42.475C107.075 38.5303 104.484 35.807 100.616 35.807ZM85.4644 49.0936H88.7434V42.3705C88.7434 41.9964 88.7984 41.6498 88.8479 41.3582C89.1395 39.8892 90.2068 38.8769 91.7803 38.8769C92.182 38.8769 92.4736 38.9319 92.7431 38.9815V35.884C92.4791 35.829 92.292 35.8015 91.9674 35.8015C90.581 35.8015 89.057 36.7368 88.4188 38.5743H88.3143L88.2097 36.093H85.3543C85.4369 37.2649 85.4589 38.5193 85.4589 40.2799V49.0936H85.4644ZM76.6616 33.1661V36.0986H74.7965V38.5523H76.6616V44.6592C76.6616 46.3648 76.9807 47.5421 77.6739 48.2849C78.2901 48.9506 79.3024 49.3522 80.5018 49.3522C81.5416 49.3522 82.3944 49.2202 82.8786 49.0331L82.8235 46.5243C82.5319 46.6068 82.1028 46.6839 81.5416 46.6839C80.2872 46.6839 79.8636 45.8586 79.8636 44.2851V38.5578H82.9831V36.1041H79.8636V32.3959L76.6616 33.1661ZM61.6914 48.2409C62.6762 48.8295 64.6513 49.3632 66.5494 49.3632C71.1929 49.3632 73.3771 46.8544 73.3771 43.9715C73.3771 41.3857 71.8586 39.8122 68.7336 38.6348C66.3349 37.6996 65.2895 37.0614 65.2895 35.6749C65.2895 34.6351 66.1973 33.5127 68.277 33.5127C69.9605 33.5127 71.2094 34.0189 71.8531 34.3655L72.6508 31.7247C71.7155 31.246 70.2741 30.8169 68.3265 30.8169C64.4313 30.8169 61.9775 33.0561 61.9775 35.994C61.9775 38.5798 63.8701 40.1533 66.8355 41.2207C69.1297 42.0459 70.0375 42.8492 70.0375 44.2081C70.0375 45.6771 68.8657 46.6619 66.7585 46.6619C65.075 46.6619 63.4795 46.1282 62.4121 45.512L61.6914 48.2409Z" fill="white"/>
</svg>
