<svg width="402" height="221" viewBox="0 0 402 221" fill="none" xmlns="http://www.w3.org/2000/svg">
<path fill-rule="evenodd" clip-rule="evenodd" d="M233.618 6.764L215.667 28.0965L217.098 33.4297L232.187 15.4791L226.593 52.0306H231.146L237.78 8.58502L233.618 6.764ZM201.879 51.5103L210.594 41.2343L215.147 58.4044H188.611L193.164 41.2343L201.879 51.5103ZM170.14 6.764L165.978 8.58502L172.612 52.0306H177.164L171.571 15.4791L189.652 36.9418L183.928 58.4044H173.652L174.433 63.4774H229.455L230.236 58.4044H219.96L204.35 0H199.798L192.513 27.186L196.025 31.3484L202.009 8.84519L209.293 35.9011L202.009 44.4862L170.14 6.764Z" fill="white"/>
<path fill-rule="evenodd" clip-rule="evenodd" d="M32.259 61.6562H126.695V63.4772H23.4138L31.2184 59.0547C30.9582 59.3148 30.8282 59.7051 30.8282 60.0953C30.6981 61.0058 31.3484 61.6562 32.259 61.6562Z" fill="white"/>
<path fill-rule="evenodd" clip-rule="evenodd" d="M371.369 61.6562H276.933V63.4772H380.214L372.409 59.0547C372.669 59.3148 372.8 59.7051 372.8 60.0953C373.06 61.0058 372.279 61.6562 371.369 61.6562Z" fill="white"/>
<path d="M99.3785 212.285V220.35H97.6876V212.285L97.1672 211.764L90.1431 220.219H87.8017L95.9965 210.594L88.4521 202.919H90.7934L97.6876 210.204V202.919H99.3785V210.204L106.273 202.919H108.614L101.07 210.594L109.264 220.219H106.923L99.8988 211.764L99.3785 212.285ZM125.524 220.35H123.703V207.082L112.256 220.35H111.866V203.049H113.557V216.577L125.004 203.049H125.394V220.35H125.524ZM143.735 220.35H141.914L136.19 206.952L130.337 220.35H128.386L135.93 203.049H136.32L143.735 220.35ZM154.791 202.659C157.393 202.659 159.604 203.57 161.295 205.261C163.116 206.952 163.896 209.163 163.896 211.764C163.896 214.236 162.986 216.447 161.295 218.138C159.474 219.959 157.393 220.74 154.791 220.74C152.19 220.74 150.108 219.829 148.287 218.138C146.466 216.317 145.686 214.236 145.686 211.764C145.686 210.074 146.076 208.513 146.856 207.082C147.637 205.651 148.808 204.61 150.108 203.7C151.799 203.049 153.23 202.659 154.791 202.659ZM154.921 204.35C153.62 204.35 152.45 204.74 151.279 205.391C150.108 206.041 149.198 206.952 148.547 208.122C147.897 209.293 147.637 210.464 147.637 211.895C147.637 213.976 148.417 215.667 149.718 217.098C151.019 218.529 152.84 219.179 154.921 219.179C156.222 219.179 157.523 218.789 158.563 218.138C159.734 217.488 160.645 216.577 161.295 215.537C161.945 214.366 162.206 213.195 162.206 211.764C162.206 210.334 161.945 209.163 161.295 208.122C160.645 206.952 159.734 206.171 158.563 205.391C157.523 204.61 156.222 204.35 154.921 204.35ZM181.197 220.35H179.376V207.082L167.929 220.35H167.539V203.049H169.23V216.577L180.676 203.049H181.067V220.35H181.197ZM170.14 198.887H171.701C171.961 199.277 172.351 199.667 172.742 199.797C173.132 200.058 173.782 200.058 174.303 200.058C174.953 200.058 175.473 199.928 175.864 199.797C176.254 199.667 176.644 199.277 176.904 198.887H178.335C178.205 199.537 177.685 200.188 177.034 200.708C176.384 201.228 175.343 201.488 174.303 201.488C173.262 201.488 172.221 201.228 171.441 200.838C170.791 200.188 170.4 199.667 170.14 198.887ZM191.993 203.049H193.814V209.553L200.708 203.049H203.05L194.725 210.854L203.7 220.35H201.359L193.814 212.285V220.35H191.993V203.049ZM214.496 202.659C217.098 202.659 219.309 203.57 221 205.261C222.821 206.952 223.602 209.163 223.602 211.764C223.602 214.236 222.691 216.447 221 218.138C219.179 219.959 217.098 220.74 214.496 220.74C211.895 220.74 209.814 219.829 207.992 218.138C206.171 216.317 205.391 214.236 205.391 211.764C205.391 210.074 205.781 208.513 206.562 207.082C207.342 205.651 208.513 204.61 209.814 203.7C211.374 203.049 212.805 202.659 214.496 202.659ZM214.496 204.35C213.196 204.35 212.025 204.74 210.854 205.391C209.684 206.041 208.773 206.952 208.123 208.122C207.472 209.293 207.212 210.464 207.212 211.895C207.212 213.976 207.992 215.667 209.293 217.098C210.594 218.529 212.415 219.179 214.496 219.179C215.797 219.179 217.098 218.789 218.138 218.138C219.309 217.488 220.22 216.577 220.87 215.537C221.52 214.366 221.781 213.195 221.781 211.764C221.781 210.334 221.52 209.163 220.87 208.122C220.22 206.952 219.309 206.171 218.138 205.391C217.098 204.61 215.797 204.35 214.496 204.35ZM226.333 220.35L228.675 203.049H229.065L236.089 217.228L243.113 203.049H243.373L245.845 220.35H244.154L242.463 207.992L236.349 220.35H235.829L229.715 207.862L228.024 220.35H226.333ZM249.227 203.049H261.454V220.35H259.763V204.74H250.918V220.35H249.227V203.049ZM279.665 220.35H277.844L272.12 206.952L266.267 220.35H264.446L271.99 203.049H272.38L279.665 220.35ZM282.656 203.049H292.542V204.74H284.347V210.204H292.412V211.895H284.347V218.659H292.412V220.35H282.656V203.049ZM295.404 203.049H297.225V209.553L304.119 203.049H306.46L298.136 210.854L307.111 220.35H304.769L297.225 212.285V220.35H295.404V203.049ZM325.842 206.301L324.411 207.342C323.631 206.301 322.72 205.651 321.679 205.131C320.639 204.61 319.468 204.35 318.167 204.35C316.737 204.35 315.566 204.74 314.395 205.391C313.224 206.041 312.314 206.952 311.664 208.122C311.013 209.293 310.753 210.464 310.753 211.895C310.753 213.976 311.533 215.797 312.964 217.228C314.395 218.659 316.216 219.309 318.427 219.309C320.899 219.309 322.85 218.398 324.541 216.447L325.972 217.488C325.061 218.529 324.021 219.439 322.72 220.089C321.419 220.74 319.988 221 318.427 221C315.436 221 312.964 219.959 311.273 218.008C309.842 216.317 309.062 214.236 309.062 211.895C309.062 209.423 309.973 207.212 311.794 205.521C313.485 203.83 315.826 202.919 318.427 202.919C319.988 202.919 321.419 203.179 322.72 203.83C323.891 204.22 324.931 205.131 325.842 206.301Z" fill="white"/>
<path d="M380.604 99.8988C388.409 99.8988 394.002 101.59 397.384 105.102L395.433 107.183C392.441 104.191 387.628 102.76 380.994 102.76C371.108 102.76 366.166 106.663 366.166 114.597C366.166 117.589 367.336 120.061 369.808 121.882C372.279 123.703 375.141 125.004 378.653 126.044C382.165 126.955 385.547 127.995 389.059 129.036C392.441 130.077 395.433 131.768 397.774 134.109C400.246 136.45 401.416 139.442 401.416 143.214C401.416 147.637 399.595 151.019 395.953 153.62C392.311 156.222 387.108 157.523 380.214 157.523C376.832 157.523 373.58 157.132 370.328 156.222C367.076 155.311 364.605 154.011 363.044 152.32L364.995 150.238C368.247 153.23 373.19 154.661 379.954 154.661C386.067 154.661 390.75 153.49 393.872 151.279C396.994 148.938 398.555 146.336 398.555 143.344C398.555 140.223 397.384 137.621 394.913 135.67C392.441 133.719 389.579 132.288 386.067 131.247C382.555 130.207 379.173 129.296 375.661 128.255C372.279 127.215 369.287 125.654 366.946 123.313C364.475 121.101 363.304 118.24 363.304 114.597C363.304 109.654 364.995 106.142 368.247 103.671C371.369 101.069 375.531 99.8988 380.604 99.8988ZM311.273 156.222V101.069H314.135L345.093 151.019V101.069H347.955V156.222H345.093L314.135 106.273V156.222H311.273ZM265.096 153.36H296.054L276.543 107.443L255.861 156.222H252.869L276.673 100.159L300.477 156.222H265.226V153.36H265.096ZM225.423 99.8988C233.227 99.8988 238.821 101.59 242.203 105.102L240.251 107.183C237.26 104.191 232.447 102.76 225.813 102.76C215.927 102.76 210.984 106.663 210.984 114.597C210.984 117.589 212.155 120.061 214.626 121.882C217.098 123.703 219.959 125.004 223.472 126.044C226.984 126.955 230.366 127.995 233.878 129.036C237.26 130.077 240.251 131.768 242.593 134.109C245.064 136.45 246.235 139.442 246.235 143.214C246.235 147.637 244.414 151.019 240.772 153.62C237.13 156.222 231.927 157.523 225.033 157.523C221.65 157.523 218.399 157.132 215.147 156.222C211.895 155.311 209.423 154.011 207.862 152.32L209.814 150.238C213.065 153.23 218.008 154.661 224.772 154.661C230.886 154.661 235.569 153.49 238.691 151.279C241.812 148.938 243.373 146.336 243.373 143.344C243.373 140.223 242.203 137.621 239.731 135.67C237.26 133.719 234.398 132.288 230.886 131.247C227.374 130.207 223.992 129.296 220.48 128.255C217.098 127.215 214.106 125.654 211.765 123.313C209.293 121.101 208.123 118.24 208.123 114.597C208.123 109.654 209.814 106.142 213.065 103.671C216.317 101.069 220.48 99.8988 225.423 99.8988ZM195.765 150.629C192.253 155.051 186.53 157.132 178.595 157.132C170.66 157.132 164.937 154.921 161.555 150.368C158.173 145.816 156.482 138.662 156.482 128.646C156.482 118.63 158.173 111.346 161.555 106.923C164.937 102.37 170.66 100.159 178.595 100.159C187.831 100.159 194.074 103.151 197.326 109.134L174.042 128.646H169.62L193.684 108.614C190.952 104.842 185.879 103.021 178.725 103.021C175.603 103.021 172.872 103.411 170.791 104.061C168.579 104.712 166.628 106.012 164.807 107.833C162.986 109.655 161.685 112.256 160.775 115.768C159.864 119.28 159.474 123.573 159.474 128.906C159.474 134.109 159.864 138.532 160.775 142.044C161.685 145.556 162.986 148.157 164.807 149.978C166.628 151.799 168.579 152.97 170.791 153.751C173.002 154.401 175.603 154.791 178.725 154.791C186.01 154.791 190.952 152.97 193.684 149.198L195.765 150.629ZM104.061 156.222V101.069H106.923L137.881 151.019V101.069H140.743V156.222H137.881L106.923 106.273V156.222H104.061ZM88.8423 150.629C85.3302 155.051 79.6069 157.132 71.6722 157.132C63.7376 157.132 58.0142 154.921 54.6322 150.368C51.2502 145.816 49.5592 138.662 49.5592 128.646C49.5592 118.63 51.2502 111.346 54.6322 106.923C58.0142 102.37 63.7376 100.159 71.6722 100.159C80.9077 100.159 87.1513 103.151 90.4032 109.134L67.1196 128.646H62.6969L86.7611 108.614C84.0295 104.842 78.9565 103.021 71.8023 103.021C68.6805 103.021 65.9489 103.411 63.8677 104.061C61.6563 104.712 59.7052 106.012 57.8841 107.833C56.063 109.655 54.7623 112.256 53.8517 115.768C52.9412 119.28 52.551 123.573 52.551 128.906C52.551 134.109 52.9412 138.532 53.8517 142.044C54.7623 145.556 56.063 148.157 57.8841 149.978C59.7052 151.799 61.6563 152.97 63.8677 153.751C66.079 154.401 68.6805 154.791 71.8023 154.791C79.0866 154.791 84.0295 152.97 86.7611 149.198L88.8423 150.629ZM7.41438 153.36H33.6899L22.2431 121.752L27.5763 118.76C31.9989 116.288 34.0801 112.516 34.0801 107.313C34.0801 97.4273 26.5357 92.6145 11.5768 92.6145H2.8617V156.352H0V89.7528H11.5768C19.9018 89.7528 26.2755 91.3137 30.438 94.3055C34.7305 97.4273 36.8117 101.72 36.8117 107.313C36.8117 113.687 34.2102 118.37 28.877 121.231L25.6251 123.052L37.7222 156.222H7.41438V153.36Z" fill="white"/>
</svg>
