<svg width="158" height="78" viewBox="0 0 158 78" fill="none" xmlns="http://www.w3.org/2000/svg">
<path d="M27.2944 67.0371H31.9471C32.8996 67.0371 33.5885 67.2103 34.0136 67.5567C34.4466 67.9031 34.6631 68.5486 34.6631 69.4933V69.8004C34.6631 70.4223 34.5725 70.8868 34.3915 71.1938C34.2104 71.4929 33.9152 71.6858 33.5058 71.7724C33.8837 71.859 34.1632 72.0125 34.3442 72.233C34.5253 72.4455 34.6158 72.8155 34.6158 73.343V74.3349C34.6158 74.9332 34.671 75.4882 34.7812 75.9999H32.4903C32.3879 75.7008 32.3368 75.2206 32.3368 74.5593V73.5673C32.3368 73.3942 32.3289 73.2564 32.3131 73.154C32.2974 73.0517 32.2502 72.9612 32.1714 72.8824C32.0927 72.7958 31.9825 72.7525 31.8408 72.7525H29.5499V75.9999H27.2944V67.0371ZM29.5499 68.9856V70.9694H31.8408C32.0376 70.9694 32.1636 70.9025 32.2187 70.7687C32.2738 70.627 32.3013 70.4144 32.3013 70.131V69.7413C32.3013 69.4894 32.2738 69.3005 32.2187 69.1745C32.1636 69.0485 32.0376 68.9856 31.8408 68.9856H29.5499Z" fill="white"/>
<path d="M38.5624 67.0371H41.243L44.1244 75.9999H41.8098L41.3021 74.2404H38.4207L37.9012 75.9999H35.5985L38.5624 67.0371ZM39.885 69.3398L38.9639 72.4219H40.7707L39.885 69.3398Z" fill="white"/>
<path d="M43.6579 67.0371H50.5188V69.0564H48.2397V75.9999H45.9134V69.0564H43.6579V67.0371Z" fill="white"/>
<path d="M51.4769 67.0371H57.9481V69.1155H53.6852V70.3554H57.8182V72.233H53.6852V73.9452H57.9836V75.9999H51.4769V67.0371Z" fill="white"/>
<path d="M59.3417 67.0371H64.077C65.2186 67.0371 66.0019 67.3284 66.427 67.911C66.8521 68.4857 67.0647 69.5091 67.0647 70.9812V72.0558C67.0647 73.528 66.8521 74.5553 66.427 75.1379C66.0019 75.7126 65.2186 75.9999 64.077 75.9999H59.3417V67.0371ZM61.6917 68.9856V74.0515H63.9471C64.2384 74.0515 64.4392 73.9295 64.5494 73.6854C64.6596 73.4414 64.7147 73.0596 64.7147 72.54V70.4971C64.7147 69.9696 64.6596 69.5878 64.5494 69.3516C64.4392 69.1076 64.2384 68.9856 63.9471 68.9856H61.6917Z" fill="white"/>
<path d="M72.05 67.0371H75.2029L77.1986 73.154L79.3123 67.0371H82.3354V75.9999H80.2806V70.1074L78.1669 75.9999H76.0295L74.0929 70.1074V75.9999H72.05V67.0371Z" fill="white"/>
<path d="M87.7443 66.9072C88.3741 66.9072 88.8976 66.9348 89.3149 66.9899C89.74 67.0371 90.1061 67.1395 90.4131 67.2969C90.728 67.4465 90.972 67.6236 91.1452 67.8283C91.3184 68.0251 91.4523 68.3164 91.5467 68.7022C91.6491 69.08 91.712 69.4776 91.7357 69.8948C91.7672 70.3042 91.7829 70.8474 91.7829 71.5244C91.7829 72.2015 91.7672 72.7486 91.7357 73.1659C91.712 73.5752 91.6491 73.9688 91.5467 74.3467C91.4444 74.7246 91.3066 75.0119 91.1334 75.2088C90.9681 75.4056 90.728 75.5827 90.4131 75.7402C90.1061 75.8897 89.74 75.9881 89.3149 76.0354C88.8976 76.0826 88.3741 76.1062 87.7443 76.1062C87.1066 76.1062 86.5752 76.0826 86.1501 76.0354C85.7329 75.9881 85.3668 75.8897 85.0519 75.7402C84.7449 75.5827 84.5087 75.4095 84.3434 75.2206C84.1781 75.0238 84.0442 74.7325 83.9419 74.3467C83.8474 73.961 83.7845 73.5634 83.753 73.154C83.7293 72.7447 83.7175 72.2015 83.7175 71.5244C83.7175 71.0127 83.7215 70.5915 83.7293 70.2609C83.7451 69.9224 83.7766 69.5839 83.8238 69.2454C83.8711 68.9068 83.934 68.6352 84.0128 68.4306C84.0915 68.2259 84.2017 68.0291 84.3434 67.8401C84.4851 67.6433 84.6504 67.4937 84.8394 67.3914C85.0283 67.289 85.2645 67.1985 85.5479 67.1198C85.8392 67.0332 86.158 66.9781 86.5044 66.9545C86.8587 66.923 87.272 66.9072 87.7443 66.9072ZM87.7443 68.832C87.0358 68.832 86.5792 68.9423 86.3745 69.1627C86.1698 69.3831 86.0675 69.7846 86.0675 70.3672V72.4809C86.0675 73.1501 86.1698 73.6067 86.3745 73.8508C86.5792 74.0869 87.0358 74.205 87.7443 74.205C88.445 74.205 88.8976 74.083 89.1023 73.8389C89.307 73.5949 89.4093 73.1422 89.4093 72.4809V70.3672C89.4093 69.7846 89.307 69.3831 89.1023 69.1627C88.8976 68.9423 88.445 68.832 87.7443 68.832Z" fill="white"/>
<path d="M92.2204 67.0371H94.6884L96.4951 73.1186L98.3727 67.0371H100.77L97.7114 75.9999H95.208L92.2204 67.0371Z" fill="white"/>
<path d="M101.814 67.0371H108.285V69.1155H104.022V70.3554H108.155V72.233H104.022V73.9452H108.321V75.9999H101.814V67.0371Z" fill="white"/>
<path d="M109.679 67.0371H114.331C115.284 67.0371 115.973 67.2103 116.398 67.5567C116.831 67.9031 117.047 68.5486 117.047 69.4933V69.8004C117.047 70.4223 116.957 70.8868 116.776 71.1938C116.595 71.4929 116.3 71.6858 115.89 71.7724C116.268 71.859 116.547 72.0125 116.729 72.233C116.91 72.4455 117 72.8155 117 73.343V74.3349C117 74.9332 117.055 75.4882 117.165 75.9999H114.875C114.772 75.7008 114.721 75.2206 114.721 74.5593V73.5673C114.721 73.3942 114.713 73.2564 114.697 73.154C114.682 73.0517 114.634 72.9612 114.556 72.8824C114.477 72.7958 114.367 72.7525 114.225 72.7525H111.934V75.9999H109.679V67.0371ZM111.934 68.9856V70.9694H114.225C114.422 70.9694 114.548 70.9025 114.603 70.7687C114.658 70.627 114.686 70.4144 114.686 70.131V69.7413C114.686 69.4894 114.658 69.3005 114.603 69.1745C114.548 69.0485 114.422 68.9856 114.225 68.9856H111.934Z" fill="white"/>
<path d="M118.232 73.1304H120.488C120.464 73.2328 120.452 73.3587 120.452 73.5083C120.452 73.7602 120.539 73.9413 120.712 74.0515C120.893 74.1617 121.295 74.2168 121.917 74.2168C122.436 74.2168 122.771 74.1538 122.92 74.0279C123.078 73.8941 123.157 73.6894 123.157 73.4138C123.157 73.1619 123.121 72.9808 123.05 72.8706C122.98 72.7525 122.826 72.6502 122.59 72.5636C122.346 72.4613 121.807 72.3274 120.972 72.1621C120.145 71.9889 119.551 71.7882 119.189 71.5599C118.866 71.3552 118.634 71.0915 118.492 70.7687C118.35 70.438 118.28 70.005 118.28 69.4697C118.28 69.0367 118.327 68.6746 118.421 68.3833C118.516 68.0842 118.654 67.8401 118.835 67.6512C119.016 67.4544 119.264 67.3009 119.579 67.1906C119.894 67.0804 120.24 67.0056 120.618 66.9663C120.996 66.9269 121.464 66.9072 122.023 66.9072C122.661 66.9072 123.172 66.9348 123.558 66.9899C123.952 67.045 124.294 67.1552 124.586 67.3205C124.877 67.478 125.081 67.7023 125.2 67.9936C125.318 68.2849 125.377 68.6707 125.377 69.1509C125.377 69.4028 125.365 69.5839 125.341 69.6941H123.157C123.165 69.639 123.168 69.5406 123.168 69.3989C123.168 69.2021 123.09 69.0525 122.932 68.9501C122.783 68.8478 122.448 68.7966 121.929 68.7966C121.393 68.7966 121.043 68.8517 120.878 68.9619C120.712 69.0643 120.63 69.2454 120.63 69.5051C120.63 69.7571 120.685 69.9499 120.795 70.0838C120.905 70.2097 121.106 70.3003 121.397 70.3554C121.523 70.379 121.787 70.4144 122.188 70.4617C122.59 70.5089 122.98 70.5679 123.357 70.6388C123.743 70.7096 124.078 70.8041 124.361 70.9222C124.81 71.1269 125.117 71.4221 125.282 71.8078C125.455 72.1936 125.542 72.6817 125.542 73.2721C125.542 74.3979 125.286 75.1537 124.774 75.5394C124.263 75.9173 123.318 76.1062 121.94 76.1062C120.555 76.1062 119.583 75.9448 119.024 75.6221C118.473 75.2914 118.197 74.6695 118.197 73.7563C118.197 73.6697 118.209 73.4611 118.232 73.1304Z" fill="white"/>
<path d="M27.1189 57.1304H29.3744C29.3508 57.2328 29.339 57.3587 29.339 57.5083C29.339 57.7602 29.4256 57.9413 29.5988 58.0515C29.7798 58.1617 30.1813 58.2168 30.8032 58.2168C31.3228 58.2168 31.6574 58.1538 31.807 58.0279C31.9644 57.8941 32.0432 57.6894 32.0432 57.4138C32.0432 57.1619 32.0077 56.9808 31.9369 56.8706C31.866 56.7525 31.7125 56.6502 31.4763 56.5636C31.2323 56.4613 30.693 56.3274 29.8585 56.1621C29.0319 55.9889 28.4376 55.7882 28.0754 55.5599C27.7527 55.3552 27.5204 55.0915 27.3787 54.7687C27.237 54.438 27.1662 54.005 27.1662 53.4697C27.1662 53.0367 27.2134 52.6746 27.3079 52.3833C27.4023 52.0842 27.5401 51.8401 27.7212 51.6512C27.9022 51.4544 28.1502 51.3009 28.4651 51.1906C28.78 51.0804 29.1264 51.0056 29.5043 50.9663C29.8822 50.9269 30.3506 50.9072 30.9095 50.9072C31.5472 50.9072 32.0589 50.9348 32.4447 50.9899C32.8383 51.045 33.1807 51.1552 33.472 51.3205C33.7633 51.478 33.968 51.7023 34.0861 51.9936C34.2042 52.2849 34.2632 52.6707 34.2632 53.1509C34.2632 53.4028 34.2514 53.5839 34.2278 53.6941H32.0432C32.051 53.639 32.055 53.5406 32.055 53.3989C32.055 53.2021 31.9762 53.0525 31.8188 52.9501C31.6692 52.8478 31.3346 52.7966 30.8151 52.7966C30.2797 52.7966 29.9294 52.8517 29.7641 52.9619C29.5988 53.0643 29.5161 53.2454 29.5161 53.5051C29.5161 53.7571 29.5712 53.9499 29.6814 54.0838C29.7916 54.2097 29.9924 54.3003 30.2837 54.3554C30.4096 54.379 30.6733 54.4144 31.0748 54.4617C31.4763 54.5089 31.866 54.5679 32.2439 54.6388C32.6297 54.7096 32.9642 54.8041 33.2477 54.9222C33.6964 55.1269 34.0034 55.4221 34.1687 55.8078C34.3419 56.1936 34.4285 56.6817 34.4285 57.2721C34.4285 58.3979 34.1727 59.1537 33.661 59.5394C33.1492 59.9173 32.2045 60.1062 30.8269 60.1062C29.4413 60.1062 28.4691 59.9448 27.9101 59.6221C27.359 59.2914 27.0835 58.6695 27.0835 57.7563C27.0835 57.6697 27.0953 57.4611 27.1189 57.1304Z" fill="white"/>
<path d="M35.1478 51.0371H42.0087V53.0564H39.7296V59.9999H37.4033V53.0564H35.1478V51.0371Z" fill="white"/>
<path d="M44.4789 51.0371H47.1594L50.0408 59.9999H47.7263L47.2185 58.2404H44.3372L43.8176 59.9999H41.5149L44.4789 51.0371ZM45.8014 53.3398L44.8804 56.4219H46.6871L45.8014 53.3398Z" fill="white"/>
<path d="M51.0854 51.0371H55.738C56.6906 51.0371 57.3794 51.2103 57.8045 51.5567C58.2375 51.9031 58.454 52.5486 58.454 53.4933V53.8004C58.454 54.4223 58.3635 54.8868 58.1824 55.1938C58.0014 55.4929 57.7061 55.6858 57.2968 55.7724C57.6746 55.859 57.9541 56.0125 58.1352 56.233C58.3163 56.4455 58.4068 56.8155 58.4068 57.343V58.3349C58.4068 58.9332 58.4619 59.4882 58.5721 59.9999H56.2812C56.1789 59.7008 56.1277 59.2206 56.1277 58.5593V57.5673C56.1277 57.3942 56.1198 57.2564 56.1041 57.154C56.0883 57.0517 56.0411 56.9612 55.9624 56.8824C55.8837 56.7958 55.7734 56.7525 55.6317 56.7525H53.3408V59.9999H51.0854V51.0371ZM53.3408 52.9856V54.9694H55.6317C55.8285 54.9694 55.9545 54.9025 56.0096 54.7687C56.0647 54.627 56.0923 54.4144 56.0923 54.131V53.7413C56.0923 53.4894 56.0647 53.3005 56.0096 53.1745C55.9545 53.0485 55.8285 52.9856 55.6317 52.9856H53.3408Z" fill="white"/>
<path d="M5.92022 50.7227H23.5424L22.3999 56.2274H10.0748L8.89764 60.4512C10.0978 59.3433 12.1982 58.7894 15.1987 58.7894C15.9373 58.7894 16.5604 58.8125 17.0682 58.8586C17.5991 58.9048 18.1415 59.0087 18.6954 59.1702C19.2724 59.3318 19.7341 59.5626 20.0803 59.8626C20.4496 60.1627 20.7496 60.5781 20.9804 61.109C21.2112 61.6399 21.3266 62.2746 21.3266 63.0132C21.3266 65.5751 20.7727 68.391 19.6648 71.4607C19.2032 72.7071 18.6954 73.6649 18.1415 74.3343C17.149 75.5345 15.8103 76.3308 14.1254 76.7231C12.4636 77.0924 10.5479 77.2771 8.37832 77.2771C6.78574 77.2771 5.4586 77.2078 4.39689 77.0694C2.98896 76.8847 1.90416 76.5385 1.1425 76.0307C0.380833 75.4999 0 74.5997 0 73.3303C0 72.1762 0.173106 71.1491 0.519317 70.249H6.82037C6.72804 70.4336 6.68188 70.6644 6.68188 70.9414C6.68188 71.68 7.66281 72.0493 9.62468 72.0493C10.9403 72.0493 11.8981 71.8762 12.4982 71.53C13.1214 71.1607 13.5599 70.3875 13.8138 69.2104C14.2755 67.2254 14.5063 65.956 14.5063 65.402C14.5063 65.0097 14.4139 64.6865 14.2293 64.4326C14.0446 64.1787 13.7677 64.0056 13.3984 63.9133C13.0522 63.7979 12.7406 63.7287 12.4636 63.7056C12.2097 63.6825 11.8635 63.671 11.425 63.671C10.9172 63.671 10.5133 63.6825 10.2132 63.7056C9.93627 63.7287 9.57852 63.7864 9.13998 63.8787C8.70145 63.9479 8.33216 64.098 8.03211 64.3288C7.73206 64.5365 7.50125 64.825 7.33968 65.1943H1.90416L5.92022 50.7227Z" fill="#195C8F"/>
<path d="M134.423 50.5254H125.139C132.625 47.4267 150.017 38.4495 157.778 34.3482L144.335 28.1963C126.882 44.7381 85.5689 57.9875 67.0942 62.5444C91.9297 61.9064 110.974 56.4305 117.392 53.7723L134.423 72.7406V50.5254Z" fill="#195C8F"/>
<path d="M132.316 21.2469C114.18 46.7659 81.2783 59.4114 67.0947 62.5444C93.9808 50.0583 108.297 33.9114 112.095 27.3988C106.809 32.3203 102.525 33.3228 101.044 33.2089L90.1644 17.3165L115.399 21.9304L130.38 0L132.316 21.2469Z" fill="#EB1B21"/>
</svg>
