<svg width="181" height="48" viewBox="0 0 181 48" fill="none" xmlns="http://www.w3.org/2000/svg">
<path d="M140.11 25.304L146.734 33.4H141.934L136.11 26.136V33.4H131.982V11H136.11V24.44L141.614 17.4H146.542L140.11 25.304Z" fill="#175BBF"/>
<path d="M163.19 27.096H151.126C151.659 29.1013 153.163 30.104 155.638 30.104C157.217 30.104 158.411 29.5707 159.222 28.504L162.55 30.424C160.971 32.7067 158.646 33.848 155.574 33.848C152.929 33.848 150.806 33.048 149.206 31.448C147.606 29.848 146.806 27.832 146.806 25.4C146.806 23.0107 147.595 21.0053 149.174 19.384C150.731 17.7627 152.758 16.952 155.254 16.952C157.622 16.952 159.553 17.7627 161.046 19.384C162.582 21.0053 163.35 23.0107 163.35 25.4C163.35 25.848 163.297 26.4133 163.19 27.096ZM151.062 23.896H159.222C158.987 22.8507 158.507 22.0507 157.782 21.496C157.078 20.9413 156.235 20.664 155.254 20.664C154.145 20.664 153.227 20.952 152.502 21.528C151.777 22.0827 151.297 22.872 151.062 23.896Z" fill="#175BBF"/>
<path d="M172.487 28.152L176.039 17.4H180.455L174.631 33.4C173.799 35.704 172.689 37.368 171.303 38.392C169.937 39.4373 168.231 39.9067 166.183 39.8V35.96C167.271 35.9813 168.145 35.7467 168.807 35.256C169.468 34.7653 169.991 33.976 170.375 32.888L163.815 17.4H168.327L172.487 28.152Z" fill="#175BBF"/>
<path d="M69.52 31.4159C67.8987 33.0372 65.8934 33.8479 63.504 33.8479C61.1147 33.8479 59.1094 33.0372 57.488 31.4159C55.8667 29.7946 55.056 27.7892 55.056 25.3999C55.056 23.0319 55.8667 21.0372 57.488 19.4159C59.1307 17.7732 61.136 16.9519 63.504 16.9519C65.872 16.9519 67.8774 17.7732 69.52 19.4159C71.1627 21.0586 71.984 23.0532 71.984 25.3999C71.984 27.7679 71.1627 29.7732 69.52 31.4159ZM60.4 28.5679C61.232 29.3999 62.2667 29.8159 63.504 29.8159C64.7414 29.8159 65.776 29.3999 66.608 28.5679C67.44 27.7359 67.856 26.6799 67.856 25.3999C67.856 24.1199 67.44 23.0639 66.608 22.2319C65.776 21.3999 64.7414 20.9839 63.504 20.9839C62.2667 20.9839 61.232 21.3999 60.4 22.2319C59.5894 23.0852 59.184 24.1412 59.184 25.3999C59.184 26.6586 59.5894 27.7146 60.4 28.5679Z" fill="white"/>
<path d="M84.2 16.9519C86.3547 16.9519 88.1894 17.7732 89.704 19.4159C91.24 21.0586 92.008 23.0532 92.008 25.3999C92.008 27.7892 91.24 29.7946 89.704 31.4159C88.2107 33.0372 86.376 33.8479 84.2 33.8479C81.96 33.8479 80.232 33.0692 79.016 31.5119V39.7999H74.888V17.3999H79.016V19.2879C80.232 17.7306 81.96 16.9519 84.2 16.9519ZM80.264 28.6639C81.096 29.4959 82.152 29.9119 83.432 29.9119C84.712 29.9119 85.768 29.4959 86.6 28.6639C87.4534 27.8106 87.88 26.7226 87.88 25.3999C87.88 24.0772 87.4534 22.9999 86.6 22.1679C85.768 21.3146 84.712 20.8879 83.432 20.8879C82.152 20.8879 81.096 21.3146 80.264 22.1679C79.432 22.9999 79.016 24.0772 79.016 25.3999C79.016 26.7226 79.432 27.8106 80.264 28.6639Z" fill="white"/>
<path d="M110.471 27.0959H98.4073C98.9406 29.1012 100.445 30.1039 102.919 30.1039C104.498 30.1039 105.693 29.5706 106.503 28.5039L109.831 30.4239C108.253 32.7066 105.927 33.8479 102.855 33.8479C100.21 33.8479 98.0873 33.0479 96.4873 31.4479C94.8873 29.8479 94.0873 27.8319 94.0873 25.3999C94.0873 23.0106 94.8766 21.0052 96.4553 19.3839C98.0126 17.7626 100.039 16.9519 102.535 16.9519C104.903 16.9519 106.834 17.7626 108.327 19.3839C109.863 21.0052 110.631 23.0106 110.631 25.3999C110.631 25.8479 110.578 26.4132 110.471 27.0959ZM98.3433 23.8959H106.503C106.269 22.8506 105.789 22.0506 105.063 21.4959C104.359 20.9412 103.517 20.6639 102.535 20.6639C101.426 20.6639 100.509 20.9519 99.7833 21.5279C99.0579 22.0826 98.5779 22.8719 98.3433 23.8959Z" fill="white"/>
<path d="M122.409 16.9519C124.18 16.9519 125.62 17.5386 126.729 18.7119C127.881 19.9066 128.457 21.5279 128.457 23.5759V33.3999H124.329V24.0879C124.329 23.0426 124.041 22.2319 123.465 21.6559C122.91 21.0799 122.142 20.7919 121.161 20.7919C120.073 20.7919 119.209 21.1332 118.569 21.8159C117.95 22.4772 117.641 23.4586 117.641 24.7599V33.3999H113.513V17.3999H117.641V19.1919C118.622 17.6986 120.212 16.9519 122.409 16.9519Z" fill="white"/>
<path fill-rule="evenodd" clip-rule="evenodd" d="M17.737 0.136022C11.4628 0.958014 6.44127 5.35486 4.92102 11.3578C4.55592 12.7995 4.49192 13.5958 4.48978 16.7269L4.48764 19.7454L3.71298 19.7573C3.28687 19.7638 2.8302 19.7603 2.69802 19.7496C2.23943 19.7125 1.33794 20.0589 0.944198 20.4235C0.728896 20.6229 0.452156 20.9833 0.329172 21.2244C0.107246 21.6594 0.105644 21.7262 0.132891 29.7726L0.160244 37.8824L2.8849 35.7509C4.38346 34.5787 6.02435 33.2986 6.53124 32.9065C7.03814 32.5143 10.1154 30.107 13.3696 27.5571C16.6238 25.0071 19.3348 22.8832 19.3942 22.8372C19.502 22.7537 20.0111 23.1369 25.0103 27.0646C26.4315 28.1812 27.939 29.3592 28.3603 29.6824C28.7816 30.0056 30.2246 31.1356 31.5669 32.1934C32.9092 33.2512 35.0946 34.9629 36.4235 35.9972L38.8397 37.8778L38.867 29.7561L38.8945 21.6346L38.5887 21.0907C38.0259 20.0896 37.2443 19.7454 35.5335 19.7454H34.5123V16.7804C34.5123 14.3864 34.4736 13.5786 34.3115 12.5865C33.2538 6.11253 28.004 1.00033 21.5287 0.138693C20.1449 -0.0454081 19.1273 -0.0461558 17.737 0.136022ZM21.9171 5.2556C23.6894 5.70725 25.0171 6.44302 26.3804 7.72905C27.4035 8.69422 28.0419 9.55928 28.5852 10.7167C29.3917 12.4352 29.595 13.7726 29.5964 17.368L29.5972 19.7454L29.1965 19.7497C28.9762 19.7521 27.8342 19.7528 26.6589 19.7513C25.4835 19.7498 21.1152 19.7479 16.9516 19.747L9.38134 19.7454L9.43102 16.6201C9.47472 13.8727 9.5086 13.3863 9.71097 12.598C10.6683 8.86679 13.6957 5.98688 17.5233 5.16617C17.9052 5.08421 18.8247 5.01337 19.5664 5.00867C20.6575 5.00183 21.1064 5.04895 21.9171 5.2556Z" fill="white"/>
<path fill-rule="evenodd" clip-rule="evenodd" d="M18.6827 27.0441C18.2921 27.3493 17.2343 28.1789 16.332 28.8878C15.4299 29.5967 12.6964 31.7388 10.2575 33.648C7.8187 35.5571 4.5131 38.1461 2.91164 39.4014L0 41.6836V43.3187C0 45.2591 0.16989 45.8877 0.880972 46.5776C1.69463 47.3673 0.408165 47.3188 19.7194 47.2874L37.0233 47.2592L37.611 46.9274C38.7312 46.295 39 45.5756 39 43.211V41.6902L37.162 40.2541C36.151 39.4643 34.985 38.5503 34.5709 38.223C34.1566 37.8958 32.6879 36.745 31.3068 35.6657C29.9258 34.5865 28.3631 33.3606 27.8342 32.9417C27.3053 32.5227 26.0792 31.5615 25.1096 30.8058C24.1399 30.05 22.9786 29.1396 22.5288 28.7825C20.691 27.3236 19.5706 26.4773 19.4844 26.4832C19.4342 26.4867 19.0735 26.7391 18.6827 27.0441ZM19.0192 36.6228V38.4344L17.2106 38.4659L15.402 38.4975L15.3408 38.1903C15.2553 37.7621 15.2637 34.9695 15.3507 34.8825C15.3898 34.8433 16.2313 34.8112 17.2206 34.8112H19.0192V36.6228ZM23.6302 36.601C23.6097 37.5853 23.5737 38.4107 23.55 38.4351C23.4948 38.4922 20.2915 38.518 20.1144 38.4629C20.0145 38.4317 19.9808 37.9668 19.9808 36.6162V34.8112H21.824L23.6671 34.8111L23.6302 36.601ZM19.0192 41.329V43.1455H17.1422H15.265L15.2863 41.4092C15.2979 40.4543 15.3281 39.6369 15.3532 39.5927C15.3784 39.5486 16.2134 39.5126 17.209 39.5126H19.0192V41.329ZM23.6137 41.329V43.1455H21.7973H19.9808V41.329V39.5126H21.7973H23.6137V41.329Z" fill="#084092"/>
</svg>
