<svg width="201" height="72" viewBox="0 0 201 72" fill="none" xmlns="http://www.w3.org/2000/svg">
<path fill-rule="evenodd" clip-rule="evenodd" d="M71.8091 71.8774V56.5434C71.691 56.5434 71.5729 56.5434 71.4548 56.5417V56.5383H70.763C69.3828 56.5299 68.0026 56.5333 66.6224 56.5383H43.4037V45.9388H70.4897V41.2735H43.4037V31.1278H71.4531V31.1245H71.8058V0.233643H0.00168728V5.60427C1.02081 5.59752 2.03993 5.6009 3.05905 5.60258C3.83014 5.60596 4.60122 5.60764 5.37063 5.60427H66.4351V26.4625H38.2609C38.3705 25.656 38.4245 24.7887 38.4245 23.8624C38.4245 20.1267 37.5539 17.341 35.8126 15.5069C34.0696 13.6729 31.6619 12.755 28.5843 12.755H0.281777V12.7668C0.188976 12.7668 0.0944879 12.7668 0 12.7668V48.5693H5.37063V47.4979H5.45668V34.9192H28.3835C31.5286 34.9192 33.987 34.0114 35.7637 32.1942C37.0612 30.8663 37.8829 29.0238 38.2305 26.67V61.2071H66.4368V66.5085H5.37231V55.5698H0.00168728V71.8791H71.8058L71.8091 71.8774ZM5.45837 17.4186H28.3329C29.8886 17.4186 31.0967 17.9383 31.9589 18.9777C32.8211 20.0171 33.253 21.6453 33.253 23.859C33.253 26.0744 32.8126 27.6942 31.9335 28.7167C31.0545 29.7392 29.8717 30.2504 28.3835 30.2504H5.45668V17.417L5.45837 17.4186Z" fill="url(#paint0_linear_351_2083)"/>
<path d="M93.4722 15.8682C93.8805 15.8682 94.2298 15.7872 94.52 15.6269C94.8102 15.4666 94.9553 15.1511 94.9553 14.682C94.9553 14.2129 94.8102 13.8974 94.52 13.7371C94.2298 13.5768 93.8805 13.4958 93.4722 13.4958H89.5223V15.8699H93.4722V15.8682ZM86.7214 21.5425V21.2084C87.1786 21.2084 87.4081 21.0971 87.4081 20.8743V12.4548C87.4081 12.2321 87.1786 12.1207 86.7214 12.1207V11.7866H93.2495C94.4356 11.7866 95.3687 12.006 96.0487 12.4447C96.7287 12.8834 97.0695 13.6291 97.0695 14.6786C97.0695 15.7298 96.7287 16.4739 96.0487 16.9126C95.3687 17.3513 94.4356 17.5706 93.2495 17.5706H89.5223V20.871C89.5223 21.0937 89.7197 21.205 90.1162 21.205V21.5391H86.7214V21.5425Z" fill="white"/>
<path d="M112.815 16.128C113.261 16.128 113.63 16.0943 113.927 16.0268C114.224 15.9576 114.459 15.8614 114.632 15.7383C114.804 15.6151 114.929 15.47 115.004 15.3029C115.078 15.1359 115.115 14.9537 115.115 14.7546C115.115 14.5572 115.078 14.3749 115.004 14.2079C114.929 14.0409 114.806 13.8957 114.632 13.7709C114.459 13.6477 114.224 13.5515 113.927 13.4841C113.63 13.4166 113.259 13.3811 112.815 13.3811H109.606V16.1263H112.815V16.128ZM113.298 11.7883C113.892 11.7883 114.43 11.8406 114.912 11.9452C115.395 12.0515 115.808 12.2169 116.154 12.4464C116.5 12.6742 116.767 12.9728 116.952 13.3373C117.138 13.7017 117.231 14.1505 117.231 14.682C117.231 15.497 116.99 16.1213 116.507 16.5549C116.024 16.9885 115.376 17.2788 114.56 17.4272L117.027 20.9503C117.113 21.0751 117.216 21.1494 117.334 21.173C117.45 21.1983 117.558 21.2101 117.658 21.2101V21.5442H114.19V21.2101C114.302 21.2101 114.396 21.1916 114.477 21.1544C114.558 21.1173 114.597 21.0684 114.597 21.006C114.597 20.9452 114.572 20.8727 114.523 20.7934C114.474 20.7124 114.4 20.6044 114.3 20.4694L112.262 17.5774H109.609V20.8777C109.609 20.9891 109.65 21.0718 109.731 21.1275C109.812 21.1831 109.955 21.2101 110.166 21.2101V21.5442H106.957V21.2101C107.315 21.2101 107.495 21.1005 107.495 20.876V12.4565C107.495 12.2338 107.316 12.1224 106.957 12.1224V11.7883H113.299H113.298Z" fill="white"/>
<path d="M128.17 21.2084C128.492 21.2084 128.652 21.0971 128.652 20.8743V12.4548C128.652 12.2321 128.492 12.1207 128.17 12.1207V11.7866H131.249V12.1207C130.927 12.1207 130.766 12.2321 130.766 12.4548V20.8743C130.766 21.0971 130.927 21.2084 131.249 21.2084V21.5425H128.17V21.2084Z" fill="white"/>
<path d="M142.226 21.2084C142.326 21.2084 142.412 21.1814 142.486 21.1257C142.56 21.0701 142.597 20.9874 142.597 20.8743V12.4177C142.597 12.3063 142.56 12.2287 142.486 12.1865C142.412 12.1426 142.326 12.1224 142.226 12.1224V11.7883H145.694V12.1224C145.631 12.1224 145.567 12.1409 145.5 12.1781C145.43 12.2152 145.397 12.2709 145.397 12.3451C145.397 12.4075 145.422 12.4868 145.471 12.5864C145.52 12.6859 145.575 12.7906 145.638 12.9019L148.289 17.7225L150.96 12.9559C151.046 12.7956 151.11 12.6691 151.154 12.5763C151.196 12.4835 151.219 12.3991 151.219 12.3249C151.219 12.1882 151.138 12.1207 150.978 12.1207V11.7866H154.408V12.1207C154.309 12.1207 154.223 12.141 154.149 12.1848C154.074 12.227 154.037 12.3063 154.037 12.416V20.8727C154.037 20.984 154.074 21.0684 154.149 21.1241C154.223 21.1797 154.309 21.2067 154.408 21.2067V21.5408H151.496V21.2067C151.83 21.2067 151.997 21.0954 151.997 20.8727V14.7157H151.96L148.233 21.5408H148.179L144.526 14.6989H144.489V20.8743C144.489 21.0971 144.663 21.2084 145.009 21.2084V21.5425H142.226V21.2084Z" fill="white"/>
<path d="M174.587 13.7916C174.587 13.6549 174.534 13.5536 174.428 13.4862C174.324 13.4187 174.141 13.3849 173.881 13.3849H167.873V15.6847H171.507C171.754 15.6847 171.946 15.6509 172.083 15.5818C172.22 15.5143 172.287 15.3371 172.287 15.0536H172.621V17.9473H172.287C172.287 17.6622 172.22 17.4816 172.083 17.4007C171.946 17.3197 171.754 17.2809 171.507 17.2809H167.873V19.8405H174.067C174.253 19.8405 174.403 19.7983 174.521 19.7105C174.637 19.6245 174.696 19.5064 174.696 19.3579H175.031V21.8973H174.696C174.696 21.7117 174.637 21.6071 174.521 21.5817C174.403 21.5564 174.253 21.5446 174.067 21.5446H165.425V21.2105C165.511 21.2105 165.587 21.1819 165.656 21.1279C165.723 21.0722 165.759 20.9878 165.759 20.8782V12.4586C165.759 12.3472 165.723 12.2629 165.656 12.2072C165.587 12.1515 165.511 12.1245 165.425 12.1245V11.7904H173.881C174.141 11.7904 174.324 11.7499 174.428 11.6706C174.533 11.5896 174.587 11.4817 174.587 11.3467H174.921V13.7949H174.587V13.7916Z" fill="white"/>
<path d="M95.8833 34.2735C95.8833 34.1368 95.831 34.0356 95.7264 33.9664C95.6218 33.8989 95.4379 33.8651 95.178 33.8651H89.1696V36.1649H92.804C93.0521 36.1649 93.2427 36.1312 93.3794 36.062C93.5161 35.9945 93.5836 35.8173 93.5836 35.5339H93.9176V38.4276H93.5836C93.5836 38.1424 93.5161 37.9619 93.3794 37.8809C93.2427 37.7999 93.0521 37.7611 92.804 37.7611H89.1696V40.3207H95.3636C95.5492 40.3207 95.7011 40.2785 95.8175 40.1908C95.9339 40.1047 95.9947 39.9866 95.9947 39.8381H96.3288V42.3775H95.9947C95.9947 42.1919 95.9356 42.0873 95.8175 42.062C95.6994 42.0367 95.5492 42.0249 95.3636 42.0249H86.7214V41.6908C86.8074 41.6908 86.885 41.6621 86.9525 41.6064C87.02 41.5524 87.0555 41.4681 87.0555 41.3567V32.9371C87.0555 32.8258 87.02 32.7431 86.9525 32.6874C86.885 32.6317 86.8074 32.6047 86.7214 32.6047V32.2707H95.178C95.4379 32.2707 95.6201 32.2319 95.7264 32.1509C95.831 32.0699 95.8833 31.9619 95.8833 31.8269H96.2174V34.2752H95.8833V34.2735Z" fill="white"/>
<path d="M106.974 41.6918C107.209 41.6918 107.327 41.5805 107.327 41.3577V32.9382C107.327 32.7155 107.21 32.6041 106.974 32.6041V32.27H110.144V32.6041C110.045 32.6041 109.996 32.6665 109.996 32.7897C109.996 32.8893 110.119 33.0614 110.367 33.3094L115.689 38.8352V32.9382C115.689 32.7155 115.529 32.6041 115.206 32.6041V32.27H118.007V32.6041C117.773 32.6041 117.654 32.7155 117.654 32.9382V41.3577C117.654 41.5805 117.773 41.6918 118.007 41.6918V42.0259H115.002V41.6918C115.162 41.6918 115.243 41.6361 115.243 41.5248C115.243 41.437 115.144 41.297 114.946 41.0979L109.291 35.2008V41.3577C109.291 41.5805 109.432 41.6918 109.718 41.6918V42.0259H106.972V41.6918H106.974Z" fill="white"/>
<path d="M138.26 34.2735C138.26 34.1368 138.207 34.0356 138.101 33.9664C137.996 33.8989 137.814 33.8651 137.554 33.8651H131.546V36.1649H135.18C135.427 36.1649 135.619 36.1312 135.756 36.062C135.892 35.9945 135.96 35.8173 135.96 35.5339H136.294V38.4276H135.96C135.96 38.1424 135.892 37.9619 135.756 37.8809C135.619 37.7999 135.427 37.7611 135.18 37.7611H131.546V40.3207H137.74C137.925 40.3207 138.076 40.2785 138.194 40.1908C138.31 40.1047 138.369 39.9866 138.369 39.8381H138.703V42.3775H138.369C138.369 42.1919 138.31 42.0873 138.194 42.062C138.076 42.0367 137.925 42.0249 137.74 42.0249H129.098V41.6908C129.184 41.6908 129.261 41.6621 129.329 41.6064C129.396 41.5524 129.432 41.4681 129.432 41.3567V32.9371C129.432 32.8258 129.396 32.7431 129.329 32.6874C129.261 32.6317 129.184 32.6047 129.098 32.6047V32.2707H137.554C137.814 32.2707 137.996 32.2319 138.101 32.1509C138.206 32.0699 138.26 31.9619 138.26 31.8269H138.594V34.2752H138.26V34.2735Z" fill="white"/>
<path d="M154.986 36.6099C155.431 36.6099 155.801 36.5762 156.097 36.507C156.394 36.4395 156.629 36.3433 156.803 36.2202C156.975 36.097 157.1 35.9519 157.174 35.7831C157.248 35.6161 157.285 35.4339 157.285 35.2365C157.285 35.0391 157.248 34.8568 157.174 34.6898C157.1 34.5227 156.977 34.3776 156.803 34.2528C156.629 34.1296 156.394 34.0334 156.097 33.9659C155.801 33.8985 155.429 33.863 154.986 33.863H151.776V36.6082H154.986V36.6099ZM155.468 32.2702C156.062 32.2702 156.6 32.3225 157.083 32.4271C157.565 32.5317 157.979 32.7005 158.325 32.9283C158.671 33.156 158.937 33.4547 159.123 33.8191C159.308 34.1836 159.401 34.6324 159.401 35.1622C159.401 35.9772 159.162 36.6032 158.677 37.0351C158.195 37.4687 157.547 37.759 156.73 37.9074L159.197 41.4305C159.283 41.5553 159.386 41.6296 159.504 41.6532C159.621 41.6785 159.729 41.6903 159.828 41.6903V42.0244H156.361V41.6903C156.472 41.6903 156.567 41.6718 156.648 41.6346C156.729 41.5975 156.767 41.5486 156.767 41.4862C156.767 41.4254 156.742 41.3529 156.693 41.2736C156.644 41.1926 156.57 41.0846 156.47 40.9496L154.432 38.0559H151.78V41.3562C151.78 41.4676 151.82 41.5503 151.901 41.606C151.982 41.6616 152.126 41.6886 152.337 41.6886V42.0227H149.127V41.6886C149.485 41.6886 149.666 41.5773 149.666 41.3546V32.935C149.666 32.7123 149.487 32.6009 149.127 32.6009V32.2668H155.47L155.468 32.2702Z" fill="white"/>
<path d="M179.149 35.2753L178.778 35.1639C178.803 35.0897 178.815 35.0155 178.815 34.9412C178.815 34.7556 178.7 34.5886 178.473 34.4401C178.243 34.2916 177.953 34.1651 177.6 34.0605C177.248 33.9559 176.865 33.8782 176.451 33.8276C176.038 33.7787 175.645 33.7534 175.273 33.7534C174.816 33.7534 174.362 33.8192 173.91 33.9491C173.46 34.079 173.056 34.2798 172.705 34.5515C172.353 34.8231 172.068 35.1758 171.852 35.6077C171.636 36.0413 171.528 36.5661 171.528 37.1836C171.528 37.7894 171.636 38.3124 171.852 38.7511C172.068 39.1898 172.353 39.5458 172.705 39.8175C173.058 40.0891 173.46 40.2916 173.91 40.4198C174.362 40.5498 174.816 40.6156 175.273 40.6156C175.979 40.6156 176.611 40.5565 177.175 40.4401C177.737 40.322 178.216 40.1954 178.613 40.0604V38.4643H176.239C176.065 38.4643 175.935 38.5014 175.849 38.5756C175.763 38.6499 175.707 38.8102 175.682 39.0582H175.348V36.6842H175.682C175.707 36.8951 175.763 37.0267 175.849 37.0824C175.935 37.1381 176.065 37.1651 176.239 37.1651H180.874V37.4991C180.627 37.5363 180.472 37.5801 180.41 37.6291C180.347 37.678 180.317 37.7843 180.317 37.9446V40.0385C180.317 40.1634 180.354 40.2427 180.428 40.2798C180.502 40.3169 180.588 40.3608 180.688 40.4097V40.7067C180.28 40.9918 179.851 41.2264 179.401 41.412C178.948 41.5959 178.491 41.7427 178.029 41.8473C177.565 41.9519 177.101 42.0177 176.638 42.0413C176.174 42.0666 175.721 42.0784 175.275 42.0784C174.41 42.0784 173.622 41.9705 172.911 41.7545C172.199 41.5385 171.592 41.2162 171.084 40.7894C170.578 40.3625 170.185 39.8445 169.906 39.2303C169.628 38.6178 169.489 37.9227 169.489 37.1448C169.489 36.3653 169.628 35.6701 169.906 35.0576C170.185 34.4452 170.578 33.9238 171.084 33.4902C171.59 33.0582 172.199 32.7275 172.911 32.498C173.622 32.2703 174.411 32.1555 175.275 32.1555C175.818 32.1555 176.338 32.1926 176.833 32.2669C177.327 32.3411 177.766 32.4255 178.149 32.5166C178.532 32.6094 178.85 32.6954 179.104 32.7764C179.357 32.8574 179.515 32.8979 179.576 32.8979C179.687 32.8979 179.775 32.8726 179.836 32.8237C179.898 32.7747 179.959 32.7309 180.021 32.6938L180.244 32.8237L179.149 35.2719V35.2753Z" fill="white"/>
<path d="M192.965 32.27V32.6041C192.853 32.6041 192.749 32.6193 192.649 32.6513C192.55 32.6817 192.501 32.761 192.501 32.8825C192.501 32.9567 192.59 33.1339 192.769 33.4106C192.948 33.689 193.159 34.0045 193.4 34.3572C193.641 34.7098 193.891 35.0709 194.151 35.4421C194.411 35.8133 194.622 36.1288 194.782 36.3887L196.952 33.4022C197.051 33.2537 197.131 33.1373 197.193 33.0495C197.255 32.9635 197.286 32.8825 197.286 32.8083C197.286 32.7222 197.227 32.6665 197.11 32.6412C196.992 32.6159 196.884 32.6041 196.786 32.6041V32.27H200.031V32.6041C199.931 32.6041 199.839 32.6125 199.753 32.6311C199.667 32.6497 199.575 32.6935 199.484 32.761C199.391 32.8285 199.292 32.9281 199.187 33.058C199.083 33.1879 198.954 33.3651 198.806 33.5861L195.652 38.0557V41.356C195.652 41.5788 195.794 41.6901 196.079 41.6901V42.0242H193.15V41.6901C193.262 41.6901 193.354 41.6631 193.429 41.6075C193.503 41.5518 193.54 41.4691 193.54 41.356V38.0557L189.96 33.0495C189.873 32.9264 189.74 32.8218 189.561 32.734C189.383 32.648 189.231 32.6041 189.107 32.6041V32.27H192.965Z" fill="white"/>
<path d="M90.4466 55.9481C90.9308 55.9481 91.2733 55.857 91.4708 55.6731C91.6699 55.4909 91.7694 55.2411 91.7694 54.9222C91.7694 54.7636 91.7492 54.627 91.7104 54.5173C91.6699 54.4059 91.599 54.3131 91.4961 54.2372C91.3931 54.163 91.2514 54.1073 91.0726 54.0702C90.8937 54.0347 90.6659 54.0162 90.3875 54.0162H87.8363V55.9481H90.4466ZM87.8363 59.0477C87.8363 59.1354 87.8549 59.2046 87.8954 59.2569C87.9342 59.3092 88.0101 59.3345 88.1215 59.3345V59.4762H86.549V59.3345C86.6603 59.3345 86.7362 59.3092 86.7751 59.2569C86.8155 59.2063 86.8341 59.1371 86.8341 59.0477V53.6348C86.8341 53.5471 86.8155 53.4779 86.7751 53.4256C86.7362 53.3733 86.6603 53.348 86.549 53.348V53.2046H90.5428C91.3307 53.2046 91.8943 53.3531 92.2368 53.6517C92.5776 53.9504 92.7497 54.3806 92.7497 54.9459C92.7497 55.447 92.6181 55.8435 92.3566 56.1388C92.0934 56.4341 91.6648 56.6197 91.0692 56.699L92.5709 59.0223C92.6569 59.1489 92.7278 59.2333 92.7801 59.2738C92.8307 59.3126 92.9168 59.3328 93.0366 59.3328V59.4745H91.3206V59.3328C91.4235 59.3328 91.4893 59.3244 91.518 59.3092C91.545 59.2923 91.5602 59.2653 91.5602 59.2265C91.5602 59.1776 91.5399 59.1354 91.4994 59.0949L90.0332 56.7597H87.8397V59.0477H87.8363Z" fill="white"/>
<path d="M100.377 53.6367C100.377 53.5506 100.356 53.4798 100.317 53.4274C100.277 53.3751 100.203 53.3498 100.091 53.3498V53.2064H105.087C105.293 53.2064 105.425 53.1879 105.481 53.1524C105.536 53.117 105.565 53.0562 105.565 52.9685H105.707V54.3268H105.565C105.565 54.2238 105.533 54.1412 105.47 54.0821C105.406 54.0231 105.283 53.9927 105.099 53.9927H101.38V55.8757H103.802C103.945 55.8757 104.062 55.8521 104.154 55.8048C104.245 55.7576 104.291 55.6698 104.291 55.5433H104.434V56.9859H104.291C104.291 56.8661 104.256 56.7835 104.185 56.7345C104.114 56.6873 103.994 56.6637 103.827 56.6637H101.382V58.6901H105.364C105.531 58.6901 105.654 58.6597 105.734 58.6007C105.813 58.5416 105.853 58.4353 105.853 58.2851H105.997V59.7025H105.853C105.853 59.5523 105.713 59.4764 105.435 59.4764H100.095V59.3329C100.206 59.3329 100.282 59.3076 100.321 59.2553C100.36 59.2047 100.38 59.1355 100.38 59.0461V53.6333L100.377 53.6367Z" fill="white"/>
<path d="M113.502 57.5933C113.478 57.649 113.466 57.6996 113.466 57.7485C113.466 57.8599 113.536 57.9746 113.676 58.0944C113.814 58.2125 113.998 58.3222 114.224 58.4217C114.45 58.5213 114.707 58.6023 114.993 58.6664C115.28 58.7305 115.569 58.7626 115.862 58.7626C116.618 58.7626 117.165 58.6512 117.502 58.4285C117.84 58.2058 118.009 57.9206 118.009 57.5697C118.009 57.4026 117.968 57.2626 117.884 57.1512C117.801 57.0399 117.685 56.9555 117.54 56.8947C117.393 56.8357 117.221 56.7935 117.027 56.7699C116.831 56.7463 116.623 56.7345 116.401 56.7345C116.034 56.7345 115.648 56.7328 115.238 56.7294C114.828 56.7243 114.453 56.6737 114.111 56.5742C113.768 56.4746 113.487 56.3093 113.264 56.0798C113.041 55.8486 112.93 55.5078 112.93 55.0539C112.93 54.7671 113.009 54.5072 113.168 54.2727C113.326 54.0382 113.544 53.8374 113.817 53.6703C114.091 53.5033 114.415 53.3717 114.788 53.2772C115.162 53.1827 115.567 53.1338 116.004 53.1338C116.347 53.1338 116.642 53.1574 116.892 53.2047C117.141 53.2519 117.359 53.3042 117.541 53.3599C117.723 53.4156 117.875 53.4679 117.993 53.5151C118.113 53.5624 118.211 53.586 118.292 53.586C118.38 53.586 118.442 53.5708 118.483 53.5387C118.522 53.5067 118.562 53.4712 118.601 53.4324L118.744 53.4915L118.09 54.8616L117.958 54.7789C117.966 54.7553 117.97 54.703 117.97 54.6237C117.97 54.568 117.923 54.5005 117.828 54.4212C117.732 54.3419 117.597 54.2643 117.421 54.1883C117.246 54.1124 117.038 54.05 116.795 53.9977C116.552 53.9471 116.289 53.9201 116.002 53.9201C115.36 53.9201 114.848 54.023 114.47 54.2305C114.092 54.4364 113.903 54.708 113.903 55.0421C113.903 55.1923 113.946 55.3138 114.028 55.4049C114.113 55.4977 114.227 55.5685 114.374 55.6192C114.521 55.6715 114.691 55.7052 114.887 55.7204C115.081 55.7356 115.29 55.744 115.513 55.744C115.886 55.744 116.276 55.7508 116.681 55.7626C117.087 55.7744 117.46 55.8351 117.801 55.9465C118.142 56.0579 118.425 56.2367 118.648 56.4831C118.871 56.7294 118.98 57.0905 118.98 57.568C118.98 57.8228 118.916 58.0674 118.785 58.3019C118.653 58.5365 118.457 58.744 118.194 58.9279C117.933 59.1102 117.609 59.2553 117.224 59.3582C116.838 59.4611 116.39 59.5134 115.883 59.5134C115.452 59.5134 115.081 59.4797 114.767 59.4122C114.453 59.3447 114.185 59.2654 113.962 59.1743C113.74 59.0832 113.556 58.9988 113.414 58.9246C113.271 58.8486 113.156 58.8115 113.068 58.8115C112.989 58.8115 112.905 58.8587 112.817 58.9532L112.697 58.8824L113.342 57.5123L113.497 57.595L113.502 57.5933Z" fill="white"/>
<path d="M129.072 53.9451C128.262 53.9451 127.636 54.1577 127.194 54.5813C126.752 55.0048 126.533 55.5903 126.533 56.3343C126.533 57.0801 126.754 57.6639 127.194 58.0891C127.634 58.5126 128.26 58.7252 129.072 58.7252C129.884 58.7252 130.508 58.5143 130.95 58.0891C131.39 57.6656 131.611 57.0801 131.611 56.3343C131.611 55.5886 131.39 55.0048 130.95 54.5813C130.508 54.1577 129.884 53.9451 129.072 53.9451ZM129.072 53.1353C129.588 53.1353 130.066 53.2044 130.503 53.3445C130.94 53.4828 131.319 53.6904 131.642 53.9637C131.964 54.2371 132.214 54.5728 132.393 54.971C132.571 55.3692 132.661 55.8265 132.661 56.3428C132.661 56.8591 132.571 57.3163 132.393 57.7129C132.214 58.1111 131.964 58.4451 131.642 58.7134C131.319 58.9834 130.94 59.1842 130.503 59.3158C130.066 59.4474 129.588 59.5132 129.072 59.5132C128.556 59.5132 128.08 59.4474 127.643 59.3158C127.204 59.1842 126.826 58.9834 126.504 58.7134C126.182 58.4435 125.932 58.1094 125.753 57.7129C125.574 57.3147 125.485 56.8591 125.485 56.3428C125.485 55.8265 125.574 55.3692 125.753 54.971C125.932 54.5745 126.182 54.2371 126.504 53.9637C126.826 53.6887 127.206 53.4828 127.643 53.3445C128.08 53.2061 128.556 53.1353 129.072 53.1353Z" fill="white"/>
<path d="M139.609 53.6366C139.609 53.5505 139.589 53.4796 139.55 53.4273C139.51 53.375 139.435 53.3497 139.324 53.3497V53.2063H140.898V53.3497C140.787 53.3497 140.711 53.375 140.672 53.4273C140.632 53.478 140.611 53.5488 140.611 53.6366V57.4515C140.611 57.9054 140.78 58.2243 141.118 58.4116C141.455 58.5989 141.958 58.6917 142.626 58.6917C143.294 58.6917 143.795 58.5989 144.134 58.4116C144.472 58.2243 144.641 57.9054 144.641 57.4515V53.6366C144.641 53.5505 144.62 53.4796 144.582 53.4273C144.541 53.375 144.467 53.3497 144.356 53.3497V53.2063H145.93V53.3497C145.818 53.3497 145.744 53.375 145.704 53.4273C145.663 53.478 145.643 53.5488 145.643 53.6366V57.1883C145.643 57.6658 145.574 58.0556 145.434 58.3576C145.295 58.6596 145.096 58.8975 144.838 59.073C144.58 59.2468 144.264 59.3649 143.892 59.4256C143.517 59.4847 143.097 59.5151 142.628 59.5151C142.159 59.5151 141.737 59.4847 141.364 59.4256C140.989 59.3666 140.674 59.2485 140.416 59.073C140.158 58.8975 139.958 58.6613 139.82 58.3576C139.682 58.0556 139.611 57.6658 139.611 57.1883V53.6366H139.609Z" fill="white"/>
<path d="M157.074 55.9481C157.558 55.9481 157.901 55.857 158.098 55.6731C158.297 55.4909 158.397 55.2411 158.397 54.9222C158.397 54.7636 158.378 54.627 158.338 54.5173C158.299 54.4059 158.226 54.3131 158.124 54.2372C158.019 54.163 157.879 54.1073 157.7 54.0702C157.521 54.0347 157.292 54.0162 157.015 54.0162H154.464V55.9481H157.074ZM154.464 59.0477C154.464 59.1354 154.482 59.2046 154.523 59.2569C154.562 59.3092 154.638 59.3345 154.749 59.3345V59.4762H153.175V59.3345C153.286 59.3345 153.36 59.3092 153.401 59.2569C153.441 59.2063 153.46 59.1371 153.46 59.0477V53.6348C153.46 53.5471 153.441 53.4779 153.401 53.4256C153.362 53.3733 153.286 53.348 153.175 53.348V53.2046H157.169C157.957 53.2046 158.52 53.3531 158.863 53.6517C159.203 53.9504 159.376 54.3806 159.376 54.9459C159.376 55.447 159.244 55.8435 158.982 56.1388C158.719 56.4341 158.291 56.6197 157.695 56.699L159.197 59.0223C159.284 59.1489 159.354 59.2333 159.406 59.2738C159.457 59.3126 159.543 59.3328 159.662 59.3328V59.4745H157.946V59.3328C158.049 59.3328 158.115 59.3244 158.144 59.3092C158.171 59.2923 158.186 59.2653 158.186 59.2265C158.186 59.1776 158.166 59.1354 158.127 59.0949L156.661 56.7597H154.467V59.0477H154.464Z" fill="white"/>
<path d="M173.109 58.6189C173.061 58.5633 173.002 58.5363 172.93 58.5363C172.891 58.5363 172.81 58.5869 172.685 58.6915C172.562 58.7961 172.387 58.9092 172.16 59.0357C171.934 59.1606 171.646 59.2719 171.297 59.3681C170.946 59.4643 170.522 59.5132 170.021 59.5132C169.466 59.5132 168.956 59.4339 168.496 59.2753C168.035 59.1167 167.64 58.8872 167.31 58.5903C166.979 58.2916 166.724 57.939 166.54 57.529C166.358 57.1206 166.265 56.6735 166.265 56.1876C166.265 55.7826 166.349 55.3962 166.522 55.0318C166.692 54.6673 166.94 54.3417 167.261 54.0599C167.583 53.7781 167.971 53.5537 168.428 53.3867C168.885 53.2196 169.4 53.137 169.972 53.137C170.369 53.137 170.723 53.1707 171.033 53.2382C171.344 53.3057 171.614 53.3799 171.845 53.4592C172.076 53.5402 172.263 53.6128 172.41 53.6803C172.557 53.7478 172.658 53.7815 172.714 53.7815C172.776 53.7815 172.817 53.7731 172.834 53.7528C172.849 53.7326 172.869 53.7073 172.893 53.6752L173.036 53.7697L172.297 55.0453L172.142 54.9744C172.181 54.9356 172.201 54.8833 172.201 54.8192C172.201 54.7551 172.142 54.6741 172.022 54.5745C171.902 54.475 171.74 54.3805 171.533 54.2877C171.325 54.1966 171.084 54.1173 170.806 54.0498C170.527 53.9823 170.23 53.9485 169.911 53.9485C169.594 53.9485 169.274 53.9941 168.953 54.0852C168.631 54.1763 168.345 54.3164 168.094 54.507C167.844 54.6977 167.64 54.9407 167.48 55.2393C167.321 55.5363 167.242 55.8906 167.242 56.304C167.242 56.66 167.323 56.9873 167.487 57.2843C167.649 57.5813 167.865 57.8377 168.136 58.052C168.406 58.2663 168.715 58.4333 169.059 58.5515C169.405 58.6713 169.761 58.7303 170.126 58.7303C170.412 58.7303 170.684 58.6898 170.942 58.6055C171.2 58.5228 171.43 58.4198 171.627 58.3017C171.826 58.1819 171.985 58.0605 172.105 57.9373C172.225 57.8141 172.284 57.7129 172.284 57.6336C172.284 57.561 172.263 57.507 172.225 57.4665L172.38 57.372L173.262 58.5177L173.107 58.624L173.109 58.6189Z" fill="white"/>
<path d="M180.607 53.6367C180.607 53.5506 180.587 53.4798 180.548 53.4274C180.507 53.3751 180.433 53.3498 180.322 53.3498V53.2064H185.318C185.524 53.2064 185.655 53.1879 185.711 53.1524C185.766 53.117 185.795 53.0562 185.795 52.9685H185.939V54.3268H185.795C185.795 54.2238 185.763 54.1412 185.699 54.0821C185.635 54.0231 185.512 53.9927 185.329 53.9927H181.611V55.8757H184.03C184.172 55.8757 184.29 55.8521 184.381 55.8048C184.472 55.7576 184.518 55.6698 184.518 55.5433H184.661V56.9859H184.518C184.518 56.8661 184.482 56.7835 184.412 56.7345C184.341 56.6873 184.221 56.6637 184.054 56.6637H181.611V58.6901H185.593C185.76 58.6901 185.883 58.6597 185.962 58.6007C186.041 58.5416 186.082 58.4353 186.082 58.2851H186.225V59.7025H186.082C186.082 59.5523 185.944 59.4764 185.665 59.4764H180.325V59.3329C180.436 59.3329 180.512 59.3076 180.551 59.2553C180.59 59.2047 180.61 59.1355 180.61 59.0461V53.6333L180.607 53.6367Z" fill="white"/>
<path d="M193.744 57.5933C193.72 57.649 193.709 57.6996 193.709 57.7485C193.709 57.8599 193.778 57.9746 193.918 58.0944C194.056 58.2125 194.24 58.3222 194.466 58.4217C194.692 58.5213 194.949 58.6023 195.236 58.6664C195.522 58.7305 195.811 58.7626 196.105 58.7626C196.86 58.7626 197.407 58.6512 197.745 58.4285C198.082 58.2058 198.251 57.9206 198.251 57.5697C198.251 57.4026 198.21 57.2626 198.126 57.1512C198.043 57.0399 197.927 56.9555 197.782 56.8947C197.635 56.8357 197.463 56.7935 197.269 56.7699C197.073 56.7463 196.866 56.7345 196.643 56.7345C196.277 56.7345 195.89 56.7328 195.48 56.7294C195.07 56.7243 194.696 56.6737 194.353 56.5742C194.011 56.4746 193.729 56.3093 193.506 56.0798C193.283 55.8486 193.172 55.5078 193.172 55.0539C193.172 54.7671 193.251 54.5072 193.41 54.2727C193.569 54.0382 193.786 53.8374 194.06 53.6703C194.333 53.5033 194.657 53.3717 195.03 53.2772C195.404 53.1827 195.809 53.1338 196.246 53.1338C196.589 53.1338 196.884 53.1574 197.134 53.2047C197.384 53.2519 197.601 53.3042 197.783 53.3599C197.966 53.4156 198.118 53.4679 198.236 53.5151C198.355 53.5624 198.453 53.586 198.534 53.586C198.622 53.586 198.684 53.5708 198.725 53.5387C198.764 53.5067 198.804 53.4712 198.845 53.4324L198.988 53.4915L198.333 54.8616L198.202 54.7789C198.21 54.7553 198.214 54.703 198.214 54.6237C198.214 54.568 198.166 54.5005 198.072 54.4212C197.976 54.3419 197.841 54.2643 197.665 54.1883C197.49 54.1124 197.282 54.05 197.039 53.9977C196.796 53.9471 196.533 53.9201 196.246 53.9201C195.603 53.9201 195.092 54.023 194.714 54.2305C194.336 54.4364 194.147 54.708 194.147 55.0421C194.147 55.1923 194.19 55.3138 194.272 55.4049C194.357 55.4977 194.471 55.5685 194.618 55.6192C194.765 55.6715 194.935 55.7052 195.131 55.7204C195.325 55.7356 195.534 55.744 195.757 55.744C196.13 55.744 196.52 55.7508 196.925 55.7626C197.331 55.7744 197.704 55.8351 198.045 55.9465C198.386 56.0579 198.669 56.2367 198.892 56.4831C199.115 56.7294 199.224 57.0905 199.224 57.568C199.224 57.8228 199.16 58.0674 199.029 58.3019C198.897 58.5365 198.701 58.744 198.438 58.9279C198.177 59.1102 197.853 59.2553 197.468 59.3582C197.082 59.4611 196.634 59.5134 196.127 59.5134C195.696 59.5134 195.325 59.4797 195.011 59.4122C194.697 59.3447 194.429 59.2654 194.206 59.1743C193.984 59.0832 193.8 58.9988 193.658 58.9246C193.515 58.8486 193.4 58.8115 193.312 58.8115C193.231 58.8115 193.148 58.8587 193.061 58.9532L192.941 58.8824L193.585 57.5123L193.741 57.595L193.744 57.5933Z" fill="white"/>
<defs>
<linearGradient id="paint0_linear_351_2083" x1="0.00168728" y1="36.0547" x2="71.8091" y2="36.0547" gradientUnits="userSpaceOnUse">
<stop stop-color="#57C602"/>
<stop offset="1" stop-color="#2E3390"/>
</linearGradient>
</defs>
</svg>
