<svg width="346" height="89" viewBox="0 0 346 89" fill="none" xmlns="http://www.w3.org/2000/svg">
<g clip-path="url(#clip0_501_1242)">
<path d="M104.989 44.7414C104.914 44.1305 104.757 43.5323 104.524 42.9625C104.323 42.4516 103.994 42.0011 103.568 41.6544C103.09 41.307 102.508 41.1339 101.917 41.1639C101.167 41.1306 100.425 41.3393 99.8019 41.7591C99.2155 42.2007 98.7808 42.8131 98.5575 43.5119C98.246 44.463 98.0568 45.4497 97.9943 46.4484C97.8895 47.6388 97.8371 49.0406 97.8371 50.6538C97.8371 52.3718 97.8895 53.8411 97.9943 55.062C98.0561 56.0886 98.2453 57.1035 98.5575 58.0836C98.759 58.7652 99.1661 59.3682 99.7233 59.8102C100.303 60.1979 100.992 60.3883 101.688 60.3531C102.229 60.3784 102.765 60.2452 103.231 59.9697C103.696 59.6942 104.071 59.2887 104.308 58.803C104.858 57.7697 105.133 56.1193 105.133 53.852H111.951C111.951 57.4928 111.133 60.268 109.495 62.1778C107.858 64.0876 105.146 65.0424 101.361 65.0424C99.7796 65.0667 98.2043 64.8461 96.6909 64.3884C95.3812 63.9885 94.2235 63.2019 93.3703 62.132C92.404 60.7926 91.7342 59.2632 91.4054 57.6454C90.9219 55.3473 90.7022 53.0016 90.7505 50.6538C90.6934 48.2638 90.9712 45.8775 91.5757 43.5642C92.0062 41.9143 92.8006 40.3814 93.9008 39.0776C94.8539 37.9875 96.0853 37.176 97.4638 36.7296C98.9353 36.2753 100.469 36.0546 102.009 36.0756C105.31 36.0756 107.797 37.037 109.469 38.9598C111.141 40.8827 111.978 43.4988 111.978 46.8082H105.12C105.122 46.1171 105.079 45.4267 104.989 44.7414V44.7414Z" fill="white"/>
<path d="M115.606 44.5914C115.561 43.2035 115.825 41.823 116.379 40.5495C116.857 39.5237 117.573 38.6268 118.468 37.9334C119.39 37.244 120.445 36.754 121.566 36.4945C122.81 36.1951 124.086 36.048 125.365 36.0563C127.109 36.0056 128.85 36.2128 130.533 36.6711C131.687 36.9802 132.746 37.5739 133.611 38.3977C134.331 39.1558 134.839 40.0895 135.085 41.1054C135.35 42.2305 135.479 43.3832 135.471 44.539V59.1304C135.453 60.1493 135.512 61.1681 135.648 62.1781C135.793 62.9739 136.028 63.7506 136.349 64.4934H129.498C129.254 64.0488 129.072 63.5737 128.954 63.0807C128.836 62.5793 128.725 62.0888 128.62 61.6091H128.515C127.908 62.8456 126.896 63.8378 125.647 64.4215C124.297 64.8958 122.872 65.1175 121.442 65.0755C120.355 65.1028 119.277 64.8789 118.292 64.4215C117.46 64.0162 116.747 63.4035 116.222 62.6425C115.697 61.8631 115.313 60.9975 115.089 60.0853C114.851 59.1667 114.73 58.2218 114.729 57.2729C114.708 56.1343 114.847 54.9984 115.141 53.8982C115.385 53.0089 115.816 52.1818 116.405 51.4717C117.001 50.7778 117.729 50.2087 118.547 49.7974C119.564 49.2985 120.628 48.9019 121.724 48.6136L125.751 47.5279C126.587 47.3763 127.359 46.9828 127.972 46.3965C128.426 45.7868 128.646 45.0353 128.594 44.2774C128.648 43.3817 128.381 42.4959 127.841 41.779C127.343 41.1773 126.492 40.8765 125.286 40.8765C124.826 40.8425 124.365 40.9132 123.936 41.0831C123.507 41.253 123.122 41.5178 122.811 41.8575C122.227 42.6011 121.932 43.53 121.979 44.4736V45.2585H115.58L115.606 44.5914ZM127.061 51.524C126.577 51.7251 126.078 51.889 125.568 52.0146C124.397 52.1832 123.312 52.7271 122.477 53.5646C121.823 54.3995 121.495 55.4429 121.553 56.5012C121.524 57.4497 121.736 58.3901 122.169 59.235C122.367 59.6043 122.667 59.9083 123.035 60.1103C123.402 60.3123 123.82 60.4036 124.239 60.373C124.75 60.3812 125.26 60.3129 125.751 60.1703C126.268 60.0133 126.75 59.7603 127.173 59.4247C127.617 59.0704 127.979 58.6242 128.234 58.1166C128.523 57.5037 128.664 56.8318 128.646 56.1546V50.6215C128.164 50.9963 127.63 51.3003 127.061 51.524Z" fill="white"/>
<path d="M145.715 56.3513C145.663 57.406 146.003 58.4427 146.671 59.2617C147.019 59.6418 147.448 59.939 147.926 60.1314C148.404 60.3239 148.92 60.4066 149.435 60.3735C150.38 60.4206 151.31 60.1257 152.055 59.5429C152.395 59.2318 152.66 58.8477 152.83 58.4195C153 57.9913 153.071 57.5301 153.037 57.0707C153.062 56.6946 153.005 56.3175 152.871 55.9653C152.736 55.6131 152.527 55.2941 152.258 55.0301C151.725 54.5577 151.113 54.1834 150.45 53.9248L145.439 52.1197C143.713 51.5866 142.173 50.5751 140.999 49.2027C139.96 47.8156 139.433 46.1131 139.506 44.3826C139.497 43.2826 139.688 42.1902 140.069 41.1582C140.451 40.142 141.071 39.2316 141.877 38.5029C142.8 37.6901 143.881 37.0756 145.053 36.6977C146.565 36.2244 148.145 36.0035 149.729 36.0437C152.965 36.0437 155.366 36.7304 156.934 38.1039C158.501 39.4774 159.277 41.4198 159.259 43.9313V45.0693H152.854C152.941 43.9525 152.695 42.8349 152.146 41.858C151.681 41.204 150.836 40.8508 149.69 40.8508C148.852 40.848 148.035 41.119 147.365 41.6226C147.026 41.8853 146.756 42.2273 146.58 42.6185C146.404 43.0097 146.328 43.4381 146.356 43.8659C146.354 44.5419 146.585 45.1982 147.011 45.7233C147.673 46.3986 148.514 46.8726 149.435 47.0902L153.718 48.5356C155.958 49.2878 157.543 50.2819 158.473 51.4984C159.475 52.9586 159.965 54.7083 159.868 56.4755C159.899 57.7994 159.633 59.1135 159.089 60.3212C158.591 61.3752 157.859 62.3014 156.947 63.0289C155.981 63.7753 154.863 64.3021 153.672 64.5724C152.31 64.8964 150.913 65.0523 149.513 65.0367C147.834 65.0747 146.157 64.8833 144.529 64.4677C143.352 64.1747 142.269 63.5898 141.379 62.7673C140.601 62.0078 140.041 61.0551 139.754 60.0073C139.432 58.8224 139.275 57.5986 139.289 56.3709V55.4225H145.695L145.715 56.3513Z" fill="white"/>
<path d="M170.812 27.2598V33.3553H163.687V27.2728L170.812 27.2598ZM170.812 36.7497V64.4935H163.687V36.7497H170.812Z" fill="white"/>
<path d="M175.77 44.5914C175.728 43.2038 175.992 41.8239 176.543 40.5495C177.023 39.5233 177.742 38.6264 178.639 37.9334C179.56 37.2429 180.615 36.7527 181.737 36.4945C182.978 36.1947 184.252 36.0476 185.529 36.0563C187.273 36.0056 189.014 36.2128 190.697 36.6711C191.844 36.9896 192.891 37.5926 193.742 38.4239C194.467 39.1786 194.976 40.1136 195.216 41.1316C195.481 42.2567 195.611 43.4094 195.602 44.5652V59.1304C195.582 60.1496 195.644 61.1687 195.786 62.1781C195.931 62.974 196.166 63.7507 196.487 64.4934H189.662C189.421 64.0485 189.24 63.5734 189.125 63.0807C189 62.5771 188.889 62.0866 188.784 61.6091H188.679C188.073 62.8439 187.063 63.8357 185.817 64.4215C184.466 64.8953 183.038 65.117 181.606 65.0755C180.519 65.1028 179.441 64.8789 178.456 64.4215C177.627 64.014 176.917 63.4016 176.392 62.6425C175.865 61.8634 175.48 60.9978 175.253 60.0853C175.015 59.1667 174.894 58.2218 174.893 57.2729C174.872 56.1343 175.011 54.9984 175.305 53.8982C175.552 53.01 175.983 52.1834 176.569 51.4717C177.173 50.7751 177.91 50.2058 178.737 49.7974C179.755 49.2996 180.819 48.9031 181.914 48.6136L185.948 47.5279C186.782 47.3734 187.554 46.9803 188.169 46.3965C188.62 45.7859 188.838 45.0345 188.784 44.2774C188.838 43.3828 188.573 42.4981 188.038 41.779C187.557 41.1773 186.706 40.8765 185.483 40.8765C185.022 40.842 184.559 40.9124 184.129 41.0823C183.699 41.2522 183.314 41.5173 183.001 41.8575C182.42 42.602 182.127 43.5309 182.176 44.4736V45.2585H175.77V44.5914ZM187.239 51.524C186.752 51.7252 186.25 51.8891 185.739 52.0146C184.564 52.179 183.476 52.7235 182.641 53.5646C181.982 54.3971 181.651 55.4417 181.711 56.5012C181.681 57.4506 181.895 58.3918 182.333 59.235C182.53 59.6038 182.829 59.9076 183.195 60.1096C183.562 60.3116 183.979 60.4031 184.396 60.373C184.905 60.3691 185.41 60.2897 185.896 60.1376C186.413 59.9812 186.895 59.7281 187.317 59.392C187.761 59.0377 188.123 58.5915 188.378 58.0839C188.667 57.471 188.808 56.7991 188.791 56.1219V50.6215C188.32 50.9955 187.797 51.2995 187.239 51.524Z" fill="white"/>
<path d="M207.483 36.7495V39.588H207.581C208.342 38.4355 209.383 37.4949 210.607 36.8542C211.86 36.276 213.229 35.994 214.609 36.0301C216.074 35.9797 217.519 36.3743 218.755 37.1616C219.882 37.9374 220.682 39.1022 221.001 40.4317H221.106C221.579 39.0477 222.519 37.8708 223.765 37.1027C225.088 36.3372 226.599 35.9545 228.127 35.9974C230.505 35.9974 232.247 36.7103 233.367 38.1361C234.487 39.5618 235.05 41.6155 235.05 44.297V64.4933H227.924V45.1276C227.977 44.1887 227.749 43.2552 227.269 42.4461C227.019 42.1246 226.691 41.8711 226.317 41.7089C225.943 41.5466 225.534 41.4808 225.128 41.5174C224.619 41.4941 224.112 41.5841 223.643 41.781C223.174 41.9778 222.755 42.2765 222.416 42.6554C221.739 43.4141 221.403 44.6175 221.407 46.2656V64.4933H214.301V45.1276C214.358 44.1884 214.129 43.2539 213.646 42.4461C213.396 42.1246 213.068 41.8711 212.694 41.7089C212.32 41.5466 211.911 41.4808 211.505 41.5174C210.996 41.4941 210.489 41.5841 210.02 41.781C209.551 41.9778 209.132 42.2765 208.793 42.6554C208.116 43.4141 207.78 44.6175 207.784 46.2656V64.4933H200.665V36.7495H207.483Z" fill="white"/>
<path d="M256.854 41.5435C255.649 40.4099 253.963 39.8431 251.798 39.8431C250.375 39.8111 248.969 40.1492 247.717 40.8241C246.566 41.4579 245.568 42.3378 244.796 43.401C244.004 44.5019 243.41 45.7325 243.041 47.0374C242.246 49.7492 242.246 52.6316 243.041 55.3435C243.411 56.6478 244.005 57.8782 244.796 58.9799C245.568 60.0431 246.566 60.923 247.717 61.5568C248.969 62.2317 250.375 62.5698 251.798 62.5378C252.772 62.5415 253.737 62.348 254.634 61.9688C255.517 61.5984 256.324 61.066 257.011 60.3991C257.715 59.705 258.292 58.8925 258.714 57.9988C259.172 57.0369 259.452 55.9998 259.539 54.938H262.814C262.377 58.1689 261.19 60.6869 259.251 62.492C257.225 64.3343 254.555 65.3068 251.817 65.1997C249.95 65.2398 248.097 64.8621 246.394 64.0944C244.879 63.3883 243.538 62.3591 242.465 61.0793C241.374 59.7641 240.551 58.2489 240.041 56.6188C238.932 53.0757 238.932 49.279 240.041 45.7358C240.551 44.1058 241.374 42.5906 242.465 41.2754C243.54 39.9914 244.881 38.9541 246.394 38.2341C248.085 37.449 249.933 37.0598 251.798 37.0961C254.401 37.0173 256.955 37.8168 259.048 39.3656C261.035 40.883 262.216 43.1699 262.591 46.2264H259.317C258.984 44.4542 258.126 42.8227 256.854 41.5435V41.5435Z" fill="white"/>
<path d="M270.647 27.6719V64.4936H267.373V27.6719H270.647Z" fill="white"/>
<path d="M280.203 27.6719V32.9041H276.928V27.6719H280.203ZM280.203 37.8812V64.4936H276.928V37.8812H280.203Z" fill="white"/>
<path d="M289.654 37.8815V42.4596H289.752C290.39 40.8362 291.555 39.473 293.06 38.5878C294.63 37.608 296.448 37.0974 298.3 37.1162C299.89 37.0727 301.474 37.3187 302.976 37.8422C304.131 38.2647 305.16 38.971 305.969 39.8959C306.757 40.8252 307.308 41.9316 307.574 43.1202C307.897 44.5227 308.053 45.9584 308.039 47.3975V64.4938H304.764V47.8881C304.769 46.823 304.666 45.7602 304.456 44.716C304.275 43.7996 303.905 42.9308 303.369 42.1653C302.832 41.4275 302.112 40.8416 301.28 40.4649C300.247 40.0213 299.129 39.8092 298.005 39.8435C296.81 39.8259 295.626 40.0669 294.534 40.5499C293.544 40.9911 292.662 41.6403 291.946 42.4531C291.221 43.3058 290.661 44.2862 290.296 45.3439C289.887 46.5141 289.666 47.7413 289.641 48.9803V64.4938H286.366V37.8815H289.654Z" fill="white"/>
<path d="M317.49 27.6719V32.9041H314.215V27.6719H317.49ZM317.49 37.8812V64.4936H314.215V37.8812H317.49Z" fill="white"/>
<path d="M340.059 41.5432C338.854 40.4096 337.167 39.8428 334.997 39.8428C333.574 39.8114 332.168 40.1494 330.916 40.8238C329.766 41.4578 328.771 42.3378 328.002 43.4007C327.207 44.5013 326.611 45.7318 326.24 47.037C325.454 49.7501 325.454 52.6301 326.24 55.3432C326.613 56.6476 327.209 57.8779 328.002 58.9796C328.771 60.0425 329.766 60.9224 330.916 61.5565C332.168 62.2308 333.574 62.5689 334.997 62.5375C335.973 62.5421 336.94 62.3485 337.839 61.9685C338.72 61.5964 339.524 61.0641 340.21 60.3988C340.916 59.7049 341.495 58.8925 341.919 57.9985C342.375 57.0354 342.654 55.9989 342.745 54.9377H346.02C345.583 58.1686 344.395 60.6866 342.457 62.4917C340.427 64.3313 337.756 65.3033 335.016 65.1994C333.157 65.2344 331.313 64.8545 329.619 64.0875C328.105 63.3814 326.763 62.3522 325.69 61.0725C324.597 59.7576 323.772 58.2425 323.26 56.612C322.159 53.0675 322.159 49.2735 323.26 45.729C323.772 44.0985 324.597 42.5834 325.69 41.2685C326.766 39.9846 328.106 38.9473 329.619 38.2273C331.308 37.4423 333.154 37.053 335.016 37.0893C337.622 37.0105 340.178 37.8099 342.273 39.3588C344.251 40.8761 345.43 43.163 345.81 46.2195H342.535C342.201 44.4471 341.338 42.817 340.059 41.5432V41.5432Z" fill="white"/>
<path d="M94.6606 81.0276H96.7041C96.685 80.7883 96.6411 80.5515 96.5731 80.3213C96.5121 80.1057 96.4147 79.9022 96.2849 79.7195C96.1585 79.5506 95.9978 79.4102 95.8134 79.3075C95.6108 79.2043 95.3858 79.1526 95.1584 79.1571C94.9563 79.1511 94.7547 79.1798 94.5624 79.2421C94.4064 79.297 94.2636 79.3839 94.1432 79.4972C94.028 79.6197 93.9349 79.7614 93.8681 79.9158C93.7916 80.0984 93.7367 80.2894 93.7044 80.4848H91.471C91.4982 80.1115 91.5776 79.7439 91.7068 79.3925C91.8214 79.0957 91.9804 78.8178 92.1784 78.5685C92.3651 78.3416 92.586 78.1452 92.8333 77.9864C93.2997 77.6759 93.8303 77.4747 94.3856 77.3977C94.6452 77.3538 94.9081 77.3319 95.1715 77.3323C95.7113 77.3257 96.2473 77.4234 96.7499 77.6201C97.2077 77.8048 97.6158 78.0937 97.942 78.4638C98.2846 78.8618 98.539 79.3276 98.6886 79.8307C98.8732 80.4345 98.9616 81.0635 98.9506 81.6947C98.9604 82.3254 98.8743 82.9538 98.6952 83.5587C98.5505 84.0644 98.298 84.5329 97.9551 84.9321C97.6237 85.3051 97.2084 85.5942 96.7434 85.7758C96.2118 85.9748 95.6475 86.0724 95.0798 86.0636C94.6357 86.0727 94.1931 86.0086 93.7699 85.8739C93.4273 85.7628 93.1029 85.6019 92.8071 85.3965C92.5444 85.2165 92.3122 84.9957 92.1194 84.7425C91.9462 84.5178 91.799 84.2742 91.6806 84.0165C91.575 83.7971 91.4937 83.5668 91.4383 83.3298C91.3968 83.156 91.3727 82.9785 91.3662 82.8H93.5996C93.6028 82.9541 93.6316 83.1066 93.6847 83.2513C93.7473 83.4202 93.8381 83.5772 93.9533 83.7157C94.0793 83.8652 94.2327 83.9895 94.4052 84.0819C94.6074 84.1861 94.8327 84.2379 95.0602 84.2323C95.2859 84.2344 95.5093 84.1876 95.7151 84.095C95.9045 84.0026 96.0736 83.8736 96.2129 83.7157C96.3516 83.5481 96.4601 83.3578 96.5338 83.1532C96.6116 82.9289 96.6622 82.6962 96.6844 82.4599H94.641L94.6606 81.0276Z" fill="white"/>
<path d="M100.549 77.5742H102.691V80.707L105.775 77.5742H108.624L105.219 81.0013L108.769 85.8084H105.972L103.555 82.3355L102.691 83.2054V85.8215H100.549V77.5742Z" fill="white"/>
<path d="M114.787 80.484C114.752 80.2894 114.697 80.0987 114.623 79.915C114.557 79.7606 114.464 79.619 114.348 79.4964C114.228 79.3831 114.085 79.2963 113.929 79.2414C113.73 79.1694 113.519 79.1339 113.307 79.1367C113.001 79.1199 112.698 79.2075 112.449 79.3853C112.23 79.5554 112.06 79.7813 111.958 80.0393C111.836 80.2999 111.757 80.578 111.722 80.8634C111.689 81.1412 111.672 81.4207 111.67 81.7005C111.669 81.9867 111.685 82.2727 111.715 82.5573C111.738 82.8418 111.809 83.1204 111.925 83.3814C112.033 83.6249 112.202 83.8366 112.416 83.9961C112.679 84.1713 112.992 84.2562 113.307 84.2381C113.534 84.2437 113.76 84.192 113.962 84.0877C114.134 83.9953 114.288 83.871 114.414 83.7215C114.529 83.583 114.62 83.426 114.682 83.2571C114.736 83.1124 114.764 82.9599 114.767 82.8058H117.001C116.994 82.9822 116.97 83.1574 116.929 83.329C116.873 83.5682 116.792 83.8007 116.687 84.0223C116.566 84.2787 116.419 84.522 116.248 84.7483C116.055 85.0015 115.823 85.2223 115.56 85.4023C115.263 85.6091 114.936 85.77 114.591 85.8797C114.168 86.0157 113.725 86.0799 113.281 86.0694C112.713 86.0793 112.148 85.9817 111.617 85.7816C111.152 85.6001 110.737 85.3109 110.405 84.9379C110.063 84.5387 109.81 84.0702 109.665 83.5645C109.486 82.9596 109.4 82.3312 109.41 81.7005C109.4 81.0684 109.493 80.4388 109.685 79.8365C109.848 79.3309 110.116 78.8652 110.471 78.4696C110.807 78.0991 111.224 77.8105 111.689 77.6259C112.197 77.4298 112.737 77.3321 113.281 77.3382C113.544 77.3377 113.807 77.3596 114.067 77.4036C114.622 77.4805 115.153 77.6817 115.619 77.9922C115.866 78.151 116.087 78.3474 116.274 78.5743C116.472 78.8223 116.629 79.1006 116.739 79.3983C116.87 79.7493 116.952 80.117 116.981 80.4906L114.787 80.484Z" fill="white"/>
<path d="M118.547 77.5742H125.968V85.8084H123.832V79.3139H120.689V85.8084H118.547V77.5742Z" fill="white"/>
<path d="M129.57 82.3612C129.562 82.4614 129.562 82.562 129.57 82.6621C129.588 82.7993 129.616 82.9349 129.655 83.0676C129.705 83.2222 129.771 83.3712 129.851 83.5123C129.945 83.663 130.062 83.7977 130.199 83.9113C130.356 84.0422 130.536 84.1441 130.729 84.2121C130.972 84.2905 131.227 84.3281 131.482 84.3233C131.635 84.3241 131.788 84.302 131.934 84.2579C132.081 84.2165 132.22 84.1525 132.347 84.0683C132.471 83.9856 132.581 83.8841 132.674 83.7674C132.767 83.647 132.834 83.509 132.871 83.3619H135.091C135.087 83.5383 135.054 83.7128 134.993 83.8786C134.922 84.0884 134.82 84.2866 134.692 84.4672C134.548 84.6833 134.379 84.8809 134.187 85.0558C133.973 85.2567 133.733 85.4283 133.473 85.566C133.174 85.7221 132.858 85.8428 132.53 85.9257C132.147 86.0211 131.753 86.0672 131.358 86.063C130.832 86.0656 130.31 85.9816 129.812 85.8145C129.337 85.6535 128.905 85.3874 128.548 85.0362C128.166 84.6443 127.875 84.1731 127.697 83.6562C127.477 82.9943 127.373 82.2997 127.389 81.6026C127.386 81.0563 127.461 80.5124 127.611 79.9871C127.75 79.4923 127.986 79.0299 128.306 78.6268C128.633 78.2251 129.047 77.9031 129.517 77.685C130.075 77.4356 130.682 77.3149 131.292 77.3318C131.927 77.3139 132.558 77.4368 133.139 77.6915C133.622 77.9221 134.038 78.2736 134.344 78.7118C134.668 79.1893 134.891 79.7279 134.999 80.2945C135.136 80.9748 135.202 81.6674 135.196 82.3612H129.57ZM132.995 80.9355C133.005 80.6271 132.951 80.32 132.838 80.0329C132.743 79.8122 132.602 79.6139 132.425 79.4508C132.271 79.3124 132.087 79.2097 131.888 79.15C131.704 79.0938 131.512 79.0652 131.319 79.065C131.13 79.0658 130.942 79.0944 130.762 79.15C130.56 79.2082 130.374 79.311 130.218 79.4508C130.041 79.6126 129.903 79.8113 129.812 80.0329C129.694 80.3186 129.638 80.6264 129.648 80.9355H132.995Z" fill="white"/>
<path d="M136.591 77.5744H138.634V78.7582H138.667C138.795 78.5238 138.949 78.3045 139.126 78.1042C139.283 77.9312 139.464 77.7815 139.663 77.6594C139.868 77.5444 140.089 77.4585 140.318 77.4044C140.585 77.3471 140.857 77.3186 141.13 77.3193C141.392 77.3215 141.654 77.3522 141.909 77.4109C142.184 77.472 142.448 77.5711 142.695 77.7052C142.957 77.8446 143.2 78.0183 143.416 78.2219C143.656 78.4521 143.857 78.7193 144.012 79.0133C144.194 79.359 144.332 79.7259 144.424 80.1055C144.529 80.5734 144.58 81.0518 144.575 81.5313C144.581 82.1462 144.508 82.7594 144.359 83.356C144.232 83.8701 144.01 84.3559 143.704 84.7883C143.414 85.1788 143.037 85.4967 142.604 85.7171C141.923 86.0354 141.16 86.1293 140.423 85.9852C140.207 85.9465 139.997 85.8783 139.8 85.7825C139.592 85.683 139.4 85.553 139.23 85.3966C139.041 85.2186 138.882 85.0109 138.759 84.7818H138.726V88.9872H136.584L136.591 77.5744ZM140.521 79.2553C140.218 79.2457 139.919 79.3204 139.656 79.4711C139.426 79.6159 139.231 79.8103 139.086 80.0401C138.937 80.2817 138.831 80.5472 138.772 80.8249C138.707 81.1104 138.674 81.4021 138.674 81.6948C138.674 81.8518 138.674 82.0218 138.674 82.2049C138.693 82.3928 138.728 82.5787 138.779 82.7609C138.829 82.9508 138.899 83.135 138.988 83.3102C139.072 83.485 139.185 83.6442 139.322 83.7811C139.466 83.9173 139.632 84.0278 139.813 84.1082C140.252 84.2739 140.737 84.2739 141.176 84.1082C141.357 84.0278 141.523 83.9173 141.667 83.7811C141.804 83.6427 141.919 83.4838 142.008 83.3102C142.094 83.1348 142.162 82.9506 142.211 82.7609C142.261 82.5787 142.296 82.3928 142.315 82.2049C142.324 82.035 142.324 81.8647 142.315 81.6948C142.315 81.4021 142.282 81.1104 142.217 80.8249C142.158 80.5472 142.052 80.2817 141.903 80.0401C141.758 79.8103 141.563 79.6159 141.333 79.4711C141.078 79.325 140.788 79.2505 140.495 79.2553H140.521Z" fill="white"/>
<path d="M147.902 79.3139H145.4V77.5742H152.526V79.3139H150.03V85.8084H147.895L147.902 79.3139Z" fill="white"/>
<path d="M153.862 77.5742H156.004V80.4454H157.968C158.429 80.4398 158.889 80.4926 159.337 80.6024C159.705 80.6973 160.05 80.8641 160.352 81.0929C160.638 81.3147 160.864 81.6049 161.007 81.9366C161.159 82.3193 161.233 82.7285 161.224 83.14C161.232 83.5075 161.172 83.8735 161.047 84.2191C160.936 84.4908 160.779 84.7409 160.582 84.9582C160.396 85.1563 160.174 85.3163 159.927 85.4291C159.717 85.5342 159.498 85.6196 159.272 85.6841C159.07 85.7405 158.864 85.7777 158.656 85.7953H158.224H153.908L153.862 77.5742ZM156.004 84.1995H157.569C157.736 84.1997 157.902 84.1866 158.067 84.1603C158.224 84.1368 158.375 84.0835 158.512 84.0033C158.645 83.9237 158.756 83.811 158.833 83.6763C158.921 83.5091 158.964 83.3221 158.957 83.1334C158.963 82.9491 158.92 82.7664 158.833 82.6037C158.752 82.4632 158.635 82.3478 158.492 82.2701C158.336 82.1835 158.165 82.1259 157.988 82.1001C157.791 82.0653 157.592 82.0478 157.392 82.0478H156.004V84.1995ZM162.134 77.5742H164.276V85.8084H162.134V77.5742Z" fill="white"/>
<path d="M177.29 84.1865C177.287 84.3899 177.3 84.5933 177.329 84.7947C177.348 84.9258 177.385 85.0535 177.44 85.174C177.469 85.247 177.515 85.3118 177.574 85.3631C177.634 85.4144 177.705 85.4505 177.781 85.4683V85.8084H175.41C175.359 85.6846 175.315 85.5579 175.279 85.4291C175.225 85.2422 175.201 85.048 175.207 84.8536C175.037 85.0236 174.88 85.1806 174.716 85.3245C174.556 85.4748 174.378 85.6044 174.185 85.7103C173.978 85.8201 173.758 85.9057 173.53 85.9654C173.226 86.036 172.913 86.069 172.6 86.0635C172.255 86.065 171.912 86.0098 171.585 85.9C171.283 85.7979 171.006 85.6329 170.773 85.416C170.541 85.1952 170.362 84.9246 170.249 84.6247C170.114 84.2722 170.049 83.8967 170.059 83.5193C170.056 83.2008 170.11 82.8843 170.216 82.5841C170.314 82.3014 170.468 82.0412 170.668 81.8189C170.867 81.5944 171.107 81.4101 171.376 81.276C171.672 81.1275 171.99 81.0281 172.319 80.9817L174.415 80.6743L174.663 80.6285C174.75 80.6105 174.833 80.5749 174.906 80.5239C174.985 80.4755 175.05 80.408 175.096 80.3277C175.154 80.2265 175.181 80.1106 175.174 79.9941C175.174 79.867 175.152 79.741 175.109 79.6213C175.064 79.5057 174.99 79.4041 174.893 79.327C174.773 79.2335 174.634 79.1666 174.487 79.1308C174.272 79.0799 174.052 79.0579 173.832 79.0654C173.597 79.0574 173.363 79.0861 173.137 79.1504C172.982 79.1954 172.84 79.2786 172.725 79.3924C172.624 79.4961 172.548 79.6213 172.502 79.7587C172.461 79.9028 172.428 80.0491 172.404 80.1969H170.288C170.277 80.062 170.277 79.9263 170.288 79.7914C170.327 79.591 170.389 79.3957 170.472 79.2093C170.566 78.9766 170.689 78.7569 170.838 78.5553C171.023 78.3249 171.245 78.1261 171.493 77.9667C171.785 77.771 172.106 77.621 172.443 77.5219C172.869 77.3993 173.31 77.3376 173.753 77.3388C174.357 77.3238 174.959 77.3987 175.541 77.5612C175.934 77.6771 176.298 77.8756 176.609 78.1432C176.848 78.3605 177.025 78.6384 177.12 78.9477C177.209 79.2312 177.256 79.5267 177.257 79.8241L177.29 84.1865ZM175.148 81.7927C175.021 81.8638 174.89 81.9272 174.755 81.9824C174.587 82.0529 174.411 82.1034 174.231 82.1328L173.661 82.2375C173.44 82.2757 173.221 82.3281 173.006 82.3944C172.839 82.4482 172.682 82.53 172.541 82.6364C172.42 82.7316 172.323 82.8551 172.26 82.9961C172.191 83.1618 172.16 83.3403 172.168 83.5193C172.164 83.6756 172.191 83.8311 172.247 83.9772C172.299 84.0986 172.378 84.2069 172.478 84.294C172.578 84.3811 172.695 84.4449 172.823 84.4808C172.961 84.5209 173.105 84.5407 173.249 84.5396C173.351 84.5475 173.454 84.5475 173.557 84.5396C173.693 84.521 173.827 84.4881 173.956 84.4415C174.104 84.3851 174.247 84.315 174.382 84.2322C174.528 84.14 174.657 84.0227 174.762 83.8856C174.882 83.7311 174.973 83.556 175.03 83.3689C175.108 83.1371 175.145 82.8939 175.142 82.6495L175.148 81.7927Z" fill="white"/>
<path d="M179.3 77.5742H181.422V80.707L184.507 77.5742H187.35L183.944 81.0013L187.494 85.8084H184.697L182.274 82.3355L181.422 83.2054V85.8215H179.281L179.3 77.5742Z" fill="white"/>
<path d="M190.487 79.3139H187.972V77.5742H195.098V79.3139H192.622V85.8084H190.487V79.3139Z" fill="white"/>
<path d="M196.447 77.5742H198.589V82.656H198.622L201.628 77.5742H203.874V85.8084H201.726V80.8444L198.812 85.8084H196.473L196.447 77.5742Z" fill="white"/>
<path d="M205.977 77.5743H210.24C210.607 77.5729 210.973 77.6057 211.334 77.6724C211.663 77.7299 211.978 77.8474 212.264 78.019C212.535 78.1775 212.76 78.4026 212.919 78.673C213.091 78.9992 213.174 79.3643 213.161 79.7326C213.168 79.9537 213.139 80.1745 213.076 80.3866C213.03 80.551 212.96 80.7076 212.867 80.8509C212.779 80.9752 212.673 81.0855 212.552 81.1779C212.436 81.2615 212.313 81.3359 212.186 81.4003C212.569 81.5231 212.9 81.7692 213.129 82.1001C213.352 82.4395 213.466 82.8388 213.456 83.2447C213.459 83.6056 213.39 83.9636 213.253 84.2977C213.127 84.6054 212.932 84.8805 212.683 85.1021C212.427 85.3378 212.123 85.5162 211.793 85.6253C211.413 85.7537 211.014 85.8157 210.614 85.8085H205.996L205.977 77.5743ZM208.118 80.8444H209.762C209.967 80.8482 210.171 80.8285 210.371 80.7855C210.508 80.7575 210.637 80.7018 210.751 80.622C210.842 80.5513 210.91 80.4559 210.948 80.3473C210.989 80.2253 211.009 80.0969 211.007 79.968C211.008 79.852 210.988 79.7368 210.948 79.6279C210.909 79.5253 210.843 79.435 210.758 79.3663C210.647 79.2857 210.523 79.2258 210.391 79.1897C210.206 79.1468 210.017 79.1271 209.828 79.1308H208.118V80.8444ZM208.118 84.3238H209.762C210.015 84.3315 210.267 84.2984 210.509 84.2257C210.672 84.1773 210.822 84.0923 210.948 83.9772C211.046 83.8877 211.116 83.7719 211.151 83.6436C211.183 83.5331 211.201 83.4187 211.203 83.3035C211.209 83.1344 211.182 82.9657 211.125 82.8065C211.074 82.676 210.988 82.5625 210.876 82.4795C210.738 82.3937 210.584 82.3379 210.424 82.316C210.207 82.282 209.988 82.2667 209.769 82.2702H208.125L208.118 84.3238Z" fill="white"/>
<path d="M215.153 77.5742H217.295V80.55H220.438V77.5742H222.573V85.8084H220.438V82.2832H217.295V85.8084H215.153V77.5742Z" fill="white"/>
<path d="M224.126 81.694C224.121 81.0976 224.218 80.5048 224.414 79.9412C224.596 79.4276 224.884 78.9576 225.259 78.5612C225.626 78.1707 226.073 77.863 226.569 77.6586C227.126 77.4345 227.723 77.3233 228.324 77.3316C228.931 77.3221 229.535 77.4333 230.099 77.6586C230.596 77.8614 231.043 78.1693 231.409 78.5612C231.777 78.9603 232.06 79.4297 232.241 79.9412C232.625 81.0782 232.625 82.3098 232.241 83.4468C232.06 83.9582 231.777 84.4277 231.409 84.8268C231.045 85.2226 230.597 85.533 230.099 85.7359C229.535 85.9612 228.931 86.0724 228.324 86.0629C227.723 86.0712 227.126 85.96 226.569 85.7359C226.071 85.5313 225.624 85.2211 225.259 84.8268C224.884 84.4303 224.596 83.9604 224.414 83.4468C224.218 82.8832 224.121 82.2904 224.126 81.694V81.694ZM226.359 81.694C226.359 82.004 226.392 82.3132 226.457 82.6162C226.521 82.9069 226.636 83.1838 226.798 83.4337C226.952 83.6734 227.16 83.873 227.407 84.0158C227.693 84.1673 228.013 84.2417 228.337 84.2316C228.669 84.2438 228.999 84.1695 229.293 84.0158C229.541 83.8797 229.75 83.6841 229.902 83.4468C230.06 83.2018 230.169 82.9286 230.223 82.6423C230.289 82.3305 230.322 82.0127 230.322 81.694C230.322 81.3753 230.289 81.0575 230.223 80.7456C230.168 80.4576 230.059 80.1825 229.902 79.9346C229.748 79.7009 229.539 79.508 229.293 79.3722C228.999 79.2185 228.669 79.1441 228.337 79.1564C228.013 79.1463 227.693 79.2207 227.407 79.3722C227.16 79.515 226.952 79.7145 226.798 79.9543C226.637 80.2024 226.522 80.477 226.457 80.7653C226.392 81.0705 226.359 81.3818 226.359 81.694Z" fill="white"/>
<path d="M234.094 77.5742H239.642V79.3139H236.236V85.8084H234.094V77.5742Z" fill="white"/>
<path d="M240.48 81.6949C240.474 81.0978 240.573 80.5044 240.774 79.9421C240.953 79.4279 241.238 78.9575 241.613 78.5621C241.981 78.1723 242.427 77.8647 242.923 77.6596C243.48 77.4347 244.077 77.3235 244.678 77.3325C245.283 77.3239 245.884 77.435 246.446 77.6596C246.943 77.8631 247.39 78.1709 247.756 78.5621C248.124 78.9603 248.405 79.4302 248.582 79.9421C248.966 81.0791 248.966 82.3107 248.582 83.4477C248.405 83.9596 248.124 84.4295 247.756 84.8277C247.392 85.2229 246.944 85.5332 246.446 85.7368C245.884 85.9613 245.283 86.0724 244.678 86.0638C244.077 86.0728 243.48 85.9616 242.923 85.7368C242.426 85.5315 241.979 85.2214 241.613 84.8277C241.238 84.4323 240.953 83.9619 240.774 83.4477C240.573 82.8854 240.474 82.292 240.48 81.6949V81.6949ZM242.713 81.6949C242.713 82.0049 242.746 82.3141 242.811 82.6171C242.875 82.9078 242.99 83.1847 243.152 83.4346C243.315 83.6926 243.545 83.9026 243.817 84.0428C244.088 84.183 244.392 84.2485 244.698 84.2325C245.03 84.2424 245.359 84.1682 245.654 84.0167C245.901 83.8806 246.111 83.685 246.263 83.4477C246.418 83.2013 246.527 82.9287 246.584 82.6432C246.645 82.3307 246.675 82.0132 246.676 81.6949C246.675 81.3766 246.644 81.0591 246.584 80.7466C246.526 80.4594 246.417 80.1848 246.263 79.9356C246.108 79.7018 245.899 79.5089 245.654 79.3731C245.359 79.2216 245.03 79.1474 244.698 79.1573C244.392 79.1413 244.088 79.2068 243.817 79.347C243.545 79.4872 243.315 79.6972 243.152 79.9552C242.991 80.2033 242.876 80.4779 242.811 80.7662C242.746 81.0714 242.713 81.3827 242.713 81.6949Z" fill="white"/>
<path d="M254.044 84.0818H254.902C255.103 83.6999 255.272 83.3017 255.406 82.8915C255.535 82.4786 255.642 82.0595 255.727 81.6357C255.805 81.2247 255.862 80.8099 255.897 80.3931C255.937 79.9876 255.963 79.6017 255.976 79.2485C255.989 78.8954 255.976 78.5945 255.976 78.2806C255.976 77.9666 255.976 77.7573 255.976 77.5742H262.421V84.1145H263.462V87.8228H261.445V85.8607H256.087V87.8228H254.077L254.044 84.0818ZM260.312 84.0818V79.3139H257.862C257.862 79.4644 257.862 79.654 257.862 79.8764C257.862 80.0988 257.862 80.3408 257.83 80.6089C257.797 80.8771 257.79 81.1648 257.758 81.4657C257.725 81.7665 257.672 82.0739 257.613 82.3748C257.554 82.6756 257.476 82.9699 257.384 83.2643C257.302 83.5467 257.192 83.8205 257.057 84.0818H260.312Z" fill="white"/>
<path d="M264.17 81.694C264.165 81.0976 264.262 80.5048 264.458 79.9412C264.64 79.4276 264.928 78.9576 265.303 78.5612C265.67 78.1707 266.117 77.863 266.613 77.6586C267.17 77.4345 267.767 77.3233 268.368 77.3316C268.975 77.3221 269.579 77.4333 270.143 77.6586C270.64 77.8614 271.087 78.1693 271.453 78.5612C271.821 78.9603 272.104 79.4297 272.285 79.9412C272.669 81.0782 272.669 82.3098 272.285 83.4468C272.104 83.9582 271.821 84.4277 271.453 84.8268C271.089 85.2226 270.641 85.533 270.143 85.7359C269.579 85.9612 268.975 86.0724 268.368 86.0629C267.767 86.0712 267.17 85.96 266.613 85.7359C266.115 85.5313 265.668 85.2211 265.303 84.8268C264.928 84.4303 264.64 83.9604 264.458 83.4468C264.262 82.8832 264.165 82.2904 264.17 81.694V81.694ZM266.403 81.694C266.403 82.004 266.436 82.3132 266.501 82.6162C266.565 82.9069 266.68 83.1838 266.842 83.4337C266.995 83.6734 267.204 83.873 267.451 84.0158C267.737 84.1673 268.057 84.2417 268.381 84.2316C268.713 84.2438 269.043 84.1695 269.337 84.0158C269.584 83.8797 269.794 83.6841 269.946 83.4468C270.104 83.2018 270.213 82.9286 270.267 82.6423C270.333 82.3305 270.366 82.0127 270.365 81.694C270.366 81.3753 270.333 81.0575 270.267 80.7456C270.212 80.4576 270.103 80.1825 269.946 79.9346C269.792 79.7009 269.583 79.508 269.337 79.3722C269.043 79.2185 268.713 79.1441 268.381 79.1564C268.057 79.1463 267.737 79.2207 267.451 79.3722C267.204 79.515 266.995 79.7145 266.842 79.9543C266.681 80.2024 266.566 80.477 266.501 80.7653C266.436 81.0705 266.403 81.3818 266.403 81.694V81.694Z" fill="white"/>
<path d="M281.998 85.8078H279.869V79.3133H277.341L277.295 80.8438C277.295 81.7071 277.216 82.4658 277.131 83.1132C277.065 83.6731 276.922 84.2211 276.706 84.7418C276.55 85.151 276.267 85.4993 275.898 85.735C275.528 85.9706 275.093 86.081 274.655 86.0498C274.436 86.051 274.217 86.0357 274.001 86.004C273.847 85.9863 273.697 85.9467 273.555 85.8863V84.1008C273.643 84.1332 273.732 84.1594 273.824 84.1793C273.953 84.208 274.085 84.2212 274.217 84.2185C274.374 84.222 274.528 84.1685 274.649 84.0681C274.806 83.9229 274.919 83.7373 274.976 83.5318C275.085 83.1829 275.155 82.8232 275.186 82.4592C275.238 82.0014 275.271 81.4062 275.284 80.6803L275.343 77.5605H281.978L281.998 85.8078Z" fill="white"/>
<path d="M343.976 85.808H341.828V82.7799H340.426C340.118 82.7799 339.856 82.7799 339.64 82.8126C339.449 82.8284 339.264 82.8841 339.097 82.9761C338.953 83.0604 338.84 83.1889 338.776 83.3424C338.692 83.5501 338.649 83.7723 338.651 83.9964V84.7943C338.651 84.9033 338.638 85.0537 338.612 85.2456C338.592 85.4398 338.541 85.6297 338.461 85.808H336.202C336.263 85.706 336.316 85.5987 336.359 85.4876C336.397 85.3893 336.43 85.2888 336.457 85.1867C336.457 85.0886 336.496 84.9905 336.509 84.8924C336.523 84.7943 336.509 84.6831 336.509 84.5719L336.614 83.5843C336.614 83.362 336.673 83.1658 336.706 83.0088C336.734 82.8581 336.794 82.7152 336.883 82.5902C336.969 82.4639 337.084 82.3588 337.217 82.2828C337.394 82.1814 337.583 82.1023 337.78 82.0474C337.693 82.024 337.608 81.9956 337.525 81.9624C337.424 81.9174 337.325 81.8672 337.23 81.8119C337.121 81.7399 337.018 81.659 336.922 81.5699C336.809 81.462 336.712 81.3387 336.634 81.2037C336.566 81.1098 336.513 81.0061 336.477 80.8963C336.441 80.7938 336.412 80.6889 336.392 80.5824C336.37 80.4856 336.357 80.3871 336.352 80.288C336.352 80.1965 336.352 80.118 336.352 80.0526C336.348 79.7894 336.383 79.527 336.457 79.2743C336.519 79.0625 336.609 78.86 336.726 78.6726C336.831 78.5095 336.959 78.362 337.106 78.2344C337.237 78.1188 337.382 78.0199 337.538 77.9401C337.706 77.8453 337.887 77.7748 338.075 77.7308C338.265 77.6839 338.457 77.6489 338.651 77.6262C338.823 77.601 338.995 77.5879 339.169 77.5869H339.548H343.983L343.976 85.808ZM341.828 79.1827H340.105C339.922 79.1827 339.738 79.1827 339.562 79.1827C339.391 79.1861 339.224 79.2262 339.07 79.3005C338.925 79.3664 338.803 79.4761 338.723 79.6144C338.624 79.8011 338.578 80.0117 338.592 80.2226C338.578 80.4274 338.623 80.6319 338.723 80.8113C338.805 80.9426 338.923 81.0472 339.064 81.1121C339.21 81.1796 339.368 81.2195 339.529 81.2298H340.04H341.828V79.1827Z" fill="white"/>
<path d="M284.25 77.5742H289.791V79.3139H286.386V85.8084H284.25V77.5742Z" fill="white"/>
<path d="M290.63 81.694C290.623 81.0969 290.723 80.5035 290.924 79.9412C291.105 79.4282 291.391 78.9582 291.763 78.5612C292.132 78.1728 292.578 77.8655 293.073 77.6586C293.63 77.4338 294.227 77.3226 294.828 77.3316C295.435 77.3221 296.039 77.4333 296.603 77.6586C297.099 77.863 297.545 78.1707 297.913 78.5612C298.28 78.9594 298.561 79.4293 298.738 79.9412C299.122 81.0782 299.122 82.3098 298.738 83.4468C298.561 83.9587 298.28 84.4286 297.913 84.8268C297.547 85.2211 297.1 85.5313 296.603 85.7359C296.039 85.9612 295.435 86.0724 294.828 86.0629C294.227 86.0719 293.63 85.9607 293.073 85.7359C292.576 85.529 292.13 85.2191 291.763 84.8268C291.391 84.4297 291.105 83.9598 290.924 83.4468C290.723 82.8845 290.623 82.291 290.63 81.694V81.694ZM292.863 81.694C292.861 82.0044 292.897 82.314 292.968 82.6162C293.026 82.9074 293.14 83.1848 293.302 83.4337C293.458 83.6736 293.669 83.873 293.918 84.0158C294.203 84.1682 294.524 84.2426 294.848 84.2316C295.179 84.2415 295.508 84.1672 295.804 84.0158C296.051 83.8797 296.26 83.6841 296.413 83.4468C296.568 83.2004 296.677 82.9278 296.734 82.6423C296.856 82.016 296.856 81.372 296.734 80.7456C296.676 80.4585 296.567 80.1839 296.413 79.9346C296.258 79.7009 296.049 79.508 295.804 79.3722C295.508 79.2207 295.179 79.1465 294.848 79.1564C294.524 79.1453 294.203 79.2198 293.918 79.3722C293.669 79.5149 293.458 79.7144 293.302 79.9543C293.141 80.2014 293.028 80.4765 292.968 80.7653C292.897 81.0697 292.862 81.3814 292.863 81.694V81.694Z" fill="white"/>
<path d="M308.484 85.8084H306.349V79.3139H303.827L303.782 80.8444C303.782 81.7077 303.696 82.4663 303.611 83.1138C303.55 83.6739 303.409 84.2223 303.192 84.7424C303.028 85.1387 302.756 85.481 302.406 85.7299C302.026 85.9666 301.583 86.0828 301.135 86.0635C300.916 86.0644 300.697 86.0491 300.481 86.0177C300.328 85.9983 300.178 85.9587 300.035 85.9V84.1145L300.304 84.193C300.435 84.2213 300.569 84.2344 300.703 84.2322C300.86 84.2323 301.013 84.1793 301.135 84.0818C301.292 83.9376 301.403 83.7514 301.456 83.5455C301.567 83.1969 301.64 82.8372 301.673 82.4729C301.718 82.0151 301.751 81.4199 301.771 80.6939L301.83 77.5742H308.484V85.8084Z" fill="white"/>
<path d="M312.25 82.3612C312.25 82.4332 312.25 82.5378 312.25 82.6621C312.267 82.8 312.298 82.9358 312.342 83.0676C312.392 83.2222 312.458 83.3712 312.538 83.5123C312.63 83.6645 312.747 83.7995 312.885 83.9113C313.04 84.0436 313.217 84.1456 313.409 84.2121C313.653 84.29 313.907 84.3276 314.163 84.3233C314.316 84.3241 314.468 84.302 314.615 84.2579C314.762 84.2192 314.902 84.155 315.027 84.0683C315.151 83.9856 315.262 83.8841 315.355 83.7674C315.452 83.6489 315.521 83.5104 315.558 83.3619H317.771C317.767 83.5383 317.734 83.7128 317.673 83.8786C317.602 84.087 317.502 84.285 317.378 84.4672C317.233 84.6817 317.064 84.8792 316.874 85.0558C316.656 85.2553 316.414 85.4267 316.154 85.566C315.855 85.7242 315.539 85.8451 315.211 85.9257C314.829 86.0212 314.438 86.0673 314.045 86.063C313.519 86.0662 312.997 85.9822 312.499 85.8145C312.024 85.6552 311.591 85.3889 311.235 85.0362C310.851 84.6461 310.56 84.1743 310.384 83.6562C310.158 82.9955 310.052 82.3003 310.069 81.6026C310.07 81.0565 310.145 80.513 310.292 79.9871C310.434 79.4922 310.672 79.0299 310.993 78.6268C311.318 78.2236 311.733 77.9013 312.204 77.685C312.76 77.4361 313.364 77.3154 313.973 77.3318C314.607 77.3139 315.238 77.4368 315.82 77.6915C316.306 77.9202 316.724 78.2719 317.031 78.7118C317.353 79.1906 317.576 79.7287 317.686 80.2945C317.823 80.9748 317.889 81.6674 317.883 82.3612H312.25ZM315.676 80.9355C315.686 80.6264 315.63 80.3186 315.512 80.0329C315.421 79.8113 315.282 79.6126 315.106 79.4508C314.949 79.3123 314.763 79.2096 314.562 79.15C314.377 79.0938 314.185 79.0652 313.992 79.065C313.804 79.0658 313.616 79.0944 313.436 79.15C313.235 79.2096 313.049 79.3123 312.892 79.4508C312.717 79.6143 312.579 79.8126 312.486 80.0329C312.367 80.3186 312.312 80.6264 312.322 80.9355H315.676Z" fill="white"/>
<path d="M321.112 79.3139H318.616V77.5742H325.742V79.3139H323.247V85.8084H321.112V79.3139Z" fill="white"/>
<path d="M327.078 77.5742H329.22V82.656L332.226 77.5742H334.473V85.8084H332.337V80.8444H332.298L329.443 85.8084H327.104L327.078 77.5742Z" fill="white"/>
<path d="M59.876 23.2592L38.0267 19.335V-3L7.06697 21.925L6.98183 21.9969C3.45162 25.1689 0 28.7399 0 34.4169V58.9821C0.00498806 61.5512 0.68433 64.0741 1.97028 66.2993C3.25624 68.5244 5.10387 70.374 7.32895 71.6637L28.6347 83.9463C30.864 85.2278 33.3913 85.9023 35.9636 85.9023C38.536 85.9023 41.0632 85.2278 43.2926 83.9463L64.5983 71.6637C66.8234 70.374 68.671 68.5244 69.9569 66.2993C71.2429 64.0741 71.9222 61.5512 71.9272 58.9821V37.6674C71.9296 34.2358 70.7238 30.9125 68.5209 28.2787C66.318 25.6449 63.258 23.8682 59.876 23.2592V23.2592ZM9.69989 25.1232L33.9005 5.62662V22.7687L59.1359 27.3469C61.565 27.784 63.763 29.0597 65.3457 30.951C66.9285 32.8423 67.7952 35.2288 67.7945 37.6936V51.9383H58.946L53.595 42.5791C53.3987 42.2392 53.1095 41.9622 52.7612 41.7803C52.413 41.5985 52.0201 41.5195 51.6286 41.5524C51.237 41.5853 50.8629 41.7289 50.55 41.9663C50.2372 42.2037 49.9984 42.5252 49.8618 42.8931L44.0458 58.6813L38.0333 48.7074C37.8551 48.4133 37.6063 48.1682 37.3094 47.9944C37.0125 47.8205 36.6768 47.7233 36.3328 47.7116C35.9888 47.6999 35.6474 47.7741 35.3393 47.9274C35.0312 48.0807 34.7663 48.3083 34.5686 48.5896L31.0645 53.606L23.6635 37.3796C23.5005 37.0184 23.2363 36.7119 22.9028 36.4972C22.5693 36.2825 22.1806 36.1688 21.7838 36.1697V36.1697C21.3839 36.1742 20.994 36.2947 20.6615 36.5165C20.3289 36.7383 20.068 37.0518 19.9107 37.4189L13.8523 51.4216H4.13277V34.4169C4.13277 30.8067 6.09109 28.3475 9.69989 25.1232ZM62.5286 68.1124L41.2622 80.3688C39.661 81.2912 37.8449 81.7768 35.9964 81.7768C34.1478 81.7768 32.3318 81.2912 30.7305 80.3688L9.39861 68.0862C7.80435 67.1587 6.48154 65.8299 5.56215 64.2324C4.64276 62.6349 4.15894 60.8246 4.15897 58.9821V55.5485H15.2146C15.6182 55.5495 16.0132 55.4314 16.3499 55.2092C16.6866 54.987 16.9501 54.6705 17.1074 54.2993L21.8362 43.3313L28.8181 58.6093C28.9682 58.9417 29.204 59.2284 29.5013 59.44C29.7987 59.6517 30.147 59.7807 30.5106 59.814C30.8742 59.8472 31.2402 59.7835 31.5711 59.6293C31.902 59.4751 32.186 59.236 32.3941 58.9364L36.147 53.5603L42.7228 64.4956C42.908 64.8003 43.1685 65.0523 43.4793 65.2275C43.7901 65.4028 44.1408 65.4953 44.4977 65.4962H44.6942C45.0779 65.4624 45.4445 65.3219 45.7524 65.0907C46.0603 64.8595 46.2972 64.5469 46.4364 64.1882L52.2065 48.4915L55.9856 55.0318C56.1645 55.3479 56.4244 55.6108 56.7386 55.7936C57.0528 55.9763 57.41 56.0723 57.7736 56.0717H67.7945V58.9756C67.793 60.8218 67.3057 62.6351 66.3816 64.2341C65.4574 65.833 64.1287 67.1614 62.5286 68.0862V68.1124Z" fill="#991828"/>
</g>
<defs>
<clipPath id="clip0_501_1242">
<rect width="346" height="89" fill="white"/>
</clipPath>
</defs>
</svg>
