<svg width="187" height="45" viewBox="0 0 187 45" fill="none" xmlns="http://www.w3.org/2000/svg">
<path d="M56.735 22.7H62.4647C65.0692 22.7 66.5068 21.0956 66.5068 18.9496C66.5068 17.2411 65.2984 15.7617 63.819 15.5326C65.1108 15.2617 66.2359 14.0949 66.2359 12.3447C66.2359 10.3862 64.8191 8.80271 62.2772 8.80271H56.735C55.9016 8.80271 55.4432 9.26109 55.4432 10.0945V21.4082C55.4432 22.2416 55.9016 22.7 56.735 22.7ZM57.8809 14.5533V10.9488H61.7772C63.0273 10.9488 63.7357 11.7197 63.7357 12.7614C63.7357 13.8032 63.0273 14.5533 61.7772 14.5533H57.8809ZM57.8809 20.5539V16.6993H61.8813C63.2773 16.6993 64.0066 17.5744 64.0066 18.6162C64.0066 19.8247 63.2148 20.5539 61.8813 20.5539H57.8809ZM80.8299 21.1373L76.4753 10.0528C76.1627 9.26109 75.3918 8.6777 74.4751 8.6777C73.5583 8.6777 72.7874 9.26109 72.4749 10.0528L68.1202 21.1373C68.0786 21.2623 68.0161 21.429 68.0161 21.5748C68.0161 22.2624 68.5786 22.825 69.2662 22.825C69.7871 22.825 70.2455 22.4916 70.4121 22.0332L71.1414 20.033H77.8087L78.538 22.0332C78.7047 22.4916 79.163 22.825 79.6839 22.825C80.3715 22.825 80.934 22.2624 80.934 21.5748C80.934 21.429 80.8715 21.2623 80.8299 21.1373ZM71.9123 17.887L74.4751 10.8654L77.0378 17.887H71.9123ZM85.7448 22.825C86.4115 22.825 86.9532 22.2624 86.9532 21.5957V10.9488H90.2035C90.7869 10.9488 91.287 10.4695 91.287 9.88615C91.287 9.28192 90.7869 8.80271 90.2035 8.80271H81.2651C80.6817 8.80271 80.1817 9.28192 80.1817 9.88615C80.1817 10.4695 80.6817 10.9488 81.2651 10.9488H84.5155V21.5957C84.5155 22.2624 85.0572 22.825 85.7448 22.825ZM104.062 9.84448C104.062 9.19858 103.541 8.6777 102.895 8.6777C102.5 8.6777 102.125 8.90689 101.916 9.21942L98.395 14.7616L94.8321 9.21942C94.6238 8.88605 94.2487 8.6777 93.8528 8.6777C93.2069 8.6777 92.6861 9.19858 92.6861 9.84448C92.6861 10.0737 92.7486 10.3237 92.8736 10.4904L97.1657 16.9285V21.5957C97.1657 22.2624 97.7074 22.825 98.395 22.825C99.0617 22.825 99.6034 22.2624 99.6034 21.5957V16.9285L103.875 10.4695C104 10.3029 104.062 10.0737 104.062 9.84448ZM116.954 20.9498L114.245 17.1577C115.766 16.741 117.121 15.4284 117.121 13.1573C117.121 10.5946 115.329 8.80271 112.579 8.80271H107.766C106.932 8.80271 106.474 9.26109 106.474 10.0945V21.5957C106.474 22.2624 107.015 22.825 107.703 22.825C108.37 22.825 108.911 22.2624 108.911 21.5957V17.5119H111.745L115.016 22.3041C115.245 22.6166 115.641 22.825 116.037 22.825C116.725 22.825 117.183 22.1999 117.183 21.7207C117.183 21.3248 117.079 21.1373 116.954 20.9498ZM108.911 10.9488H112.245C113.62 10.9488 114.62 11.8238 114.62 13.1573C114.62 14.4908 113.62 15.3659 112.245 15.3659H108.911V10.9488ZM120.849 22.7H127.162C127.745 22.7 128.245 22.2207 128.245 21.6165C128.245 21.0331 127.745 20.5539 127.162 20.5539H121.995V9.90699C121.995 9.24025 121.453 8.6777 120.786 8.6777C120.099 8.6777 119.557 9.24025 119.557 9.90699V21.4082C119.557 22.2416 120.015 22.7 120.849 22.7ZM142.197 21.1373L137.842 10.0528C137.53 9.26109 136.759 8.6777 135.842 8.6777C134.925 8.6777 134.154 9.26109 133.842 10.0528L129.487 21.1373C129.445 21.2623 129.383 21.429 129.383 21.5748C129.383 22.2624 129.946 22.825 130.633 22.825C131.154 22.825 131.612 22.4916 131.779 22.0332L132.508 20.033H139.176L139.905 22.0332C140.072 22.4916 140.53 22.825 141.051 22.825C141.738 22.825 142.301 22.2624 142.301 21.5748C142.301 21.429 142.238 21.2623 142.197 21.1373ZM133.279 17.887L135.842 10.8654L138.405 17.887H133.279ZM154.82 20.9498L152.111 17.1577C153.632 16.741 154.987 15.4284 154.987 13.1573C154.987 10.5946 153.195 8.80271 150.445 8.80271H145.632C144.798 8.80271 144.34 9.26109 144.34 10.0945V21.5957C144.34 22.2624 144.881 22.825 145.569 22.825C146.236 22.825 146.777 22.2624 146.777 21.5957V17.5119H149.611L152.882 22.3041C153.111 22.6166 153.507 22.825 153.903 22.825C154.591 22.825 155.049 22.1999 155.049 21.7207C155.049 21.3248 154.945 21.1373 154.82 20.9498ZM146.777 10.9488H150.111C151.486 10.9488 152.486 11.8238 152.486 13.1573C152.486 14.4908 151.486 15.3659 150.111 15.3659H146.777V10.9488ZM157.027 21.4707C157.027 22.2624 157.694 22.9291 158.486 22.9291C159.277 22.9291 159.944 22.2624 159.944 21.4707C159.944 20.6789 159.277 20.0122 158.486 20.0122C157.694 20.0122 157.027 20.6789 157.027 21.4707ZM172.948 20.8873L167.843 15.4701L172.51 10.5737C172.739 10.3445 172.823 10.0945 172.823 9.80281C172.823 9.17775 172.281 8.6777 171.677 8.6777C171.364 8.6777 171.073 8.78187 170.823 9.05273L164.968 15.4701V9.90699C164.968 9.24025 164.426 8.6777 163.739 8.6777C163.072 8.6777 162.53 9.24025 162.53 9.90699V21.5957C162.53 22.2624 163.072 22.825 163.739 22.825C164.426 22.825 164.968 22.2624 164.968 21.5957V18.2203L166.197 16.9077L171.281 22.4708C171.531 22.7416 171.823 22.825 172.135 22.825C172.781 22.825 173.26 22.2832 173.26 21.6582C173.26 21.3873 173.135 21.0956 172.948 20.8873ZM176.158 22.7H184.368C184.951 22.7 185.451 22.2207 185.451 21.6165C185.451 21.0331 184.951 20.5539 184.368 20.5539H178.075L185.034 10.9696C185.201 10.7612 185.305 10.4695 185.305 10.1778C185.305 9.40694 184.68 8.80271 183.93 8.80271H175.867C175.283 8.80271 174.783 9.28192 174.783 9.88615C174.783 10.4695 175.283 10.9488 175.867 10.9488H182.013L175.054 20.5331C174.887 20.7414 174.783 21.0331 174.783 21.3248C174.783 22.0957 175.408 22.7 176.158 22.7Z" fill="white"/>
<path d="M60.1208 28.1527H56.0053C55.452 28.1527 55.1407 28.4639 55.1407 29.0173V34.9657C55.1407 35.5305 55.452 35.8418 56.0053 35.8418H58.772C60.4205 35.8418 61.3197 34.7351 61.3197 33.4094C61.3197 32.0837 60.409 30.9655 58.772 30.9655H56.7777V29.5591H60.1208C60.5127 29.5591 60.8355 29.2478 60.8355 28.8674C60.8355 28.4639 60.5127 28.1527 60.1208 28.1527ZM56.7777 32.3834H58.553C59.187 32.3834 59.6481 32.7869 59.6481 33.4094C59.6481 34.0204 59.187 34.4239 58.553 34.4239H56.7777V32.3834ZM64.6746 30.1355C63.9598 30.1355 63.2451 30.3199 62.6111 30.7349C62.4612 30.8272 62.3459 31.0116 62.3459 31.2191C62.3459 31.5304 62.5995 31.784 62.8993 31.784C63.003 31.784 63.1068 31.7494 63.1875 31.7033C63.5909 31.4497 63.9829 31.3344 64.421 31.3344C65.1587 31.3344 65.6429 31.7033 65.6429 32.2681V33.0405C65.274 32.5909 64.6169 32.3604 63.8791 32.3604C62.9915 32.3604 61.9425 32.833 61.9425 34.1357C61.9425 35.3807 62.9915 35.9801 63.8791 35.9801C64.6054 35.9801 65.2625 35.7035 65.6314 35.2654C65.6775 35.6458 66.0003 35.9225 66.3692 35.9225C66.7842 35.9225 67.107 35.5767 67.107 35.1617V32.2451C67.107 30.6427 65.9426 30.1355 64.6746 30.1355ZM64.4671 34.9887C63.8907 34.9887 63.418 34.689 63.418 34.1703C63.418 33.6284 63.8907 33.3287 64.4671 33.3287C64.9397 33.3287 65.4008 33.4901 65.6429 33.8129V34.5046C65.4008 34.8273 64.9397 34.9887 64.4671 34.9887ZM70.2891 35.9225C70.6926 35.9225 71.0269 35.5882 71.0269 35.1847V31.5534H72.0298C72.3757 31.5534 72.6754 31.2652 72.6754 30.9194C72.6754 30.562 72.3757 30.2738 72.0298 30.2738H68.5599C68.2026 30.2738 67.9144 30.562 67.9144 30.9194C67.9144 31.2652 68.2026 31.5534 68.5599 31.5534H69.5513V35.1847C69.5513 35.5882 69.8856 35.9225 70.2891 35.9225ZM74.2275 30.1931C73.824 30.1931 73.5013 30.5274 73.5013 30.9309V34.9657C73.5013 35.5305 73.801 35.8418 74.3658 35.8418H76.8328C78.1355 35.8418 78.8041 34.885 78.8041 33.9397C78.8041 32.9829 78.1816 32.0376 76.8328 32.0376H74.9653V30.9309C74.9653 30.5274 74.631 30.1931 74.2275 30.1931ZM80.2681 35.9225C80.6716 35.9225 81.0059 35.5882 81.0059 35.1847V30.9309C81.0059 30.5274 80.6716 30.1931 80.2681 30.1931C79.8647 30.1931 79.5303 30.5274 79.5303 30.9309V35.1847C79.5303 35.5882 79.8647 35.9225 80.2681 35.9225ZM74.9653 33.2595H76.6138C77.0864 33.2595 77.3055 33.5593 77.3055 33.9397C77.3055 34.2971 77.0864 34.6083 76.6138 34.6083H74.9653V33.2595ZM85.6328 30.1355C84.9642 30.1355 84.3648 30.4237 83.9267 30.9655V30.9309C83.9267 30.5159 83.5924 30.1701 83.1889 30.1701C82.7739 30.1701 82.4511 30.5159 82.4511 30.9309V37.3058C82.4511 37.7093 82.7739 38.0436 83.1889 38.0436C83.5809 38.0436 83.9152 37.7093 83.9152 37.3058V35.1271C84.3763 35.7035 84.9758 35.9801 85.6328 35.9801C87.0623 35.9801 88.0998 34.908 88.0998 33.052C88.0998 31.1961 87.0623 30.1355 85.6328 30.1355ZM85.1717 34.6775C84.6991 34.6775 84.1573 34.3893 83.9152 34.0434V32.0722C84.1573 31.7148 84.6991 31.4381 85.1717 31.4381C86.0133 31.4381 86.5781 32.0952 86.5781 33.052C86.5781 34.0204 86.0133 34.6775 85.1717 34.6775ZM89.9208 30.1931C89.5173 30.1931 89.1945 30.5274 89.1945 30.9309V34.9657C89.1945 35.5305 89.4942 35.8418 90.0591 35.8418H92.5261C93.8287 35.8418 94.4974 34.885 94.4974 33.9397C94.4974 32.9829 93.8748 32.0376 92.5261 32.0376H90.6586V30.9309C90.6586 30.5274 90.3243 30.1931 89.9208 30.1931ZM95.9614 35.9225C96.3649 35.9225 96.6992 35.5882 96.6992 35.1847V30.9309C96.6992 30.5274 96.3649 30.1931 95.9614 30.1931C95.5579 30.1931 95.2236 30.5274 95.2236 30.9309V35.1847C95.2236 35.5882 95.5579 35.9225 95.9614 35.9225ZM90.6586 33.2595H92.3071C92.7797 33.2595 92.9987 33.5593 92.9987 33.9397C92.9987 34.2971 92.7797 34.6083 92.3071 34.6083H90.6586V33.2595ZM101.993 35.8418H105.302C106.766 35.8418 107.538 34.9196 107.538 33.7668C107.538 32.7984 106.881 32.003 106.062 31.8762C106.789 31.7263 107.388 31.0808 107.388 30.1124C107.388 29.0864 106.639 28.1527 105.175 28.1527H101.993C101.44 28.1527 101.129 28.4639 101.129 29.0173V34.9657C101.129 35.5305 101.44 35.8418 101.993 35.8418ZM102.765 31.2422V29.5476H104.817C105.371 29.5476 105.717 29.9165 105.717 30.3891C105.717 30.8848 105.371 31.2422 104.817 31.2422H102.765ZM102.765 34.4469V32.637H104.875C105.521 32.637 105.866 33.052 105.866 33.5362C105.866 34.0896 105.498 34.4469 104.875 34.4469H102.765ZM108.381 33.052C108.381 34.8389 109.66 35.9801 111.355 35.9801C112 35.9801 112.646 35.8303 113.188 35.519C113.372 35.4153 113.499 35.2308 113.499 35.0118C113.499 34.7005 113.234 34.4354 112.923 34.4354C112.819 34.4354 112.727 34.4584 112.646 34.5046C112.3 34.7005 111.885 34.8158 111.516 34.8158C110.571 34.8158 110.006 34.2279 109.914 33.5247H113.188C113.741 33.5247 114.052 33.3172 114.052 32.833C114.052 31.3805 112.923 30.1355 111.263 30.1355C109.568 30.1355 108.381 31.4381 108.381 33.052ZM111.263 31.2998C112.231 31.2998 112.6 32.003 112.634 32.5333H109.891C109.96 31.9799 110.352 31.2998 111.263 31.2998ZM119.459 35.9225C119.863 35.9225 120.197 35.5882 120.197 35.1847V31.1384C120.197 30.5851 119.886 30.2738 119.333 30.2738H116.508C116.001 30.2738 115.678 30.5851 115.644 31.1154L115.597 31.6918C115.448 33.5362 115.148 34.3201 114.721 34.5391C114.502 34.6544 114.341 34.908 114.341 35.1847C114.341 35.5882 114.652 35.9225 115.056 35.9225C115.182 35.9225 115.286 35.8879 115.378 35.8533C116.232 35.4498 116.75 34.3086 116.912 31.9454L116.946 31.5534H118.733V35.1847C118.733 35.5882 119.056 35.9225 119.459 35.9225ZM122.527 35.9225C122.838 35.9225 123.115 35.7611 123.264 35.5305L125.42 32.2797V35.1847C125.42 35.5882 125.743 35.9225 126.146 35.9225C126.55 35.9225 126.884 35.5882 126.884 35.1847V31.1154C126.884 30.6081 126.469 30.1931 125.962 30.1931C125.639 30.1931 125.351 30.3545 125.19 30.6081L123.115 33.7091V30.9309C123.115 30.5274 122.78 30.1931 122.388 30.1931C121.973 30.1931 121.651 30.5274 121.651 30.9309V35.0464C121.651 35.5305 122.042 35.9225 122.527 35.9225ZM133.272 34.7351L131.565 32.833L133.076 31.3574C133.202 31.2306 133.272 31.0462 133.272 30.8733C133.272 30.5044 132.972 30.1931 132.591 30.1931C132.418 30.1931 132.246 30.2508 132.107 30.3891L129.802 32.7293V30.9309C129.802 30.5274 129.467 30.1931 129.075 30.1931C128.66 30.1931 128.338 30.5274 128.338 30.9309V35.1847C128.338 35.5882 128.66 35.9225 129.064 35.9225C129.467 35.9225 129.802 35.5882 129.802 35.1847V34.3547L130.493 33.7091L132.13 35.6689C132.28 35.8418 132.476 35.9225 132.695 35.9225C133.11 35.9225 133.421 35.6112 133.421 35.1847C133.421 35.0118 133.364 34.8273 133.272 34.7351ZM136.841 35.9801C138.686 35.9801 139.793 34.6429 139.793 33.052C139.793 31.4727 138.686 30.1355 136.841 30.1355C135.008 30.1355 133.902 31.4727 133.902 33.052C133.902 34.6429 135.008 35.9801 136.841 35.9801ZM136.841 34.6775C135.931 34.6775 135.423 33.9282 135.423 33.052C135.423 32.1875 135.931 31.4381 136.841 31.4381C137.752 31.4381 138.271 32.1875 138.271 33.052C138.271 33.9282 137.752 34.6775 136.841 34.6775ZM143.496 29.2709C144.153 29.2709 144.741 29.0288 145.213 28.6023C145.317 28.51 145.386 28.3717 145.386 28.2219C145.386 27.9452 145.156 27.7146 144.879 27.7146C144.752 27.7146 144.625 27.7723 144.545 27.8414C144.245 28.1181 143.887 28.268 143.496 28.268C143.092 28.268 142.746 28.1181 142.447 27.8414C142.354 27.7607 142.239 27.7146 142.101 27.7146C141.824 27.7146 141.593 27.9452 141.593 28.2103C141.593 28.3717 141.663 28.51 141.766 28.6023C142.251 29.0288 142.85 29.2709 143.496 29.2709ZM141.755 35.9225C142.066 35.9225 142.343 35.7611 142.493 35.5305L144.648 32.2797V35.1847C144.648 35.5882 144.971 35.9225 145.375 35.9225C145.778 35.9225 146.112 35.5882 146.112 35.1847V31.1154C146.112 30.6081 145.697 30.1931 145.19 30.1931C144.867 30.1931 144.579 30.3545 144.418 30.6081L142.343 33.7091V30.9309C142.343 30.5274 142.008 30.1931 141.616 30.1931C141.201 30.1931 140.879 30.5274 140.879 30.9309V35.0464C140.879 35.5305 141.271 35.9225 141.755 35.9225ZM150.158 33.052C150.158 34.7697 151.391 35.9801 153.109 35.9801C153.847 35.9801 154.389 35.7726 154.804 35.4614C154.977 35.3461 155.092 35.1386 155.092 34.9196C155.092 34.5507 154.792 34.2625 154.423 34.2625C154.285 34.2625 154.147 34.3086 154.043 34.3893C153.801 34.5853 153.513 34.6775 153.178 34.6775C152.291 34.6775 151.668 34.0204 151.668 33.052C151.668 32.0837 152.291 31.4381 153.178 31.4381C153.513 31.4381 153.801 31.5304 154.054 31.7263C154.158 31.807 154.285 31.8531 154.435 31.8531C154.792 31.8531 155.092 31.5534 155.092 31.1961C155.092 30.977 154.977 30.7695 154.804 30.6542C154.389 30.343 153.847 30.1355 153.109 30.1355C151.391 30.1355 150.158 31.3459 150.158 33.052ZM157.964 35.9225C158.368 35.9225 158.702 35.5882 158.702 35.1847V31.5534H159.705C160.051 31.5534 160.351 31.2652 160.351 30.9194C160.351 30.562 160.051 30.2738 159.705 30.2738H156.235C155.878 30.2738 155.589 30.562 155.589 30.9194C155.589 31.2652 155.878 31.5534 156.235 31.5534H157.226V35.1847C157.226 35.5882 157.561 35.9225 157.964 35.9225ZM160.74 33.052C160.74 34.8389 162.02 35.9801 163.714 35.9801C164.36 35.9801 165.006 35.8303 165.547 35.519C165.732 35.4153 165.859 35.2308 165.859 35.0118C165.859 34.7005 165.593 34.4354 165.282 34.4354C165.178 34.4354 165.086 34.4584 165.006 34.5046C164.66 34.7005 164.245 34.8158 163.876 34.8158C162.931 34.8158 162.366 34.2279 162.273 33.5247H165.547C166.101 33.5247 166.412 33.3172 166.412 32.833C166.412 31.3805 165.282 30.1355 163.622 30.1355C161.928 30.1355 160.74 31.4381 160.74 33.052ZM163.622 31.2998C164.591 31.2998 164.959 32.003 164.994 32.5333H162.25C162.32 31.9799 162.711 31.2998 163.622 31.2998ZM171.965 35.9225C172.369 35.9225 172.703 35.5882 172.703 35.1847V31.1384C172.703 30.5851 172.392 30.2738 171.839 30.2738H168.334C167.769 30.2738 167.469 30.5851 167.469 31.1384V35.1847C167.469 35.5882 167.792 35.9225 168.207 35.9225C168.599 35.9225 168.933 35.5882 168.933 35.1847V31.5534H171.239V35.1847C171.239 35.5882 171.562 35.9225 171.965 35.9225ZM175.033 35.9225C175.344 35.9225 175.621 35.7611 175.77 35.5305L177.926 32.2797V35.1847C177.926 35.5882 178.249 35.9225 178.652 35.9225C179.056 35.9225 179.39 35.5882 179.39 35.1847V31.1154C179.39 30.6081 178.975 30.1931 178.468 30.1931C178.145 30.1931 177.857 30.3545 177.696 30.6081L175.621 33.7091V30.9309C175.621 30.5274 175.286 30.1931 174.894 30.1931C174.479 30.1931 174.157 30.5274 174.157 30.9309V35.0464C174.157 35.5305 174.548 35.9225 175.033 35.9225Z" fill="white"/>
<circle cx="22.3259" cy="22.3259" r="21.1259" fill="#FEC629" stroke="#444444" stroke-width="2.4"/>
<path fill-rule="evenodd" clip-rule="evenodd" d="M11.0081 23.2292C13.1429 24.9265 13.2391 23.0032 13.0204 21.8293C13.1933 22.2959 13.5429 23.5066 13.5581 24.6163C13.5735 25.7459 12.2907 26.9518 11.4735 27.7199C11.2872 27.895 11.1251 28.0474 11.0081 28.1709C10.4444 28.7661 10.4656 28.9049 10.6804 30.3158C10.7057 30.482 10.7337 30.6658 10.7638 30.8701C11.0489 32.809 12.2465 34.5958 15.4969 35.014C18.7474 35.4322 19.4317 34.1016 19.3937 33.1322C19.3612 32.3033 18.9813 32.3082 17.5057 32.327C17.2553 32.3302 16.9735 32.3338 16.6565 32.3338C14.4705 32.3338 14.0523 31.0792 14.3944 29.6726C14.6682 28.5473 16.3713 28.2786 17.1887 28.285H17.6639C17.835 28.5891 17.3028 29.0643 16.6565 29.5015C16.1394 29.8513 16.2003 30.3316 16.2953 30.528C17.0176 31.0602 19.1846 30.0338 19.5268 29.6726C19.6475 29.5451 19.8048 29.4278 19.9597 29.3293C20.156 29.2047 20.3484 29.1103 20.4582 29.0643C21.4657 28.2279 25.2294 28.0569 26.4839 28.1709C27.7385 28.285 27.8145 28.8932 27.7765 29.3875C27.7509 29.7204 26.2153 30.226 24.8265 30.6832C24.154 30.9046 23.5159 31.1147 23.1004 31.2883C21.8268 31.8206 21.1995 32.6569 21.1995 33.4363C21.1995 34.2157 22.5872 33.8355 22.7773 33.6074C22.9673 33.3793 24.8872 33.0751 25.6856 33.1322C26.3766 33.1815 26.5265 33.0173 27.2199 32.2573C27.3276 32.1392 27.4484 32.0068 27.5864 31.8586C28.6129 30.7561 30.1716 30.2238 31.2361 29.9007C32.3006 29.5775 32.3006 28.8552 32.3006 28.285C32.3006 28.0119 31.8472 27.5382 31.4456 27.1187C31.0087 26.6623 30.6332 26.27 30.97 26.27C31.6163 26.27 32.1865 24.8064 32.3006 24.3312C32.3918 23.951 32.0345 22.9055 31.8444 22.4303C33.5736 22.368 34.524 23.8889 34.999 24.649C35.1036 24.8164 35.1852 24.9469 35.2469 25.0155C35.5891 25.3956 37.3949 26.9544 38.6495 25.4907C39.904 24.027 38.2313 22.0311 36.7106 20.7385C35.494 19.7045 32.554 20.7132 31.2361 21.3468H30.97C30.6278 20.1303 27.8906 20.4724 27.5864 20.7385C27.2823 21.0047 25.4575 21.5369 25.2294 21.3468C25.0013 21.1567 25.3624 19.9212 25.9517 19.4459C26.541 18.9707 26.7501 18.1153 26.7881 17.5831C26.8085 17.2972 26.2474 16.8905 25.6825 16.4811C25.1958 16.1284 24.7062 15.7736 24.5831 15.4921C24.3169 14.8839 24.317 14.4657 24.5831 13.9715C24.8492 13.4772 24.393 13.04 23.8988 12.6789C23.7025 12.5354 23.5841 12.404 23.4616 12.2678C23.2756 12.0612 23.0799 11.8438 22.5872 11.5574C21.7698 11.0821 21.1615 11.8805 21.0665 12.0326C21.0423 12.0713 21.0304 12.1592 21.0152 12.2719C20.9706 12.6022 20.8972 13.1454 20.4012 13.2871C19.7359 13.4772 20.2681 14.5037 20.8574 14.9979C21.3288 15.3933 21.1932 15.7709 21.0665 15.9103C20.8232 17.0356 17.062 17.3677 15.2118 17.393C15.1206 16.7087 14.6796 16.1194 14.4705 15.9103C9.77534 13.6673 8.33963 21.1075 11.0081 23.2292ZM17.7896 23.7118C18.7063 23.2593 20.5716 22.1 20.6986 21.0829C20.7776 20.5442 20.3409 19.4409 17.962 19.3375C17.3168 19.3283 15.9451 19.4291 15.6192 19.9055C15.9914 21.2331 16.6598 22.7 17.7896 23.7118Z" fill="#444444"/>
<path d="M15.212 17.393L15.6194 19.9055M15.212 17.393L5.56201 17.8047M15.212 17.393C15.1969 17.3628 15.1621 17.2592 15.1347 17.0846C14.9991 16.2204 15.0463 13.6164 18.5763 9.55865" stroke="#444444" stroke-width="1.56631" stroke-linejoin="round"/>
</svg>
