<svg width="86" height="93" viewBox="0 0 86 93" fill="none" xmlns="http://www.w3.org/2000/svg">
<rect x="49.3784" y="0.944092" width="17.9441" height="3.25938" fill="white"/>
<rect x="51.2808" y="9.89722" width="14.1392" height="2.12651" fill="white"/>
<rect x="54.5825" y="4.20386" width="6.8292" height="7.81986" fill="white"/>
<rect x="54.5825" y="15.249" width="6.8292" height="17.4688" fill="white"/>
<rect x="51.2808" y="13.3262" width="14.1392" height="2.12651" fill="white"/>
<circle cx="69.8864" cy="32.489" r="15.3039" fill="white"/>
<circle cx="69.8864" cy="32.3838" r="10.9713" stroke="#151515" stroke-width="0.368404"/>
<circle cx="69.8866" cy="32.3844" r="4.55687" stroke="#151515" stroke-width="0.368404"/>
<rect x="59.6328" y="53.0537" width="20.5083" height="3.25938" fill="white"/>
<path fill-rule="evenodd" clip-rule="evenodd" d="M64.2488 48.5828C64.2069 48.8016 64.0458 49.4395 63.5357 49.877C62.9114 50.4125 61.064 51.2482 61.064 51.2482V51.752H78.7104V51.2482C78.7104 51.2482 77.0656 50.4125 76.4412 49.877C75.9256 49.4348 75.6285 48.7879 75.5406 48.5759C73.8658 49.3286 71.9382 49.7572 69.887 49.7572C67.842 49.7572 65.9199 49.3312 64.2488 48.5828Z" fill="white"/>
<path fill-rule="evenodd" clip-rule="evenodd" d="M66.4955 35.3777C66.4061 35.4709 66.338 35.5873 66.3017 35.7207C65.7865 37.615 66.0607 39.5792 66.5697 41.221C67.0799 42.8664 67.8493 44.2638 68.4208 45.0689C68.6764 45.4289 69.1754 45.5135 69.5354 45.258C69.7821 45.0828 69.8995 44.7933 69.8667 44.5125C67.7243 42.7128 66.3625 40.0139 66.3625 36.9969C66.3625 36.4454 66.408 35.9044 66.4955 35.3777Z" fill="#151515"/>
<path fill-rule="evenodd" clip-rule="evenodd" d="M77.589 40.9902C74.7913 40.9593 72.0262 39.7382 70.1113 37.4071C69.9975 37.2686 69.8882 37.1279 69.7833 36.9853C69.7843 36.9876 69.7853 36.9898 69.7864 36.9921C70.5906 38.7829 71.5164 39.5938 72.9518 40.5392C74.3904 41.4869 75.872 42.0783 76.8246 42.3376C77.2506 42.4536 77.6899 42.2022 77.8059 41.7762C77.8853 41.4844 77.7924 41.1863 77.589 40.9902Z" fill="#151515"/>
<path fill-rule="evenodd" clip-rule="evenodd" d="M82.2748 33.2629C80.0805 35.1878 77.0623 36.1325 73.9656 35.578C73.829 35.5535 73.6935 35.5264 73.5591 35.4966C75.109 36.0237 76.756 36.0516 78.2041 35.8719C79.9138 35.6598 81.4249 35.1488 82.3181 34.7281C82.7175 34.54 82.8888 34.0637 82.7007 33.6643C82.611 33.4739 82.4559 33.3354 82.2748 33.2629Z" fill="#151515"/>
<path fill-rule="evenodd" clip-rule="evenodd" d="M79.0011 24.6002C78.8568 27.2923 77.6098 29.9138 75.3408 31.7329C75.0189 31.991 74.6857 32.2254 74.3433 32.4366C76.1169 31.7091 77.4935 30.3472 78.4875 28.9889C79.5048 27.5986 80.1685 26.1479 80.4743 25.2092C80.6111 24.7895 80.3817 24.3383 79.9619 24.2015C79.5818 24.0776 79.176 24.2541 79.0011 24.6002Z" fill="#151515"/>
<path fill-rule="evenodd" clip-rule="evenodd" d="M70.7415 20.0579C72.6599 22.0953 73.6979 24.935 73.346 27.9318C73.2817 28.4792 73.1735 29.0108 73.0253 29.5235C73.1245 29.4414 73.2052 29.3341 73.2566 29.2063C73.9893 27.3851 73.9461 25.4022 73.632 23.7124C73.3173 22.0186 72.7161 20.541 72.2424 19.6748C72.0305 19.2874 71.5448 19.1452 71.1575 19.357C70.8922 19.5021 70.7419 19.7756 70.7415 20.0579Z" fill="#151515"/>
<path fill-rule="evenodd" clip-rule="evenodd" d="M61.0236 39.8858C61.0419 37.0166 62.3126 34.1809 64.7347 32.2581C64.9765 32.0661 65.2246 31.8874 65.4781 31.7218C63.7816 32.5151 62.4848 33.8921 61.555 35.2537C60.5835 36.6763 59.9674 38.1478 59.6922 39.096C59.5692 39.52 59.8131 39.9634 60.2371 40.0865C60.5261 40.1704 60.8241 40.0837 61.0236 39.8858Z" fill="#151515"/>
<path fill-rule="evenodd" clip-rule="evenodd" d="M57.7591 31.7427C59.6511 29.6816 62.407 28.4397 65.4209 28.5721C65.9722 28.5964 66.5109 28.6656 67.0336 28.7762C66.9443 28.6826 66.8309 28.6093 66.6989 28.5672C64.8291 27.9693 62.8547 28.1569 61.1922 28.5934C59.526 29.0309 58.0961 29.7382 57.2668 30.2738C56.8959 30.5133 56.7894 31.0082 57.0289 31.379C57.1931 31.6332 57.4772 31.7632 57.7591 31.7427Z" fill="#151515"/>
<path fill-rule="evenodd" clip-rule="evenodd" d="M61.8828 23.0219C64.6804 23.071 67.4377 24.3102 69.3374 26.654C69.6848 27.0825 69.9901 27.5315 70.2538 27.9959C70.2646 27.8671 70.2442 27.7339 70.1883 27.6074C69.3959 25.8114 67.946 24.458 66.5169 23.5032C65.0844 22.5461 63.6068 21.945 62.6559 21.6794C62.2307 21.5607 61.7897 21.8091 61.671 22.2344C61.5896 22.5257 61.6806 22.8244 61.8828 23.0219Z" fill="#151515"/>
<path d="M15.1427 0.944092H5.83154V56.3291H15.1427V31.6868H36.3335V56.3291H45.6446V0.944092H36.3335V23.66H15.1427V0.944092Z" fill="white"/>
<path d="M0.348145 78.1347H2.59528V72.1227H6.3208V78.1347H8.56793V64.3365H6.3208V70.1515H2.59528V64.3365H0.348145V78.1347Z" fill="white"/>
<path d="M17.086 78.1347H19.3923L16.2975 64.3365H13.2619L10.2066 78.1347H12.3355L12.8874 75.4539H16.5341L17.086 78.1347ZM13.3014 73.5025L14.7009 66.6822L16.1201 73.5025H13.3014Z" fill="white"/>
<path d="M24.6328 78.3318C27.1757 78.3318 28.5949 76.9323 28.5949 74.4289V73.0491H26.466V74.5078C26.466 75.7496 25.7958 76.4198 24.6723 76.4198C23.5881 76.4198 22.9179 75.7496 22.9179 74.5078V67.9635C22.9179 66.7216 23.5881 66.0514 24.6723 66.0514C25.7958 66.0514 26.466 66.7216 26.466 67.9635V69.0279H28.5949V68.0423C28.5949 65.5389 27.1757 64.1394 24.6328 64.1394C22.1097 64.1394 20.6708 65.5389 20.6708 68.0423V74.4289C20.6708 76.9323 22.1097 78.3318 24.6328 78.3318Z" fill="white"/>
<path d="M34.3952 78.3318C37.0169 78.3318 38.4756 76.9126 38.4756 74.4092V68.062C38.4756 65.5586 37.0169 64.1394 34.3952 64.1394C31.7736 64.1394 30.3149 65.5586 30.3149 68.062V74.4092C30.3149 76.9126 31.7736 78.3318 34.3952 78.3318ZM34.3952 76.3607C33.2125 76.3607 32.562 75.7102 32.562 74.5078V67.9635C32.562 66.7611 33.2125 66.1106 34.3952 66.1106C35.5779 66.1106 36.2284 66.7611 36.2284 67.9635V74.5078C36.2284 75.7102 35.5779 76.3607 34.3952 76.3607Z" fill="white"/>
<path d="M44.3638 78.3318C46.9066 78.3318 48.3259 76.9323 48.3259 74.4289V73.0491H46.197V74.5078C46.197 75.7496 45.5268 76.4198 44.4032 76.4198C43.3191 76.4198 42.6489 75.7496 42.6489 74.5078V67.9635C42.6489 66.7216 43.3191 66.0514 44.4032 66.0514C45.5268 66.0514 46.197 66.7216 46.197 67.9635V69.0279H48.3259V68.0423C48.3259 65.5389 46.9066 64.1394 44.3638 64.1394C41.8407 64.1394 40.4018 65.5389 40.4018 68.0423V74.4289C40.4018 76.9323 41.8407 78.3318 44.3638 78.3318Z" fill="white"/>
<path d="M50.2627 78.1347H52.5098V72.1227H56.2353V78.1347H58.4825V64.3365H56.2353V70.1515H52.5098V64.3365H50.2627V78.1347Z" fill="white"/>
<path d="M60.8308 78.1347H64.7731C67.4145 78.1347 68.7943 76.8338 68.7943 74.2909V73.6405C68.7943 71.0976 67.4145 69.7967 64.7731 69.7967H63.0779V64.3365H60.8308V78.1347ZM70.6078 78.1347H72.855V64.3365H70.6078V78.1347ZM63.0779 76.1636V71.7481H64.7731C65.9953 71.7481 66.5472 72.3198 66.5472 73.5616V74.3698C66.5472 75.6116 65.9953 76.1636 64.7731 76.1636H63.0779Z" fill="white"/>
<path d="M75.1911 78.1347H82.4844V76.1636H77.4382V72.1227H81.5186V70.1515H77.4382V66.3077H82.4844V64.3365H75.1911V78.1347Z" fill="white"/>
<path d="M2.24354 92.0057V84.3777H0V83.0315H6.64088V84.3777H4.39734V92.0057H2.24354Z" fill="white"/>
<path d="M11.3951 92.1852C10.4737 92.1852 9.71393 92.0356 9.11565 91.7365C8.51737 91.4254 8.07465 90.9288 7.78747 90.2468C7.5003 89.5647 7.35671 88.6553 7.35671 87.5186C7.35671 86.3819 7.48833 85.4725 7.75157 84.7905C8.02678 84.1084 8.41566 83.6178 8.91822 83.3187C9.43273 83.0076 10.049 82.8521 10.7669 82.8521C11.4848 82.8521 12.0951 83.0076 12.5976 83.3187C13.1121 83.6178 13.501 84.1084 13.7643 84.7905C14.0395 85.4725 14.1771 86.3819 14.1771 87.5186V88.1468H9.51051C9.51051 89.1758 9.68999 89.8998 10.049 90.3186C10.4199 90.7254 10.9883 90.9288 11.7541 90.9288H13.7284V91.8262C13.4651 91.91 13.1241 91.9878 12.7053 92.0595C12.2865 92.1433 11.8498 92.1852 11.3951 92.1852ZM9.51051 86.8904H12.0233C12.0233 86.1127 11.9694 85.5204 11.8617 85.1135C11.7541 84.6947 11.6045 84.4076 11.413 84.252C11.2216 84.0965 11.0062 84.0187 10.7669 84.0187C10.5276 84.0187 10.3122 84.0965 10.1208 84.252C9.92931 84.4076 9.77974 84.6947 9.67205 85.1135C9.56436 85.5204 9.51051 86.1127 9.51051 86.8904Z" fill="white"/>
<path d="M14.9883 92.0057L17.1421 87.4289L15.078 83.0315H17.3215L18.6677 86.1725L20.0138 83.0315H22.2573L20.1933 87.4289L22.3471 92.0057H20.1035L18.6677 88.6853L17.2318 92.0057H14.9883Z" fill="white"/>
<path d="M23.7906 92.0057V83.0315H25.9444V86.8007H28.3675V83.0315H30.5213V92.0057H28.3675V88.1468H25.9444V92.0057H23.7906Z" fill="white"/>
<path d="M35.9934 92.1852C35.2156 92.1852 34.5575 92.0356 34.0191 91.7365C33.4926 91.4254 33.0918 90.9288 32.8166 90.2468C32.5413 89.5647 32.4037 88.6553 32.4037 87.5186C32.4037 86.3819 32.5413 85.4725 32.8166 84.7905C33.0918 84.1084 33.4926 83.6178 34.0191 83.3187C34.5575 83.0076 35.2156 82.8521 35.9934 82.8521C36.7712 82.8521 37.4233 83.0076 37.9498 83.3187C38.4882 83.6178 38.8951 84.1084 39.1703 84.7905C39.4455 85.4725 39.5831 86.3819 39.5831 87.5186C39.5831 88.6553 39.4455 89.5647 39.1703 90.2468C38.8951 90.9288 38.4882 91.4254 37.9498 91.7365C37.4233 92.0356 36.7712 92.1852 35.9934 92.1852ZM35.9934 91.0185C36.2686 91.0185 36.5139 90.9228 36.7293 90.7314C36.9447 90.528 37.1122 90.175 37.2318 89.6724C37.3635 89.1579 37.4293 88.44 37.4293 87.5186C37.4293 86.5853 37.3635 85.8674 37.2318 85.3648C37.1122 84.8623 36.9447 84.5153 36.7293 84.3238C36.5139 84.1204 36.2686 84.0187 35.9934 84.0187C35.7302 84.0187 35.4849 84.1204 35.2575 84.3238C35.0421 84.5153 34.8686 84.8623 34.737 85.3648C34.6174 85.8674 34.5575 86.5853 34.5575 87.5186C34.5575 88.44 34.6174 89.1579 34.737 89.6724C34.8686 90.175 35.0421 90.528 35.2575 90.7314C35.4849 90.9228 35.7302 91.0185 35.9934 91.0185Z" fill="white"/>
<path d="M41.3008 92.1852C40.9897 92.1852 40.7205 92.1553 40.4931 92.0954C40.2658 92.0356 40.1461 92.0057 40.1341 92.0057V91.1083C40.4453 91.1083 40.7324 90.9587 40.9957 90.6596C41.2709 90.3604 41.4324 89.8519 41.4803 89.134L41.8392 83.0315H47.9417V92.0057H45.7879V84.3777H43.9212L43.6341 89.134C43.5742 90.163 43.3289 90.9288 42.8982 91.4314C42.4674 91.9339 41.935 92.1852 41.3008 92.1852Z" fill="white"/>
<path d="M53.4159 92.1852C52.6381 92.1852 51.98 92.0356 51.4416 91.7365C50.9151 91.4254 50.5143 90.9288 50.2391 90.2468C49.9638 89.5647 49.8262 88.6553 49.8262 87.5186C49.8262 86.3819 49.9638 85.4725 50.2391 84.7905C50.5143 84.1084 50.9151 83.6178 51.4416 83.3187C51.98 83.0076 52.6381 82.8521 53.4159 82.8521C54.1937 82.8521 54.8458 83.0076 55.3723 83.3187C55.9107 83.6178 56.3176 84.1084 56.5928 84.7905C56.868 85.4725 57.0056 86.3819 57.0056 87.5186C57.0056 88.6553 56.868 89.5647 56.5928 90.2468C56.3176 90.9288 55.9107 91.4254 55.3723 91.7365C54.8458 92.0356 54.1937 92.1852 53.4159 92.1852ZM53.4159 91.0185C53.6911 91.0185 53.9364 90.9228 54.1518 90.7314C54.3672 90.528 54.5347 90.175 54.6543 89.6724C54.786 89.1579 54.8518 88.44 54.8518 87.5186C54.8518 86.5853 54.786 85.8674 54.6543 85.3648C54.5347 84.8623 54.3672 84.5153 54.1518 84.3238C53.9364 84.1204 53.6911 84.0187 53.4159 84.0187C53.1527 84.0187 52.9074 84.1204 52.68 84.3238C52.4646 84.5153 52.2911 84.8623 52.1595 85.3648C52.0399 85.8674 51.98 86.5853 51.98 87.5186C51.98 88.44 52.0399 89.1579 52.1595 89.6724C52.2911 90.175 52.4646 90.528 52.68 90.7314C52.9074 90.9228 53.1527 91.0185 53.4159 91.0185Z" fill="white"/>
<path d="M58.8986 92.0057V83.0315H64.5523V84.3777H61.0524V92.0057H58.8986Z" fill="white"/>
<path d="M65.8921 92.0057V83.0315H67.9562V88.5058H68.0459L70.3792 83.0315H72.7125V92.0057H70.6484V86.352H70.5587L68.0459 92.0057H65.8921Z" fill="white"/>
<path d="M75.0415 92.0057V83.0315H77.1056V88.5058H77.1954L79.5286 83.0315H81.8619V92.0057H79.7979V86.352H79.7081L77.1954 92.0057H75.0415Z" fill="white"/>
</svg>
