<svg width="132" height="68" viewBox="0 0 132 68" fill="none" xmlns="http://www.w3.org/2000/svg">
<path d="M35.8546 0.558868L58.6031 59.162C59.4769 61.4088 60.4442 62.969 61.5052 63.8428C62.6286 64.6541 63.6271 65.091 64.5009 65.1534V67.0257C62.6286 66.9009 60.413 66.8384 57.8542 66.8384C55.3578 66.776 52.8302 66.7448 50.2714 66.7448C47.4005 66.7448 44.6857 66.776 42.1269 66.8384C39.568 66.8384 37.5397 66.9009 36.0419 67.0257V65.1534C39.2248 65.0285 41.2219 64.4981 42.0332 63.5619C42.907 62.5634 42.7197 60.4726 41.4715 57.2897L25.557 13.7586L27.242 11.3246L13.0125 48.3962C11.6395 51.8288 10.797 54.6373 10.4849 56.8216C10.2353 59.006 10.3913 60.691 10.953 61.8768C11.5771 63.0626 12.5444 63.9052 13.8551 64.4044C15.2281 64.8413 16.8507 65.091 18.723 65.1534V67.0257C16.6635 66.9009 14.6976 66.8384 12.8253 66.8384C10.953 66.776 9.04947 66.7448 7.11476 66.7448C5.74173 66.7448 4.43112 66.776 3.18292 66.8384C1.99712 66.8384 0.936152 66.9009 0 67.0257V65.1534C1.31061 64.9037 2.65243 64.0612 4.02545 62.6258C5.39848 61.1903 6.7403 58.7563 8.05091 55.3238L29.3952 0.558868C30.3937 0.621278 31.4547 0.652482 32.5781 0.652482C33.7639 0.652482 34.8561 0.621278 35.8546 0.558868ZM42.4077 40.0645V41.9368H14.5104L15.4465 40.0645H42.4077Z" fill="#BEA374"/>
<path d="M54.9188 18.7473V31.5107C54.9188 32.078 55.0197 32.5003 55.2214 32.7776C55.4357 33.0423 55.8138 33.1747 56.3559 33.1747V33.5718C55.9651 33.5339 55.5743 33.515 55.1835 33.515C54.818 33.515 54.465 33.5339 54.1247 33.5718C53.7969 33.6096 53.4944 33.6789 53.217 33.7798V21.0164C53.217 20.4491 53.1162 20.0331 52.9145 19.7684C52.7128 19.4911 52.3346 19.3524 51.78 19.3524V18.9553C52.1834 18.9931 52.5741 19.012 52.9523 19.012C53.3179 19.012 53.6645 18.9931 53.9923 18.9553C54.3327 18.9049 54.6415 18.8356 54.9188 18.7473ZM50.948 23.569C51.5026 23.569 52.0195 23.7014 52.4985 23.9661C52.9901 24.2308 53.3179 24.6847 53.4818 25.3276L53.2359 25.5166C53.0595 24.9872 52.7821 24.6027 52.404 24.3632C52.0384 24.1237 51.6035 24.0039 51.0993 24.0039C50.3555 24.0039 49.7315 24.3884 49.2273 25.1574C48.7357 25.9263 48.4962 27.1113 48.5088 28.7122C48.5088 29.7333 48.6033 30.5842 48.7924 31.2649C48.9941 31.933 49.284 32.4372 49.6622 32.7776C50.053 33.1053 50.5257 33.2692 51.0804 33.2692C51.6098 33.2692 52.0888 33.0423 52.5174 32.5885C52.946 32.1347 53.2044 31.4666 53.2927 30.5842L53.5196 30.8489C53.4187 31.8069 53.1099 32.5444 52.5931 33.0612C52.0888 33.5781 51.4018 33.8365 50.532 33.8365C49.7504 33.8365 49.0634 33.6474 48.471 33.2692C47.8911 32.891 47.4436 32.3238 47.1284 31.5674C46.8259 30.8111 46.6746 29.8593 46.6746 28.7122C46.6746 27.5651 46.87 26.6133 47.2608 25.857C47.6642 25.088 48.1873 24.5145 48.8302 24.1363C49.4857 23.7581 50.1916 23.569 50.948 23.569Z" fill="white"/>
<path d="M71.3515 23.569C72.4609 23.569 73.3244 23.9094 73.942 24.5901C74.5723 25.2582 74.8875 26.3045 74.8875 27.729H68.2127L68.1938 27.3697H73.0722C73.0974 26.752 73.047 26.1847 72.921 25.6679C72.7949 25.1385 72.5932 24.7162 72.3159 24.401C72.0512 24.0859 71.7045 23.9283 71.2759 23.9283C70.696 23.9283 70.1792 24.2182 69.7254 24.7981C69.2842 25.378 69.0195 26.2982 68.9312 27.5588L68.988 27.6344C68.9627 27.8235 68.9438 28.0315 68.9312 28.2584C68.9186 28.4853 68.9123 28.7122 68.9123 28.9391C68.9123 29.7963 69.051 30.5338 69.3283 31.1514C69.6056 31.7691 69.9649 32.2418 70.4061 32.5696C70.8599 32.8847 71.3263 33.0423 71.8054 33.0423C72.1835 33.0423 72.5428 32.9856 72.8832 32.8721C73.2235 32.7461 73.5387 32.5444 73.8286 32.2671C74.1185 31.9897 74.3706 31.6179 74.5849 31.1514L74.9631 31.3027C74.8244 31.7187 74.5975 32.1221 74.2824 32.5129C73.9672 32.9036 73.5702 33.2251 73.0911 33.4772C72.6121 33.7167 72.0575 33.8365 71.4272 33.8365C70.5196 33.8365 69.738 33.6285 69.0825 33.2125C68.4396 32.7965 67.9417 32.2229 67.5887 31.4918C67.2483 30.7481 67.0782 29.8972 67.0782 28.9391C67.0782 27.8298 67.2547 26.8781 67.6076 26.0839C67.9606 25.2771 68.4585 24.6594 69.1014 24.2308C69.7443 23.7896 70.4943 23.569 71.3515 23.569Z" fill="white"/>
<path d="M90.5034 23.569C90.9068 23.569 91.2976 23.6195 91.6758 23.7203C92.0539 23.8212 92.3943 23.9724 92.6968 24.1741C92.9868 24.3632 93.2074 24.5838 93.3586 24.8359C93.5099 25.0754 93.5855 25.3402 93.5855 25.6301C93.5855 25.9704 93.491 26.2352 93.3019 26.4243C93.1128 26.6007 92.8733 26.689 92.5834 26.689C92.3061 26.689 92.0602 26.607 91.8459 26.4432C91.6442 26.2793 91.5434 26.0461 91.5434 25.7435C91.5434 25.4536 91.619 25.2204 91.7703 25.0439C91.9342 24.8674 92.1233 24.754 92.3376 24.7036C92.2115 24.4767 91.9846 24.2876 91.6569 24.1363C91.3417 23.985 91.0014 23.9094 90.6358 23.9094C90.3206 23.9094 90.0055 23.985 89.6903 24.1363C89.3752 24.2876 89.0853 24.5397 88.8205 24.8927C88.5558 25.233 88.3415 25.7057 88.1777 26.3108C88.0138 26.9033 87.9318 27.647 87.9318 28.542C87.9318 29.6513 88.0579 30.5338 88.31 31.1893C88.5621 31.8448 88.8899 32.3175 89.2933 32.6074C89.7093 32.8847 90.1631 33.0234 90.6547 33.0234C90.9824 33.0234 91.3165 32.9604 91.6569 32.8343C91.9972 32.7083 92.3187 32.5066 92.6212 32.2292C92.9237 31.9393 93.1822 31.5548 93.3965 31.0758L93.7557 31.2082C93.6297 31.6116 93.4217 32.0212 93.1317 32.4372C92.8418 32.8406 92.4636 33.1747 91.9972 33.4394C91.5308 33.7041 90.9572 33.8365 90.2765 33.8365C89.495 33.8365 88.789 33.6348 88.1587 33.2314C87.5285 32.828 87.0242 32.2544 86.646 31.5107C86.2805 30.7544 86.0977 29.8593 86.0977 28.8257C86.0977 27.792 86.2805 26.8844 86.646 26.1028C87.0242 25.3086 87.5474 24.691 88.2155 24.2498C88.8836 23.7959 89.6462 23.569 90.5034 23.569Z" fill="white"/>
<path d="M109.059 23.569C109.866 23.569 110.591 23.7455 111.234 24.0985C111.876 24.4514 112.387 25.0061 112.765 25.7625C113.156 26.5188 113.351 27.5021 113.351 28.7122C113.351 29.9224 113.156 30.9056 112.765 31.662C112.387 32.4057 111.876 32.9541 111.234 33.307C110.591 33.66 109.866 33.8365 109.059 33.8365C108.265 33.8365 107.54 33.66 106.885 33.307C106.242 32.9541 105.725 32.4057 105.334 31.662C104.956 30.9056 104.767 29.9224 104.767 28.7122C104.767 27.5021 104.956 26.5188 105.334 25.7625C105.725 25.0061 106.242 24.4514 106.885 24.0985C107.54 23.7455 108.265 23.569 109.059 23.569ZM109.059 23.9472C108.341 23.9472 107.748 24.3191 107.282 25.0628C106.828 25.8066 106.601 27.023 106.601 28.7122C106.601 30.4014 106.828 31.6179 107.282 32.3616C107.748 33.0927 108.341 33.4583 109.059 33.4583C109.778 33.4583 110.364 33.0927 110.818 32.3616C111.284 31.6179 111.517 30.4014 111.517 28.7122C111.517 27.023 111.284 25.8066 110.818 25.0628C110.364 24.3191 109.778 23.9472 109.059 23.9472Z" fill="white"/>
<path d="M130.121 23.569C130.461 23.569 130.757 23.6384 131.009 23.777C131.274 23.9157 131.476 24.0985 131.614 24.3254C131.766 24.5397 131.841 24.7855 131.841 25.0628C131.841 25.378 131.74 25.6553 131.539 25.8948C131.35 26.1343 131.091 26.2541 130.763 26.2541C130.499 26.2541 130.266 26.1721 130.064 26.0083C129.862 25.8318 129.761 25.586 129.761 25.2708C129.761 25.0313 129.824 24.8296 129.95 24.6657C130.089 24.4893 130.24 24.3506 130.404 24.2498C130.316 24.1237 130.184 24.0607 130.007 24.0607C129.616 24.0607 129.257 24.1804 128.929 24.4199C128.602 24.6468 128.324 24.9431 128.097 25.3086C127.87 25.6742 127.694 26.065 127.568 26.481C127.442 26.8844 127.379 27.2625 127.379 27.6155V31.6242C127.379 32.2418 127.555 32.6578 127.908 32.8721C128.274 33.0738 128.765 33.1747 129.383 33.1747V33.5718C129.093 33.5591 128.684 33.5465 128.154 33.5339C127.625 33.5087 127.064 33.4961 126.471 33.4961C126.043 33.4961 125.614 33.5087 125.185 33.5339C124.769 33.5465 124.454 33.5591 124.24 33.5718V33.1747C124.757 33.1747 125.122 33.0801 125.337 32.891C125.564 32.702 125.677 32.3427 125.677 31.8132V25.8948C125.677 25.3276 125.576 24.9116 125.375 24.6468C125.173 24.3695 124.795 24.2308 124.24 24.2308V23.8338C124.643 23.8716 125.034 23.8905 125.412 23.8905C125.778 23.8905 126.125 23.8716 126.452 23.8338C126.793 23.7833 127.102 23.714 127.379 23.6258V25.9894C127.518 25.6238 127.713 25.2582 127.965 24.8927C128.23 24.5145 128.545 24.1993 128.91 23.9472C129.276 23.6951 129.679 23.569 130.121 23.569Z" fill="white"/>
<path d="M69.5483 41.2807C70.1544 41.3049 70.9665 41.3292 71.9847 41.3534C73.0271 41.3777 74.0573 41.3898 75.0755 41.3898C76.2391 41.3898 77.3664 41.3777 78.4573 41.3534C79.5481 41.3292 80.3239 41.3171 80.7845 41.3171C83.039 41.3171 84.9056 41.5716 86.3844 42.0807C87.8874 42.5655 89.0025 43.2807 89.7298 44.2261C90.4813 45.1715 90.857 46.3109 90.857 47.6442C90.857 48.4684 90.6873 49.3048 90.3479 50.1533C90.0086 50.9775 89.4267 51.7532 88.6025 52.4805C87.8025 53.1835 86.6995 53.7532 85.2935 54.1895C83.8875 54.6017 82.1178 54.8077 79.9845 54.8077H76.4937V54.0805H79.6209C81.0511 54.0805 82.1299 53.8138 82.8572 53.2805C83.6087 52.7229 84.1178 51.9956 84.3844 51.0987C84.6753 50.1775 84.8208 49.1593 84.8208 48.0442C84.8208 46.1291 84.4814 44.6503 83.8026 43.6079C83.1238 42.5413 81.9602 42.008 80.3118 42.008C79.3663 42.008 78.7482 42.214 78.4573 42.6261C78.1906 43.0382 78.0573 43.8746 78.0573 45.1352V63.1712C78.0573 64.0439 78.1179 64.6984 78.2391 65.1348C78.3845 65.5711 78.6512 65.862 79.0391 66.0075C79.4269 66.1529 80.0087 66.2499 80.7845 66.2984V67.0257C80.13 66.9772 79.3057 66.9529 78.3118 66.9529C77.3179 66.9287 76.3118 66.9166 75.2937 66.9166C74.1301 66.9166 73.0271 66.9287 71.9847 66.9529C70.9665 66.9529 70.1544 66.9772 69.5483 67.0257V66.2984C70.3241 66.2499 70.9059 66.1529 71.2938 66.0075C71.6816 65.862 71.9362 65.5711 72.0574 65.1348C72.2028 64.6984 72.2756 64.0439 72.2756 63.1712V45.1352C72.2756 44.2382 72.2028 43.5837 72.0574 43.1716C71.9362 42.7352 71.6695 42.4443 71.2574 42.2989C70.8695 42.1292 70.2998 42.0322 69.5483 42.008V41.2807ZM76.4209 54.1895C77.4633 54.2138 78.3603 54.2623 79.1118 54.335C79.8875 54.4077 80.5663 54.4804 81.1481 54.5532C81.7299 54.6017 82.2511 54.638 82.7117 54.6623C84.9177 54.8562 86.542 55.3289 87.5844 56.0804C88.651 56.8319 89.3419 57.9592 89.657 59.4622L90.4934 63.2075C90.7116 64.1772 90.9419 64.856 91.1843 65.2439C91.4267 65.6317 91.7782 65.8257 92.2388 65.8257C92.554 65.8014 92.8085 65.7287 93.0024 65.6075C93.2206 65.462 93.4509 65.256 93.6933 64.9893L94.2024 65.4257C93.5479 66.1772 92.8449 66.7105 92.0934 67.0257C91.3419 67.365 90.4328 67.5347 89.3661 67.5347C88.0571 67.5347 86.9783 67.256 86.1298 66.6984C85.2814 66.1408 84.7238 65.1105 84.4571 63.6075L83.8026 59.9712C83.6329 58.9531 83.4269 58.0683 83.1844 57.3168C82.942 56.541 82.6026 55.935 82.1663 55.4986C81.7542 55.038 81.1724 54.8077 80.4209 54.8077H76.4937L76.4209 54.1895Z" fill="white"/>
<path d="M132 41.2807C131.903 42.517 131.83 43.7049 131.782 44.8443C131.758 45.9836 131.745 46.8563 131.745 47.4624C131.745 47.9957 131.758 48.5048 131.782 48.9896C131.806 49.4745 131.83 49.8866 131.855 50.226H131.018C130.63 48.1897 130.133 46.5776 129.527 45.3897C128.945 44.2019 128.242 43.3655 127.418 42.8807C126.594 42.3716 125.624 42.117 124.509 42.117H123.673V62.8803C123.673 63.85 123.77 64.5772 123.964 65.0621C124.182 65.5469 124.57 65.8742 125.127 66.0439C125.685 66.1893 126.497 66.2742 127.564 66.2984V67.0257C126.812 67.0014 125.806 66.9772 124.546 66.9529C123.309 66.9287 122.012 66.9166 120.655 66.9166C119.321 66.9166 118.061 66.9287 116.873 66.9529C115.685 66.9772 114.728 67.0014 114 67.0257V66.2984C115.091 66.2742 115.915 66.1893 116.473 66.0439C117.031 65.8742 117.406 65.5469 117.6 65.0621C117.794 64.5772 117.891 63.85 117.891 62.8803V42.117H117.091C115.976 42.117 115.006 42.3716 114.182 42.8807C113.358 43.3655 112.655 44.2019 112.073 45.3897C111.491 46.5533 110.982 48.1654 110.546 50.226H109.709C109.758 49.8866 109.782 49.4745 109.782 48.9896C109.806 48.5048 109.819 47.9957 109.819 47.4624C109.819 46.8563 109.794 45.9836 109.746 44.8443C109.722 43.7049 109.661 42.517 109.564 41.2807C110.679 41.3049 111.891 41.3292 113.2 41.3534C114.534 41.3777 115.867 41.3898 117.2 41.3898C118.534 41.3898 119.734 41.3898 120.8 41.3898C121.891 41.3898 123.091 41.3898 124.4 41.3898C125.733 41.3898 127.067 41.3777 128.4 41.3534C129.733 41.3292 130.933 41.3049 132 41.2807Z" fill="white"/>
</svg>
