<svg width="128" height="62" viewBox="0 0 128 62" fill="none" xmlns="http://www.w3.org/2000/svg">
<path d="M25.1094 40.2285H27.1967C28.7507 40.2285 29.5252 40.7773 29.5252 41.8748C29.5252 42.6236 29.2533 43.2134 28.7046 43.6288C28.1558 44.0493 27.3916 44.2545 26.4069 44.2545H23.4682C22.3861 44.2545 21.5296 44.034 20.909 43.5878C20.2884 43.1467 19.9756 42.5415 19.9756 41.7773C19.9756 41.3722 20.1038 40.8542 20.3654 40.2234L23.4118 32.7252L23.6169 32.2073C24.1811 30.8174 25.094 30.1199 26.3505 30.1199C26.8685 30.1199 27.3147 30.2943 27.6891 30.6379C28.0635 30.9815 28.2533 31.3969 28.2533 31.8739C28.2533 32.2688 28.0891 32.8689 27.7558 33.6843L25.1145 40.2234L25.1094 40.2285ZM27.5455 24.2373C28.2584 24.2373 28.8636 24.4886 29.3662 24.9861C29.8688 25.4836 30.115 26.0939 30.115 26.8068C30.115 27.5197 29.8637 28.13 29.3662 28.6274C28.8687 29.1249 28.2584 29.3762 27.5455 29.3762C26.8326 29.3762 26.2223 29.1249 25.7248 28.6274C25.2273 28.13 24.976 27.5248 24.976 26.8068C24.976 26.0888 25.2273 25.4887 25.7248 24.9861C26.2223 24.4886 26.8275 24.2373 27.5455 24.2373Z" fill="#0E7034"/>
<path d="M39.4593 30.1298H40.0337C41.598 30.1298 42.3775 30.6786 42.3775 31.771C42.3775 32.5198 42.1006 33.1096 41.5467 33.525C40.9928 33.9456 40.2286 34.1507 39.2542 34.1507H37.9054L35.4282 40.2282H37.4951C39.0593 40.2282 39.8389 40.7769 39.8389 41.8745C39.8389 42.6233 39.567 43.2131 39.0183 43.6285C38.4695 44.049 37.7053 44.2542 36.7206 44.2542H33.4126C32.4741 44.2542 31.7356 44.0388 31.1868 43.608C30.638 43.1772 30.3662 42.5925 30.3662 41.854C30.3662 41.3975 30.479 40.8949 30.6996 40.341L31.0483 39.5307L33.228 34.1558H32.9511C31.5714 34.1558 30.8842 33.6225 30.8842 32.5506C30.8842 31.7864 31.156 31.1915 31.7048 30.7709C32.2536 30.3452 33.0177 30.135 34.0024 30.135H34.8538L35.8334 27.7142L36.0385 27.2168C36.6181 25.8525 37.5258 25.1653 38.7721 25.1653C39.2747 25.1653 39.7106 25.3345 40.0748 25.673C40.4389 26.0115 40.6184 26.4218 40.6184 26.9039C40.6184 27.386 40.4594 27.9604 40.1363 28.6784L39.4542 30.135L39.4593 30.1298Z" fill="#0E7034"/>
<path d="M51.4504 45.013H53.5942C55.1584 45.013 55.938 45.5618 55.938 46.6593C55.938 47.4081 55.6661 47.9928 55.1174 48.4133C54.5686 48.8339 53.8044 49.039 52.8197 49.039H49.8297C49.4707 50.0955 48.8245 51.5008 47.8911 53.2497C46.2653 56.3269 43.901 57.8655 40.7981 57.8655C38.9159 57.8655 37.3311 57.2757 36.0541 56.091C34.7719 54.9114 34.1309 53.4446 34.1309 51.6957C34.1309 50.4751 34.4796 49.3416 35.1771 48.2903C35.8746 47.2389 36.7875 46.4439 37.9209 45.9157C39.2236 45.3105 41.152 45.013 43.701 45.013H46.7115L47.2449 43.6847C46.332 44.0642 45.496 44.2591 44.7318 44.2591C43.4137 44.2591 42.347 43.9258 41.5264 43.2539C40.7058 42.582 40.2955 41.7102 40.2955 40.6383C40.2955 39.9869 40.5622 39.0074 41.0905 37.6996L43.1009 32.7299L43.306 32.2119C43.8958 30.822 44.8139 30.1245 46.0601 30.1245C46.6038 30.1245 47.0551 30.2989 47.4192 30.6425C47.7834 30.9861 47.9629 31.4272 47.9629 31.9554C47.9629 32.3145 47.8039 32.894 47.4808 33.6941L45.6704 38.1098C45.3883 38.8227 45.2396 39.2843 45.2293 39.4946C45.1934 40.0998 45.5729 40.3972 46.373 40.3972C46.9371 40.3972 47.5167 40.2331 48.1116 39.8998C48.7014 39.5664 49.0758 39.192 49.2399 38.7714L51.7171 32.7299L51.9017 32.2119C52.4812 30.822 53.3993 30.1245 54.6558 30.1245C55.1994 30.1245 55.6507 30.2989 56.0149 30.6528C56.379 31.0015 56.5585 31.4375 56.5585 31.9554C56.5585 32.3145 56.4662 32.7247 56.2816 33.1915L56.061 33.6889L51.4606 45.0079L51.4504 45.013ZM45.4088 49.039H42.8239C39.9929 49.039 38.5774 49.9263 38.5774 51.7008C38.5774 52.3265 38.7723 52.8343 39.157 53.2138C39.5467 53.5933 40.0647 53.7882 40.7161 53.7882C41.6136 53.7882 42.4137 53.4394 43.106 52.7368C43.8035 52.0342 44.5677 50.8033 45.4037 49.0442L45.4088 49.039Z" fill="#0E7034"/>
<path d="M71.3809 47.6855L66.5599 59.543C65.8932 61.179 64.9239 61.9996 63.6417 61.9996C63.1494 61.9996 62.7288 61.8355 62.3749 61.5124C62.0262 61.1841 61.8467 60.7944 61.8467 60.3379C61.8467 59.9584 62.0005 59.3788 62.3083 58.6044L71.2116 36.664C71.6681 35.5562 72.4528 35.0023 73.5759 35.0023C74.3504 35.0023 74.9658 35.3715 75.4223 36.1101C76.2839 35.1972 77.3353 34.7407 78.5815 34.7407C79.8278 34.7407 80.9202 35.2331 81.71 36.2075C82.505 37.1871 82.8999 38.4744 82.8999 40.0745C82.8999 43.1056 81.9562 45.5725 80.074 47.4803C79.4585 48.106 78.8226 48.542 78.1712 48.7728C77.5199 49.0087 76.607 49.1215 75.4376 49.1215C74.1811 49.1215 73.3144 49.0343 72.8425 48.8651C72.3707 48.6907 71.8784 48.3009 71.3757 47.6855H71.3809ZM72.8938 43.9159C73.2016 44.4595 73.4939 44.8083 73.7708 44.9673C74.0478 45.1263 74.4888 45.2083 75.094 45.2083C75.9659 45.2083 76.6531 44.8801 77.1455 44.2288C78.1405 42.9107 78.6431 41.5567 78.6431 40.1669C78.6431 38.9719 78.0789 38.3769 76.9455 38.3769C75.6992 38.3769 74.8068 39.095 74.2683 40.5361C74.2068 40.6951 74.1555 40.8336 74.1196 40.9413L72.899 43.9159H72.8938Z" fill="#0E7034"/>
<path d="M92.4391 34.7356C94.2239 34.7356 95.6907 35.2998 96.8447 36.4332C97.9935 37.5666 98.573 39.0078 98.573 40.7567C98.573 42.0747 98.2704 43.3825 97.6704 44.6801C97.0652 45.9776 96.2856 47.0136 95.3266 47.7932C94.6855 48.2958 94.0239 48.6445 93.3418 48.8343C92.6597 49.0241 91.7006 49.1215 90.4697 49.1215C88.4644 49.1215 87.1104 48.8805 86.4078 48.4035C84.7564 47.2701 83.9307 45.5981 83.9307 43.3825C83.9307 41.0439 84.7718 39.018 86.4591 37.3051C88.1464 35.5921 90.1415 34.7356 92.4443 34.7356H92.4391ZM91.9981 38.6693C91.0852 38.6693 90.2543 39.1206 89.5055 40.0181C88.7567 40.9156 88.3772 41.9106 88.3772 42.9928C88.3772 44.4237 89.1773 45.1365 90.7774 45.1365C91.7109 45.1365 92.434 44.8493 92.9366 44.2698C93.7726 43.321 94.1931 42.2388 94.1931 41.0182C94.1931 40.3156 93.988 39.7514 93.5828 39.3206C93.1777 38.8898 92.6443 38.6744 91.9929 38.6744L91.9981 38.6693Z" fill="#0E7034"/>
<path d="M104.163 39.0383L103.537 40.5923C102.973 41.9719 102.234 42.6592 101.321 42.6592C100.768 42.6592 100.306 42.4951 99.9367 42.1617C99.5674 41.8283 99.3828 41.418 99.3828 40.9257C99.3828 40.6436 99.5162 40.1615 99.788 39.4845L101.875 34.3302C102.378 33.0891 103.096 32.4634 104.019 32.4634C104.942 32.4634 105.491 32.8942 105.701 33.7558L105.85 34.3302C105.922 34.6277 106.035 34.8123 106.183 34.8841C106.332 34.9559 106.696 34.9969 107.271 34.9969H111.594C113.205 34.9969 114.015 35.5611 114.015 36.6945C114.015 38.2588 112.994 39.0383 110.948 39.0383L110.743 39.223C108.784 41.0949 107.804 42.5412 107.804 43.5618C107.804 44.5824 108.368 45.0953 109.502 45.0953H111.83C113.394 45.0953 114.174 45.6389 114.174 46.7211C114.174 47.4852 113.902 48.075 113.353 48.4956C112.805 48.9161 112.04 49.1213 111.056 49.1213H107.435C106.204 49.1213 105.199 48.6956 104.414 47.8494C103.629 46.998 103.24 45.9005 103.24 44.5414C103.24 43.6798 103.45 42.8438 103.865 42.0283C104.286 41.218 105.024 40.2179 106.081 39.0383H104.158H104.163Z" fill="#0E7034"/>
<path d="M124.218 34.997H124.793C126.357 34.997 127.136 35.5458 127.136 36.6382C127.136 37.387 126.859 37.9768 126.305 38.3922C125.752 38.8128 124.987 39.0179 124.013 39.0179H122.664L120.187 45.0954H122.254C123.818 45.0954 124.598 45.6441 124.598 46.7417C124.598 47.4905 124.326 48.0803 123.777 48.4957C123.228 48.9162 122.464 49.1214 121.479 49.1214H118.171C117.233 49.1214 116.494 48.906 115.946 48.4752C115.397 48.0443 115.125 47.4597 115.125 46.7212C115.125 46.2647 115.238 45.7621 115.458 45.2082L115.807 44.3979L117.987 39.023H117.71C116.33 39.023 115.643 38.4896 115.643 37.4178C115.643 36.6536 115.915 36.0587 116.464 35.6381C117.012 35.2124 117.777 35.0022 118.761 35.0022H119.613L120.592 32.5814L120.797 32.0839C121.377 30.7197 122.285 30.0325 123.531 30.0325C124.033 30.0325 124.469 30.2017 124.834 30.5402C125.198 30.8787 125.377 31.289 125.377 31.7711C125.377 32.2532 125.218 32.8276 124.895 33.5456L124.213 35.0022L124.218 34.997Z" fill="#0E7034"/>
<mask id="mask0_46_37" style="mask-type:luminance" maskUnits="userSpaceOnUse" x="50" y="2" width="28" height="29">
<path d="M62.8112 6.73815C67.4578 15.6825 70.976 21.9754 77.0381 30.6839C65.1499 26.0117 54.8823 20.2983 50.7075 11.0667C47.1995 3.3122 57.8056 -0.324027 62.8112 6.73815Z" fill="white"/>
</mask>
<g mask="url(#mask0_46_37)">
<path d="M77.0388 -0.323975H47.2002V30.6839H77.0388V-0.323975Z" fill="url(#paint0_linear_46_37)"/>
</g>
<mask id="mask1_46_37" style="mask-type:luminance" maskUnits="userSpaceOnUse" x="65" y="0" width="44" height="31">
<path d="M108.403 0.19922C94.7149 11.9028 80.5291 17.2213 65.1943 7.70759C68.9331 14.6313 72.8514 21.2883 76.5954 28.2069C78.7597 32.397 82.9857 30.2122 85.6064 28.2941C95.9971 20.6985 102.223 10.395 108.403 0.194092" fill="white"/>
</mask>
<g mask="url(#mask1_46_37)">
<path d="M108.403 0.19873H65.1943V32.3965H108.403V0.19873Z" fill="url(#paint1_linear_46_37)"/>
</g>
<path fill-rule="evenodd" clip-rule="evenodd" d="M62.7133 39.8281L62.3595 40.6846C61.8158 41.9155 61.0414 42.5258 60.0464 42.5258C59.5336 42.5258 59.0822 42.3514 58.6873 41.9976C58.2822 41.6488 58.0822 41.2488 58.0822 40.7872C58.0822 40.3564 58.2565 39.7871 58.6155 39.064L61.067 34.0686C61.6722 32.8685 62.421 32.2736 63.3237 32.2736C63.8006 32.2736 64.2109 32.4326 64.5597 32.7454C64.9084 33.0583 65.0777 33.4327 65.0777 33.8635C65.0777 33.9763 65.0418 34.2174 64.9648 34.5815C64.9135 34.8533 64.8879 35.0944 64.8879 35.3046C64.8879 36.0791 65.1802 36.874 65.7649 37.6792L66.8214 39.1409C67.8984 40.6282 68.4421 42.0745 68.4421 43.4644C68.4421 45.0132 67.9036 46.3569 66.7034 47.3468C63.298 50.1624 58.0206 49.2803 54.687 49.2803C54.928 49.1879 55.1434 49.0649 55.3281 48.9213C55.8768 48.5058 56.1487 47.9212 56.1487 47.1775C56.1487 47.0544 56.1384 46.9365 56.1179 46.8236C56.1384 46.6903 56.1487 46.5518 56.1487 46.4082C56.1487 45.5671 55.6871 45.0491 54.7588 44.8542H61.3183C61.5337 44.8542 62.0671 44.7824 62.2569 44.8029C63.816 44.526 64.016 44.1567 64.016 43.0335C64.016 42.5771 63.8519 42.0386 63.5288 41.418L62.7082 39.823L62.7133 39.8281ZM5.06712 39.8589C5.06712 41.6488 5.47742 42.931 6.298 43.7054C7.11859 44.4798 8.47769 44.8645 10.3907 44.8645H40.8703C39.3677 44.9927 38.1624 45.2645 37.2598 45.6851C36.1263 46.2133 35.2186 47.0031 34.5159 48.0545C34.2544 48.4545 34.039 48.8648 33.88 49.2854H9.07774C7.28784 49.2854 5.86207 49.0392 4.79018 48.5469C3.29773 47.8596 2.12327 46.798 1.27191 45.362C0.420551 43.9311 0 42.3001 0 40.4692C0 34.3046 4.70812 26.0371 9.24186 21.8829C11.6318 19.7186 14.2167 18.6416 16.981 18.6416C18.8017 18.6416 20.3095 19.2006 21.5096 20.3238C22.6995 21.447 23.2995 22.8779 23.2995 24.6165C23.2995 27.0988 22.1456 28.9964 19.8428 30.3196C18.2786 31.2068 15.7912 31.6479 12.3806 31.6479C15.4424 31.6479 18.494 26.3961 18.494 24.7498C18.494 24.2267 18.294 23.8062 17.8939 23.4779C17.4888 23.1497 16.9861 22.9856 16.3707 22.9856C15.427 22.9856 14.4064 23.3702 13.3089 24.1395C9.45726 26.8423 5.07225 35.3764 5.07225 39.8435L5.06712 39.8589Z" fill="#0E7034"/>
<defs>
<linearGradient id="paint0_linear_46_37" x1="73.4026" y1="33.2842" x2="55.5138" y2="4.58929" gradientUnits="userSpaceOnUse">
<stop stop-color="#FFED00"/>
<stop offset="1" stop-color="#097B36"/>
</linearGradient>
<linearGradient id="paint1_linear_46_37" x1="81.2163" y1="-0.821874" x2="92.4788" y2="33.7146" gradientUnits="userSpaceOnUse">
<stop stop-color="#FFED00"/>
<stop offset="1" stop-color="#097B36"/>
</linearGradient>
</defs>
</svg>
