<svg width="103" height="55" viewBox="0 0 103 55" fill="none" xmlns="http://www.w3.org/2000/svg">
<g clip-path="url(#clip0_34_2116)">
<path d="M103 53.1515H56.1494V54.0153H103V53.1515Z" fill="white"/>
<path d="M103 26.4233H56.1494V27.2872H103V26.4233Z" fill="white"/>
<path d="M7.64744 32.1145H5.41162V48.3242H7.64744C8.33343 48.3242 8.66372 47.8923 8.66372 47.1046V33.334C8.66372 32.5464 8.33343 32.1145 7.64744 32.1145Z" fill="white"/>
<path d="M0 26.4233V54.0154H53.1006V26.4233H0ZM11.0012 47.1046C11.0012 49.4675 9.88333 50.6616 7.64751 50.6616H3.07425V29.7517H7.64751C9.88333 29.7517 11.0012 31.0982 11.0012 33.334V47.1046ZM19.7158 50.6616H12.6781V29.7517H19.5888V32.1145H15.0155V38.822H18.4963V41.1848H15.0155V48.3242H19.7158V50.6616ZM28.2018 47.4349C28.2018 49.6199 27.2617 50.8395 25.0259 50.8903C24.9751 50.8903 24.1875 50.8903 24.1367 50.8903C21.8246 50.8903 20.8083 49.6453 20.8083 47.4349V42.9887H23.0696V47.4349C23.0696 48.1209 23.3999 48.5528 24.0604 48.5528C24.1112 48.5528 24.9243 48.5528 24.9751 48.5528C25.5849 48.502 25.8643 48.1209 25.8643 47.4349V44.4623C25.8643 43.5731 25.1783 43.0649 24.6194 42.3535C23.5523 41.1594 22.4598 40.1939 21.4435 38.7457C20.9354 38.0343 20.8083 37.1451 20.8083 36.1034V32.9783C20.8083 30.6663 21.8754 29.5484 24.035 29.523C24.0604 29.523 24.8481 29.523 24.8989 29.523C27.2363 29.523 28.1256 30.6409 28.1256 32.9783V36.7894H25.9406V33.0038C25.9406 32.3432 25.6611 31.8858 24.9497 31.8858C24.9243 31.8858 24.1367 31.8858 24.1112 31.8858C23.4761 31.9113 23.1966 32.2415 23.1966 32.9783V36.078C23.1966 36.637 23.2728 37.0689 23.6031 37.5008C24.5432 38.7203 25.7627 39.8636 26.8044 41.1086C27.592 42.0486 28.2018 43.0141 28.2018 44.4369V47.4349ZM32.1653 50.6616H29.8278V29.7517H32.1653V50.6616ZM41.1339 47.8923C41.1339 48.8831 40.3717 50.8903 37.9327 50.8903C37.9073 50.8903 37.0942 50.8903 37.0688 50.8903C35.2649 50.8903 33.8929 49.9756 33.8929 47.3333V33.1054C33.8929 30.8188 35.0109 29.523 37.2467 29.523C37.2721 29.523 37.831 29.523 37.8564 29.523C40.0414 29.5484 40.9815 30.8442 40.9815 33.1054V36.7894H38.8727V33.08C38.8727 32.3178 38.5678 31.9367 37.8564 31.8858C37.831 31.8858 37.2721 31.8858 37.2467 31.8858C36.5353 31.8858 36.2304 32.2924 36.2304 33.08V47.3333C36.2304 48.1717 36.6369 48.5528 37.2213 48.5528C37.2467 48.5528 37.7802 48.5528 37.8056 48.5528C38.4662 48.5274 38.8219 48.1463 38.8727 47.4857V42.9887H37.6278V40.7529H41.1339C41.1339 40.7529 41.1339 46.1392 41.1339 47.8923ZM50.0264 50.6616H47.7398C46.1645 43.446 45.3769 40.0415 44.6655 36.637C44.7163 39.5079 44.7163 42.3789 44.7163 45.2499V50.6616H42.7092V29.7517H45.4531C46.8251 37.5008 47.4349 40.7021 48.0701 43.9542C48.0192 41.5659 48.0192 39.2031 48.0192 36.8656V29.7517H50.0264V50.6616Z" fill="white"/>
<path d="M11.7127 21.1386L9.83255 3.45533L7.79998 21.1386H6.4026L3.73486 0.228638H4.87818L7.114 18.5979L9.27359 0.228638H10.4931L12.4495 18.5979L14.8631 0.228638H16.0319L13.0846 21.1386H11.7127Z" fill="white"/>
<path d="M25.2548 21.1386V11.052H21.0881V21.1386H20.021V0.228638H21.0881V9.95952H25.2548V0.228638H26.3219V21.1386H25.2548Z" fill="white"/>
<path d="M30.9966 21.1386V0.228638H32.0637V21.1386H30.9966Z" fill="white"/>
<path d="M38.6697 21.1386V1.34655H36.0273V0.228638H42.4045V1.34655H39.7622V21.1386H38.6697Z" fill="white"/>
<path d="M46.3169 21.1386V0.228638H51.6524V1.34655H47.384V9.93411H50.6361V11.0266H47.384V20.0461H51.7794V21.1386H46.3169Z" fill="white"/>
<path d="M66.9223 13.4657H67.9385V17.7849C67.9385 19.0044 67.7099 19.9191 67.2272 20.5035C66.7698 21.0878 66.0076 21.3673 64.9913 21.3673C62.8317 21.3673 61.7646 20.1986 61.7646 17.8357V3.6078C61.7646 1.19413 62.8317 0 64.9913 0C66.9477 0 67.9131 1.19413 67.9131 3.55698V7.2664H66.8969V3.58239C66.8969 2.74396 66.7444 2.10878 66.4649 1.70227C66.1855 1.29576 65.6773 1.11791 64.9913 1.11791C63.5685 1.11791 62.8571 1.93093 62.8571 3.58239V17.8103C62.8571 19.4618 63.5685 20.2748 64.9913 20.2748C65.6773 20.2748 66.1855 20.0715 66.4649 19.665C66.7444 19.2585 66.8969 18.6487 66.8969 17.7849V13.4657H66.9223Z" fill="white"/>
<path d="M77.4404 0.228638H78.5075V17.8103C78.5075 20.1731 77.4658 21.3673 75.357 21.3673C73.2482 21.3673 72.2065 20.1731 72.2065 17.8103V0.228638H73.2736V17.8103C73.2736 19.4617 73.9596 20.2748 75.357 20.2748C76.7544 20.2748 77.4404 19.4617 77.4404 17.8103V0.228638Z" fill="white"/>
<path d="M83.0557 21.1386V0.228638H86.2569C87.324 0.228638 88.0863 0.508115 88.5436 1.06707C89.0009 1.62602 89.2296 2.54068 89.2296 3.76021V7.7237C89.2296 8.53673 89.1025 9.1465 88.8231 9.5276C88.5436 9.90871 88.1625 10.1628 87.6543 10.2898C88.1625 10.366 88.5944 10.5693 88.9501 10.925C89.3058 11.2807 89.4836 11.9159 89.4836 12.8051V17.5816C89.4836 18.8266 89.2042 19.7158 88.6706 20.2748C88.1371 20.8337 87.324 21.1132 86.2569 21.1132H83.0557V21.1386ZM88.2133 3.81103C88.2133 2.92178 88.0608 2.28661 87.756 1.9055C87.4511 1.52439 86.9429 1.34655 86.2315 1.34655H84.0974V9.85789H86.2315C86.9937 9.85789 87.5019 9.70545 87.7814 9.37516C88.0608 9.04487 88.1879 8.53673 88.1879 7.79993V3.81103H88.2133ZM88.3657 13.1354C88.3657 12.297 88.2133 11.7126 87.9084 11.3569C87.6035 11.0266 87.07 10.8742 86.2569 10.8742H84.1228V20.0461H86.2569C86.9683 20.0461 87.5019 19.8428 87.8576 19.4617C88.2133 19.0806 88.3657 18.4455 88.3657 17.607V13.1354Z" fill="white"/>
<path d="M93.8027 21.1386V0.228638H99.1382V1.34655H94.8698V9.93411H98.1219V11.0266H94.8698V20.0461H99.2652V21.1386H93.8027Z" fill="white"/>
<path d="M67.0491 50.6108V32.0637H64.356V29.7008H72.0797V32.0637H69.3865V50.6108H67.0491Z" fill="white"/>
<path d="M78.2538 29.7008H80.5912V47.2825C80.5912 49.6453 79.4733 50.8394 77.2883 50.8394H76.5007C74.2903 50.8394 73.1724 49.6707 73.1724 47.2825V29.7008H75.5098V47.2825C75.5098 48.0955 75.8655 48.502 76.5007 48.502H77.2883C77.9235 48.4766 78.2538 48.0701 78.2538 47.2825V29.7008Z" fill="white"/>
<path d="M82.3442 50.6108V29.7008H85.6471C85.6726 29.7008 86.4602 29.7008 86.4602 29.7008C88.6452 29.7262 89.7631 31.0728 89.7631 33.2832V47.0538C89.7631 49.3912 88.6706 50.5854 86.4602 50.6108C86.4348 50.6108 85.6726 50.6108 85.6471 50.6108H82.3442ZM87.4256 33.2832C87.4256 32.521 87.1208 32.0891 86.4856 32.0637C86.4602 32.0637 85.6726 32.0637 85.6471 32.0637H84.6817V48.2733H85.6471C85.6726 48.2733 86.4602 48.2733 86.4602 48.2733C87.0953 48.2479 87.4256 47.816 87.4256 47.0538V33.2832Z" fill="white"/>
<path d="M91.4907 50.6108V29.7008H93.8282V50.6108H91.4907Z" fill="white"/>
<path d="M95.5557 33.0291C95.5557 30.7171 96.6482 29.4722 98.884 29.4722H99.6716C101.907 29.4722 103 30.7171 103 33.0291V47.2825C103 49.5945 101.907 50.8395 99.6462 50.8395H98.884C96.6482 50.8395 95.5557 49.5945 95.5557 47.2825V33.0291ZM100.662 33.0291C100.662 32.2415 100.332 31.835 99.6716 31.835H98.884C98.2488 31.835 97.8931 32.2415 97.8931 33.0291V47.2825C97.8931 48.0955 98.2488 48.502 98.884 48.502H99.6462C100.332 48.502 100.662 48.0955 100.662 47.2825V33.0291Z" fill="white"/>
<path d="M61.2054 44.4115C61.2054 43.5222 60.5194 43.0141 59.9605 42.3027C58.8934 41.1086 57.8009 40.1431 56.7846 38.6949C56.2764 37.9835 56.1494 37.0943 56.1494 36.0526V32.9275C56.1494 30.6155 57.2165 29.4976 59.3761 29.4722C59.4015 29.4722 60.1891 29.4722 60.2399 29.4722C62.5774 29.4722 63.4666 30.5901 63.4666 32.9275V36.7386H61.2816V32.9529C61.2816 32.2923 61.0022 31.835 60.2908 31.835C60.2653 31.835 59.4777 31.835 59.4523 31.835C58.8171 31.8604 58.5377 32.1907 58.5377 32.9275V36.0272C58.5377 36.5861 58.6139 37.018 58.9442 37.45C59.8842 38.6695 61.1038 39.8128 62.1455 41.0578C62.9331 41.9978 63.5429 42.9633 63.5429 44.3861V47.3841C63.5429 49.5691 62.6028 50.7886 60.367 50.8395C60.3162 50.8395 59.5285 50.8395 59.4777 50.8395C57.1657 50.8395 56.1494 49.5945 56.1494 47.3841V42.9379H58.4106V47.3841C58.4106 48.0701 58.7409 48.502 59.4015 48.502C59.4523 48.502 60.2653 48.502 60.3162 48.502C60.9259 48.4512 61.2054 48.0701 61.2054 47.3841V44.4115Z" fill="white"/>
</g>
<defs>
<clipPath id="clip0_34_2116">
<rect width="103" height="54.0153" fill="white"/>
</clipPath>
</defs>
</svg>
