<svg width="223" height="57" viewBox="0 0 223 57" fill="none" xmlns="http://www.w3.org/2000/svg">
<g clip-path="url(#clip0_302_2)">
<path d="M117.244 49.4153C117.244 50.0448 117.244 50.5169 117.087 50.9891C117.087 51.3038 116.929 51.6186 116.929 51.9333C116.929 52.0907 116.772 52.2481 116.615 52.4054C116.457 52.5628 116.457 52.5628 116.3 52.5628C116.143 52.5628 115.985 52.5628 115.985 52.5628C115.828 52.5628 115.828 52.5628 115.67 52.5628V54.1366C115.828 54.1366 115.828 54.1366 116.143 54.2939C116.3 54.2939 116.457 54.2939 116.615 54.2939C117.087 54.2939 117.402 54.1366 117.716 53.9792C118.031 53.8218 118.188 53.5071 118.346 53.1923C118.503 52.8776 118.661 52.4054 118.661 51.7759C118.661 51.1464 118.818 50.5169 118.818 49.8874V48.6284H121.021V54.1366H122.91V47.0547H117.244V49.4153Z" fill="white"/>
<path d="M109.375 48.9433C109.533 48.7859 109.533 48.6285 109.69 48.4712C109.847 48.3138 110.005 48.3138 110.162 48.1564C110.32 48.1564 110.477 48.1564 110.634 48.1564C110.792 48.1564 110.949 48.1564 111.106 48.1564C111.264 48.1564 111.421 48.3138 111.579 48.4712C111.736 48.6285 111.893 48.7859 111.893 48.9433C112.051 49.1007 112.051 49.4154 112.051 49.7302H109.218C109.218 49.258 109.218 49.1007 109.375 48.9433ZM111.893 52.0908C111.893 52.2482 111.736 52.2482 111.579 52.4055C111.421 52.4055 111.421 52.5629 111.264 52.5629C111.106 52.5629 110.949 52.5629 110.949 52.5629C110.634 52.5629 110.477 52.5629 110.32 52.4055C110.162 52.4055 110.005 52.2482 109.847 52.0908C109.69 51.9334 109.69 51.9334 109.533 51.776C109.533 51.6187 109.375 51.4613 109.375 51.4613C109.375 51.3039 109.375 51.1465 109.375 51.1465C109.375 50.9892 109.375 50.9892 109.375 50.8318H114.254C114.254 50.2023 114.254 49.5728 114.097 49.1007C113.939 48.6285 113.782 48.1564 113.467 47.6843C113.152 47.3695 112.838 47.0548 112.365 46.74C111.893 46.5827 111.421 46.4253 110.792 46.4253C110.162 46.4253 109.69 46.5827 109.218 46.74C108.746 46.8974 108.431 47.2122 108.116 47.5269C107.802 47.8417 107.644 48.3138 107.487 48.6285C107.329 49.1007 107.329 49.5728 107.329 50.0449C107.329 50.6744 107.487 51.3039 107.644 51.776C107.802 52.2482 108.116 52.7203 108.431 52.8777C108.746 53.1924 109.061 53.3498 109.533 53.5072C110.005 53.6645 110.32 53.6645 110.792 53.6645C111.106 53.6645 111.421 53.6645 111.736 53.5072C112.051 53.5072 112.365 53.3498 112.523 53.1924C112.68 53.035 112.995 52.8777 113.152 52.7203C113.31 52.5629 113.467 52.4055 113.624 52.2482C113.782 52.0908 113.782 51.9334 113.939 51.776C113.939 51.6187 114.097 51.4613 114.097 51.3039H112.208C112.051 51.776 111.893 51.9334 111.893 52.0908Z" fill="white"/>
<path d="M59.0155 48.9435C59.1729 48.7861 59.1729 48.6287 59.4876 48.4714C59.645 48.314 59.9598 48.314 60.2745 48.314C60.4319 48.314 60.5892 48.314 60.7466 48.314C60.904 48.314 61.0614 48.4714 61.0614 48.4714C61.2187 48.6287 61.2188 48.6287 61.2188 48.7861C61.2188 48.9435 61.3761 49.1009 61.3761 49.2582H63.2646C63.2646 48.9435 63.1072 48.6287 63.1072 48.314C62.9499 47.9992 62.7925 47.8419 62.6351 47.6845C62.4777 47.5271 62.3204 47.3697 62.163 47.2124C62.0056 47.055 61.6909 46.8976 61.5335 46.8976C61.3761 46.7402 61.0614 46.7402 60.904 46.7402C60.7466 46.7402 60.4319 46.7402 60.2745 46.7402C59.8024 46.7402 59.3303 46.8976 58.8581 47.055C58.386 47.2124 58.0713 47.5271 57.7565 47.8419C57.4418 48.1566 57.2844 48.4714 57.127 48.9435C56.9696 49.4156 56.8123 49.8877 56.8123 50.5172C56.8123 51.1467 56.8123 51.6188 56.9696 52.091C57.127 52.5631 57.2844 52.8778 57.5991 53.1926C57.9139 53.5073 58.2286 53.8221 58.7008 53.9795C59.1729 54.1368 59.645 54.2942 60.1171 54.2942C60.5893 54.2942 60.904 54.2942 61.2188 54.1368C61.5335 53.9795 61.8483 53.8221 62.0056 53.6647C62.163 53.5073 62.4777 53.35 62.6351 53.0352C62.7925 52.8778 62.9499 52.5631 62.9499 52.4057C63.1072 52.2483 63.1072 51.9336 63.1072 51.7762C63.1072 51.6189 63.1072 51.4615 63.1072 51.3041H61.3761C61.3761 51.4615 61.3761 51.6188 61.2188 51.6188C61.2188 51.7762 61.0614 51.9336 61.0614 52.091C60.904 52.2483 60.904 52.2483 60.7466 52.4057C60.5892 52.5631 60.4319 52.5631 60.2745 52.5631C59.9598 52.5631 59.645 52.5631 59.4876 52.4057C59.3303 52.2483 59.1729 52.091 59.0155 51.9336C58.8581 51.7762 58.8581 51.4615 58.8581 51.3041C58.8581 50.9893 58.8581 50.832 58.8581 50.5172C58.8581 50.3598 58.8581 50.0451 58.8581 49.7304C58.7008 49.2582 58.8581 49.1009 59.0155 48.9435Z" fill="white"/>
<path d="M87.0283 51.1469C87.0283 51.4616 86.8709 51.619 86.7135 51.7764C86.5561 51.9338 86.3988 52.0911 86.2414 52.2485C86.084 52.4059 85.7693 52.4059 85.4545 52.4059C85.1398 52.4059 84.825 52.4059 84.6676 52.2485C84.5103 52.0911 84.3529 51.9338 84.1955 51.7764C84.0381 51.619 84.0381 51.3042 83.8808 51.1469C83.8808 50.8321 83.7234 50.6748 83.7234 50.36C83.7234 50.0453 83.7234 49.8879 83.8808 49.5731C83.8808 49.2584 84.0381 49.101 84.1955 48.9436C84.3529 48.7863 84.5103 48.6289 84.6676 48.4715C84.825 48.3141 85.1398 48.3141 85.4545 48.3141C85.7693 48.3141 86.084 48.3141 86.2414 48.4715C86.3988 48.6289 86.5561 48.7863 86.7135 48.9436C86.8709 49.101 86.8709 49.4158 87.0283 49.5731C87.0283 49.8879 87.1856 50.0453 87.1856 50.36C87.0283 50.5174 87.0283 50.8321 87.0283 51.1469ZM88.7594 48.7863C88.602 48.3141 88.2873 47.9994 87.9725 47.6846C87.6578 47.3699 87.343 47.0551 86.8709 46.8978C86.3988 46.7404 85.9266 46.583 85.2971 46.583C84.6676 46.583 84.1955 46.7404 83.8808 46.8978C83.4086 47.0551 83.0939 47.3699 82.7791 47.6846C82.4644 47.9994 82.1496 48.4715 81.9923 48.7863C81.8349 49.2584 81.8349 49.7305 81.8349 50.36C81.8349 50.8321 81.9923 51.4616 82.1497 51.7764C82.307 52.2485 82.6218 52.5632 82.9365 52.878C83.2513 53.1927 83.566 53.5075 84.0381 53.6649C84.5103 53.8222 84.9824 53.9796 85.4545 53.9796C86.084 53.9796 86.5561 53.8222 87.0283 53.6649C87.5004 53.5075 87.8151 53.1927 88.1299 52.878C88.4446 52.5632 88.602 52.0911 88.9168 51.7764C89.0741 51.3043 89.2315 50.8321 89.2315 50.36C88.9168 49.7305 88.9168 49.2584 88.7594 48.7863Z" fill="white"/>
<path d="M93.1658 51.1467H93.0085V46.7402H91.2773V53.8221H93.1658L95.6838 49.573V53.8221H97.5723V46.7402H95.6838L93.1658 51.1467Z" fill="white"/>
<path d="M77.9005 50.6748C77.9005 50.8321 77.9005 50.9895 77.7431 51.1469C77.7431 51.3042 77.5857 51.4616 77.5857 51.619C77.5857 51.7764 77.4284 51.9337 77.271 52.0911C77.1136 52.2485 76.9562 52.2485 76.7989 52.4059C76.6415 52.4059 76.4841 52.5632 76.1694 52.5632C76.012 52.5632 75.6972 52.5632 75.5399 52.4059C75.3825 52.4059 75.2251 52.2485 75.0677 52.0911C74.9104 51.9337 74.9104 51.7764 74.753 51.619C74.753 51.4616 74.5956 51.3042 74.5956 51.1469C74.5956 50.9895 74.5956 50.8321 74.4382 50.6748C74.4382 50.5174 74.4382 50.36 74.4382 50.2026C74.4382 49.8879 74.4382 49.7305 74.5956 49.4158C74.5956 49.101 74.753 48.9436 74.9104 48.7863C75.0677 48.6289 75.2251 48.4715 75.3825 48.3141C75.5399 48.1568 75.8546 48.1568 76.1694 48.1568C76.4841 48.1568 76.6415 48.1568 76.9562 48.3141C77.1136 48.4715 77.271 48.6289 77.4284 48.7863C77.5857 48.9436 77.5857 49.2584 77.7431 49.4158C77.7431 49.7305 77.9005 49.8879 77.9005 50.2026C77.9005 50.36 77.9005 50.5174 77.9005 50.6748ZM79.789 48.9436C79.6316 48.6289 79.6316 48.3141 79.4742 47.9994C79.3169 47.6846 79.1595 47.5273 79.0021 47.3699C78.8447 47.2125 78.53 47.0551 78.3726 46.8978C78.2152 46.7404 77.9005 46.7404 77.7431 46.583C77.4284 46.583 77.271 46.583 77.1136 46.583C76.7989 46.583 76.6415 46.583 76.4841 46.583C76.3267 46.583 76.1694 46.7404 75.8546 46.7404C75.6972 46.8978 75.5399 46.8978 75.3825 47.0551C75.2251 47.2125 75.0677 47.3699 75.0677 47.5273V46.583H73.3366V56.3402H75.2251V52.7206C75.3825 52.878 75.5399 53.0354 75.6972 53.1927C75.8546 53.3501 76.012 53.5075 76.1694 53.5075C76.3267 53.6649 76.4841 53.6649 76.6415 53.6649C76.7989 53.6649 76.9562 53.6649 77.1136 53.6649C77.5857 53.6649 78.0579 53.5075 78.3726 53.3501C78.6874 53.1927 79.0021 52.878 79.3169 52.5632C79.6316 52.2485 79.789 51.7764 79.789 51.3042C79.9464 50.8321 79.9463 50.36 79.9463 49.7305C79.9463 49.7305 79.789 49.2584 79.789 48.9436Z" fill="white"/>
<path d="M64.9958 48.314H67.0417V53.8221H68.9302V48.314H70.976V46.7402H64.9958V48.314Z" fill="white"/>
<path d="M99.6182 48.314H101.821V53.8221H103.553V48.314H105.756V46.7402H99.6182V48.314Z" fill="white"/>
<path d="M200.653 51.1467V46.7402H198.764V53.8221H200.81L203.171 49.573H203.328V53.8221H205.059V46.7402H203.171L200.653 51.1467Z" fill="white"/>
<path d="M130.149 51.9337C130.149 52.0911 129.991 52.0911 129.834 52.2485C129.677 52.2485 129.519 52.4059 129.519 52.4059C129.362 52.4059 129.205 52.4059 129.047 52.4059H127.473V50.5174H129.047C129.205 50.5174 129.362 50.5174 129.519 50.5174C129.677 50.5174 129.834 50.5174 129.991 50.6748C130.149 50.6748 130.149 50.8321 130.306 50.9895C130.306 51.1469 130.464 51.3043 130.464 51.4616C130.306 51.7764 130.306 51.9337 130.149 51.9337ZM132.037 50.5174C131.88 50.2026 131.723 50.0453 131.565 49.7305C131.25 49.5731 131.093 49.4158 130.621 49.2584C130.306 49.101 129.834 49.101 129.519 49.101H127.631V46.583H125.742V53.6649H129.677C129.834 53.6649 129.834 53.6649 129.991 53.6649C130.149 53.6649 130.306 53.6649 130.464 53.5075C130.621 53.5075 130.778 53.3501 131.093 53.3501C131.25 53.1927 131.408 53.0354 131.565 52.878C131.723 52.7206 131.88 52.5632 132.037 52.2485C132.195 52.2485 132.195 51.9337 132.195 51.4616C132.195 51.1469 132.195 50.8321 132.037 50.5174Z" fill="white"/>
<path d="M194.2 49.2582H191.525V46.7402H189.794V53.8221H191.525V50.832H194.2V53.8221H196.089V46.7402H194.2V49.2582Z" fill="white"/>
<path d="M220.797 51.1467C220.797 51.3041 220.797 51.6189 220.639 51.7762C220.639 51.9336 220.482 52.091 220.325 52.2484C220.167 52.4057 220.167 52.4057 220.01 52.5631C219.853 52.5631 219.695 52.7205 219.695 52.7205C219.538 52.7205 219.538 52.7205 219.38 52.8778C219.223 52.8778 219.223 52.8778 219.066 52.8778C218.908 52.8778 218.751 52.8778 218.751 52.8778C218.594 52.8778 218.594 52.7205 218.436 52.7205C218.279 52.7205 218.279 52.5631 218.279 52.4057C218.279 52.2483 218.279 52.091 218.279 52.091C218.279 51.9336 218.279 51.7762 218.436 51.6188C218.436 51.4615 218.594 51.4615 218.751 51.3041C218.908 51.1467 218.908 51.1467 219.223 51.1467C219.38 51.1467 219.538 50.9894 219.852 50.9894L220.325 50.832C220.482 50.832 220.639 50.832 220.797 50.6746C220.954 50.6746 220.954 50.5172 221.112 50.5172V51.1467H220.797ZM222.843 53.5073L222.685 53.35C222.685 53.1926 222.685 53.1926 222.528 53.0352C222.528 52.8778 222.528 52.7205 222.528 52.5631V48.7861C222.528 48.4714 222.528 48.314 222.371 47.9992C222.371 47.6845 222.213 47.5271 221.898 47.3697C221.741 47.2124 221.426 47.055 220.954 46.8976C220.482 46.7402 220.01 46.7402 219.38 46.7402C218.908 46.7402 218.594 46.7402 218.279 46.8976C217.964 47.055 217.649 47.055 217.492 47.2124C217.335 47.3697 217.02 47.5271 217.02 47.6845C216.862 47.8419 216.705 47.9992 216.705 48.1566C216.705 48.314 216.548 48.4714 216.548 48.6287C216.548 48.7861 216.548 48.9435 216.548 48.9435H218.436C218.436 48.7861 218.436 48.6287 218.436 48.6287C218.436 48.4714 218.593 48.4714 218.593 48.314C218.751 48.1566 218.751 48.1566 218.908 48.1566C219.066 48.1566 219.223 48.1566 219.538 48.1566C219.695 48.1566 219.853 48.1566 220.01 48.1566C220.167 48.1566 220.325 48.314 220.325 48.314C220.482 48.314 220.482 48.4714 220.482 48.6287C220.482 48.7861 220.482 48.7861 220.482 48.9435C220.482 49.1009 220.482 49.1009 220.482 49.2582L220.325 49.4156C220.325 49.4156 220.167 49.4156 220.167 49.573H220.01L218.279 49.8877C217.964 49.8877 217.649 50.0451 217.492 50.2025C217.177 50.3599 217.02 50.5172 216.862 50.6746C216.705 50.832 216.548 51.1467 216.548 51.3041C216.39 51.6188 216.39 51.7762 216.39 52.091C216.39 52.4057 216.39 52.7205 216.548 53.0352C216.705 53.35 216.862 53.5073 217.02 53.6647C217.177 53.8221 217.492 53.9795 217.649 54.1368C217.964 54.2942 218.121 54.2942 218.436 54.2942C218.751 54.2942 219.066 54.2942 219.223 54.1368C219.38 54.1368 219.695 53.9795 219.852 53.9795C220.01 53.8221 220.167 53.8221 220.325 53.6647C220.482 53.5073 220.639 53.35 220.797 53.1926C220.797 53.35 220.797 53.5073 220.797 53.6647C220.797 53.8221 220.797 53.9795 220.954 53.9795H223V53.5073C222.843 53.5073 222.843 53.5073 222.843 53.5073Z" fill="white"/>
<path d="M214.816 46.7402H212.298L209.623 49.4156V46.7402H207.892V53.8221H209.623V51.6188L210.41 50.832L212.456 53.8221H214.816L211.826 49.7304L214.816 46.7402Z" fill="white"/>
<path d="M187.591 46.7402H185.388L184.286 48.7861L183.027 46.7402H180.824L183.184 50.2025L180.666 53.8221H183.027L184.286 51.6188L185.388 53.8221H187.748L185.23 50.2025L187.591 46.7402Z" fill="white"/>
<path d="M174.529 48.9433C174.686 48.7859 174.686 48.6285 174.843 48.4712C175.001 48.3138 175.158 48.3138 175.315 48.1564C175.473 48.1564 175.63 48.1564 175.788 48.1564C175.945 48.1564 176.102 48.1564 176.26 48.1564C176.417 48.1564 176.574 48.3138 176.732 48.4712C176.889 48.6285 177.047 48.7859 177.047 48.9433C177.204 49.1007 177.204 49.4154 177.204 49.7302H174.371C174.529 49.258 174.529 49.1007 174.529 48.9433ZM177.047 52.0908C176.889 52.2482 176.889 52.2482 176.732 52.4055C176.574 52.4055 176.574 52.5629 176.417 52.5629C176.26 52.5629 176.102 52.5629 176.102 52.5629C175.788 52.5629 175.63 52.5629 175.473 52.4055C175.315 52.4055 175.158 52.2482 175.001 52.0908C174.843 51.9334 174.843 51.9334 174.686 51.776C174.686 51.6187 174.529 51.4613 174.529 51.4613C174.529 51.3039 174.529 51.1465 174.529 51.1465C174.529 50.9892 174.529 50.9892 174.529 50.8318H179.407C179.407 50.2023 179.407 49.5728 179.25 49.1007C179.092 48.6285 178.935 48.1564 178.62 47.6843C178.306 47.3695 177.991 47.0548 177.519 46.74C177.047 46.5827 176.574 46.4253 175.945 46.4253C175.315 46.4253 174.843 46.5827 174.371 46.74C173.899 46.8974 173.584 47.2122 173.27 47.5269C172.955 47.8417 172.797 48.3138 172.64 48.6285C172.483 49.1007 172.483 49.5728 172.483 50.0449C172.483 50.6744 172.64 51.3039 172.797 51.776C172.955 52.2482 173.27 52.7203 173.584 52.8777C173.899 53.1924 174.214 53.3498 174.686 53.5072C175.158 53.6645 175.473 53.6645 175.945 53.6645C176.26 53.6645 176.574 53.6645 176.889 53.5072C177.204 53.5072 177.519 53.3498 177.676 53.1924C177.833 53.035 178.148 52.8777 178.306 52.7203C178.463 52.5629 178.62 52.4055 178.778 52.2482C178.935 52.0908 178.935 51.9334 179.092 51.776C179.092 51.6187 179.25 51.4613 179.25 51.3039H177.361C177.204 51.776 177.204 51.9334 177.047 52.0908Z" fill="white"/>
<path d="M138.962 49.2582H136.286V46.7402H134.398V53.8221H136.286V50.832H138.962V53.8221H140.693V46.7402H138.962V49.2582Z" fill="white"/>
<path d="M147.303 51.1467C147.303 51.3041 147.303 51.6189 147.145 51.7762C147.145 51.9336 146.988 52.091 146.988 52.2484C146.831 52.4057 146.831 52.4057 146.673 52.5631C146.516 52.5631 146.358 52.7205 146.358 52.7205C146.201 52.7205 146.201 52.7205 146.044 52.8778C145.886 52.8778 145.886 52.8778 145.729 52.8778C145.572 52.8778 145.414 52.8778 145.414 52.8778C145.257 52.8778 145.257 52.7205 145.099 52.7205C144.942 52.7205 144.942 52.5631 144.942 52.4057C144.942 52.2483 144.942 52.091 144.942 52.091C144.942 51.9336 144.942 51.7762 145.099 51.6188C145.099 51.4615 145.257 51.4615 145.257 51.3041C145.414 51.1467 145.572 51.1467 145.729 51.1467C145.886 51.1467 146.044 50.9894 146.358 50.9894L146.831 50.832C146.988 50.832 147.145 50.832 147.303 50.6746C147.46 50.6746 147.46 50.5172 147.617 50.5172V51.1467H147.303ZM149.349 53.5073L149.191 53.35C149.191 53.1926 149.191 53.1926 149.034 53.0352C149.034 52.8778 149.034 52.7205 149.034 52.5631V48.7861C149.034 48.4714 149.034 48.314 148.876 47.9992C148.876 47.6845 148.719 47.5271 148.404 47.3697C148.247 47.2124 147.932 47.055 147.46 46.8976C147.145 46.7402 146.516 46.7402 145.886 46.7402C145.414 46.7402 145.099 46.7402 144.785 46.8976C144.47 47.055 144.155 47.055 143.998 47.2124C143.84 47.3697 143.683 47.5271 143.526 47.6845C143.368 47.8419 143.368 47.9992 143.211 48.1566C143.211 48.314 143.054 48.4714 143.054 48.6287C143.054 48.7861 143.054 48.9435 143.054 48.9435H144.942C144.942 48.7861 144.942 48.6287 145.099 48.6287C145.099 48.4714 145.257 48.4714 145.257 48.314C145.414 48.1566 145.414 48.1566 145.572 48.1566C145.729 48.1566 145.886 48.1566 146.201 48.1566C146.358 48.1566 146.673 48.1566 146.673 48.1566C146.831 48.1566 146.988 48.314 146.988 48.314C147.145 48.314 147.145 48.4714 147.145 48.6287C147.145 48.7861 147.145 48.7861 147.145 48.9435C147.145 49.1009 147.145 49.1009 147.145 49.2582L146.988 49.4156C146.988 49.4156 146.831 49.4156 146.831 49.573C146.673 49.573 146.673 49.573 146.673 49.573L144.942 49.8877C144.627 49.8877 144.313 50.0451 144.155 50.2025C143.84 50.3599 143.683 50.5172 143.526 50.6746C143.368 50.832 143.211 51.1467 143.211 51.3041C143.054 51.6188 143.054 51.7762 143.054 52.091C143.054 52.4057 143.054 52.7205 143.211 53.0352C143.368 53.35 143.526 53.5073 143.683 53.6647C143.84 53.8221 144.155 53.9795 144.313 54.1368C144.627 54.2942 144.785 54.2942 145.257 54.2942C145.572 54.2942 145.886 54.2942 146.044 54.1368C146.201 54.1368 146.516 53.9795 146.673 53.9795C146.831 53.8221 146.988 53.8221 147.145 53.6647C147.303 53.5073 147.46 53.35 147.617 53.1926C147.617 53.35 147.617 53.5073 147.617 53.6647C147.617 53.8221 147.775 53.9795 147.775 53.9795H149.506L149.349 53.5073C149.506 53.5073 149.506 53.5073 149.349 53.5073Z" fill="white"/>
<path d="M164.929 48.314H166.975V53.8221H168.863V48.314H170.909V46.7402H164.929V48.314Z" fill="white"/>
<path d="M156.273 49.8877H154.699C154.542 49.8877 154.385 49.8877 154.227 49.8877C154.07 49.8877 153.912 49.8877 153.755 49.7304C153.598 49.7304 153.598 49.573 153.44 49.4156C153.44 49.2582 153.283 49.1009 153.283 48.9435C153.283 48.7861 153.283 48.4714 153.44 48.4714C153.598 48.314 153.598 48.314 153.755 48.1566C153.912 48.1566 154.07 47.9992 154.227 47.9992C154.385 47.9992 154.542 47.9992 154.699 47.9992H156.116V49.8877H156.273ZM154.385 46.7402C154.227 46.7402 154.227 46.7402 154.07 46.7402C153.912 46.7402 153.755 46.7402 153.598 46.7402C153.44 46.7402 153.283 46.7402 153.126 46.8976C152.968 46.8976 152.811 47.055 152.653 47.055C152.496 47.055 152.339 47.2124 152.339 47.3697C152.181 47.5271 152.181 47.5271 152.024 47.6845C151.867 47.8419 151.867 47.9992 151.867 48.1566C151.867 48.314 151.709 48.6287 151.709 48.7861V48.9435C151.709 48.9435 151.709 49.1009 151.709 49.2582C151.709 49.4156 151.709 49.4156 151.709 49.573C151.709 49.7304 151.709 49.7304 151.867 49.8877C151.867 50.0451 152.024 50.0451 152.181 50.2025C152.339 50.3599 152.339 50.3599 152.496 50.3599C152.653 50.3599 152.653 50.5172 152.811 50.5172C152.968 50.5172 152.968 50.5172 152.968 50.5172C152.811 50.5172 152.653 50.6746 152.496 50.6746C152.339 50.6746 152.339 50.832 152.181 50.9894C152.181 51.1467 152.024 51.1467 152.024 51.3041C152.024 51.4615 152.024 51.6189 152.024 51.7762L151.867 52.5631C151.867 52.7205 151.867 52.7205 151.867 52.8778C151.867 53.0352 151.867 53.0352 151.867 53.1926C151.867 53.35 151.867 53.35 151.867 53.5073C151.867 53.6647 151.709 53.6647 151.709 53.8221H153.598C153.598 53.6647 153.755 53.5073 153.755 53.35C153.755 53.1926 153.755 53.0352 153.755 53.0352V52.4057C153.755 52.091 153.755 51.9336 153.912 51.7762C153.912 51.6189 154.07 51.4615 154.227 51.4615C154.385 51.4615 154.542 51.3041 154.699 51.3041C154.857 51.3041 155.171 51.3041 155.329 51.3041H156.588V53.8221H158.476V46.7402H154.385Z" fill="white"/>
<path d="M66.4121 22.1898L73.6513 36.3535H81.048L70.976 16.3669L66.4121 22.1898Z" fill="#F38E19"/>
<path d="M71.6055 0L64.0515 10.5441V0H56.8123V36.3536H64.0515V20.4587L79.1595 0H71.6055Z" fill="#F38E19"/>
<path d="M84.1955 36.3531H91.4347V24.7074L84.1955 9.28467V36.3531Z" fill="#F38E19"/>
<path d="M108.116 0L99.9329 19.5145L91.1199 0H83.7233L99.9329 35.5667L108.274 16.2096V36.3536H115.513V0H108.116Z" fill="#F38E19"/>
<path d="M159.893 17.626H156.903V6.92449H159.893C162.883 6.92449 164.457 8.81299 164.457 12.2752C164.299 15.8948 162.725 17.626 159.893 17.626ZM159.893 0H149.349V36.3536H156.745V24.7078H159.893C167.447 24.7078 171.853 20.144 171.853 12.4326C171.853 4.56387 167.447 0 159.893 0Z" fill="white"/>
<path d="M136.129 0L131.093 9.91461L129.205 13.849V0H121.965V36.3536H129.205V25.8095L131.251 22.5046L137.86 36.3536H146.044L135.342 15.8948L144.627 0H136.129Z" fill="white"/>
<path d="M215.603 0V14.4785H208.207V0H200.81V36.3536H208.207V21.5603H215.603V36.3536H223V0H215.603Z" fill="white"/>
<path d="M184.286 11.331L186.489 23.2915H181.768L184.286 11.331ZM180.194 0L171.538 36.3536H179.092L180.351 30.3733H188.063L189.322 36.3536H196.876L188.22 0H180.194Z" fill="white"/>
<path d="M33.9929 0.314453L18.7276 20.6158L20.1439 23.9207L31.947 8.34057V13.6913L20.1439 29.2714V35.2516L28.1701 42.8056H22.3472L16.9964 39.0286V41.0745L12.2752 47.5269L24.8652 56.9694L37.2978 47.6842L22.0324 33.0484H30.8454L28.7996 28.4845L30.8454 25.6518L36.0388 29.2714V37.4549H32.7339L42.9633 47.0547H50.3599V0.314453H33.9929Z" fill="#F38E19"/>
<path d="M6.76707 47.37L14.9506 36.5111V30.6882L2.8327 47.37H6.76707Z" fill="white"/>
<path d="M17.626 0.314453L12.59 6.92419L11.1736 3.7767L13.6916 0.314453H0V23.9207L12.59 7.08157L14.0064 10.3864L0 29.114V34.7795L15.7375 14.0061L14.1637 10.3864L21.5603 0.314453H17.626Z" fill="white"/>
<path d="M25.9668 0.314453L15.7375 13.8487L17.1538 17.1535L0 39.9729V45.481L18.7276 20.6158L17.1538 17.1535L29.7438 0.314453H25.9668Z" fill="white"/>
</g>
<defs>
<clipPath id="clip0_302_2">
<rect width="223" height="56.9697" fill="white"/>
</clipPath>
</defs>
</svg>
