<svg width="79" height="72" viewBox="0 0 79 72" fill="none" xmlns="http://www.w3.org/2000/svg">
<path d="M31.9144 37.9026C32.0553 37.6913 32.1257 37.5152 32.2666 37.4799C33.112 37.1981 33.9574 36.9163 34.8381 36.705C35.2608 36.5993 35.7187 36.5993 36.1414 36.5288C37.3039 36.3175 37.6209 35.4369 37.8322 34.4505C38.0436 33.2881 38.3606 32.1257 38.4311 30.928C38.5015 30.0473 38.3606 29.1667 38.2197 28.2861C38.0084 27.2998 37.7266 26.3134 38.5015 25.3976C38.2902 25.2919 38.114 25.1862 37.8675 25.0805C37.9731 24.9044 38.0436 24.7635 38.1493 24.5874C37.2334 23.9533 37.2334 23.1431 37.5857 22.192C38.0436 20.9592 38.6424 19.7615 38.4663 18.3877C38.4311 18.1059 38.2902 17.8241 38.1845 17.5423C38.0436 17.2252 37.8675 16.9082 37.7266 16.556C37.0573 14.689 35.6483 13.7731 33.6404 13.9845C32.5484 14.1254 31.4916 14.4072 30.3997 14.6186C29.7304 14.7595 29.0259 14.9356 28.3566 14.9708C27.6873 15.0413 27.018 14.9708 26.1374 14.9708C26.2783 15.2526 26.4192 15.464 26.5248 15.7105C26.5953 15.8867 26.6657 16.0628 26.6657 16.2037C26.701 16.8025 26.701 17.4014 26.7714 18.0002C26.8066 18.2468 26.9123 18.4934 27.018 18.7752C27.335 18.6343 27.5816 18.5286 27.6873 18.4934C27.8634 19.057 27.9691 19.5854 28.1804 20.0785C28.9554 21.7341 29.7656 23.3897 30.5406 25.0101C30.7871 25.5385 31.1042 26.0316 31.386 26.5248C31.2098 26.7361 31.0337 27.0532 30.7519 27.2293C30.4701 27.4407 30.0826 27.652 29.7304 27.652C27.2646 27.6872 24.834 27.6872 22.3682 27.652C21.9807 27.652 21.6285 27.2645 21.241 27.0179C21.0297 26.877 20.8888 26.7009 20.7831 26.6305C21.9455 24.2351 23.108 21.875 24.2 19.4797C24.3409 19.2331 24.2352 18.8456 24.2704 18.5638C25.1158 18.7399 25.2215 18.6695 25.292 17.6832C25.3272 17.2605 25.292 16.873 25.3272 16.4503C25.3624 16.1333 25.1863 15.6753 25.7499 15.6753C25.7147 15.3583 25.7499 14.9356 25.609 14.7242C25.3624 14.4072 24.9749 14.1959 24.6579 13.8436C26.3839 14.5129 27.9691 14.0902 29.5542 13.4209C30.5053 12.9982 31.4564 12.6107 32.4075 12.2232C34.3449 11.4483 36.1414 11.871 37.7618 13.1039C37.9379 13.2448 38.0788 13.3504 38.3606 13.5618C38.3959 12.8925 38.6072 12.3641 37.9731 11.9062C37.4448 11.5187 37.48 10.6381 37.9379 9.75743C38.3606 8.94725 38.7481 8.13706 39.1004 7.46777C39.4526 8.17228 39.9106 9.05292 40.3333 9.93356C40.756 10.8142 40.6503 11.3074 40.0515 12.0823C39.8049 12.3993 39.8753 12.9277 39.8049 13.3504C39.8753 13.3857 39.9106 13.4209 39.981 13.4561C40.1924 13.3152 40.3685 13.1743 40.5798 13.0334C42.2002 11.8005 43.9615 11.4483 45.8637 12.188C46.9557 12.6107 48.0476 13.1039 49.1044 13.5266C50.5487 14.1254 51.9929 14.372 53.5781 13.8436C53.3315 14.0549 53.1201 14.3015 52.8736 14.4777C52.3099 14.8651 52.3099 15.1822 52.7679 15.6753C52.8736 15.781 52.9088 16.0276 52.9088 16.2037C52.944 16.8025 52.944 17.4014 53.0145 18.0002C53.0497 18.2468 53.1554 18.4581 53.261 18.7399C53.5781 18.599 53.8246 18.4934 53.9303 18.4581C54.0712 19.0218 54.1769 19.4797 54.353 19.9376C55.2337 21.8046 56.1143 23.6363 56.9949 25.468C57.1711 25.8203 57.4176 26.1373 57.5938 26.4543C57.0302 27.652 55.9734 27.7225 54.7757 27.6872C52.8031 27.6168 50.8305 27.652 48.8578 27.6872C48.259 27.6872 47.7306 27.5816 47.4136 26.9475C47.3431 26.7714 47.0613 26.6657 46.9909 26.6305C48.259 23.9181 49.7737 21.3819 50.6896 18.5638C51.3236 18.7752 51.4645 18.7047 51.535 17.8593C51.5702 17.3662 51.5702 16.9082 51.6054 16.4151C51.6054 16.098 51.4998 15.7106 52.0281 15.6401C52.0986 15.6401 52.1338 15.2174 52.2395 14.8299C50.126 15.2526 48.259 14.6538 46.3921 14.1959C45.1239 13.8788 43.8206 13.6675 42.5877 14.2311C42.165 14.4072 41.6366 14.6538 41.4252 15.0413C40.3685 16.7321 39.3117 18.4934 40.2628 20.6421C40.5094 21.1705 40.6503 21.7693 40.8264 22.333C41.1434 23.3545 41.0025 23.8124 40.2276 24.5522C40.3333 24.6931 40.4389 24.834 40.5446 25.0101C40.298 25.151 40.0867 25.2567 39.8401 25.3623C40.4742 26.1021 40.4037 26.9475 40.2276 27.8281C40.0515 28.744 39.8401 29.6951 39.9106 30.5757C40.0515 32.1257 40.4037 33.6404 40.7207 35.1551C40.9321 36.1414 41.7775 36.4936 42.8343 36.6345C43.5036 36.7402 44.2433 36.4232 44.7365 37.1277C44.8069 37.2334 45.1239 37.1629 45.3001 37.1981C45.6875 37.3038 46.0398 37.4799 46.3921 37.6208C46.3568 37.6913 46.3216 37.797 46.3216 37.8674C41.6014 37.9026 36.8107 37.9026 31.9144 37.9026ZM52.5213 26.2078H56.9597C56.9597 26.1373 56.9949 26.1021 56.9949 26.0669C55.9382 23.8829 54.9166 21.6989 53.8599 19.5149C53.7894 19.374 53.6485 19.2331 53.5076 19.2331C52.9792 19.1274 52.8383 18.7752 52.8031 18.3172C52.8031 18.0707 52.7327 17.8593 52.6974 17.6127C52.627 17.6127 52.5917 17.6127 52.5213 17.648V26.2078ZM25.8556 17.5423C25.4681 18.2468 25.609 19.1627 24.6227 19.4445C24.517 19.4797 24.4818 19.691 24.4465 19.8319C23.6364 21.558 22.7909 23.2488 21.9808 24.9749C21.8046 25.3623 21.6285 25.7498 21.4171 26.2078H25.8908C25.8556 23.284 25.8556 20.4308 25.8556 17.5423ZM26.2078 26.1725H30.7871C29.6951 23.8829 28.6384 21.6989 27.5464 19.4797C27.5112 19.374 27.4055 19.2331 27.335 19.2331C26.5248 19.1627 26.4896 18.599 26.4896 17.965C26.4896 17.8241 26.3839 17.7184 26.3487 17.5775C26.3135 17.5775 26.2783 17.6127 26.243 17.6127C26.2078 20.466 26.2078 23.3193 26.2078 26.1725ZM52.1338 17.5423C51.7816 18.2468 51.8872 19.1627 50.9009 19.4797C50.8305 19.5149 50.7952 19.691 50.76 19.7967C49.8442 21.6989 48.9283 23.6011 48.0124 25.5033C47.9068 25.7146 47.8363 25.926 47.7306 26.2078H52.169C52.1338 23.284 52.1338 20.4308 52.1338 17.5423Z" fill="#1C3E76"/>
<path d="M48.7874 44.5251C50.4078 46.5329 52.5918 46.392 54.7757 46.2511C53.4724 46.9556 52.169 47.7658 50.6191 47.2374C48.9635 46.6738 47.9068 45.5466 47.4488 43.8558C51.3589 42.799 52.9792 39.5583 54.7757 36.4936C55.5507 35.1198 56.3609 33.746 57.1711 32.4075C57.2768 32.4779 57.4177 32.5131 57.5233 32.5836C56.9597 34.8028 56.5722 37.0925 55.8325 39.2412C54.8462 42.1297 52.5918 43.6444 49.668 44.2785C49.4567 44.3137 49.2453 44.3489 49.0692 44.4194C48.9987 44.3842 48.9635 44.4194 48.7874 44.5251ZM53.1554 40.7559C51.9577 41.7775 50.7248 42.8695 49.6328 43.7853C52.9088 43.2217 55.6916 40.3332 55.5859 37.4095C54.8462 38.6072 54.1065 39.8401 53.2963 41.1434C53.1906 40.8616 53.1554 40.7207 53.1554 40.7559Z" fill="#787878"/>
<path d="M30.9633 43.7853C30.0474 47.2374 27.1941 48.1885 23.6011 46.1807C24.6931 46.1807 25.7851 46.2863 26.8419 46.1454C27.9691 46.0398 28.885 45.4409 29.6247 44.4194C29.1668 44.3137 28.7793 44.2433 28.427 44.1728C24.5522 43.2217 22.5444 40.5798 21.8046 36.7754C21.5228 35.3664 21.241 33.9222 21.1001 32.4075C21.4876 32.9359 21.9455 33.4642 22.2626 34.0278C23.1432 35.5778 23.9534 37.1629 24.8693 38.6776C25.926 40.4037 27.1941 41.9888 28.9202 43.0808C29.5543 43.4683 30.2588 43.574 30.9633 43.7853ZM28.7441 43.7501C27.6873 42.8342 26.4544 41.7775 25.2215 40.7207C25.2215 40.6855 25.1863 40.8264 25.0454 41.073C24.2352 39.7696 23.5307 38.5367 22.7557 37.2686C23.0023 40.615 25.6442 43.3274 28.7441 43.7501Z" fill="#787878"/>
<path d="M35.4721 44.7717H42.9399C43.3979 45.8285 43.9263 46.9557 44.4899 48.2943C43.257 47.9068 42.0945 47.625 41.0025 47.1318C39.7697 46.6035 38.6424 46.6035 37.4095 47.1318C36.3175 47.5898 35.1199 47.8716 33.9222 48.2943C34.4858 46.9909 35.0142 45.8637 35.4721 44.7717Z" fill="#787878"/>
<path d="M60.4823 39.6992C58.4744 42.5172 54.9519 42.9047 52.3804 44.8069C52.31 44.7364 52.2747 44.6308 52.2043 44.5603C53.1906 43.8558 54.0712 42.9752 55.1632 42.5172C57.8404 41.4252 60.0244 39.6992 61.8561 37.48C61.9265 41.8479 56.7484 46.2864 52.4509 45.441C54.036 44.4546 55.445 43.3979 57.3472 43.6092C57.1006 43.5388 56.8893 43.4331 56.537 43.2922C58.2279 42.4116 59.7426 41.4957 60.4823 39.6992Z" fill="#787878"/>
<path d="M22.016 43.2921C21.6989 43.433 21.4524 43.5035 21.2058 43.6092C23.1432 43.3978 24.5522 44.525 26.1726 45.4409C21.3819 46.0397 17.5423 42.6581 16.6265 37.5151C17.5423 38.3958 18.3877 39.3469 19.3741 40.1218C20.3604 40.8968 21.4876 41.5308 22.6148 42.0945C23.9886 42.7637 25.1863 43.5739 26.2078 44.7364C23.5659 42.9399 20.1138 42.5172 18.1059 39.6287C18.3525 40.8263 19.3388 41.7774 22.016 43.2921Z" fill="#787878"/>
<path d="M57.8051 37.9732C60.5527 36.3175 63.723 35.2256 65.0616 31.9496C63.4412 34.8381 60.4823 35.9653 57.8051 37.48C57.7699 37.4095 57.6994 37.3743 57.6642 37.3039C58.8619 36.2823 60.0243 35.2256 61.2924 34.3097C62.7719 33.2177 64.2514 32.1609 65.1673 30.3997C65.8718 32.7598 65.1673 34.8029 63.2651 36.1062C61.6095 37.2686 59.7425 37.7266 57.8051 37.9732Z" fill="#787878"/>
<path d="M20.6069 37.3392C17.965 35.8949 15.1118 34.8029 13.4209 32.0201C13.8436 32.6542 14.0902 33.4643 14.6891 33.8871C16.4151 35.1552 18.2468 36.3176 20.0433 37.4801C20.2899 37.6562 20.6069 37.7619 20.8535 37.9732C18.8104 37.7619 16.8026 37.2687 15.147 36.0006C13.3153 34.5916 12.8221 32.7246 13.4209 30.3645C15.0413 33.6053 18.6695 34.5211 20.6069 37.3392Z" fill="#787878"/>
<path d="M16.4151 28.6384C17.5423 30.5758 18.6695 32.5484 19.9024 34.6619C17.2957 33.4995 15.8163 30.3996 16.239 27.0532C16.4151 27.2998 16.556 27.4759 16.6617 27.6521C17.2957 28.4975 17.8593 29.4133 18.5639 30.1883C19.6206 31.386 20.0433 32.3371 20.0433 34.1688C19.4445 33.112 18.9513 32.1257 18.3525 31.2098C17.7889 30.294 17.1196 29.4133 16.5208 28.4975C16.4856 28.5679 16.4503 28.6031 16.4151 28.6384Z" fill="#787878"/>
<path d="M62.3492 27.2646C62.8071 30.294 61.3629 33.3587 58.7914 34.4859C59.9187 32.5133 61.0459 30.5406 62.1731 28.6032C62.1026 28.568 62.0322 28.5328 61.9617 28.4975C60.8345 30.3293 59.6721 32.161 58.5801 33.9575C58.404 33.1121 58.721 31.7383 59.3903 30.8929C60.3766 29.66 61.3629 28.4623 62.3492 27.2646Z" fill="#787878"/>
<path d="M68.0205 23.9885C67.8796 27.0531 66.4706 29.2724 63.6173 30.7871C64.498 28.6383 66.224 27.2645 67.4569 25.5737C67.5274 25.6441 67.5978 25.7146 67.6683 25.785C66.8581 26.4191 65.9422 26.9827 65.2377 27.7224C64.5332 28.4622 64.04 29.378 63.406 30.2587C63.5117 28.5678 64.1105 27.2645 65.5195 26.3134C66.4001 25.6794 67.1399 24.7987 68.0205 23.9885Z" fill="#787878"/>
<path d="M14.7947 30.6815C12.1176 29.2725 10.7086 27.0533 10.5677 24.0591C11.8006 25.1511 13.1743 26.1374 14.2663 27.3703C14.8652 28.0748 15.0413 29.1668 15.2879 30.1179C13.9845 28.5327 12.6812 26.9828 11.3778 25.3977C11.3074 25.4329 11.2369 25.5033 11.2017 25.5386C12.5051 27.1942 13.8084 28.8498 15.0765 30.5054C14.9709 30.5406 14.8652 30.611 14.7947 30.6815Z" fill="#787878"/>
<path d="M59.2141 6.27002C61.6095 8.34833 63.5117 10.7789 64.4275 13.8435C64.3571 13.8787 64.2866 13.914 64.2514 13.9492L61.3981 8.87671C61.3277 8.91194 61.2924 8.94716 61.222 8.98239C62.0674 10.6028 62.948 12.2584 63.7935 13.8787C61.2572 11.9413 61.0459 8.63013 59.2141 6.27002Z" fill="#787878"/>
<path d="M15.4288 7.50298C14.9004 8.87678 14.372 10.2506 13.8084 11.73C13.4209 9.68696 15.4993 5.319 17.7185 3.38159C16.6969 6.12918 15.6754 8.80632 14.6538 11.4835C14.5482 11.4482 14.4425 11.413 14.3368 11.3778C14.7595 10.1097 15.1822 8.84155 15.6402 7.57343C15.5345 7.53821 15.4993 7.53821 15.4288 7.50298Z" fill="#787878"/>
<path d="M14.3368 13.9495C15.0413 10.744 16.9787 8.34864 19.3741 6.23511C17.5776 8.63044 17.2958 11.9064 14.7948 13.8791C15.6402 12.2587 16.5208 10.6031 17.3662 8.9827C17.2958 8.94747 17.2605 8.91225 17.1901 8.87702C16.239 10.5678 15.2879 12.2587 14.3368 13.9495Z" fill="#787878"/>
<path d="M60.8698 3.41699C62.9481 5.81233 64.7798 8.31334 64.7798 11.6598C64.1105 10.0042 63.4764 8.34857 62.8072 6.69297C62.7367 6.72819 62.7015 6.72819 62.631 6.76342C63.1594 8.31334 63.723 9.82804 64.2514 11.378C64.1457 11.4132 64.04 11.4484 63.9344 11.5189C62.9481 8.8065 61.8913 6.09413 60.8698 3.41699Z" fill="#787878"/>
<path d="M23.3546 0.246582C21.3467 2.71237 19.3389 5.21338 17.2958 7.67917C17.2253 7.60872 17.1549 7.57349 17.0844 7.50304C17.9651 6.30537 18.8457 5.10771 19.7263 3.94526C19.6559 3.91004 19.6207 3.87481 19.5502 3.80436C18.6343 4.9668 17.7185 6.12925 16.8026 7.32692C16.9083 5.60086 20.8183 1.3738 23.3546 0.246582Z" fill="#787878"/>
<path d="M55.0223 0C58.0165 1.97263 60.4823 4.12139 61.7856 7.36214C60.8697 6.1997 59.9539 5.00203 59.038 3.83958C58.9676 3.87481 58.9323 3.94526 58.8619 3.98049C59.7425 5.17815 60.6232 6.3406 61.5038 7.53827C61.4334 7.60872 61.3629 7.64394 61.2925 7.71439C59.2494 5.21338 57.2415 2.71237 55.0223 0Z" fill="#787878"/>
<path d="M13.3505 25.7147C11.4835 24.3761 10.6381 22.5444 10.8142 20.2195C11.7301 21.9455 14.055 22.7909 13.7732 25.1863C13.0335 24.0591 12.2937 22.9318 11.554 21.7694C11.4835 21.8046 11.4131 21.8399 11.3426 21.8751C12.0824 23.0728 12.8221 24.3056 13.5266 25.5033C13.4914 25.609 13.4209 25.6794 13.3505 25.7147Z" fill="#787878"/>
<path d="M64.7798 25.1864C64.7798 24.0592 65.132 23.1081 65.9775 22.3331C66.6467 21.6991 67.1751 20.9593 67.774 20.29C68.3023 21.9809 67.1047 24.5171 65.0264 25.8557C65.4491 25.0103 65.7661 24.3058 66.1536 23.6717C66.5411 23.0376 67.0342 22.4388 67.4569 21.8047C67.3865 21.7695 67.316 21.6991 67.2456 21.6638C66.4002 22.7911 65.59 23.9887 64.7798 25.1864Z" fill="#787878"/>
<path d="M17.6128 13.0334C16.3446 14.5481 16.5912 17.1196 14.2311 17.7889C14.9709 16.6265 15.7458 15.4288 16.5208 14.2311C16.4503 14.1959 16.3799 14.1607 16.3447 14.0902C15.5345 15.2879 14.689 16.5208 13.7732 17.8593C13.6323 15.8867 15.3231 13.8084 17.6128 13.0334Z" fill="#787878"/>
<path d="M62.0674 14.231C62.8424 15.4287 63.5821 16.6264 64.3218 17.8241C63.5117 17.507 62.7719 16.9786 62.3844 16.0628C61.9617 15.0412 61.4686 14.0197 61.0459 13.0686C63.0537 13.597 64.7445 15.6048 64.7445 17.7536C63.8991 16.5559 63.0889 15.323 62.2435 14.1254C62.1731 14.1606 62.1026 14.1958 62.0674 14.231Z" fill="#787878"/>
<path d="M65.3786 21.0296C64.5684 18.8104 66.5411 17.4014 66.8581 15.2878C67.8092 17.6127 67.3513 20.1137 65.7661 21.6284C65.9422 20.7126 66.0831 19.9376 66.2945 19.1627C66.5058 18.4229 66.7876 17.7184 67.0342 17.0139C66.9638 16.9787 66.8581 16.9434 66.7877 16.9434C66.2945 18.3172 65.8366 19.691 65.3786 21.0296Z" fill="#787878"/>
<path d="M13.2096 21.0648C12.7164 19.6205 12.2585 18.2467 11.8006 16.8729C11.7301 16.9081 11.6597 16.9081 11.6245 16.9434C12.0472 18.4581 12.4699 19.9375 12.8926 21.4522C12.8221 21.4875 12.7164 21.4875 12.646 21.5227C11.237 19.7614 10.8847 17.7536 11.6949 15.323C12.1176 17.4013 13.9846 18.8103 13.2096 21.0648Z" fill="#787878"/>
<path d="M64.6389 22.6147C64.0753 20.9591 63.5469 19.5501 63.0537 18.1059C62.9833 18.1411 62.9128 18.1411 62.8424 18.1763C63.2651 19.5501 63.6878 20.9239 64.0753 22.192C63.3355 21.7341 62.948 21.2057 62.7719 20.1842C62.5606 19.0922 62.3844 18.0002 62.2083 16.9082C63.9696 17.9297 65.2729 20.6421 64.6389 22.6147Z" fill="#787878"/>
<path d="M14.3368 22.474C14.6891 21.5934 15.0061 20.9593 15.2174 20.2548C15.4288 19.5855 15.5345 18.881 15.5697 18.1413C15.0413 19.5855 14.5129 21.0298 14.0198 22.474C13.4914 20.3605 14.6186 18.0004 16.4856 16.9436C15.828 19.973 15.1118 21.8165 14.3368 22.474Z" fill="#787878"/>
<path d="M63.6173 27.018C63.406 25.4681 63.1946 23.9534 62.9833 22.4034C62.9128 22.4034 62.8424 22.4034 62.7719 22.4387C62.9128 23.9181 63.0185 25.3624 63.1594 26.8066C62.4901 26.0317 62.1379 25.0806 62.2788 23.9534C62.3845 23.0023 62.3844 22.016 62.4197 21.1001C63.8991 22.2273 64.5332 24.9397 63.6173 27.018Z" fill="#787878"/>
<path d="M65.7309 16.6617C65.7309 15.8867 65.6956 15.0765 65.7309 14.3016C65.7661 13.5618 65.8718 12.8221 65.9422 12.0471C65.8718 12.0471 65.8013 12.0471 65.7309 12.0119C65.6252 12.7516 65.4491 13.4914 65.4138 14.1959C65.3434 14.9356 65.4138 15.6754 65.4138 16.4856C64.8854 15.6049 64.6036 14.7947 64.815 13.8436C65.0263 12.7869 65.3082 11.7301 65.5195 10.6733C66.7524 11.9767 66.9285 14.5481 65.7309 16.6617Z" fill="#787878"/>
<path d="M13.1744 10.5676C13.0687 12.6107 14.6538 14.4777 13.2448 16.3798C13.1391 14.9356 13.0335 13.4913 12.9278 12.0119H12.7517V16.8025C11.6244 14.8651 11.8006 12.2232 13.1744 10.5676Z" fill="#787878"/>
<path d="M16.3799 20.9238C15.7458 22.8612 17.1196 24.9043 15.4992 26.6304C15.6049 25.1509 15.7106 23.7771 15.8163 22.3681C15.7458 22.3681 15.7106 22.3328 15.6402 22.3328C15.4288 23.8828 15.2174 25.4327 14.9709 27.2292C13.9141 24.9748 14.9004 22.0158 16.3799 20.9238Z" fill="#787878"/>
<path d="M45.8284 44.1728C46.1455 44.1024 46.392 44.0671 46.4625 44.0671C47.4136 45.4409 48.2942 46.7443 49.2101 48.1181C48.9283 48.0829 48.4703 48.1533 48.1885 47.9772C46.85 47.0965 46.1102 45.8284 45.8284 44.1728Z" fill="#787878"/>
<path d="M32.5484 43.9966C32.4075 46.3215 30.5406 48.435 29.3781 48.0475C30.1178 46.8146 30.8576 45.5465 31.6678 44.2784C31.7734 44.1023 32.1609 44.1023 32.5484 43.9966Z" fill="#787878"/>
<path d="M44.983 44.3489C45.1944 45.0886 45.3353 45.7579 45.5819 46.392C45.8284 46.9908 46.2159 47.5192 46.4977 48.0828C45.4057 48.2589 44.2785 46.7442 43.9263 44.4898C44.2433 44.4546 44.5956 44.4193 44.983 44.3489Z" fill="#787878"/>
<path d="M32.0552 48.1182C32.5484 46.9205 33.0416 45.6876 33.6052 44.3843C33.7813 44.4195 34.0983 44.4547 34.4153 44.49C34.521 46.1456 33.112 48.1886 32.0552 48.1182Z" fill="#787878"/>
<path d="M1.54641 57.4668H0.591797V64.1456H7.27056V63.1909H1.54641V57.4668ZM9.56022 58.4214H15.2844V57.4668H8.60561V64.1456H15.2844V63.1909H9.56022V61.2817H14.3298V60.3271H9.56022V58.4179V58.4214ZM19.6735 61.2817H22.5338V62.2363C22.5338 62.7612 22.104 63.1909 21.5792 63.1909H18.7189C18.194 63.1909 17.7642 62.7612 17.7642 62.2363V59.376C17.7642 58.8512 18.194 58.4214 18.7189 58.4214H21.5792C22.104 58.4214 22.5338 58.8512 22.5338 59.376H23.4884C23.4602 58.3157 22.6007 57.4668 21.5792 57.4668H18.7189C17.6515 57.4668 16.8096 58.365 16.8096 59.376V62.2363C16.8096 63.3142 17.6973 64.1456 18.7189 64.1456H21.5792C22.6465 64.1456 23.4884 63.2473 23.4884 62.2363V60.3271H19.6735V61.2817ZM29.9805 58.4214C30.5053 58.4214 30.9351 58.8512 30.9351 59.376V61.2852H26.1655V59.376C26.1655 58.8512 26.5953 58.4214 27.1202 58.4214H29.9805ZM31.8897 59.376C31.8615 58.3157 31.002 57.4668 29.9805 57.4668H27.1202C26.0528 57.4668 25.2109 58.365 25.2109 59.376V64.1456H26.1655V62.2363H30.9351V64.1456H31.8897V59.376ZM34.6549 57.4668H33.7003V64.1456H40.379V63.1909H34.6549V57.4668ZM47.3467 58.4214H53.0708V57.4668H46.392V64.1456H47.3467V61.2852H52.1162V60.3306H47.3467V58.4214ZM60.2216 62.2363C60.2216 62.7612 59.7918 63.1909 59.267 63.1909H56.4067C55.8818 63.1909 55.4521 62.7612 55.4521 62.2363V59.376C55.4521 58.8512 55.8818 58.4214 56.4067 58.4214H59.267C59.7918 58.4214 60.2216 58.8512 60.2216 59.376V62.2363ZM61.1762 59.376C61.1762 58.3369 60.2815 57.4668 59.267 57.4668H56.4067C55.357 57.4668 54.4975 58.3263 54.4975 59.376V62.2363C54.4975 63.2966 55.3464 64.1456 56.4067 64.1456H59.267C60.3167 64.1456 61.1762 63.2861 61.1762 62.2363V59.376ZM68.6194 62.2363C68.6194 62.7612 68.1896 63.1909 67.6648 63.1909H64.8044C64.2796 63.1909 63.8498 62.7612 63.8498 62.2363V57.4668H62.8952V62.2363C62.8952 63.3142 63.7829 64.1456 64.8044 64.1456H67.6648C68.7321 64.1456 69.574 63.2473 69.574 62.2363V57.4668H68.6194V62.2363ZM77.1087 60.3271C77.1087 60.852 76.679 61.2817 76.1541 61.2817H72.3392V58.4214H76.1541C76.679 58.4214 77.1087 58.8512 77.1087 59.376V60.3306V60.3271ZM78.0633 64.142V63.4657L76.7389 62.1412C77.5314 61.8735 78.0633 61.1408 78.0633 60.3306V59.376C78.0633 58.3157 77.158 57.4668 76.1541 57.4668H71.3846V64.1456H72.3392V62.2363H75.4778L77.387 64.1456H78.0633V64.142Z" fill="#D2D1D1"/>
<path d="M12.3289 68.1721V70.733H12.019V68.1721H12.3289ZM12.889 69.338V69.6128H12.1035V69.338H12.889ZM15.0624 69.4543C15.0624 69.7255 15.0131 69.958 14.9145 70.1553C14.8159 70.3525 14.682 70.504 14.5129 70.6097C14.3438 70.7154 14.1501 70.7682 13.9317 70.7682C13.7133 70.7682 13.5196 70.7154 13.3505 70.6097C13.1814 70.504 13.0475 70.3525 12.9489 70.1553C12.8503 69.958 12.801 69.7255 12.801 69.4543C12.801 69.1831 12.8503 68.9506 12.9489 68.7533C13.0475 68.556 13.1814 68.4046 13.3505 68.2989C13.5196 68.1932 13.7133 68.1404 13.9317 68.1404C14.1501 68.1404 14.3438 68.1932 14.5129 68.2989C14.682 68.4046 14.8159 68.556 14.9145 68.7533C15.0131 68.9506 15.0624 69.1831 15.0624 69.4543ZM14.763 69.4543C14.763 69.2324 14.7243 69.0457 14.6503 68.8907C14.5763 68.7392 14.4777 68.623 14.3509 68.5455C14.2241 68.468 14.0867 68.4292 13.9317 68.4292C13.7767 68.4292 13.6358 68.468 13.509 68.5455C13.3822 68.623 13.2835 68.7392 13.2096 68.8907C13.1356 69.0422 13.1004 69.2288 13.1004 69.4543C13.1004 69.6797 13.1356 69.8629 13.2096 70.0144C13.2835 70.1658 13.3822 70.2821 13.509 70.3596C13.6358 70.4371 13.7767 70.4758 13.9317 70.4758C14.0867 70.4758 14.2276 70.4371 14.3509 70.3596C14.4777 70.2821 14.5763 70.1658 14.6503 70.0144C14.7243 69.8629 14.763 69.6762 14.763 69.4543ZM15.9008 70.7365V68.1756H16.7674C16.9681 68.1756 17.1337 68.2108 17.2605 68.2848C17.3873 68.3553 17.4824 68.4539 17.5458 68.5772C17.6092 68.7005 17.6374 68.8378 17.6374 68.9858C17.6374 69.1337 17.6057 69.2746 17.5458 69.3979C17.486 69.5212 17.3908 69.6199 17.264 69.6938C17.1372 69.7678 16.9717 69.803 16.7744 69.803H16.1544V69.5283H16.7638C16.9012 69.5283 17.0104 69.5036 17.095 69.4578C17.1795 69.4085 17.2394 69.3451 17.2746 69.2641C17.3134 69.1831 17.331 69.0915 17.331 68.9858C17.331 68.8801 17.3134 68.7921 17.2746 68.711C17.2359 68.63 17.176 68.5666 17.0914 68.5208C17.0069 68.475 16.8942 68.4504 16.7568 68.4504H16.2108V70.7365H15.9008ZM18.4547 68.1756H18.7611V70.194H18.7858L20.1878 68.1756H20.4872V70.7365H20.1772V68.7251H20.1525L18.7576 70.7365H18.4582V68.1756H18.4547ZM21.2023 71.3565V70.4617H21.3678C21.4242 70.4089 21.477 70.3385 21.5263 70.2433C21.5756 70.1482 21.6214 70.0214 21.6567 69.8629C21.6919 69.7044 21.7165 69.5001 21.7271 69.257L21.7835 68.1756H23.3052V70.4617H23.6011V71.3529H23.3052V70.7365H21.4981V71.3565H21.2023ZM21.7377 70.4617H23.0093V68.4504H22.0653L22.0265 69.257C22.016 69.4437 21.9983 69.6128 21.9737 69.7643C21.949 69.9157 21.9173 70.0496 21.8786 70.1658C21.8398 70.2821 21.794 70.3807 21.7412 70.4617H21.7377ZM24.3831 68.1756H24.6896V70.194H24.7142L26.1162 68.1756H26.4156V70.7365H26.1056V68.7251H26.081L24.6861 70.7365H24.3866V68.1756H24.3831ZM27.3773 68.1756H27.6873V69.0316C27.6873 69.1584 27.7084 69.257 27.7542 69.331C27.8 69.4015 27.8599 69.4543 27.9409 69.4825C28.0219 69.5107 28.117 69.5247 28.2262 69.5247C28.2967 69.5247 28.3636 69.5247 28.427 69.5177C28.4904 69.5107 28.5538 69.5036 28.6172 69.493C28.6806 69.4825 28.7405 69.4719 28.8004 69.4578C28.8603 69.4437 28.9202 69.4261 28.9765 69.4085V69.6868C28.9202 69.7044 28.8638 69.722 28.811 69.7361C28.7581 69.7502 28.7018 69.7608 28.6419 69.7713C28.582 69.7819 28.5221 69.7889 28.4517 69.796C28.3847 69.7995 28.3108 69.803 28.2262 69.803C28.0501 69.803 27.8986 69.7784 27.7683 69.7255C27.6415 69.6762 27.5428 69.5917 27.4759 69.479C27.409 69.3662 27.3738 69.2148 27.3738 69.0245V68.1686L27.3773 68.1756ZM28.9378 68.1756H29.2478V70.7365H28.9378V68.1756ZM30.1883 70.7365V68.1756H31.7347V68.4504H30.4983V69.3169H31.6537V69.5917H30.4983V70.4617H31.7558V70.7365H30.1883ZM34.6725 68.9752H34.3625C34.3449 68.8872 34.3132 68.8061 34.2674 68.7392C34.2216 68.6723 34.1688 68.6159 34.1018 68.5701C34.0384 68.5243 33.968 68.4891 33.887 68.4645C33.8095 68.4398 33.7285 68.4292 33.6404 68.4292C33.4854 68.4292 33.3445 68.468 33.2177 68.5455C33.0909 68.623 32.9922 68.7392 32.9183 68.8907C32.8443 69.0422 32.8091 69.2288 32.8091 69.4543C32.8091 69.6797 32.8443 69.8629 32.9183 70.0144C32.9922 70.1658 33.0909 70.2821 33.2177 70.3596C33.3445 70.4371 33.4854 70.4758 33.6404 70.4758C33.7249 70.4758 33.8059 70.4653 33.887 70.4406C33.9645 70.416 34.0349 70.3842 34.1018 70.3385C34.1653 70.2927 34.2216 70.2363 34.2674 70.1658C34.3132 70.0989 34.3449 70.0179 34.3625 69.9298H34.6725C34.6478 70.0602 34.6056 70.1799 34.5457 70.2821C34.4823 70.3842 34.4083 70.4723 34.3167 70.5463C34.2251 70.6167 34.123 70.6731 34.0067 70.7118C33.894 70.7506 33.7707 70.7682 33.6439 70.7682C33.4255 70.7682 33.2318 70.7154 33.0627 70.6097C32.8936 70.504 32.7598 70.3525 32.6611 70.1553C32.5625 69.958 32.5132 69.7255 32.5132 69.4543C32.5132 69.1831 32.5625 68.9506 32.6611 68.7533C32.7598 68.556 32.8936 68.4046 33.0627 68.2989C33.2318 68.1932 33.4255 68.1404 33.6439 68.1404C33.7742 68.1404 33.894 68.158 34.0067 68.1967C34.1195 68.2355 34.2251 68.2883 34.3167 68.3623C34.4083 68.4328 34.4858 68.5208 34.5457 68.6265C34.6091 68.7286 34.6514 68.8449 34.6725 68.9788V68.9752ZM36.9974 70.7365L36.1167 69.56H35.7997V70.7365H35.4897V68.1756H35.7997V69.2852H35.9336L36.9586 68.1756H37.3285L36.2929 69.3028L37.3637 70.74H36.9939L36.9974 70.7365ZM38.1915 70.7365H37.8675L38.808 68.1756H39.1285L40.0691 70.7365H39.745L38.9806 68.5807H38.9594L38.1951 70.7365H38.1915ZM38.3113 69.7361H39.6217V70.0109H38.3113V69.7361ZM42.5243 70.7365H42.2143V68.4504H41.6683C41.5309 68.4504 41.4182 68.4715 41.3336 68.5138C41.2491 68.556 41.1892 68.6159 41.1505 68.6899C41.1117 68.7639 41.0941 68.8555 41.0941 68.9576C41.0941 69.0598 41.1117 69.1478 41.1505 69.2218C41.1892 69.2958 41.2491 69.3521 41.3336 69.3909C41.4182 69.4296 41.5274 69.4508 41.6648 69.4508H42.3552V69.7291H41.6542C41.4569 69.7291 41.2914 69.6973 41.1646 69.6304C41.0378 69.5635 40.9426 69.4719 40.8792 69.3557C40.8158 69.2394 40.7877 69.1056 40.7877 68.9541C40.7877 68.8026 40.8194 68.6688 40.8792 68.549C40.9391 68.4292 41.0342 68.3376 41.1646 68.2707C41.2914 68.2038 41.4569 68.1686 41.6577 68.1686H42.5243V70.7295V70.7365ZM41.3196 69.5846H41.6683L41.0483 70.7365H40.689L41.3196 69.5846ZM46.2793 70.7365L45.3987 69.56H45.0816V70.7365H44.7717V68.1756H45.0816V69.2852H45.2155L46.2406 68.1756H46.6104L45.5748 69.3028L46.6457 70.74H46.2758L46.2793 70.7365ZM49.4073 69.4543C49.4073 69.7255 49.358 69.958 49.2594 70.1553C49.1608 70.3525 49.0269 70.504 48.8578 70.6097C48.6887 70.7154 48.4915 70.7682 48.2766 70.7682C48.0617 70.7682 47.8645 70.7154 47.6954 70.6097C47.5263 70.504 47.3924 70.3525 47.2938 70.1553C47.1952 69.958 47.1459 69.7255 47.1459 69.4543C47.1459 69.1831 47.1952 68.9506 47.2938 68.7533C47.3924 68.556 47.5263 68.4046 47.6954 68.2989C47.8645 68.1932 48.0582 68.1404 48.2766 68.1404C48.495 68.1404 48.6887 68.1932 48.8578 68.2989C49.0269 68.4046 49.1608 68.556 49.2594 68.7533C49.358 68.9506 49.4073 69.1831 49.4073 69.4543ZM49.1079 69.4543C49.1079 69.2324 49.0692 69.0457 48.9952 68.8907C48.9212 68.7392 48.8226 68.623 48.6958 68.5455C48.5725 68.468 48.4316 68.4292 48.2766 68.4292C48.1216 68.4292 47.9807 68.468 47.8539 68.5455C47.7306 68.623 47.6285 68.7392 47.5545 68.8907C47.4805 69.0422 47.4453 69.2288 47.4453 69.4543C47.4453 69.6797 47.4805 69.8629 47.5545 70.0144C47.6285 70.1658 47.7271 70.2821 47.8539 70.3596C47.9807 70.4371 48.1216 70.4758 48.2766 70.4758C48.4316 70.4758 48.5725 70.4371 48.6958 70.3596C48.8226 70.2821 48.9212 70.1658 48.9952 70.0144C49.0692 69.8629 49.1079 69.6762 49.1079 69.4543ZM50.2457 68.1721H50.6156L51.4857 70.2997H51.5174L52.3874 68.1721H52.7573V70.733H52.4684V68.785H52.4438L51.6442 70.733H51.3624L50.5627 68.785H50.5381V70.733H50.2492V68.1721H50.2457ZM55.6141 68.1721V70.733H55.3041V68.4468H54.0113V70.733H53.7013V68.1721H55.6141ZM56.6603 70.733H56.3362L57.2767 68.1721H57.5973L58.5378 70.733H58.2137L57.4493 68.5772H57.4282L56.6638 70.733H56.6603ZM56.7801 69.7326H58.0904V70.0073H56.7801V69.7326ZM59.2529 70.733V68.1721H59.5629V69.3134H60.9296V68.1721H61.2396V70.733H60.9296V69.5882H59.5629V70.733H59.2529ZM62.1766 68.1721H62.4831V70.1905H62.5077L63.9097 68.1721H64.2091V70.733H63.8991V68.7216H63.8745L62.4795 70.733H62.1801V68.1721H62.1766ZM66.8863 70.733H66.5763V68.4468H66.0303C65.8929 68.4468 65.7802 68.468 65.6956 68.5103C65.6111 68.5525 65.5512 68.6124 65.5125 68.6864C65.4737 68.7639 65.4561 68.8519 65.4561 68.9541C65.4561 69.0562 65.4737 69.1443 65.5125 69.2183C65.5512 69.2923 65.6111 69.3486 65.6956 69.3874C65.7802 69.4261 65.8894 69.4472 66.0268 69.4472H66.7172V69.7255H66.0162C65.8189 69.7255 65.6534 69.6938 65.5266 69.6269C65.3997 69.56 65.3046 69.4684 65.2412 69.3521C65.1778 69.2359 65.1496 69.102 65.1496 68.9506C65.1496 68.7991 65.1813 68.6652 65.2412 68.5455C65.3046 68.4257 65.3962 68.3341 65.5266 68.2672C65.6569 68.2003 65.8189 68.165 66.0197 68.165H66.8863V70.7259V70.733ZM65.6815 69.5811H66.0338L65.4138 70.733H65.0545L65.6851 69.5811H65.6815Z" fill="#CACACA"/>
<path d="M9.5109 69.324H0V69.6762H9.5109V69.324Z" fill="#898A8A"/>
<path d="M78.553 69.324H69.0421V69.6762H78.553V69.324Z" fill="#898A8A"/>
</svg>
