<svg width="168" height="105" viewBox="0 0 168 105" fill="none" xmlns="http://www.w3.org/2000/svg">
<path fill-rule="evenodd" clip-rule="evenodd" d="M116.422 43.9763V36.6455H109.091V21.9839H72.37L72.4457 29.3147H101.76V51.2987H57.7841V58.6295H109.091V43.9679H116.422V43.9763ZM50.4533 21.9923V29.3231H57.7841V43.9847H94.4297V36.6539H65.1149L65.1485 14.67H109.091V7.33917H57.4899H57.7841V22.0008H50.4533V21.9923Z" fill="#FFD200"/>
<path fill-rule="evenodd" clip-rule="evenodd" d="M50.4533 21.9924H57.7841V7.33079H57.4899H109.091V14.6616H65.1485L65.1149 36.6455H94.4297V43.9763H57.7841V29.3232H50.4533V65.9687H116.422V43.9763H109.091V58.6379H57.7841V51.3071H101.752V29.3232H72.4457L72.37 21.9924H109.091V36.654H116.422V0H50.4533V21.9924Z" fill="#003C78"/>
<path fill-rule="evenodd" clip-rule="evenodd" d="M50.4533 21.9924H57.7841V7.33079H57.4899H109.091V14.6616H65.1485L65.1149 36.6455H94.4297V43.9763H57.7841V29.3232H50.4533V65.9687H116.422V43.9763H109.091V58.6379H57.7841V51.3071H101.752V29.3232H72.4457L72.37 21.9924H109.091V36.654H116.422V0H50.4533V21.9924Z" fill="#003C78"/>
<path d="M164.556 78.4926H155.261V87.3641H164.556V84.3538L168 85.0307V86.6871C168 87.9693 167.747 88.8373 167.234 89.2992C166.729 89.7611 165.76 89.992 164.329 89.992H155.488C154.048 89.992 153.08 89.7611 152.575 89.2992C152.07 88.8373 151.817 87.9613 151.817 86.6871V79.3049C151.817 78.0387 152.07 77.1627 152.575 76.7008C153.08 76.2389 154.048 76 155.488 76H164.329C165.76 76 166.72 76.2389 167.234 76.7008C167.747 77.1707 168 78.0387 168 79.3049V80.6348L164.556 81.1524V78.4926ZM130.49 89.992V76H145.629V78.3891H133.925V81.5108H140.754V83.8999H133.925V87.372H145.772V90H130.49V89.992ZM119.452 78.4926V89.992H116.008V78.4926H109.213V76H126.28V78.4926H119.452ZM90.0749 89.992V76H102.721C103.9 76 104.759 76.215 105.281 76.6451C105.811 77.0671 106.072 77.76 106.072 78.7076V81.9966C106.072 82.9363 105.811 83.6291 105.281 84.0592C104.759 84.4892 103.9 84.7042 102.721 84.7042H100.793L107.63 89.992H102.688L96.7265 84.7042H93.4596V89.992H90.0749ZM101.197 78.413H93.4596V82.3151H101.197C101.795 82.3151 102.199 82.2355 102.418 82.0683C102.637 81.901 102.747 81.6143 102.747 81.1923V79.504C102.747 79.0978 102.637 78.8112 102.418 78.6439C102.199 78.4846 101.795 78.397 101.197 78.397V78.413ZM65.127 89.992L73.5047 76H76.8306L85.3177 89.992H81.453L79.6764 86.9261H70.2884L68.5623 89.992H65.127ZM71.7534 84.4016H78.2451L75.0456 78.7076L71.7534 84.4016ZM48.8769 89.992V76H52.3206V87.3641H63.4178V89.992H48.8769ZM26.8254 87.3641H38.1837V78.4926H26.8254V87.3641ZM23.3817 79.3049C23.3817 78.0307 23.6343 77.1627 24.1395 76.7008C24.6363 76.2389 25.613 76 27.0528 76H37.948C39.3878 76 40.3645 76.2389 40.8696 76.7008C41.3748 77.1707 41.6274 78.0387 41.6274 79.3049V86.6871C41.6274 87.9693 41.3748 88.8373 40.8696 89.2992C40.3645 89.7611 39.3962 89.992 37.948 89.992H27.0528C25.613 89.992 24.6447 89.7611 24.1395 89.2992C23.6343 88.8373 23.3817 87.9613 23.3817 86.6871V79.3049ZM13.3201 78.4448H3.62051V81.4551H12.8486C14.3052 81.4551 15.2735 81.686 15.7871 82.1559C16.3007 82.6257 16.5533 83.4937 16.5533 84.7679V86.6951C16.5533 87.9613 16.3007 88.8294 15.7871 89.2992C15.2735 89.7611 14.3052 90 12.8486 90H3.70471C2.2565 90 1.27981 89.7691 0.766201 89.2992C0.252594 88.8294 0 87.9613 0 86.6951V86.3129L3.03954 85.7156V87.372H13.5053V84.1706H4.27725C2.83747 84.1706 1.86919 83.9397 1.36401 83.4699C0.858818 83 0.606225 82.132 0.606225 80.8658V79.3129C0.606225 78.0387 0.858818 77.1786 1.36401 76.7008C1.86919 76.2389 2.83747 76 4.27725 76H12.6802C14.0695 76 15.0293 76.223 15.5598 76.6769C16.0902 77.1308 16.3512 77.9272 16.3512 79.0739V79.3686L13.3117 80.0455V78.4448H13.3201Z" fill="#FCFCFC"/>
<path d="M138.425 101.568H135.797V102.676H138.138C138.467 102.676 138.696 102.739 138.814 102.874C138.941 103 139 103.252 139 103.613V104.054C139 104.423 138.941 104.667 138.822 104.793C138.704 104.928 138.476 104.991 138.138 104.991H135.966C135.627 104.991 135.399 104.928 135.281 104.793C135.163 104.658 135.095 104.414 135.095 104.054V103.946L135.67 103.802V104.441H138.434V103.252H136.101C135.763 103.252 135.534 103.189 135.416 103.054C135.298 102.919 135.239 102.676 135.239 102.315V101.973C135.239 101.613 135.298 101.36 135.416 101.234C135.534 101.099 135.763 101.036 136.101 101.036H138.079C138.408 101.036 138.637 101.099 138.763 101.234C138.89 101.36 138.949 101.586 138.949 101.91V101.991L138.417 102.153V101.577L138.425 101.568ZM130.176 104.991V101.036H133.751V101.568H130.793V102.676H132.601V103.198H130.793V104.459H133.776V105H130.167L130.176 104.991ZM127.631 104.991V101.036H128.248V104.991H127.631ZM125.231 101.568H122.323V104.432H125.231V103.27H123.726V102.766H125.848V104.045C125.848 104.405 125.789 104.658 125.662 104.784C125.535 104.919 125.307 104.982 124.969 104.982H122.568C122.23 104.982 122.002 104.919 121.875 104.784C121.757 104.649 121.698 104.405 121.698 104.045V101.955C121.698 101.595 121.757 101.351 121.875 101.216C121.994 101.081 122.23 101.018 122.568 101.018H124.969C125.299 101.018 125.527 101.081 125.654 101.216C125.78 101.342 125.84 101.577 125.84 101.91V102.009L125.223 102.144V101.559L125.231 101.568ZM115.561 101.964C115.561 101.604 115.621 101.36 115.739 101.225C115.857 101.09 116.094 101.027 116.432 101.027H119.002C119.34 101.027 119.568 101.09 119.686 101.225C119.805 101.36 119.864 101.604 119.864 101.964V104.054C119.864 104.423 119.805 104.667 119.686 104.793C119.568 104.928 119.34 104.991 119.002 104.991H116.432C116.094 104.991 115.866 104.928 115.739 104.793C115.621 104.658 115.561 104.414 115.561 104.054V101.964ZM116.178 104.432H119.255V101.568H116.178V104.432ZM111.039 104.982V101.027H111.656V104.432H114.471V104.982H111.039ZM104.852 101.955C104.852 101.595 104.911 101.351 105.03 101.216C105.148 101.081 105.385 101.018 105.723 101.018H108.292C108.63 101.018 108.859 101.081 108.977 101.216C109.095 101.351 109.154 101.595 109.154 101.955V104.045C109.154 104.414 109.095 104.658 108.977 104.784C108.859 104.919 108.63 104.982 108.292 104.982H105.723C105.385 104.982 105.156 104.919 105.03 104.784C104.911 104.649 104.852 104.405 104.852 104.045V101.955ZM105.469 104.423H108.546V101.559H105.469V104.423ZM98.8678 104.973V101.018H99.2566L102.038 103.667C102.105 103.73 102.164 103.802 102.24 103.883C102.308 103.964 102.384 104.063 102.46 104.162C102.443 104.036 102.426 103.901 102.418 103.766C102.409 103.631 102.401 103.432 102.401 103.189V101.018H102.967V104.973H102.621L99.7638 102.225C99.7638 102.225 99.73 102.189 99.7046 102.162C99.5609 102.027 99.4595 101.901 99.3919 101.775C99.4088 101.892 99.4172 102.018 99.4257 102.162C99.4257 102.297 99.4341 102.459 99.4341 102.64V104.973H98.8678ZM92.7736 104.973V101.018H93.3906V102.64H96.3236V101.018H96.9407V104.973H96.3236V103.18H93.3906V104.973H92.7736ZM90.5253 101.55H87.9473V104.414H90.5253V103.423L91.1423 103.559V104.027C91.1423 104.387 91.0831 104.64 90.9648 104.766C90.8465 104.892 90.6183 104.964 90.2802 104.964H88.2009C87.8628 104.964 87.6345 104.901 87.5078 104.766C87.3894 104.64 87.3218 104.387 87.3218 104.027V101.937C87.3218 101.577 87.381 101.333 87.5078 101.198C87.6261 101.063 87.8628 101 88.2009 101H90.2802C90.6183 101 90.8465 101.063 90.9648 101.198C91.0831 101.333 91.1423 101.577 91.1423 101.937V102.315L90.5253 102.441V101.541V101.55ZM82.3011 104.973V101.018H85.8764V101.55H82.9181V102.658H84.7269V103.18H82.9181V104.441H85.9018V104.982H82.2926L82.3011 104.973ZM79.554 101.55V104.973H78.937V101.55H77.238V101.009H81.2614V101.55H79.554ZM70.3409 104.973V101.018H73.9162V101.55H70.9579V102.658H72.7667V103.18H70.9579V104.441H73.9416V104.982H70.3324L70.3409 104.973ZM66.6725 104.973L64.6439 101.018H65.3117L66.9514 104.315L68.5151 101.018H69.1322L67.1881 104.973H66.6641H66.6725ZM62.8266 104.973V101.018H63.4437V104.973H62.8266ZM60.0796 101.55V104.973H59.4626V101.55H57.7636V101.009H61.787V101.55H60.0796ZM53.2078 104.973L55.2364 101.018H55.9041L57.9665 104.973H57.2818L56.8085 104H54.2981L53.8248 104.973H53.2162H53.2078ZM54.5517 103.495H56.5549L55.5491 101.468L54.5517 103.495ZM50.8495 104.973L48.821 101.018H49.4887L51.1285 104.315L52.6922 101.018H53.3092L51.3651 104.973H50.8411H50.8495ZM43.5551 101.946C43.5551 101.586 43.6143 101.342 43.7326 101.207C43.8509 101.072 44.0876 101.009 44.4257 101.009H46.9952C47.3333 101.009 47.5615 101.072 47.6799 101.207C47.7982 101.342 47.8574 101.586 47.8574 101.946V104.036C47.8574 104.405 47.7982 104.649 47.6799 104.775C47.5615 104.91 47.3333 104.973 46.9952 104.973H44.4257C44.0876 104.973 43.8594 104.91 43.7326 104.775C43.6143 104.64 43.5551 104.396 43.5551 104.036V101.946ZM44.1721 104.414H47.2404V101.55H44.1721V104.414ZM37.5708 104.964V101.009H37.9596L40.7404 103.658C40.8081 103.721 40.8672 103.793 40.9433 103.874C41.0109 103.955 41.087 104.054 41.1631 104.153C41.1461 104.027 41.1292 103.892 41.1208 103.757C41.1123 103.622 41.1039 103.423 41.1039 103.18V101.009H41.6702V104.964H41.3236L38.4667 102.216C38.4667 102.216 38.4329 102.18 38.4076 102.153C38.2639 102.018 38.1624 101.892 38.0948 101.766C38.1117 101.883 38.1202 102.009 38.1286 102.153C38.1286 102.288 38.1371 102.45 38.1371 102.631V104.964H37.5708ZM31.5442 104.964V101.009H31.933L34.7138 103.658C34.773 103.721 34.8406 103.793 34.9167 103.874C34.9843 103.955 35.0604 104.054 35.1365 104.153C35.1196 104.027 35.1027 103.892 35.0942 103.757C35.0858 103.622 35.0773 103.423 35.0773 103.18V101.009H35.6436V104.964H35.2971L32.4401 102.216C32.4401 102.216 32.4063 102.18 32.381 102.153C32.2373 102.018 32.1359 101.892 32.0682 101.766C32.0851 101.883 32.0936 102.009 32.102 102.153C32.102 102.288 32.1105 102.45 32.1105 102.631V104.964H31.5442ZM29 104.964V101.009H29.617V104.964H29Z" fill="#FDFDFD"/>
</svg>
