<svg width="130" height="47" viewBox="0 0 130 47" fill="none" xmlns="http://www.w3.org/2000/svg">
<path d="M31.5858 27.7055L31.5082 0.543244H25.1833L15.8705 16.2197L6.32492 0.543244H0V27.7055H7.10099V13.6975L14.0468 25.0281H17.4614L24.446 13.3095L24.5236 27.7055H31.5858Z" fill="#FCFCFC"/>
<path d="M40.1264 27.7055H52.9703C61.9726 27.7055 68.1424 22.4671 68.1424 14.1244C68.1424 5.78168 61.9726 0.543244 52.9703 0.543244H40.1264V27.7055ZM47.8095 21.5746V6.67415H52.6599C57.2775 6.67415 60.3817 9.42918 60.3817 14.1244C60.3817 18.8196 57.2775 21.5746 52.6599 21.5746H47.8095Z" fill="#FCFCFC"/>
<path d="M84.8344 28.2487C92.9055 28.2487 96.8634 24.2132 96.8634 19.4792C96.8634 9.46798 81.4585 12.5722 81.4585 8.4203C81.4585 7.06218 82.6226 5.97569 85.8433 5.97569C88.2103 5.97569 90.7713 6.67415 93.3711 8.07106L95.7381 2.36699C93.0607 0.814868 89.4132 0 85.8821 0C77.811 0 73.8531 3.95792 73.8531 8.80833C73.8531 18.8972 89.2968 15.7541 89.2968 20.0613C89.2968 21.3806 88.0551 22.273 84.8732 22.273C81.7301 22.273 78.3155 21.1865 75.9097 19.5956L73.3875 25.2609C75.9485 27.0458 80.372 28.2487 84.8344 28.2487Z" fill="#FCFCFC"/>
<path d="M121.832 0.543244V15.0168L109.842 0.543244H103.517V27.7055H111.044V13.2319L123.035 27.7055H129.36V0.543244H121.832Z" fill="#FCFCFC"/>
<path d="M77.3361 45.1875C76.8815 45.1875 76.4633 45.1145 76.0817 44.9686C75.7 44.817 75.3689 44.6065 75.0882 44.3371C74.8076 44.0621 74.5887 43.7422 74.4315 43.3774C74.2744 43.0125 74.1958 42.6112 74.1958 42.1734C74.1958 41.7357 74.2744 41.3343 74.4315 40.9695C74.5887 40.6047 74.8076 40.2876 75.0882 40.0182C75.3745 39.7431 75.7084 39.5327 76.0901 39.3867C76.4717 39.2352 76.8927 39.1594 77.3529 39.1594C77.8188 39.1594 78.2454 39.2352 78.6326 39.3867C79.0199 39.5383 79.3483 39.7656 79.6177 40.0687L79.0957 40.5907C78.8543 40.3549 78.5905 40.1837 78.3043 40.0771C78.0237 39.9648 77.7178 39.9087 77.3866 39.9087C77.0499 39.9087 76.7355 39.9648 76.4437 40.0771C76.1574 40.1894 75.9077 40.3465 75.6944 40.5486C75.4867 40.7506 75.324 40.992 75.2061 41.2726C75.0938 41.5476 75.0377 41.8479 75.0377 42.1734C75.0377 42.4934 75.0938 42.7936 75.2061 43.0743C75.324 43.3493 75.4867 43.5906 75.6944 43.7983C75.9077 44.0004 76.1574 44.1575 76.4437 44.2698C76.7299 44.382 77.0414 44.4382 77.3782 44.4382C77.6925 44.4382 77.9928 44.3905 78.279 44.295C78.5709 44.194 78.8403 44.0284 79.0873 43.7983L79.5672 44.4382C79.2753 44.6851 78.9329 44.8731 78.54 45.0022C78.1528 45.1257 77.7514 45.1875 77.3361 45.1875ZM78.7589 44.3287V42.1398H79.5672V44.4382L78.7589 44.3287Z" fill="white"/>
<path d="M83.368 45.1201V39.2268H85.6664C86.1828 39.2268 86.6234 39.3082 86.9882 39.4709C87.353 39.6337 87.6337 39.8694 87.8301 40.1781C88.0266 40.4868 88.1248 40.8545 88.1248 41.281C88.1248 41.7076 88.0266 42.0752 87.8301 42.3839C87.6337 42.687 87.353 42.9199 86.9882 43.0827C86.6234 43.2455 86.1828 43.3269 85.6664 43.3269H83.8311L84.2099 42.9396V45.1201H83.368ZM87.3081 45.1201L85.8095 42.9817H86.7104L88.2258 45.1201H87.3081ZM84.2099 43.0238L83.8311 42.6112H85.6412C86.18 42.6112 86.5869 42.4962 86.8619 42.2661C87.1426 42.0303 87.2829 41.702 87.2829 41.281C87.2829 40.8601 87.1426 40.5345 86.8619 40.3044C86.5869 40.0743 86.18 39.9592 85.6412 39.9592H83.8311L84.2099 39.5383V43.0238Z" fill="white"/>
<path d="M94.3344 45.1875C93.8853 45.1875 93.4672 45.1117 93.0799 44.9601C92.6983 44.8086 92.3671 44.5981 92.0865 44.3287C91.8058 44.0537 91.5869 43.7338 91.4298 43.3689C91.2726 43.0041 91.1941 42.6056 91.1941 42.1734C91.1941 41.7413 91.2726 41.3428 91.4298 40.9779C91.5869 40.6131 91.8058 40.296 92.0865 40.0266C92.3671 39.7516 92.6983 39.5383 93.0799 39.3867C93.4616 39.2352 93.8797 39.1594 94.3344 39.1594C94.7834 39.1594 95.1959 39.2352 95.572 39.3867C95.9536 39.5327 96.2848 39.7431 96.5654 40.0182C96.8517 40.2876 97.0705 40.6047 97.2221 40.9695C97.3792 41.3343 97.4578 41.7357 97.4578 42.1734C97.4578 42.6112 97.3792 43.0125 97.2221 43.3774C97.0705 43.7422 96.8517 44.0621 96.5654 44.3371C96.2848 44.6065 95.9536 44.817 95.572 44.9686C95.1959 45.1145 94.7834 45.1875 94.3344 45.1875ZM94.3344 44.4382C94.6599 44.4382 94.9602 44.382 95.2352 44.2698C95.5158 44.1575 95.7572 44.0004 95.9592 43.7983C96.1669 43.5906 96.3269 43.3493 96.4391 43.0743C96.557 42.7993 96.6159 42.499 96.6159 42.1734C96.6159 41.8479 96.557 41.5476 96.4391 41.2726C96.3269 40.9976 96.1669 40.759 95.9592 40.557C95.7572 40.3493 95.5158 40.1894 95.2352 40.0771C94.9602 39.9648 94.6599 39.9087 94.3344 39.9087C94.0032 39.9087 93.6973 39.9648 93.4167 40.0771C93.1417 40.1894 92.9003 40.3493 92.6926 40.557C92.485 40.759 92.3222 40.9976 92.2043 41.2726C92.0921 41.5476 92.036 41.8479 92.036 42.1734C92.036 42.499 92.0921 42.7993 92.2043 43.0743C92.3222 43.3493 92.485 43.5906 92.6926 43.7983C92.9003 44.0004 93.1417 44.1575 93.4167 44.2698C93.6973 44.382 94.0032 44.4382 94.3344 44.4382Z" fill="white"/>
<path d="M103.375 45.1875C102.601 45.1875 101.992 44.9658 101.548 44.5224C101.105 44.079 100.883 43.4307 100.883 42.5776V39.2268H101.725V42.5439C101.725 43.2006 101.868 43.6805 102.154 43.9835C102.446 44.2866 102.856 44.4382 103.384 44.4382C103.917 44.4382 104.326 44.2866 104.613 43.9835C104.905 43.6805 105.05 43.2006 105.05 42.5439V39.2268H105.867V42.5776C105.867 43.4307 105.645 44.079 105.202 44.5224C104.764 44.9658 104.155 45.1875 103.375 45.1875Z" fill="white"/>
<path d="M109.782 45.1201V39.2268H112.081C112.597 39.2268 113.037 39.3082 113.402 39.4709C113.767 39.6337 114.048 39.8694 114.244 40.1781C114.441 40.4868 114.539 40.8545 114.539 41.281C114.539 41.7076 114.441 42.0752 114.244 42.3839C114.048 42.687 113.767 42.9227 113.402 43.0911C113.037 43.2539 112.597 43.3353 112.081 43.3353H110.245L110.624 42.9396V45.1201H109.782ZM110.624 43.0238L110.245 42.6028H112.055C112.594 42.6028 113.001 42.4878 113.276 42.2576C113.557 42.0275 113.697 41.702 113.697 41.281C113.697 40.8601 113.557 40.5345 113.276 40.3044C113.001 40.0743 112.594 39.9592 112.055 39.9592H110.245L110.624 39.5383V43.0238Z" fill="white"/>
<path d="M0 38.4169H67.999V45.2954H0V38.4169Z" fill="#38B6FF"/>
<path d="M128.827 41.8226C128.827 44.2312 126.874 46.1837 124.466 46.1837C122.057 46.1837 120.104 44.2312 120.104 41.8226C120.104 39.4141 122.057 37.4615 124.466 37.4615C126.874 37.4615 128.827 39.4141 128.827 41.8226Z" fill="white"/>
</svg>
