<svg width="187" height="43" viewBox="0 0 187 43" fill="none" xmlns="http://www.w3.org/2000/svg">
<path d="M64.71 17H67.75V10.673L72.291 17H76.148L70.752 9.837L75.749 3.7H72.101L67.75 9.495V3.7H64.71V17ZM80.0503 17L83.0903 12.535V17H85.9403V8.45H83.0903L80.0503 12.915V8.45H77.2003V17H80.0503ZM88.0362 20.8H90.8862V16.962C91.2852 17.133 91.8932 17.228 92.4822 17.228C95.2562 17.228 97.0802 15.195 97.0802 12.592C97.0802 10.065 95.5602 8.222 93.2612 8.222C92.2162 8.222 91.3612 8.621 90.8862 9.096V8.45H88.0362V20.8ZM92.3682 10.882C93.4512 10.882 94.0402 11.661 94.0402 12.649C94.0402 13.694 93.4512 14.568 92.2162 14.568C91.6082 14.568 91.3042 14.492 90.8862 14.245V11.642C91.3612 11.11 91.8172 10.882 92.3682 10.882ZM101.537 17L104.577 12.535V17H107.427V8.45H104.577L101.537 12.915V8.45H98.6866V17H101.537ZM114.938 17H117.788V8.45H110.777L110.644 11.11C110.511 13.751 109.694 14.549 108.858 14.454L109.105 17.228C111.955 17.228 112.962 16.126 113.399 11.68L113.437 11.3H114.938V17ZM125.291 17H128.141V8.45H121.13L120.997 11.11C120.864 13.751 120.047 14.549 119.211 14.454L119.458 17.228C122.308 17.228 123.315 16.126 123.752 11.68L123.79 11.3H125.291V17ZM142.393 17H145.433V3.7H134.698V17H137.738V6.55H142.393V17ZM154.898 14.245C154.442 14.53 153.644 14.853 152.656 14.853C151.725 14.853 150.927 14.492 150.661 13.675H156.323C156.437 13.295 156.494 12.915 156.494 12.25C156.494 9.818 154.556 8.222 152.352 8.222C149.54 8.222 147.716 10.236 147.716 12.725C147.716 15.423 149.54 17.228 152.352 17.228C153.568 17.228 154.784 16.924 155.677 16.259L154.898 14.245ZM152.257 10.597C153.169 10.597 153.644 11.186 153.644 11.775H150.566C150.832 11.015 151.307 10.597 152.257 10.597ZM156.836 18.9H159.496V17H164.702V18.9H167.362V14.34H165.937V8.45H159.154L159.04 10.293C158.945 11.794 158.584 13.485 157.938 14.34H156.836V18.9ZM161.776 11.452L161.814 11.11H163.087V14.34H160.921C161.263 13.808 161.605 12.877 161.776 11.452ZM169.513 11.129C170.045 10.92 170.691 10.597 171.698 10.597C172.458 10.597 172.933 11.034 172.876 12.06C172.61 11.851 171.964 11.585 171.204 11.585C169.513 11.585 168.126 12.478 168.126 14.416C168.126 16.145 169.285 17.114 170.824 17.114C171.755 17.114 172.648 16.81 173.066 16.221V17H175.536V11.851C175.536 9.533 174.586 8.222 171.983 8.222C170.786 8.222 169.494 8.64 168.81 9.058L169.513 11.129ZM171.793 14.739C171.318 14.739 170.976 14.511 170.976 14.131C170.976 13.713 171.318 13.485 171.793 13.485C172.268 13.485 172.61 13.58 172.876 13.77V14.302C172.705 14.53 172.363 14.739 171.793 14.739ZM183.038 17H185.888V8.45H183.038V11.395H180.283V8.45H177.433V17H180.283V14.055H183.038V17Z" fill="white"/>
<path d="M71.3364 37.9854H72.5264V28.1854H64.8264V37.9854H66.0164V29.3054H71.3364V37.9854ZM79.8452 36.2634C79.4252 36.7394 78.7952 37.0754 78.0392 37.0754C76.7932 37.0754 75.7712 36.2214 75.7712 34.8354C75.7712 33.5054 76.7932 32.5954 77.9272 32.5954C78.5852 32.5954 79.2012 32.7634 79.7332 33.2534L80.2512 32.3714C79.6632 31.7834 78.7812 31.5454 77.7732 31.5454C75.9252 31.5454 74.5812 33.0014 74.5812 34.8354C74.5812 36.8234 75.9532 38.1254 77.9552 38.1254C78.9212 38.1254 79.8452 37.7614 80.3772 37.0754L79.8452 36.2634ZM82.9571 37.9854L86.5971 33.2954V37.9854H87.7171V31.6854H86.5971L82.9571 36.3754V31.6854H81.8371V37.9854H82.9571ZM95.3531 31.6854H94.0511L92.3151 34.0654L90.6071 31.6854H89.2351L91.4751 34.7794L89.0951 37.9854H90.3971L92.2731 35.4374L94.1211 37.9854H95.4931L93.0991 34.7234L95.3531 31.6854ZM96.087 34.8354C96.087 36.7254 97.431 38.1254 99.447 38.1254C101.463 38.1254 102.807 36.7254 102.807 34.8354C102.807 32.9454 101.463 31.5454 99.447 31.5454C97.431 31.5454 96.087 32.9454 96.087 34.8354ZM97.277 34.8354C97.277 33.5054 98.215 32.5954 99.447 32.5954C100.707 32.5954 101.617 33.5194 101.617 34.8354C101.617 36.1794 100.707 37.0754 99.447 37.0754C98.187 37.0754 97.277 36.1514 97.277 34.8354ZM108.489 37.9854H109.609V31.6854H105.227L105.115 33.6454C104.961 36.5574 104.065 37.0194 103.589 36.9774L103.673 38.0694C104.975 38.0694 105.927 37.4534 106.207 33.8694L106.277 32.8054H108.489V37.9854ZM111.208 34.8354C111.208 36.7254 112.552 38.1254 114.568 38.1254C116.584 38.1254 117.928 36.7254 117.928 34.8354C117.928 32.9454 116.584 31.5454 114.568 31.5454C112.552 31.5454 111.208 32.9454 111.208 34.8354ZM112.398 34.8354C112.398 33.5054 113.336 32.5954 114.568 32.5954C115.828 32.5954 116.738 33.5194 116.738 34.8354C116.738 36.1794 115.828 37.0754 114.568 37.0754C113.308 37.0754 112.398 36.1514 112.398 34.8354ZM119.544 37.9854H120.664V32.7354H123.534V31.6854H119.544V37.9854Z" fill="white"/>
<path d="M6.33153 11.7071C4.88667 11.7267 3.72657 12.9148 3.75421 14.3708C3.7782 15.8125 4.85677 16.7542 6.30081 16.741L17.2808 16.2189C17.3373 16.2164 17.3895 16.2336 17.4304 16.2768C17.4731 16.3138 17.4935 16.363 17.4964 16.42C17.5002 16.4874 17.5033 16.5544 17.5042 16.625C17.5119 16.742 17.4248 16.8406 17.3052 16.8437L2.58435 17.6647C1.13678 17.6802 -0.0211045 18.8787 0.000291822 20.3279C0.0169576 21.7681 1.21943 22.9309 2.66254 22.9182L17.4926 22.5888C17.6091 22.5878 17.7019 22.677 17.7085 22.7923C17.7113 22.8582 17.7099 22.9253 17.7125 22.9914C17.7149 23.0479 17.6934 23.103 17.6557 23.1427C17.6178 23.1821 17.5638 23.2062 17.5078 23.2092L5.18622 23.5312C3.73732 23.5535 2.57714 24.7417 2.59944 26.1903C2.62173 27.6389 3.81086 28.7912 5.26749 28.771L17.6811 28.5959C17.7949 28.5929 17.8904 28.6841 17.8925 28.7998C17.8964 28.9021 17.9018 28.9979 17.9061 29.0915C17.9045 29.1507 17.883 29.2058 17.8453 29.2455C17.8074 29.2849 17.7522 29.3072 17.6937 29.3085L11.029 29.3421C9.58127 29.3661 8.42152 30.5637 8.4484 32.0009C8.46636 33.4608 9.66293 34.6153 11.108 34.5872L19.2607 34.4662L32.4936 34.5769C36.0761 34.6159 39.5165 33.2261 42.0773 30.7216C44.5778 28.2768 46.6943 24.5212 45.8589 19.0331C44.0497 7.25661 32.3723 6.09956 32.3723 6.09956L20.018 4C20.018 4 18.6062 8.11385 24.219 9.77941L29.2649 10.7941C29.7505 10.8925 30.0641 11.3488 29.9837 11.8341L18.5491 11.525L6.33153 11.7071Z" fill="url(#paint0_linear_303_3)"/>
<path d="M34.9242 16.4661C32.9166 16.4826 31.2408 17.9287 30.8684 19.8235L21.6699 19.9102C21.2096 19.914 20.8395 20.2891 20.8433 20.748L20.8778 24.9024C20.8816 25.3612 21.2579 25.7301 21.7183 25.7264C22.1786 25.7226 22.5488 25.3475 22.5451 24.8886L22.5174 21.5651L24.6014 21.5479L24.6221 24.0405C24.6259 24.4993 25.0021 24.8684 25.4626 24.8646C25.9229 24.8608 26.2931 24.4857 26.2892 24.0269L26.2685 21.5343L30.8821 21.4854C31.2859 23.3737 32.9854 24.792 34.9931 24.7754C37.2851 24.7565 39.1455 22.8712 39.1265 20.5866C39.1075 18.302 37.2161 16.4476 34.9241 16.4666L34.9242 16.4661ZM34.938 18.1279C36.329 18.1165 37.4479 19.2135 37.4594 20.6C37.471 21.9864 36.3704 23.1018 34.9794 23.1133C33.5885 23.1248 32.4695 22.0277 32.458 20.6413C32.4465 19.2548 33.5471 18.1394 34.938 18.1279Z" fill="#F3F5F8"/>
<path d="M29.1264 11.8357C28.5723 17.851 28.1528 31.3181 30.9072 35.1648" stroke="#F3F5F8" stroke-width="2.90497" stroke-linecap="round"/>
<ellipse cx="48.2539" cy="19.897" rx="4.02656" ry="5.99074" transform="rotate(-0.97027 48.2539 19.897)" fill="#F3F5F8"/>
<path fill-rule="evenodd" clip-rule="evenodd" d="M46.4921 9.14512C46.2561 9.14912 46.0775 9.35714 46.1145 9.59032C46.2847 10.6645 46.7292 13.5331 47.0445 16.1308C46.1019 16.8429 45.4706 18.2976 45.4988 19.9656C45.5271 21.6326 46.2065 23.0644 47.1719 23.7446C46.9307 26.3806 46.5534 29.3329 46.409 30.4314C46.3781 30.6667 46.5639 30.8706 46.8012 30.8666L48.1548 30.8437C51.3565 30.7894 53.9108 28.1547 53.8657 24.9528L53.7236 14.8501C53.6784 11.6352 51.0307 9.06825 47.8159 9.1227L46.4921 9.14512Z" fill="url(#paint1_linear_303_3)"/>
<defs>
<linearGradient id="paint0_linear_303_3" x1="1.98209e-07" y1="19.4887" x2="60.3379" y2="20.0644" gradientUnits="userSpaceOnUse">
<stop stop-color="#6FA3F9"/>
<stop offset="1" stop-color="#936FF9"/>
</linearGradient>
<linearGradient id="paint1_linear_303_3" x1="45.5022" y1="20.1637" x2="56.392" y2="20.0057" gradientUnits="userSpaceOnUse">
<stop stop-color="#6FA3F9"/>
<stop offset="1" stop-color="#936FF9"/>
</linearGradient>
</defs>
</svg>
