<svg width="113" height="55" viewBox="0 0 113 55" fill="none" xmlns="http://www.w3.org/2000/svg">
<ellipse cx="30.3127" cy="9.9881" rx="30.3127" ry="9.9881" transform="matrix(-1 0 0 1 83.9327 6.16742)" fill="#3963B0"/>
<ellipse cx="29.9643" cy="9.4074" rx="29.9643" ry="9.4074" transform="matrix(-1 0 0 1 83.9327 7.5611)" fill="#0DC1EE"/>
<path d="M45.8637 5.24604C58.7941 4.58791 85.0728 5.82675 86.7453 16.0471C88.4177 26.2675 65.1431 28.4355 53.2967 28.2419C47.679 28.3718 36.2868 27.0719 28.236 23.1422C26.4091 22.224 25.0081 21.3355 24.0292 20.5766C25.2649 21.5346 26.6888 22.387 28.236 23.1422C32.84 25.4563 40.1486 27.9596 50.2203 29.0543C65.232 30.686 90.4617 28.815 89.9718 16.6202C89.4819 4.42543 66.5368 2.57477 45.8637 5.24604Z" fill="#3963B0"/>
<path d="M28.5402 4.06497C26.1878 4.06497 26.0238 7.16206 26.2174 8.47832H25.0559V6.27163C25.2495 5.11022 26.287 2.81064 28.8886 2.90355C31.4901 2.99646 32.3728 5.18765 32.489 6.27163V15.4468H31.4437V8.47832C31.4437 6.85235 31.4922 4.06497 28.5402 4.06497Z" fill="#3963B0"/>
<path d="M36.0893 1.16415C33.7369 1.16415 33.5729 4.26124 33.7665 5.5775H32.6051V3.37081C32.7986 2.20941 33.8362 -0.09018 36.4377 0.00273261C39.0393 0.0956452 39.9219 2.28683 40.0381 3.37081V12.5459H38.9928V5.5775C38.9928 3.95153 39.0414 1.16415 36.0893 1.16415Z" fill="#3963B0"/>
<g style="mix-blend-mode:screen">
<path d="M2.13323 43.4279L2.67728 41.7726H5.55959L6.10364 43.4279H7.52743L4.7493 35.4407H3.47599L0.697864 43.4279H2.13323ZM4.11265 37.3854L5.1776 40.615H3.0477L4.11265 37.3854ZM10.535 39.8626H11.2874C12.4565 39.8626 13.0122 40.3025 13.0122 41.1012C13.0122 41.8999 12.5028 42.3629 11.461 42.3629C10.535 42.3629 10.1067 41.9809 9.771 41.1706H8.47454C8.81023 42.7912 9.87518 43.532 11.4958 43.532C13.4173 43.532 14.3549 42.4555 14.3549 41.1359C14.3549 40.1983 13.7761 39.5038 12.9311 39.2259C13.672 38.8671 14.1003 38.3115 14.1003 37.478C14.1003 36.089 12.9774 35.3366 11.461 35.3366C10.0835 35.3366 8.83338 36.1816 8.67133 37.5822H9.87518C10.1183 36.8877 10.5466 36.4941 11.4495 36.4941C12.3871 36.4941 12.7575 36.934 12.7575 37.5591C12.7575 38.2304 12.3523 38.705 11.3453 38.705H10.535V39.8626ZM16.2319 35.4407V43.4279H17.3431L20.8621 38.0337V43.4279H22.2048V35.4407H21.1052L17.5746 40.8928V35.4407H16.2319ZM25.3186 43.4279L27.1128 40.1867H28.4903V43.4279H29.833V35.4407H27.1244C25.2838 35.4407 24.161 36.2279 24.161 37.8137C24.161 38.9829 24.7514 39.7121 25.7816 40.0246L23.8369 43.4279H25.3186ZM27.1938 39.0292C25.9321 39.0292 25.5038 38.6472 25.5038 37.8137C25.5038 36.934 26.0478 36.6099 27.1938 36.6099H28.4903V39.0292H27.1938ZM37.7432 37.9179C37.4769 36.1816 36.4236 35.3366 34.8377 35.3366C33.0551 35.3366 31.8512 36.4131 31.8512 38.925V39.9436C31.8512 42.4555 33.0551 43.532 34.8377 43.532C36.4236 43.532 37.4654 42.7449 37.7316 40.9507H36.4467C36.2384 41.923 35.7522 42.3629 34.8377 42.3629C33.7728 42.3629 33.194 41.6452 33.194 39.9436V38.925C33.194 37.2002 33.7728 36.5057 34.8377 36.5057C35.7175 36.5057 36.2384 36.9456 36.4467 37.9179H37.7432ZM38.6588 35.4407V36.6099H40.9624V43.4279H42.3051V36.6099H44.5971V35.4407H38.6588ZM48.8609 40.5108C50.7129 40.5108 51.801 39.5848 51.801 37.9642C51.801 36.3205 50.7014 35.4407 48.8609 35.4407H46.1406V43.4279H47.4834V40.5108H48.8609ZM47.4834 39.3533V36.6099H48.7219C49.949 36.6099 50.4583 37.096 50.4583 37.9642C50.4583 38.8787 49.949 39.3533 48.7219 39.3533H47.4834ZM59.1963 39.9436V38.925C59.1963 36.4131 57.9924 35.3366 56.1982 35.3366C54.4156 35.3366 53.2117 36.4131 53.2117 38.925V39.9436C53.2117 42.4555 54.4156 43.532 56.1982 43.532C57.9924 43.532 59.1963 42.4555 59.1963 39.9436ZM54.5545 38.925C54.5545 37.2002 55.1333 36.5057 56.1982 36.5057C57.2632 36.5057 57.8535 37.2002 57.8535 38.925V39.9436C57.8535 41.6684 57.2632 42.3629 56.1982 42.3629C55.1333 42.3629 54.5545 41.6684 54.5545 39.9436V38.925ZM61.2137 35.4407V43.4279H62.3249L65.8439 38.0337V43.4279H67.1866V35.4407H66.087L62.5564 40.8928V35.4407H61.2137ZM65.1841 33.253C65.1841 33.7044 65.0104 34.0633 64.3043 34.0633C63.5982 34.0633 63.4246 33.7044 63.4246 33.253H62.1744C62.1744 34.4105 62.9037 34.9546 64.3043 34.9546C65.705 34.9546 66.4227 34.4105 66.4227 33.253H65.1841ZM69.5132 35.4407V43.4279H70.856V36.6099H73.9814V43.4279H75.3241V35.4407H69.5132ZM80.3861 40.5108C82.2382 40.5108 83.3263 39.5848 83.3263 37.9642C83.3263 36.3205 82.2266 35.4407 80.3861 35.4407H77.6658V43.4279H79.0086V40.5108H80.3861ZM79.0086 39.3533V36.6099H80.2472C81.4742 36.6099 81.9835 37.096 81.9835 37.9642C81.9835 38.8787 81.4742 39.3533 80.2472 39.3533H79.0086ZM90.7215 39.9436V38.925C90.7215 36.4131 89.5176 35.3366 87.7234 35.3366C85.9408 35.3366 84.737 36.4131 84.737 38.925V39.9436C84.737 42.4555 85.9408 43.532 87.7234 43.532C89.5176 43.532 90.7215 42.4555 90.7215 39.9436ZM86.0797 38.925C86.0797 37.2002 86.6585 36.5057 87.7234 36.5057C88.7884 36.5057 89.3787 37.2002 89.3787 38.925V39.9436C89.3787 41.6684 88.7884 42.3629 87.7234 42.3629C86.6585 42.3629 86.0797 41.6684 86.0797 39.9436V38.925ZM92.7389 35.4407V43.4279H97.6354V42.2703H94.0817V39.8742H97.2881V38.7166H94.0817V36.6099H97.6354V35.4407H92.7389ZM105.579 43.4279L102.87 39.3417L105.15 35.4407H103.669L101.678 38.8324H100.833V35.4407H99.4898V43.4279H100.833V39.9899H101.712L103.981 43.4279H105.579ZM106.335 35.4407V36.6099H108.639V43.4279H109.981V36.6099H112.273V35.4407H106.335Z" fill="#247ACA"/>
</g>
<path d="M1.13465 51.4214C0.253843 51.4214 0.174326 51.7272 0.174326 52.6172C0.174326 53.498 0.253843 53.8038 1.13159 53.8038C1.94205 53.8038 2.03074 53.5378 2.0338 52.9475H1.69738V52.9964C1.69738 53.3084 1.63316 53.5011 1.13159 53.5011C0.581086 53.5011 0.544386 53.2778 0.544386 52.7671V52.4337C0.544386 51.9505 0.581086 51.7272 1.13465 51.7272C1.64539 51.7272 1.69738 51.9107 1.69738 52.1829V52.2257H2.0338C2.02768 51.6752 1.93593 51.4214 1.13465 51.4214ZM2.92189 51.455V51.7731H3.59473V53.7763H3.96173V51.7731H4.63457V51.455H2.92189ZM5.6422 51.455V53.7763H6.01226V53.0056H6.76767C7.33958 53.0056 7.4191 52.7976 7.4191 52.3114V52.1829C7.4191 51.6508 7.33958 51.455 6.81048 51.455H5.6422ZM6.01226 51.767H6.76155C7.02763 51.767 7.05821 51.8954 7.05821 52.1707V52.3297C7.05821 52.5713 7.02763 52.6998 6.7432 52.6998H6.01226V51.767ZM9.43899 51.4214C8.53372 51.4214 8.4542 51.715 8.4542 52.6172C8.4542 53.5194 8.53372 53.8038 9.43899 53.8038C10.3351 53.8038 10.4207 53.5194 10.4207 52.6172C10.4207 51.715 10.3351 51.4214 9.43899 51.4214ZM9.43899 51.7272C9.98949 51.7272 10.0507 51.9413 10.0507 52.4368V52.7671C10.0507 53.287 9.98949 53.5041 9.43899 53.5041C8.87931 53.5041 8.8212 53.2839 8.8212 52.764V52.4368C8.8212 51.9413 8.87931 51.7272 9.43899 51.7272ZM11.5335 51.455V53.7763H11.8913L13.0749 52.0483V53.7763H13.4327V51.455H13.0749L11.8913 53.183V51.455H11.5335ZM14.4446 51.455V51.7731H15.1174V53.7763H15.4844V51.7731H16.1572V51.455H14.4446ZM17.1649 51.455V53.7763H18.7522V53.4521H17.5135V52.7028H18.7124V52.4062H17.5135V51.7823H18.743V51.455H17.1649ZM21.8459 53.7763L21.0079 51.455H20.6103L19.7479 53.7763H20.1241L20.8061 51.9046L21.4606 53.7763H21.8459ZM23.247 52.7181H23.9779C24.2624 52.7181 24.293 52.8496 24.293 53.0454V53.1249C24.293 53.3359 24.2624 53.4644 23.9963 53.4644H23.247V52.7181ZM24.0452 53.7763C24.5743 53.7763 24.6538 53.5806 24.6538 53.1646V53.0209C24.6538 52.6233 24.5743 52.4123 24.0024 52.4123H23.247V51.455H22.8769V53.7763H24.0452ZM26.6493 51.4214C25.7685 51.4214 25.6889 51.7272 25.6889 52.6172C25.6889 53.498 25.7685 53.8038 26.6462 53.8038C27.4567 53.8038 27.5454 53.5378 27.5484 52.9475H27.212V52.9964C27.212 53.3084 27.1478 53.5011 26.6462 53.5011C26.0957 53.5011 26.059 53.2778 26.059 52.7671V52.4337C26.059 51.9505 26.0957 51.7272 26.6493 51.7272C27.16 51.7272 27.212 51.9107 27.212 52.1829V52.2257H27.5484C27.5423 51.6752 27.4506 51.4214 26.6493 51.4214ZM28.4365 51.455V51.7731H29.1093V53.7763H29.4763V51.7731H30.1492V51.455H28.4365ZM31.1568 51.455V53.7763H32.3893C33.0102 53.7763 33.0316 53.4552 33.0316 53.1341C33.0316 52.7701 32.894 52.5805 32.5912 52.5621C32.8787 52.5254 32.9888 52.3664 32.9888 52.0422C32.9888 51.7639 32.9582 51.455 32.374 51.455H31.1568ZM31.5238 52.7059H32.3098C32.5667 52.7059 32.6615 52.8068 32.6615 53.0515V53.1341C32.6615 53.3267 32.6493 53.4705 32.3251 53.4705H31.5238V52.7059ZM31.5238 51.7609H32.3129C32.5912 51.7609 32.6279 51.8924 32.6279 52.0759V52.1187C32.6279 52.345 32.5514 52.4429 32.3098 52.4429H31.5238V51.7609ZM35.082 51.4214C34.1768 51.4214 34.0972 51.715 34.0972 52.6172C34.0972 53.5194 34.1768 53.8038 35.082 53.8038C35.9781 53.8038 36.0638 53.5194 36.0638 52.6172C36.0638 51.715 35.9781 51.4214 35.082 51.4214ZM35.082 51.7272C35.6325 51.7272 35.6937 51.9413 35.6937 52.4368V52.7671C35.6937 53.287 35.6325 53.5041 35.082 53.5041C34.5224 53.5041 34.4643 53.2839 34.4643 52.764V52.4368C34.4643 51.9413 34.5224 51.7272 35.082 51.7272ZM40.0017 53.7763C40.5308 53.7763 40.6103 53.5806 40.6103 53.1646V53.0209C40.6103 52.6233 40.5308 52.4123 39.9589 52.4123H39.2034V51.7731H40.3044V51.455H38.8334V53.7763H40.0017ZM39.2034 52.7181H39.9344C40.2188 52.7181 40.2494 52.8496 40.2494 53.0454V53.1249C40.2494 53.3359 40.2188 53.4644 39.9527 53.4644H39.2034V52.7181ZM42.3712 51.455L41.5209 53.7763H41.8818L42.0776 53.2227H43.0623L43.252 53.7763H43.6159L42.7932 51.455H42.3712ZM42.5791 51.8128L42.9645 52.9353H42.1815L42.5791 51.8128ZM45.4453 51.4214C44.5645 51.4214 44.485 51.7272 44.485 52.6172C44.485 53.498 44.5645 53.8038 45.4423 53.8038C46.2527 53.8038 46.3414 53.5378 46.3445 52.9475H46.0081V52.9964C46.0081 53.3084 45.9438 53.5011 45.4423 53.5011C44.8918 53.5011 44.8551 53.2778 44.8551 52.7671V52.4337C44.8551 51.9505 44.8918 51.7272 45.4453 51.7272C45.9561 51.7272 46.0081 51.9107 46.0081 52.1829V52.2257H46.3445C46.3384 51.6752 46.2466 51.4214 45.4453 51.4214ZM48.3895 51.4214C47.5086 51.4214 47.4291 51.7272 47.4291 52.6172C47.4291 53.498 47.5086 53.8038 48.3864 53.8038C49.1969 53.8038 49.2855 53.5378 49.2886 52.9475H48.9522V52.9964C48.9522 53.3084 48.888 53.5011 48.3864 53.5011C47.8359 53.5011 47.7992 53.2778 47.7992 52.7671V52.4337C47.7992 51.9505 47.8359 51.7272 48.3895 51.7272C48.9002 51.7272 48.9522 51.9107 48.9522 52.1829V52.2257H49.2886C49.2825 51.6752 49.1907 51.4214 48.3895 51.4214ZM50.4039 51.455V53.7763H51.9911V53.4521H50.7525V52.7028H51.9514V52.4062H50.7525V51.7823H51.982V51.455H50.4039ZM53.4548 50.7975C53.4854 51.1339 53.6719 51.3327 54.0512 51.3327C54.4335 51.3327 54.62 51.1339 54.6506 50.7975H54.409C54.3845 51.0116 54.2591 51.1125 54.0512 51.1125C53.8463 51.1125 53.727 51.0085 53.6964 50.7975H53.4548ZM53.1031 51.455V53.7763H53.4609L54.6445 52.0483V53.7763H55.0023V51.455H54.6445L53.4609 53.183V51.455H53.1031ZM56.1488 51.455V53.7763H56.5188V52.7242H57.6779V53.7763H58.048V51.455H57.6779V52.4153H56.5188V51.455H56.1488ZM60.1487 51.4214C59.2434 51.4214 59.1639 51.715 59.1639 52.6172C59.1639 53.5194 59.2434 53.8038 60.1487 53.8038C61.0447 53.8038 61.1304 53.5194 61.1304 52.6172C61.1304 51.715 61.0447 51.4214 60.1487 51.4214ZM60.1487 51.7272C60.6992 51.7272 60.7603 51.9413 60.7603 52.4368V52.7671C60.7603 53.287 60.6992 53.5041 60.1487 53.5041C59.589 53.5041 59.5309 53.2839 59.5309 52.764V52.4368C59.5309 51.9413 59.589 51.7272 60.1487 51.7272ZM62.2431 51.455V53.7763H63.4756C64.0965 53.7763 64.1179 53.4552 64.1179 53.1341C64.1179 52.7701 63.9803 52.5805 63.6775 52.5621C63.965 52.5254 64.0751 52.3664 64.0751 52.0422C64.0751 51.7639 64.0445 51.455 63.4603 51.455H62.2431ZM62.6101 52.7059H63.3961C63.653 52.7059 63.7478 52.8068 63.7478 53.0515V53.1341C63.7478 53.3267 63.7356 53.4705 63.4114 53.4705H62.6101V52.7059ZM62.6101 51.7609H63.3992C63.6775 51.7609 63.7142 51.8924 63.7142 52.0759V52.1187C63.7142 52.345 63.6377 52.4429 63.3961 52.4429H62.6101V51.7609ZM65.1962 53.342V53.7763H65.288L65.236 54.0791H65.4042L65.5204 53.6876V53.342H65.1962ZM69.0588 51.455L68.2086 53.7763H68.5695L68.7652 53.2227H69.75L69.9396 53.7763H70.3036L69.4809 51.455H69.0588ZM69.2668 51.8128L69.6521 52.9353H68.8692L69.2668 51.8128ZM71.3347 51.455V53.7763H71.6986V52.7089H71.9188L72.821 53.7763H73.2706L72.2093 52.5193L73.2431 51.455H72.7996L71.9004 52.3878H71.6986V51.455H71.3347ZM74.2937 51.455V53.7763H75.5262C76.1471 53.7763 76.1685 53.4552 76.1685 53.1341C76.1685 52.7701 76.0309 52.5805 75.7281 52.5621C76.0156 52.5254 76.1257 52.3664 76.1257 52.0422C76.1257 51.7639 76.0951 51.455 75.5109 51.455H74.2937ZM74.6607 52.7059H75.4467C75.7036 52.7059 75.7984 52.8068 75.7984 53.0515V53.1341C75.7984 53.3267 75.7862 53.4705 75.462 53.4705H74.6607V52.7059ZM74.6607 51.7609H75.4498C75.7281 51.7609 75.7648 51.8924 75.7648 52.0759V52.1187C75.7648 52.345 75.6883 52.4429 75.4467 52.4429H74.6607V51.7609ZM77.9062 51.455L77.0559 53.7763H77.4168L77.6126 53.2227H78.5973L78.787 53.7763H79.1509L78.3282 51.455H77.9062ZM78.1141 51.8128L78.4995 52.9353H77.7165L78.1141 51.8128ZM80.182 51.455V53.7763H80.5521V51.7731H81.7112V53.7763H82.0812V51.455H80.182ZM83.9617 51.455L83.1115 53.7763H83.4724L83.6681 53.2227H84.6529L84.8425 53.7763H85.2064L84.3837 51.455H83.9617ZM84.1697 51.8128L84.555 52.9353H83.7721L84.1697 51.8128ZM86.2375 51.455V53.7763H86.6076V53.0056H87.363C87.9349 53.0056 88.0144 52.7976 88.0144 52.3114V52.1829C88.0144 51.6508 87.9349 51.455 87.4058 51.455H86.2375ZM86.6076 51.767H87.3569C87.623 51.767 87.6535 51.8954 87.6535 52.1707V52.3297C87.6535 52.5713 87.623 52.6998 87.3385 52.6998H86.6076V51.767ZM89.0801 51.455V53.7763H89.4441V52.7089H89.6643L90.5665 53.7763H91.016L89.9548 52.5193L90.9885 51.455H90.5451L89.6459 52.3878H89.4441V51.455H89.0801ZM92.8799 51.4214C91.9746 51.4214 91.8951 51.715 91.8951 52.6172C91.8951 53.5194 91.9746 53.8038 92.8799 53.8038C93.776 53.8038 93.8616 53.5194 93.8616 52.6172C93.8616 51.715 93.776 51.4214 92.8799 51.4214ZM92.8799 51.7272C93.4304 51.7272 93.4916 51.9413 93.4916 52.4368V52.7671C93.4916 53.287 93.4304 53.5041 92.8799 53.5041C92.3202 53.5041 92.2621 53.2839 92.2621 52.764V52.4368C92.2621 51.9413 92.3202 51.7272 92.8799 51.7272ZM94.9744 51.455V53.7763H96.2069C96.8277 53.7763 96.8491 53.4552 96.8491 53.1341C96.8491 52.7701 96.7115 52.5805 96.4087 52.5621C96.6962 52.5254 96.8063 52.3664 96.8063 52.0422C96.8063 51.7639 96.7757 51.455 96.1916 51.455H94.9744ZM95.3414 52.7059H96.1274C96.3843 52.7059 96.4791 52.8068 96.4791 53.0515V53.1341C96.4791 53.3267 96.4668 53.4705 96.1427 53.4705H95.3414V52.7059ZM95.3414 51.7609H96.1304C96.4087 51.7609 96.4454 51.8924 96.4454 52.0759V52.1187C96.4454 52.345 96.369 52.4429 96.1274 52.4429H95.3414V51.7609ZM99.6023 51.455V53.7763H99.9601L101.144 52.0483V53.7763H101.501V51.455H101.144L99.9601 53.183V51.455H99.6023ZM105.235 51.4214C104.354 51.4214 104.274 51.7272 104.274 52.6172C104.274 53.498 104.354 53.8038 105.232 53.8038C106.042 53.8038 106.131 53.5378 106.134 52.9475H105.797V52.9964C105.797 53.3084 105.733 53.5011 105.232 53.5011C104.681 53.5011 104.644 53.2778 104.644 52.7671V52.4337C104.644 51.9505 104.681 51.7272 105.235 51.7272C105.745 51.7272 105.797 51.9107 105.797 52.1829V52.2257H106.134C106.128 51.6752 106.036 51.4214 105.235 51.4214ZM107.249 51.455V53.7763H107.619V51.7731H108.778V53.7763H109.148V51.455H107.249ZM111.029 51.455L110.178 53.7763H110.539L110.735 53.2227H111.72L111.909 53.7763H112.273L111.451 51.455H111.029ZM111.237 51.8128L111.622 52.9353H110.839L111.237 51.8128Z" fill="#D0EDFF"/>
</svg>
