<svg width="132" height="60" viewBox="0 0 132 60" fill="none" xmlns="http://www.w3.org/2000/svg">
<path d="M80.5526 41.5512C89.4214 41.5512 93.5442 37.1408 93.5442 32.0113C93.5442 19.6908 73.2178 24.8204 73.2178 16.6227C73.2178 13.6984 75.6627 11.3014 81.3675 11.3014C84.3398 11.3014 87.6476 12.1643 90.5719 14.034L92.1539 10.1988C89.3734 8.28124 85.2986 7.22658 81.3675 7.22658C72.5467 7.22658 68.5197 11.637 68.5197 16.8145C68.5197 29.2787 88.8461 24.1013 88.8461 32.2989C88.8461 35.2232 86.3532 37.4764 80.5526 37.4764C76.238 37.4764 71.9714 35.8464 69.4785 33.5933L67.7048 37.3326C70.3894 39.8254 75.423 41.5512 80.5526 41.5512ZM124.326 41.1677H129.935L114.69 22.711L129.024 7.61009H123.559L105.342 26.3544V7.61009H100.548V41.1677H105.342V32.4907L111.478 26.2585L124.326 41.1677Z" fill="white"/>
<path d="M72.0898 51.9786H72.6491V54.0816C72.3918 54.3074 72.0872 54.4807 71.7354 54.6015C71.3836 54.7222 71.0134 54.7826 70.6248 54.7826C70.0735 54.7826 69.5773 54.6618 69.1362 54.4203C68.6951 54.1787 68.3485 53.8453 68.0965 53.42C67.8444 52.9894 67.7184 52.5089 67.7184 51.9786C67.7184 51.4482 67.8444 50.9704 68.0965 50.5451C68.3485 50.1145 68.6951 49.7784 69.1362 49.5369C69.5773 49.2954 70.0761 49.1746 70.6327 49.1746C71.0528 49.1746 71.4387 49.2428 71.7905 49.3794C72.1423 49.5106 72.439 49.7076 72.6806 49.9701L72.3183 50.3403C71.8824 49.9097 71.3284 49.6944 70.6563 49.6944C70.21 49.6944 69.8057 49.7942 69.4434 49.9937C69.0863 50.188 68.8054 50.4611 68.6006 50.8129C68.3958 51.1594 68.2934 51.548 68.2934 51.9786C68.2934 52.4092 68.3958 52.7977 68.6006 53.1443C68.8054 53.4909 69.0863 53.7639 69.4434 53.9635C69.8004 54.163 70.2021 54.2628 70.6484 54.2628C71.2156 54.2628 71.696 54.121 72.0898 53.8374V51.9786ZM86.3733 54.7354L85.113 52.9632C84.9713 52.9789 84.8242 52.9868 84.672 52.9868H83.1912V54.7354H82.6083V49.2218H84.672C85.3756 49.2218 85.9269 49.3899 86.326 49.7259C86.7251 50.062 86.9246 50.5241 86.9246 51.1122C86.9246 51.5428 86.8144 51.9077 86.5938 52.207C86.3785 52.5011 86.0687 52.7137 85.6644 52.845L87.0113 54.7354H86.3733ZM84.6562 52.4906C85.2023 52.4906 85.6198 52.3698 85.9086 52.1282C86.1974 51.8867 86.3418 51.548 86.3418 51.1122C86.3418 50.6659 86.1974 50.3245 85.9086 50.0883C85.6198 49.8467 85.2023 49.7259 84.6562 49.7259H83.1912V52.4906H84.6562ZM99.0201 54.7826C98.474 54.7826 97.9778 54.6618 97.5315 54.4203C97.0904 54.1735 96.7438 53.8374 96.4918 53.4121C96.245 52.9868 96.1216 52.5089 96.1216 51.9786C96.1216 51.4482 96.245 50.9704 96.4918 50.5451C96.7438 50.1198 97.0904 49.7863 97.5315 49.5448C97.9778 49.298 98.474 49.1746 99.0201 49.1746C99.5662 49.1746 100.057 49.2954 100.493 49.5369C100.934 49.7784 101.281 50.1145 101.533 50.5451C101.785 50.9704 101.911 51.4482 101.911 51.9786C101.911 52.5089 101.785 52.9894 101.533 53.42C101.281 53.8453 100.934 54.1787 100.493 54.4203C100.057 54.6618 99.5662 54.7826 99.0201 54.7826ZM99.0201 54.2628C99.456 54.2628 99.8498 54.1656 100.202 53.9713C100.553 53.7718 100.829 53.4988 101.029 53.1522C101.228 52.8004 101.328 52.4092 101.328 51.9786C101.328 51.548 101.228 51.1594 101.029 50.8129C100.829 50.4611 100.553 50.188 100.202 49.9937C99.8498 49.7942 99.456 49.6944 99.0201 49.6944C98.5843 49.6944 98.1879 49.7942 97.8308 49.9937C97.479 50.188 97.2007 50.4611 96.9959 50.8129C96.7963 51.1594 96.6966 51.548 96.6966 51.9786C96.6966 52.4092 96.7963 52.8004 96.9959 53.1522C97.2007 53.4988 97.479 53.7718 97.8308 53.9713C98.1879 54.1656 98.5843 54.2628 99.0201 54.2628ZM113.748 54.7826C113.034 54.7826 112.477 54.5778 112.078 54.1682C111.679 53.7587 111.48 53.1627 111.48 52.3803V49.2218H112.062V52.3567C112.062 52.9973 112.207 53.4751 112.496 53.7902C112.784 54.1052 113.202 54.2628 113.748 54.2628C114.299 54.2628 114.719 54.1052 115.008 53.7902C115.297 53.4751 115.441 52.9973 115.441 52.3567V49.2218H116.009V52.3803C116.009 53.1627 115.809 53.7587 115.41 54.1682C115.016 54.5778 114.462 54.7826 113.748 54.7826ZM128.138 49.2218C128.842 49.2218 129.393 49.3899 129.792 49.7259C130.191 50.062 130.391 50.5241 130.391 51.1122C130.391 51.7003 130.191 52.1624 129.792 52.4984C129.393 52.8293 128.842 52.9947 128.138 52.9947H126.657V54.7354H126.075V49.2218H128.138ZM128.122 52.4827C128.669 52.4827 129.086 52.3645 129.375 52.1282C129.664 51.8867 129.808 51.548 129.808 51.1122C129.808 50.6659 129.664 50.3245 129.375 50.0883C129.086 49.8467 128.669 49.7259 128.122 49.7259H126.657V52.4827H128.122Z" fill="white"/>
<path d="M29.3838 55.9297V15.6745L58.6119 28.7494V47.9614L38.5795 57.3606L39.1965 3L2 18.3262V47.3509L29.3838 55.9297Z" stroke="#29B6F2" stroke-width="3.28185" stroke-miterlimit="10"/>
</svg>
