<svg width="216" height="39" viewBox="0 0 216 39" fill="none" xmlns="http://www.w3.org/2000/svg">
<path fill-rule="evenodd" clip-rule="evenodd" d="M33.07 0C38.45 0 42.81 0.269844 42.81 0.589844C42.81 0.909844 38.45 1.16992 33.07 1.16992C27.69 1.16992 23.34 0.909844 23.34 0.589844C23.34 0.269844 27.7 0 33.07 0ZM33.07 26.72C47.07 26.72 59.39 27.72 66.07 29.2C65.9222 31.0181 65.6245 32.8207 65.18 34.5898C58.31 35.9698 46.48 36.8799 33.03 36.8799C19.58 36.8799 7.76 35.9698 0.880005 34.5898C0.443625 32.8195 0.14935 31.0172 0 29.2C6.72 27.72 19 26.72 33 26.72H33.07ZM33.07 19.8999C48.5 19.8999 61.55 20.8399 65.95 22.1399C66.03 22.7599 66.09 23.3898 66.13 24.0198C61.92 25.3498 48.72 26.3198 33.07 26.3198C17.42 26.3198 4.22999 25.3198 0.0699921 24.0198C0.0699921 23.3898 0.17 22.7599 0.25 22.1399C4.64 20.8399 17.7 19.8999 33.12 19.8999M33.12 13.5598C50.32 13.5598 64.27 14.8099 64.27 16.3599C64.27 17.9099 50.32 19.1699 33.12 19.1699C15.92 19.1699 1.98 17.9099 1.98 16.3599C1.98 14.8099 15.93 13.5598 33.12 13.5598ZM33.12 8.46997C48.26 8.46997 60.53 9.31987 60.53 10.3699C60.53 11.4199 48.26 12.2798 33.12 12.2798C17.98 12.2798 5.72 11.4199 5.72 10.3699C5.72 9.31987 17.99 8.46997 33.12 8.46997ZM33.12 4C44.5 4 53.71 4.54998 53.71 5.22998C53.71 5.90998 44.5 6.45996 33.12 6.45996C21.74 6.45996 12.53 5.90998 12.53 5.22998C12.53 4.54998 21.75 4 33.12 4Z" fill="white"/>
<path d="M75.5 7.16016H79.25L87.89 18.52V7.16016H91.89V25.6001H88.44L79.51 13.8801V25.6001H75.5V7.16016Z" fill="white"/>
<path d="M101.81 25.8901C100.748 25.9509 99.6844 25.801 98.6804 25.4492C97.6764 25.0974 96.7519 24.5505 95.9601 23.8401C94.5401 22.4701 93.8301 20.4102 93.8301 17.7002V7.16016H97.8801V17.5901C97.7854 18.8173 98.1647 20.0343 98.9401 20.9902C99.3147 21.3822 99.7695 21.6887 100.273 21.8889C100.777 22.0891 101.319 22.1782 101.86 22.1501C102.398 22.1779 102.936 22.0945 103.44 21.9053C103.944 21.716 104.403 21.4248 104.79 21.05C105.541 20.1147 105.899 18.9246 105.79 17.7302V7.16016H109.85V17.5701C109.873 18.8131 109.684 20.051 109.29 21.2302C108.947 22.2016 108.39 23.0831 107.66 23.8101C106.941 24.5188 106.069 25.0526 105.11 25.3701C104.033 25.7404 102.899 25.9165 101.76 25.8901H101.81Z" fill="white"/>
<path d="M111.91 7.16009H120.34C121.317 7.09418 122.296 7.22575 123.221 7.54705C124.145 7.86835 124.995 8.37266 125.72 9.02996C126.256 9.5894 126.672 10.2522 126.944 10.9777C127.216 11.7032 127.337 12.4764 127.3 13.2502V13.2502C127.356 14.55 126.976 15.8312 126.22 16.8901C125.474 17.8351 124.481 18.5551 123.35 18.9701L127.85 25.55H123.11L119.11 19.6501H115.92V25.55H111.91V7.16009ZM120.08 16.1601C120.914 16.2094 121.737 15.9574 122.4 15.4501C122.661 15.2088 122.866 14.9142 123.002 14.5864C123.139 14.2585 123.203 13.9049 123.19 13.55V13.55C123.224 13.1724 123.165 12.7922 123.016 12.4433C122.868 12.0944 122.636 11.7875 122.34 11.55C121.66 11.0668 120.833 10.8337 120 10.8901H116V16.1601H120.08Z" fill="white"/>
<path d="M136.7 7.16016H141.07L145.92 14.9602L150.77 7.16016H155.14V25.6001H151.11V13.5601L145.92 21.4402H145.81L140.68 13.6401V25.6001H136.7V7.16016Z" fill="white"/>
<path d="M157.41 7.16016H171.32V10.77H161.44V14.5103H170.13V18.1201H161.44V21.9902H171.45V25.6001H157.41V7.16016Z" fill="white"/>
<path d="M172.9 7.15991H180.09C181.454 7.14769 182.809 7.38137 184.09 7.84985C185.24 8.2986 186.295 8.9601 187.2 9.7998C188.056 10.6172 188.737 11.6007 189.2 12.6899C189.675 13.8445 189.916 15.0815 189.91 16.3298V16.3298C189.917 17.5783 189.676 18.8157 189.2 19.97C188.744 21.0723 188.063 22.0669 187.2 22.8899C186.295 23.7296 185.24 24.3911 184.09 24.8398C182.814 25.3295 181.456 25.5705 180.09 25.5498H172.9V7.10986V7.15991ZM176.95 10.8499V21.8899H180.09C180.861 21.899 181.627 21.767 182.35 21.5C183.015 21.2562 183.619 20.8705 184.12 20.3699C184.598 19.8697 184.981 19.2869 185.25 18.6499C185.525 17.9356 185.661 17.1753 185.65 16.4099V16.3599C185.659 15.5947 185.523 14.8346 185.25 14.1199C184.986 13.4742 184.602 12.884 184.12 12.3799C183.615 11.8798 183.012 11.4885 182.35 11.23C181.628 10.9558 180.862 10.8199 180.09 10.8298L176.95 10.8499Z" fill="white"/>
<path d="M195.58 7.16016H191.52V25.6001H195.58V7.16016Z" fill="white"/>
<path d="M204.35 7.02979H208.09L216 25.5999H211.75L210.07 21.47H202.27L200.58 25.5999H196.45L204.35 7.02979ZM208.62 17.8799L206.17 11.8799L203.72 17.8799H208.62Z" fill="white"/>
<path d="M75.3999 30.47H76.3999L78.7699 33.97L81.1199 30.47H82.1199V36.71H81.1899V31.89L78.7999 35.3599L76.4099 31.9V36.68H75.4899L75.3999 30.47ZM86.3999 36.8599C85.9845 36.8626 85.5729 36.781 85.1899 36.6199C84.8126 36.4752 84.4713 36.2501 84.1899 35.96C83.9046 35.6727 83.6771 35.3332 83.5199 34.96C83.3469 34.5418 83.2619 34.0924 83.2699 33.64V33.64C83.2647 33.2067 83.3392 32.7762 83.4899 32.3699C83.6334 32.0014 83.8436 31.6624 84.1099 31.3699C84.3771 31.076 84.7 30.8381 85.0599 30.67C85.4369 30.5003 85.8465 30.415 86.2599 30.42C86.6873 30.4152 87.1105 30.5039 87.4999 30.68C87.8493 30.8464 88.1594 31.085 88.4099 31.3799C88.6656 31.6901 88.8591 32.0466 88.9799 32.43C89.1101 32.844 89.1742 33.276 89.1699 33.71V33.8699C89.1743 33.9198 89.1743 33.9699 89.1699 34.0198H84.2199C84.2451 34.3318 84.3264 34.6369 84.4599 34.92C84.5801 35.1689 84.7464 35.3928 84.9499 35.5799C85.1439 35.7595 85.3717 35.899 85.6199 35.9901C85.8765 36.0826 86.1472 36.1299 86.4199 36.1299C86.807 36.1399 87.1909 36.0577 87.5399 35.89C87.8546 35.7219 88.1414 35.5061 88.3899 35.2501L88.9699 35.7698C88.6616 36.1134 88.2963 36.401 87.8899 36.6199C87.4232 36.8466 86.9085 36.9565 86.3899 36.94L86.3999 36.8599ZM88.2399 33.2501C88.219 32.9738 88.1618 32.7014 88.0699 32.44C87.9801 32.1925 87.8482 31.9625 87.6799 31.7601C87.511 31.57 87.3073 31.4137 87.0799 31.2999C86.8211 31.176 86.5368 31.1144 86.2499 31.1199C85.9871 31.1191 85.7274 31.1771 85.4899 31.2899C85.2557 31.3933 85.0448 31.5431 84.8699 31.73C84.6925 31.9296 84.5474 32.1556 84.4399 32.4C84.3234 32.6703 84.2492 32.9571 84.2199 33.2501H88.2399ZM96.0099 35.8799H96.7199V38.3699H95.8699V36.71H90.2999V38.3699H89.4499V35.89H90.1599L92.5999 30.43H93.5999L96.0099 35.8799ZM91.1199 35.8799H95.0199L93.0799 31.3299L91.1199 35.8799ZM97.6099 30.44H98.5399V35.2798L102.33 30.44H103.23V36.68H102.31V31.89L98.4799 36.7401H97.6099V30.44ZM106.72 36.8199C106.432 36.8208 106.146 36.7806 105.87 36.7C105.6 36.6217 105.346 36.4963 105.12 36.3299C104.902 36.1662 104.722 35.9585 104.59 35.72C104.449 35.4595 104.38 35.166 104.39 34.8699V34.8699C104.382 34.5688 104.447 34.2704 104.58 34.0001C104.71 33.7487 104.898 33.5324 105.13 33.3699C105.385 33.1927 105.67 33.0609 105.97 32.98C106.323 32.8939 106.686 32.8501 107.05 32.8499C107.384 32.8514 107.718 32.8748 108.05 32.92C108.343 32.9702 108.634 33.0369 108.92 33.1199V32.89C108.937 32.6561 108.902 32.4215 108.819 32.2022C108.736 31.9829 108.607 31.7843 108.44 31.6199C108.045 31.319 107.555 31.17 107.06 31.2C106.722 31.1943 106.385 31.238 106.06 31.3299C105.753 31.41 105.455 31.5206 105.17 31.66L104.89 30.89C105.228 30.7326 105.579 30.6056 105.94 30.5101C106.338 30.4085 106.749 30.3613 107.16 30.3699C107.89 30.3235 108.609 30.5679 109.16 31.0499C109.383 31.2972 109.554 31.5865 109.664 31.9007C109.774 32.2149 109.82 32.5477 109.8 32.8799V36.69H108.9V35.7501C108.661 36.0538 108.366 36.3084 108.03 36.5001C107.608 36.733 107.131 36.8469 106.65 36.8299L106.72 36.8199ZM106.9 36.0799C107.175 36.084 107.45 36.0401 107.71 35.95C107.953 35.877 108.181 35.7581 108.38 35.5999C108.566 35.46 108.717 35.2785 108.82 35.0699C108.933 34.8613 108.992 34.6274 108.99 34.39V33.7899C108.75 33.7199 108.49 33.6599 108.18 33.5999C107.849 33.5465 107.515 33.5197 107.18 33.5198C106.704 33.4899 106.231 33.6126 105.83 33.8699C105.681 33.9762 105.56 34.1174 105.478 34.2813C105.396 34.4452 105.355 34.6267 105.36 34.8099V34.8099C105.358 34.9903 105.399 35.1685 105.48 35.3299C105.563 35.4862 105.684 35.6201 105.83 35.72C105.978 35.8333 106.149 35.9149 106.33 35.96C106.524 36.0204 106.726 36.0506 106.93 36.0499L106.9 36.0799ZM114.39 32.8799L116.25 30.44H117.25L114.89 33.5001L117.35 36.68H116.27L114.34 34.1099L112.4 36.68H111.4L113.84 33.5101L111.5 30.44H112.56L114.39 32.8799ZM120.87 36.8299C120.435 36.83 120.006 36.7414 119.607 36.5694C119.208 36.3974 118.848 36.1458 118.55 35.8299C118.26 35.5439 118.029 35.2043 117.87 34.8299C117.708 34.4332 117.626 34.0083 117.63 33.5799V33.5799C117.628 33.1484 117.71 32.7206 117.87 32.3199C118.033 31.9474 118.263 31.6083 118.55 31.3199C118.836 31.0253 119.175 30.7878 119.55 30.6199C119.965 30.4457 120.41 30.3572 120.86 30.3599C121.306 30.3572 121.749 30.4457 122.16 30.6199C122.537 30.7842 122.877 31.0222 123.16 31.3199C123.452 31.6036 123.683 31.9438 123.84 32.3199C124.001 32.7133 124.083 33.1348 124.08 33.5599C124.084 33.9894 123.999 34.415 123.83 34.8099C123.511 35.598 122.892 36.2273 122.11 36.5599C121.731 36.7458 121.321 36.8578 120.9 36.89L120.87 36.8299ZM120.87 36.0001C121.191 36.0027 121.508 35.9342 121.8 35.7999C122.07 35.6768 122.314 35.5038 122.52 35.2899C122.724 35.0675 122.887 34.81 123 34.5298C123.11 34.2322 123.164 33.9171 123.16 33.5999V33.5999C123.175 32.962 122.938 32.3438 122.5 31.8799C122.293 31.6563 122.041 31.4791 121.76 31.3599C121.475 31.2269 121.164 31.1587 120.85 31.16C120.541 31.1604 120.236 31.2235 119.952 31.3455C119.668 31.4676 119.413 31.646 119.2 31.8699C118.783 32.3378 118.555 32.9435 118.56 33.5699C118.558 33.892 118.619 34.2115 118.74 34.5101C118.854 34.7926 119.017 35.0529 119.22 35.2798C119.431 35.4918 119.678 35.6645 119.95 35.7899C120.239 35.9218 120.552 35.9902 120.87 35.9901V36.0001ZM130.93 36.68H129.93L127.7 31.5399L125.45 36.68H124.45L127.27 30.39H128.13L130.93 36.68ZM137.81 35.89H138.53V38.3799H137.68V36.72H132.1V38.3799H131.26V35.89H131.97L134.41 30.43H135.41L137.81 35.89ZM132.92 35.89H136.81L134.87 31.3399L132.92 35.89ZM139.42 30.45H140.35V35.2899L144.14 30.45H145.04V36.69H144.12V31.89L140.29 36.7401H139.42V30.45ZM146.67 30.45H147.6V33.1299H151.33V30.45H152.24V36.69H151.33V33.97H147.6V36.69H146.67V30.45ZM153.87 30.45H158.41V31.2798H154.8V36.69H153.81V30.45H153.87Z" fill="white"/>
</svg>
