<svg width="216" height="41" viewBox="0 0 216 41" fill="none" xmlns="http://www.w3.org/2000/svg">
<path d="M0.908287 19.1108C0.869862 19.595 0.854492 20.0868 0.854492 20.5863C0.854492 21.2472 0.885232 21.8928 0.946711 22.5383H17.623C16.9928 21.4547 16.3165 20.2866 15.6326 19.1108H0.908287Z" fill="#009CDE"/>
<path d="M10.9833 13.7158H2.08417C1.67687 14.8148 1.36179 15.9598 1.1543 17.1433H14.4953C14.0726 16.4132 13.6577 15.7062 13.2734 15.0299C12.8046 14.2153 11.9286 13.7158 10.991 13.7158" fill="#009CDE"/>
<path d="M213.181 12.4326V14.0542H213.458V13.4163H213.688C213.842 13.4163 213.949 13.4317 214.011 13.4701C214.118 13.5316 214.172 13.6545 214.172 13.839V14.0157L214.18 14.0311C214.18 14.0311 214.18 14.0388 214.18 14.0465H214.441V14.0234C214.441 14.0234 214.418 13.985 214.418 13.9389C214.418 13.8928 214.418 13.8544 214.418 13.8159V13.7007C214.418 13.6161 214.387 13.5393 214.334 13.4471C214.272 13.3625 214.18 13.3087 214.057 13.2857C214.157 13.2703 214.234 13.2472 214.288 13.2088C214.395 13.1397 214.449 13.0321 214.449 12.8861C214.449 12.6786 214.364 12.5479 214.195 12.4711C214.103 12.4326 213.949 12.4096 213.75 12.4096H213.181V12.4326ZM214.172 12.9322C214.172 13.0551 214.118 13.1397 214.003 13.1858C213.942 13.2088 213.849 13.2242 213.727 13.2242H213.465V12.6401H213.711C213.873 12.6401 213.988 12.6632 214.065 12.7016C214.142 12.74 214.172 12.8169 214.172 12.9398M215.256 13.2549C215.256 12.8476 215.11 12.5018 214.825 12.2175C214.541 11.9331 214.188 11.7871 213.78 11.7871C213.373 11.7871 213.027 11.9331 212.743 12.2175C212.451 12.5018 212.312 12.8553 212.312 13.2549C212.312 13.6545 212.459 14.0157 212.743 14.3001C213.027 14.5921 213.381 14.7304 213.788 14.7304C214.195 14.7304 214.549 14.5844 214.833 14.3001C215.117 14.0157 215.264 13.6622 215.264 13.2549M213.788 11.9869C214.141 11.9869 214.441 12.1099 214.695 12.3635C214.941 12.6094 215.064 12.9091 215.064 13.2626C215.064 13.6161 214.941 13.9158 214.695 14.1694C214.449 14.4154 214.149 14.546 213.788 14.546C213.427 14.546 213.135 14.423 212.881 14.1694C212.635 13.9235 212.512 13.6161 212.512 13.2626C212.512 12.9091 212.635 12.6094 212.881 12.3635C213.127 12.1099 213.435 11.9869 213.78 11.9869" fill="#9D9D9C"/>
<path d="M53.512 11.7798C48.7013 11.7798 46.4727 13.9392 46.4727 18.0276V23.7068C46.4727 27.7875 48.709 29.9469 53.512 29.9469H74.684V26.4042H54.6417C51.8214 26.4042 51.3065 25.4897 51.3065 22.9537V18.7807C51.3065 16.2447 51.8214 15.3302 54.6417 15.3302H74.684V11.7875H53.512V11.7798Z" fill="#009CDE"/>
<path d="M83.0671 22.9533V11.7871H78.2256V23.7064C78.2256 27.7871 80.4619 29.9466 85.265 29.9466H106.437V26.4038H86.387C83.5743 26.4038 83.0594 25.4893 83.0594 22.9533" fill="#009CDE"/>
<path d="M114.867 11.7798H109.987V29.9469H114.867V11.7798Z" fill="#009CDE"/>
<path d="M132.435 26.3265L124.059 11.7559H118.418L129.699 29.9691H135.348L146.629 11.7559H140.989L132.435 26.3265Z" fill="#009CDE"/>
<path d="M172.997 11.7798H169.823H156.512C151.948 11.7798 149.757 13.8163 149.627 17.6587H149.611V23.7068C149.611 27.7875 151.802 29.9469 156.512 29.9469H178.015V26.4042H157.611C154.852 26.4042 154.345 25.4897 154.345 22.9537V22.3696H173.481C175.54 22.3696 178.107 21.9546 178.107 18.3658L178.122 16.7058C178.122 13.9546 177.538 11.7875 173.358 11.7875M154.345 18.7807C154.345 16.2755 154.845 15.3533 157.511 15.3302H171.575C172.313 15.3302 173.896 15.3456 173.896 15.3456C173.896 15.3456 173.896 16.1218 173.896 16.7212C173.896 18.627 172.835 18.8883 170.03 18.8883H154.345V18.7731V18.7807Z" fill="#009CDE"/>
<path d="M181.135 11.7798V15.3302H192.862V29.9469H197.68V15.3302H209.577V11.7798H181.135Z" fill="#009CDE"/>
<path d="M20.6052 40.3283C28.1057 40.3283 34.6302 36.1477 37.9731 29.9844H3.2373C6.58024 36.1477 13.1047 40.3283 20.6052 40.3283Z" fill="#9D9D9C"/>
<path d="M20.6042 0.835938C12.9193 0.835938 6.26414 5.22403 2.99805 11.6256H38.2026C34.9366 5.22403 28.2814 0.835938 20.6042 0.835938Z" fill="#9D9D9C"/>
<path d="M40.2545 22.5383C40.316 21.8928 40.3467 21.2472 40.3467 20.5863C40.3467 20.0868 40.3237 19.6027 40.2929 19.1108H25.5686L23.5859 22.5306H40.2468L40.2545 22.5383Z" fill="#009CDE"/>
<path d="M19.5593 25.858C19.3287 25.4584 19.0597 25.005 18.7754 24.5132H1.24609C1.48433 25.6967 1.83015 26.8417 2.26819 27.933H38.9329C39.371 26.834 39.7168 25.689 39.955 24.5132H22.4411L21.6649 25.858C21.1961 26.665 20.028 26.665 19.5593 25.858Z" fill="#009CDE"/>
<path d="M39.1183 13.7157H30.2192C29.2739 13.7157 28.4055 14.2152 27.9367 15.0298L26.7148 17.1355H40.0482C39.8407 15.952 39.5256 14.807 39.1183 13.708" fill="#009CDE"/>
</svg>
