<svg width="221" height="72" viewBox="0 0 221 72" fill="none" xmlns="http://www.w3.org/2000/svg">
<path fill-rule="evenodd" clip-rule="evenodd" d="M1.59159 2.44142C4.41092 -1.61559 15.9939 -0.125172 31.4905 5.47588C25.909 4.76639 22.0306 5.36912 20.5551 7.49253C15.8885 14.2072 36.9883 33.5682 67.6819 50.7372C79.8295 57.5318 91.6572 62.9632 101.807 66.6318C89.7402 65.0979 69.7049 57.4251 48.7184 45.6866C18.0246 28.5175 -3.07485 9.15607 1.59159 2.44142Z" fill="url(#paint0_linear_49_229)"/>
<path fill-rule="evenodd" clip-rule="evenodd" d="M121.529 52.0867C129.965 59.8566 134.018 66.324 131.698 69.6634C128.878 73.7204 117.295 72.23 101.798 66.6289C107.38 67.3386 111.258 66.7358 112.734 64.6124C114.53 62.0284 112.507 57.5708 107.593 52.0867H121.529Z" fill="url(#paint1_linear_49_229)"/>
<path fill-rule="evenodd" clip-rule="evenodd" d="M31.4813 5.47241C41.0694 6.69146 55.6892 11.7864 71.8193 19.7175H62.6144C51.5238 13.6906 40.7959 8.83906 31.4813 5.47241Z" fill="url(#paint2_linear_49_229)"/>
<path fill-rule="evenodd" clip-rule="evenodd" d="M31.4805 5.47251C30.8266 5.38898 31.157 5.43164 31.4805 5.47251V5.47251Z" fill="url(#paint3_linear_49_229)" fill-opacity="0.360784"/>
<path d="M175.695 16.6343V8.95525H176.558V15.7716H183.364V16.6343H175.695ZM184.663 16.6343V10.457H185.537V16.6343H184.663ZM184.663 8.43327H185.537V9.30656H184.663V8.43327ZM195.783 10.457C196.145 10.457 196.45 10.5828 196.698 10.8351C196.947 11.0872 197.071 11.3907 197.071 11.7456V16.6343H196.209V11.7456C196.209 11.6322 196.166 11.5344 196.081 11.4527C195.996 11.3711 195.896 11.3304 195.783 11.3304H193.216C193.102 11.3304 193.004 11.3713 192.923 11.4527C192.841 11.5346 192.8 11.6322 192.8 11.7456V16.6343H191.916V11.7456C191.916 11.6322 191.875 11.5344 191.794 11.4527C191.712 11.3711 191.615 11.3304 191.501 11.3304H188.924C188.81 11.3304 188.712 11.3713 188.631 11.4527C188.549 11.5346 188.508 11.6322 188.508 11.7456V16.6343H187.624V10.457H195.783H195.783ZM198.743 16.6343V10.457H199.617V16.6343H198.743ZM198.743 8.43327H199.617V9.30656H198.743V8.43327ZM205.24 11.3302H202.567V15.3454C202.567 15.459 202.608 15.5566 202.689 15.6382C202.771 15.7201 202.869 15.7606 202.982 15.7606H205.24V16.6341H202.982C202.62 16.6341 202.315 16.508 202.066 16.2558C201.818 16.0039 201.694 15.7003 201.694 15.3454V8.43311H202.567V10.4568H205.24V11.3302ZM211.758 10.4568C212.121 10.4568 212.428 10.5827 212.68 10.8349C212.932 11.087 213.058 11.3906 213.058 11.7455V13.9822H207.637V15.3454C207.637 15.459 207.678 15.5566 207.759 15.6382C207.841 15.7201 207.938 15.7606 208.052 15.7606H213.058V16.6341H208.052C207.697 16.6341 207.393 16.508 207.141 16.2558C206.889 16.0039 206.763 15.7003 206.763 15.3454V11.7455C206.763 11.3904 206.889 11.087 207.141 10.8349C207.393 10.5828 207.697 10.4568 208.052 10.4568H211.758H211.758ZM207.637 13.1089H212.174V11.7455C212.174 11.632 212.133 11.5343 212.051 11.4525C211.97 11.3709 211.872 11.3302 211.758 11.3302H208.052C207.938 11.3302 207.841 11.3711 207.759 11.4525C207.678 11.5344 207.637 11.632 207.637 11.7455V13.1089H207.637ZM219.981 8.43327H220.854V16.6343H215.859C215.497 16.6343 215.19 16.5082 214.938 16.256C214.686 16.004 214.56 15.7005 214.56 15.3456V11.7456C214.56 11.3906 214.686 11.0872 214.938 10.8351C215.19 10.583 215.497 10.457 215.859 10.457H219.981V8.43327ZM215.859 15.7608H219.565C219.679 15.7608 219.777 15.7201 219.858 15.6384C219.94 15.5566 219.981 15.4592 219.981 15.3456V11.7456C219.981 11.6322 219.94 11.5344 219.858 11.4527C219.777 11.3711 219.679 11.3304 219.565 11.3304H215.859C215.746 11.3304 215.648 11.3713 215.566 11.4527C215.485 11.5346 215.444 11.6322 215.444 11.7456V15.3456C215.444 15.4592 215.485 15.5568 215.566 15.6384C215.648 15.7203 215.746 15.7608 215.859 15.7608Z" fill="white"/>
<path d="M81.6337 28.7605H69.7723C69.6471 28.7605 69.5845 28.8231 69.5845 28.9483V32.9198C69.5845 33.0452 69.6471 33.1078 69.7723 33.1078H81.6337C82.6535 33.1078 83.5301 33.4701 84.2636 34.1946C84.9971 34.9193 85.3638 35.8003 85.3638 36.8379V40.8095C85.3638 41.8473 84.997 42.7284 84.2636 43.453C83.5301 44.1775 82.6535 44.5398 81.6337 44.5398H69.7723C68.7346 44.5398 67.8536 44.1773 67.1289 43.453C66.4487 42.7727 66.0879 41.9542 66.0464 40.998H71.9402V40.9975H81.6337C81.741 40.9975 81.7948 40.9349 81.7948 40.8095V36.8379C81.7948 36.7128 81.741 36.65 81.6337 36.65H69.7723C68.7346 36.65 67.8536 36.2876 67.1289 35.5634C66.4044 34.8387 66.0423 33.9577 66.0423 32.9198V28.9483C66.0423 27.9106 66.4046 27.0296 67.1289 26.3049C67.8536 25.5804 68.7346 25.2183 69.7723 25.2183H81.6337C82.6535 25.2183 83.5301 25.5805 84.2636 26.3049C84.953 26.9859 85.3185 27.805 85.3599 28.7624C84.1178 28.7624 82.8755 28.7605 81.6337 28.7605ZM87.8191 25.2183H107.141V28.7605H99.2776V44.5398H95.7086V28.7605H87.8191V25.2183ZM128.998 28.9751V34.1812C128.998 35.201 128.631 36.0775 127.898 36.8111C127.164 37.5446 126.279 37.9113 125.241 37.9113H124.194L128.998 43.6272V44.5396H125.134L119.552 37.9111H113.299H113.219V44.5396H109.677V25.2449H125.241C126.279 25.2449 127.164 25.6116 127.898 26.3449C128.631 27.0788 128.998 27.9552 128.998 28.975V28.9751ZM113.406 34.369H125.241C125.366 34.369 125.429 34.3064 125.429 34.1812V28.9751C125.429 28.8499 125.366 28.7873 125.241 28.7873H113.406C113.281 28.7873 113.219 28.8499 113.219 28.9751V34.1812C113.219 34.3064 113.281 34.369 113.406 34.369ZM136.176 25.2183H148.011C149.048 25.2183 149.934 25.5805 150.667 26.3049C151.401 27.0296 151.768 27.9106 151.768 28.9483V44.5398H148.199V38.0456H135.989V44.5398H132.446V28.9483C132.446 27.9106 132.809 27.0296 133.533 26.3049C134.258 25.5804 135.139 25.2183 136.176 25.2183H136.176ZM135.988 34.5033H148.198V28.9483C148.198 28.8231 148.136 28.7605 148.011 28.7605H136.176C136.051 28.7605 135.988 28.8231 135.988 28.9483V34.5033H135.988ZM154.411 25.2183H173.732V28.7605H165.869V44.5398H162.3V28.7605H154.411V25.2183ZM191.994 40.8095V25.2183H195.563V40.8095C195.563 41.8473 195.196 42.7284 194.463 43.453C193.729 44.1775 192.853 44.5398 191.833 44.5398H179.971C178.934 44.5398 178.053 44.1773 177.328 43.453C176.604 42.7284 176.241 41.8473 176.241 40.8095V25.2183H179.784V40.8095C179.784 40.9349 179.846 40.9975 179.971 40.9975H191.833C191.94 40.9975 191.994 40.9349 191.994 40.8095ZM209.96 33.5909L216.964 25.2183H220.855V44.5398H217.286V30.3706L209.96 39.0924L202.607 30.3706V44.5398H199.065V25.2183H202.929L209.96 33.5909Z" fill="white"/>
<defs>
<linearGradient id="paint0_linear_49_229" x1="40.5656" y1="-2.77938" x2="44.042" y2="69.3556" gradientUnits="userSpaceOnUse">
<stop stop-color="#16074C"/>
<stop offset="0.490196" stop-color="#A38AC6"/>
<stop offset="1" stop-color="#16074C"/>
</linearGradient>
<linearGradient id="paint1_linear_49_229" x1="110.607" y1="70.4625" x2="115.624" y2="55.5632" gradientUnits="userSpaceOnUse">
<stop stop-color="#16074C"/>
<stop offset="0.509804" stop-color="#A38AC6"/>
<stop offset="1" stop-color="white"/>
</linearGradient>
<linearGradient id="paint2_linear_49_229" x1="31.3963" y1="8.71988" x2="62.2339" y2="19.7134" gradientUnits="userSpaceOnUse">
<stop stop-color="#16074C"/>
<stop offset="0.54902" stop-color="#A38AC6"/>
<stop offset="1" stop-color="white"/>
</linearGradient>
<linearGradient id="paint3_linear_49_229" x1="31.236" y1="5.49998" x2="31.2932" y2="5.38244" gradientUnits="userSpaceOnUse">
<stop stop-color="#C32329"/>
<stop offset="1" stop-color="#FEFEFE"/>
</linearGradient>
</defs>
</svg>
